<?xml version="1.0" encoding="utf-8"?>
<!-- Generator: Adobe Illustrator 16.0.0, SVG Export Plug-In . SVG Version: 6.00 Build 0)  -->
<!DOCTYPE svg PUBLIC "-//W3C//DTD SVG 1.1//EN" "http://www.w3.org/Graphics/SVG/1.1/DTD/svg11.dtd">
<svg version="1.1" id="Layer_1" xmlns="http://www.w3.org/2000/svg" xmlns:xlink="http://www.w3.org/1999/xlink" x="0px" y="0px"
	 width="150px" height="150px" viewBox="0 0 150 150" enable-background="new 0 0 150 150" xml:space="preserve">
<g>
	<g>
		<g>
			<g>
				<g>
					<path fill="#EC7D3E" d="M98.143,61.302l-7.291-8.099l17.017-19.447c0,0-17.421-2.429-23.9,2.023
						C77.484,40.24,71.814,45.1,71.814,45.1s-3.647,9.317-3.245,12.964c0.405,3.644,3.241,13.771,3.241,13.771l-39.701,39.7
						l7.899,7.899"/>
					<path fill="#EC7D3E" d="M97.418,60.575l8.104,7.296l19.444-17.019c0,0,2.431,17.421-2.023,23.905
						c-4.459,6.482-9.316,12.15-9.316,12.15s-9.322,3.65-12.967,3.244c-3.65-0.405-13.773-3.236-13.773-3.236l-39.699,39.698
						l-7.903-7.906"/>
				</g>
			</g>
			<g>
				<path fill="none" stroke="#000000" stroke-width="4.2011" stroke-miterlimit="10" d="M91.646,55.332l-7.291-8.1l17.018-19.448
					c0,0-17.421-2.428-23.9,2.024c-6.485,4.46-12.154,9.321-12.154,9.321s-3.647,9.316-3.245,12.963
					c0.405,3.645,3.241,13.773,3.241,13.773l-39.701,39.699l7.899,7.899"/>
				<path fill="none" stroke="#000000" stroke-width="4.2011" stroke-miterlimit="10" d="M90.921,54.605l8.104,7.295l19.445-17.018
					c0,0,2.431,17.42-2.022,23.905c-4.46,6.481-9.318,12.148-9.318,12.148s-9.321,3.651-12.966,3.245
					c-3.649-0.406-13.773-3.236-13.773-3.236l-39.699,39.698l-7.903-7.907"/>
			</g>
		</g>
		<g>
			<path d="M12.067,90.791c1.012,1.014,1.322,2.347,0.689,2.979l0,0c-0.632,0.633-1.964,0.323-2.979-0.69l-5.759-5.76
				c-1.013-1.014-1.322-2.346-0.69-2.978l0,0c0.633-0.633,1.964-0.325,2.979,0.69L12.067,90.791z"/>
			<path d="M9.777,85.032c1.015-1.015,2.347-1.323,2.979-0.69l0,0c0.632,0.632,0.323,1.964-0.689,2.978l-5.76,5.76
				c-1.014,1.016-2.345,1.323-2.979,0.69l0,0c-0.632-0.632-0.323-1.965,0.69-2.979L9.777,85.032z"/>
		</g>
		<circle fill="none" stroke="#000000" stroke-width="2.5207" stroke-miterlimit="10" cx="143.83" cy="72.384" r="2.901"/>
		<g>
			<path d="M132.676,25.944c1.013,1.014,1.321,2.347,0.689,2.979l0,0c-0.633,0.632-1.964,0.323-2.979-0.69l-5.76-5.759
				c-1.013-1.014-1.322-2.347-0.689-2.979l0,0c0.633-0.632,1.964-0.325,2.979,0.69L132.676,25.944z"/>
			<path d="M130.387,20.185c1.015-1.013,2.346-1.322,2.979-0.69l0,0c0.632,0.632,0.323,1.964-0.689,2.979l-5.76,5.759
				c-1.015,1.015-2.346,1.323-2.979,0.69l0,0c-0.633-0.632-0.323-1.965,0.689-2.979L130.387,20.185z"/>
		</g>
		<g>
			<path d="M57.438,24.599c1.013,1.014,1.322,2.347,0.689,2.979l0,0c-0.632,0.633-1.964,0.323-2.978-0.69l-5.759-5.759
				c-1.014-1.014-1.323-2.347-0.69-2.979l0,0c0.634-0.633,1.964-0.325,2.979,0.69L57.438,24.599z"/>
			<path d="M55.149,18.84c1.014-1.014,2.346-1.323,2.978-0.69l0,0c0.633,0.632,0.324,1.964-0.689,2.979l-5.76,5.759
				c-1.015,1.015-2.345,1.323-2.979,0.69l0,0c-0.632-0.632-0.323-1.964,0.69-2.979L55.149,18.84z"/>
		</g>
		<circle fill="none" stroke="#000000" stroke-width="2.5207" stroke-miterlimit="10" cx="28.34" cy="61.841" r="2.901"/>
		<circle fill="none" stroke="#000000" stroke-width="2.5207" stroke-miterlimit="10" cx="78.293" cy="119.437" r="2.901"/>
		<g>
			<path d="M124.03,103.134c1.014,1.014,1.322,2.347,0.689,2.979l0,0c-0.632,0.633-1.964,0.323-2.978-0.689l-5.76-5.76
				c-1.014-1.015-1.323-2.347-0.69-2.979l0,0c0.634-0.633,1.965-0.324,2.979,0.69L124.03,103.134z"/>
			<path d="M121.742,97.375c1.014-1.014,2.346-1.323,2.978-0.69l0,0c0.633,0.632,0.324,1.964-0.689,2.979l-5.76,5.76
				c-1.014,1.015-2.345,1.322-2.979,0.689l0,0c-0.633-0.632-0.323-1.965,0.69-2.979L121.742,97.375z"/>
		</g>
	</g>
	<circle fill="none" stroke="#000000" stroke-width="2.9067" stroke-miterlimit="10" cx="21.238" cy="126.466" r="2.901"/>
</g>
</svg>
