<svg xmlns="http://www.w3.org/2000/svg" width="44" height="75"><g transform="matrix(1.010278 0 0 1.010278 -24.38602 -0.986803)"><path d="M39.7 63.7C39.3 65.8 41.5 70.1 45.9 70.3 51.2 70.4 54.6 66.4 53 59.7L45.1 23.2C44.1 18.8 44.9 16.5 45.4 15 46.7 11.3 50.1 9.7 50.9 10.9 51.3 11.6 52.5 14.8 49.3 20.6 46.8 25.1 35.1 31 34.2 41.5 33.5 50.6 43.1 57.4 51.3 54.7 56.8 53 59.7 44.6 56.3 40.3 47.3 29 32.9 46.3 46.8 51.1 45.3 49.9 44.3 49 44.1 47.9 42.2 36.9 58.7 39.8 54.3 50.2 52.5 54.5 45.1 55.3 40.9 51.5 37.4 48.3 35.8 42.1 39.7 37.7 45 31.7 51.3 26.3 53 18.1 54.9 8.4 48.5 0.8 44.4 10.4 43.1 13.6 42.6 16.8 43.9 23L51.8 60.3C52.3 63 52 66.7 49.5 68.4 48.2 69.2 43.9 69.8 42.8 67.8" style="fill:black;stroke-width:0.1;stroke:black"/><path d="M48.2 64.6A3.4 3.5 0 1 1 41.4 64.6 3.4 3.5 0 1 1 48.2 64.6z" style="fill:black;stroke-width:0.09;stroke:black"/></g></svg>