<?xml version="1.0" encoding="UTF-8"?>
<svg width="40px" height="56px" viewBox="0 0 40 56" version="1.1" xmlns="http://www.w3.org/2000/svg" xmlns:xlink="http://www.w3.org/1999/xlink">
    <!-- Generator: Sketch 47.1 (45422) - http://www.bohemiancoding.com/sketch -->
    <title>note-up</title>
    <desc>Created with Sketch.</desc>
    <defs></defs>
    <g id="Page-1" stroke="none" stroke-width="1" fill="none" fill-rule="evenodd">
        <g id="note-up" fill-rule="nonzero" fill="#000000">
            <g id="dots" transform="translate(25.000000, 47.500000)">
                <path d="M10.372,2.499997 C10.372,3.739997 11.372,4.739997 12.612,4.739997 C13.852,4.739997 14.852,3.739997 14.852,2.499997 C14.852,1.259997 13.852,0.259997 12.612,0.259997 C11.372,0.259997 10.372,1.259997 10.372,2.499997 Z" id="dot2"></path>
                <path d="M0.372,2.499997 C0.372,3.739997 1.372,4.739997 2.612,4.739997 C3.852,4.739997 4.852,3.739997 4.852,2.499997 C4.852,1.259997 3.852,0.259997 2.612,0.259997 C1.372,0.259997 0.372,1.259997 0.372,2.499997 Z" id="dot1"></path>
            </g>
            <g id="flags" transform="translate(12.500000, 0.000000)">
                <path d="M0.662,44.4400034 L0.662,43.9600034 C0.662,39.4800034 4.062,36.0800034 6.462,32.4000034 C6.582,32.9200034 6.662,33.4800034 6.662,34.0000034 C6.662,37.8000034 3.262,41.6400034 0.662,44.4400034 Z M0.662,52.9600034 C0.662,45.8800034 8.382,41.0800034 8.382,34.0000034 C8.382,32.7600034 8.102,31.5200034 7.622,30.4000034 C8.302,29.0000034 8.782,27.5200034 8.782,25.8800034 C8.782,24.3200034 8.342,22.8000034 7.622,21.4000034 C8.302,20.0000034 8.782,18.5200034 8.782,16.8800034 C8.782,15.5600034 8.222,14.2800034 7.382,13.2400034 C8.342,11.6000034 9.022,9.8400034 9.022,7.8800034 C9.022,5.4400034 8.382,3.0400034 7.342,0.8400034 C7.142,0.5200034 6.862,0.4000034 6.582,0.4000034 C6.062,0.4000034 5.542,0.8400034 5.662,1.4800034 C6.702,3.4800034 7.342,5.6400034 7.342,7.8800034 C7.342,11.6000034 3.542,15.0800034 0.662,17.4800034 L0.662,12.9600034 L0.022,12.9600034 L0.022,52.9600034 L0.662,52.9600034 Z M0.662,35.4400034 L0.662,34.9600034 C0.662,30.4000034 4.182,27.0400034 6.582,23.2800034 C6.902,24.1200034 7.062,24.9600034 7.062,25.8800034 C7.062,29.5600034 3.422,33.0000034 0.662,35.4400034 Z M0.662,26.4800034 L0.662,25.9600034 C0.662,21.5600034 3.982,18.2800034 6.422,14.7200034 C6.822,15.3600034 7.062,16.1200034 7.062,16.8800034 C7.062,20.5600034 3.422,24.0400034 0.662,26.4800034 Z" id="flag-sixty-fourth" transform="translate(5.022000, 26.680003) scale(-1, 1) rotate(-180.000000) translate(-5.022000, -26.680003) "></path>
                <path d="M0.661,34.4400033 L0.661,34.2400033 C0.661,29.8000033 4.101,26.5200033 6.501,22.8800033 C6.621,23.3200033 6.661,23.8000033 6.661,24.2800033 C6.661,28.0000033 3.261,31.7600033 0.661,34.4400033 Z M0.661,42.9600033 C0.661,35.9600033 8.381,31.2800033 8.381,24.2800033 C8.381,23.1200033 8.101,21.9600033 7.621,20.9200033 C8.301,19.5200033 8.781,18.0800033 8.781,16.4800033 C8.781,15.0400033 8.421,13.6000033 7.821,12.2800033 C8.541,10.8800033 9.021,9.4000033 9.021,7.7600033 C9.021,5.3600033 8.381,3.0000033 7.341,0.8400033 C7.141,0.5200033 6.861,0.4000033 6.581,0.4000033 C6.061,0.4000033 5.541,0.8400033 5.661,1.4800033 C6.701,3.4400033 7.341,5.5600033 7.341,7.7600033 C7.341,11.4000033 3.541,14.7600033 0.661,17.0800033 L0.661,12.9600033 L0.021,12.9600033 L0.021,42.9600033 L0.661,42.9600033 Z M0.661,25.7600033 L0.661,25.5600033 C0.661,21.0800033 4.221,17.8000033 6.701,14.1600033 C6.941,14.9200033 7.061,15.6800033 7.061,16.4800033 C7.061,20.0800033 3.421,23.4000033 0.661,25.7600033 Z" id="flag-thirty-second" transform="translate(5.021000, 21.680003) scale(-1, 1) rotate(-180.000000) translate(-5.021000, -21.680003) "></path>
                <path d="M0.662,35.4800031 C0.662,28.3600031 8.782,23.8000031 8.782,16.6800031 C8.782,15.3600031 8.422,14.0800031 7.862,12.8800031 C8.582,11.4000031 9.022,9.8800031 9.022,8.2000031 C9.022,5.6800031 8.382,3.2000031 7.342,0.8800031 C7.142,0.5600031 6.862,0.4000031 6.582,0.4000031 C6.062,0.4000031 5.542,0.8400031 5.662,1.4800031 C6.702,3.5600031 7.342,5.8800031 7.342,8.2000031 C7.342,12.0800031 3.542,15.8400031 0.662,18.4800031 L0.662,15.4800031 L0.022,15.4800031 L0.022,35.4800031 L0.662,35.4800031 Z M6.782,14.8000031 C6.982,15.4000031 7.062,16.0400031 7.062,16.6800031 C7.062,20.5200031 3.422,24.2800031 0.662,26.9600031 C0.662,22.2400031 4.302,18.7200031 6.782,14.8000031 Z" id="flag-sixteenth" transform="translate(5.022000, 17.940003) scale(-1, 1) rotate(-180.000000) translate(-5.022000, -17.940003) "></path>
                <path d="M0.662,30.4800031 C0.662,22.5600031 9.022,17.0800031 9.022,9.1600031 C9.022,6.3200031 8.382,3.5200031 7.342,0.8800031 C7.142,0.5600031 6.862,0.4000031 6.582,0.4000031 C6.062,0.4000031 5.542,0.8400031 5.662,1.4800031 C6.702,3.9200031 7.342,6.5200031 7.342,9.1600031 C7.342,13.3200031 3.542,17.4800031 0.662,20.4800031 L0.022,20.4800031 L0.022,30.4800031 L0.662,30.4800031 Z" id="flag-eighth" transform="translate(5.022000, 15.440003) scale(-1, 1) rotate(-180.000000) translate(-5.022000, -15.440003) "></path>
            </g>
            <rect id="stem" x="11.862" y="-3e-06" width="1.29999995" height="48.122001"></rect>
            <path d="M8.56884077,54.46377 C6.5760871,54.46377 5.81884071,52.7500019 5.81884071,50.9565236 C5.81884071,47.8876829 8.09057989,45.5362336 11.1594205,45.5362336 C13.1521742,45.5362336 13.9094206,47.2500018 13.9094206,49.0434801 C13.9094206,52.1123207 11.6376814,54.46377 8.56884077,54.46377 Z M19.7282613,50.0000018 C19.7282613,48.2862337 18.3333337,46.9710162 16.8188409,46.1340597 C14.7065221,44.9384075 12.3152177,44.5000017 9.88405819,44.5000017 C7.45289871,44.5000017 5.02173924,44.9384075 2.90942035,46.1340597 C1.39492757,46.9710162 0,48.2862337 0,50.0000018 C0,51.71377 1.39492757,53.0289874 2.90942035,53.8659439 C5.02173924,55.0615961 7.45289871,55.5000019 9.88405819,55.5000019 C12.3152177,55.5000019 14.7065221,55.0615961 16.8188409,53.8659439 C18.3333337,53.0289874 19.7282613,51.71377 19.7282613,50.0000018 Z" id="head-whole" transform="translate(9.864131, 50.000002) scale(-1, 1) rotate(-180.000000) translate(-9.864131, -50.000002) "></path>
            <path d="M11.9827094,52.6200019 C11.9827094,53.5800019 11.1838621,54.2600019 10.3850148,54.2600019 C10.2328534,54.2600019 10.080692,54.2600019 9.92853065,54.2200019 C8.74927989,53.8600019 6.99942391,52.6200019 5.59193106,51.6600018 C4.18443821,50.7000018 2.39654188,49.5400018 1.63573494,48.5400018 C1.3694525,48.2200018 1.21729111,47.8200018 1.21729111,47.4200018 C1.21729111,46.4600017 2.01613841,45.7800017 2.8149857,45.7800017 C2.96714709,45.7800017 3.11930848,45.7800017 3.27146987,45.8200017 C4.45072064,46.1800017 6.23861696,47.4200018 7.64610981,48.3800018 C9.05360267,49.3400018 10.841499,50.5000018 11.6023059,51.5000018 C11.8685884,51.8200019 11.9827094,52.2200019 11.9827094,52.6200019 Z M10.0426517,55.5000019 C11.830548,55.5000019 13.2000005,54.6600019 13.2000005,52.6200019 C13.2000005,51.8600019 13.0478391,51.1400018 12.8195971,50.3800018 C12.3631129,48.8600018 11.6023059,47.4200018 10.3469745,46.5400017 C8.29279572,45.1000017 6.04841523,44.5000017 3.19538918,44.5000017 C1.40749285,44.5000017 2.22044605e-16,45.3800017 2.22044605e-16,47.4200018 C2.22044605e-16,48.1800018 0.190201737,48.9000018 0.418443821,49.6600018 C0.874927989,51.1800018 1.59769459,52.6200019 2.85302605,53.5000019 C4.90720481,54.9400019 7.18962565,55.5000019 10.0426517,55.5000019 Z" id="head-half" transform="translate(6.600000, 50.000002) scale(-1, 1) rotate(-180.000000) translate(-6.600000, -50.000002) "></path>
            <path d="M8.8,55.520003 C11.04,55.520003 13.16,54.360003 13.16,51.880003 C13.16,49.000003 10.92,47.040003 9.04,45.920003 C7.6,45.080003 6,44.480003 4.36,44.480003 C2.12,44.480003 0,45.640003 0,48.120003 C0,51.000003 2.24,52.960003 4.12,54.080003 C5.56,54.920003 7.16,55.520003 8.8,55.520003 Z" id="head" transform="translate(6.580000, 50.000003) scale(-1, 1) rotate(-180.000000) translate(-6.580000, -50.000003) "></path>
        </g>
    </g>
</svg>