<?xml version="1.0" encoding="UTF-8" standalone="no"?>
<svg
   xmlns:dc="http://purl.org/dc/elements/1.1/"
   xmlns:cc="http://creativecommons.org/ns#"
   xmlns:rdf="http://www.w3.org/1999/02/22-rdf-syntax-ns#"
   xmlns:svg="http://www.w3.org/2000/svg"
   xmlns="http://www.w3.org/2000/svg"
   xmlns:sodipodi="http://sodipodi.sourceforge.net/DTD/sodipodi-0.dtd"
   xmlns:inkscape="http://www.inkscape.org/namespaces/inkscape"
   version="1.2"
   width="5.4725785mm"
   height="7.120573mm"
   viewBox="0 0 3.1141997 4.0519993"
   id="svg2"
   inkscape:version="0.91 r13725"
   sodipodi:docname="croche doublement pointée.svg">
  <metadata
     id="metadata186">
    <rdf:RDF>
      <cc:Work
         rdf:about="">
        <dc:format>image/svg+xml</dc:format>
        <dc:type
           rdf:resource="http://purl.org/dc/dcmitype/StillImage" />
        <dc:title></dc:title>
        <cc:license
           rdf:resource="https://creativecommons.org/publicdomain/mark/1.0/" />
      </cc:Work>
      <cc:License
         rdf:about="http://creativecommons.org/publicdomain/zero/1.0/">
        <cc:permits
           rdf:resource="http://creativecommons.org/ns#Reproduction" />
        <cc:permits
           rdf:resource="http://creativecommons.org/ns#Distribution" />
        <cc:permits
           rdf:resource="http://creativecommons.org/ns#DerivativeWorks" />
      </cc:License>
    </rdf:RDF>
  </metadata>
  <defs
     id="defs184" />
  <sodipodi:namedview
     pagecolor="#ffffff"
     bordercolor="#666666"
     borderopacity="1"
     objecttolerance="10"
     gridtolerance="10"
     guidetolerance="10"
     inkscape:pageopacity="0"
     inkscape:pageshadow="2"
     inkscape:window-width="1920"
     inkscape:window-height="1018"
     id="namedview182"
     showgrid="false"
     fit-margin-top="0"
     fit-margin-left="0"
     fit-margin-right="0"
     fit-margin-bottom="0"
     inkscape:zoom="1.2685914"
     inkscape:cx="339.04377"
     inkscape:cy="-27.441168"
     inkscape:window-x="-8"
     inkscape:window-y="-8"
     inkscape:window-maximized="1"
     inkscape:current-layer="svg2" />
  <!-- Page: 1/1 -->
  <a
     id="a162"
     transform="translate(-41.1854,-6.2933006)">
    <path
       transform="matrix(0.004,0,0,-0.004,41.1854,6.8453)"
       d="m 220,138 c 56,0 109,-29 109,-91 0,-72 -56,-121 -103,-149 -36,-21 -76,-36 -117,-36 -56,0 -109,29 -109,91 0,72 56,121 103,149 36,21 76,36 117,36 z"
       id="path164"
       inkscape:connector-curvature="0"
       style="fill:currentColor" />
  </a>
  <path
     transform="matrix(0.004,0,0,-0.004,2.6662,0.55199939)"
     d="M 0,0 C 0,31 25,56 56,56 87,56 112,31 112,0 112,-31 87,-56 56,-56 25,-56 0,-31 0,0 Z"
     id="path166"
     inkscape:connector-curvature="0"
     style="fill:currentColor" />
  <path
     transform="matrix(0.004,0,0,-0.004,1.7662,0.55199939)"
     d="M 0,0 C 0,31 25,56 56,56 87,56 112,31 112,0 112,-31 87,-56 56,-56 25,-56 0,-31 0,0 Z"
     id="path168"
     inkscape:connector-curvature="0"
     style="fill:currentColor" />
  <rect
     transform="translate(0.065,1.0519994)"
     x="-0.064999998"
     y="-0.31220001"
     width="0.13"
     height="3.3122001"
     ry="0.039999999"
     id="rect170"
     style="fill:currentColor" />
  <path
     transform="matrix(0.004,0,0,-0.004,0.13,4.0119994)"
     d="m 0,0 -16,0 0,250 16,0 c 98,58 227,148 227,259 0,57 -16,112 -41,163 -3,16 10,27 23,27 7,0 15,-3 20,-11 25,-56 40,-117 40,-179 C 269,305 0,204 0,0 Z"
     id="path172"
     inkscape:connector-curvature="0"
     style="fill:currentColor" />
</svg>
