<?xml version="1.0" standalone="no"?>
<!DOCTYPE svg PUBLIC "-//W3C//DTD SVG 1.1//EN" "http://www.w3.org/Graphics/SVG/1.1/DTD/svg11.dtd" >
<svg xmlns="http://www.w3.org/2000/svg" xmlns:xlink="http://www.w3.org/1999/xlink" version="1.1">
<metadata>
Created by FontForge 20170731 at Tue Mar 27 19:26:25 2018
 By Aleksey,,,
Copyright (c) 2014, Philip Rothman Music &#38; Consulting DBA NYC Music Services (http://www.nycmusicservices.com/), with Reserved Font Name "Norfolk".
</metadata>
<defs>
<font id="NorfolkStd" horiz-adv-x="332" >
  <font-face 
    font-family="Norfolk Std"
    font-weight="400"
    font-stretch="normal"
    units-per-em="1000"
    panose-1="0 0 0 0 0 0 0 0 0 0"
    ascent="800"
    descent="-200"
    x-height="121"
    cap-height="136"
    bbox="-36 -940 1011 1098"
    underline-thickness="50"
    underline-position="-150"
    unicode-range="U+0020-F0DE"
  />
<missing-glyph horiz-adv-x="495" 
 />
    <glyph glyph-name=".notdef" horiz-adv-x="495" 
 />
    <glyph glyph-name=".null" horiz-adv-x="0" 
 />
    <glyph glyph-name="nonmarkingreturn" horiz-adv-x="333" 
 />
    <glyph glyph-name="space" unicode=" " horiz-adv-x="127" 
 />
    <glyph glyph-name="space" unicode="&#xf020;" horiz-adv-x="127" 
 />
    <glyph glyph-name="quotedbl" unicode="&#x22;" horiz-adv-x="385" 
d="M28 -1q-6 0 -9 2q-19 6 -19 25q0 4 2 10l168 477q6 19 26 19q4 0 10 -2q18 -7 18 -26q0 -6 -1 -9l-169 -477q-6 -19 -26 -19zM214 18q-6 -19 -26 -19q-6 0 -9 2q-19 6 -19 26q0 6 1 9l169 477q6 19 26 19q4 0 10 -2q18 -7 18 -26q0 -6 -1 -9z" />
    <glyph glyph-name="quotedbl" unicode="&#xf022;" horiz-adv-x="385" 
d="M28 -1q-6 0 -9 2q-19 6 -19 25q0 4 2 10l168 477q6 19 26 19q4 0 10 -2q18 -7 18 -26q0 -6 -1 -9l-169 -477q-6 -19 -26 -19zM214 18q-6 -19 -26 -19q-6 0 -9 2q-19 6 -19 26q0 6 1 9l169 477q6 19 26 19q4 0 10 -2q18 -7 18 -26q0 -6 -1 -9z" />
    <glyph glyph-name="numbersign" unicode="#" horiz-adv-x="249" 
d="M237 118q-18 -7 -26 -10q-5 -2 -9 -12t-4 -17v-93q0 -18 13 -18l26 10q2 1 5 1q7 0 7 -8v-71q0 -12 -12 -17q-21 -8 -28 -11q-11 -5 -11 -23v-142q0 -11 -17 -11q-13 0 -13 11v125q0 5 -4 11.5t-9 6.5q-1 0 -2 -0.5t-2 -0.5l-61 -25q-10 -4 -10 -22v-139q0 -11 -17 -11
q-13 0 -13 11v123q0 5 -3.5 10.5t-8.5 5.5q-2 0 -3 -1l-23 -9h-2l-2 -1q-8 0 -8 9v71q0 13 12 16q21 9 27 11q11 6 11 23v99q0 6 -4 12t-9 6h-1l-2 -1l-22 -10l-2 -1h-2q-8 0 -8 9v71q0 13 12 16q20 8 26 11q12 6 12 27v41v94q0 11 16 11q14 0 14 -11v-120q0 -20 12 -20
q34 8 63 25q11 7 13 29v130q0 11 16 11q14 0 14 -11v-122q0 -13 14 -13l25 9q2 1 5 1q7 0 7 -8v-71q0 -12 -12 -17zM168 -45q4 18 4 64q0 47 -4 57q-3 6 -15 6q-20 0 -46 -13t-27 -25q-3 -12 -3 -74q0 -44 3 -50q2 -5 12 -5q19 0 45.5 13t30.5 27z" />
    <glyph glyph-name="numbersign" unicode="&#xf023;" horiz-adv-x="249" 
d="M237 118q-18 -7 -26 -10q-5 -2 -9 -12t-4 -17v-93q0 -18 13 -18l26 10q2 1 5 1q7 0 7 -8v-71q0 -12 -12 -17q-21 -8 -28 -11q-11 -5 -11 -23v-142q0 -11 -17 -11q-13 0 -13 11v125q0 5 -4 11.5t-9 6.5q-1 0 -2 -0.5t-2 -0.5l-61 -25q-10 -4 -10 -22v-139q0 -11 -17 -11
q-13 0 -13 11v123q0 5 -3.5 10.5t-8.5 5.5q-2 0 -3 -1l-23 -9h-2l-2 -1q-8 0 -8 9v71q0 13 12 16q21 9 27 11q11 6 11 23v99q0 6 -4 12t-9 6h-1l-2 -1l-22 -10l-2 -1h-2q-8 0 -8 9v71q0 13 12 16q20 8 26 11q12 6 12 27v41v94q0 11 16 11q14 0 14 -11v-120q0 -20 12 -20
q34 8 63 25q11 7 13 29v130q0 11 16 11q14 0 14 -11v-122q0 -13 14 -13l25 9q2 1 5 1q7 0 7 -8v-71q0 -12 -12 -17zM168 -45q4 18 4 64q0 47 -4 57q-3 6 -15 6q-20 0 -46 -13t-27 -25q-3 -12 -3 -74q0 -44 3 -50q2 -5 12 -5q19 0 45.5 13t30.5 27z" />
    <glyph glyph-name="percent" unicode="%" horiz-adv-x="551" 
d="M415 466q0 24 17 40.5t40 16.5q24 0 40.5 -16.5t16.5 -40.5q0 -23 -16.5 -40t-40.5 -17q-23 0 -40 17t-17 40zM140 264q0 -24 -16.5 -40.5t-40.5 -16.5q-23 0 -40 16.5t-17 40.5q0 23 17 40t40 17q24 0 40.5 -17t16.5 -40zM135 665h-6q-54 -9 -54 -62q0 -27 14 -53
q16 -28 85 -61.5t101 -44.5q6 -3 10 -3t9 8l165 296q8 14 25 14q7 0 13 -3q15 -8 15 -25q0 -7 -4 -14q-155 -279 -160 -287q-2 -4 -2 -6q0 -6 17 -16q11 -6 33 -20.5t57 -42t62.5 -66t32.5 -76.5q2 -20 2 -29q0 -61 -36 -107.5t-97 -67.5q-21 -7 -42 -7q-47 0 -80.5 32
t-39.5 69q-1 5 -1 13q0 48 71 65q8 2 12 2q21 0 37 -19t16 -47v-11q0 -22 10.5 -33.5t25.5 -11.5q1 0 3.5 0.5t3.5 0.5q25 4 40.5 22.5t15.5 47.5q0 33 -30.5 63.5t-72.5 50t-71.5 30.5t-40.5 13q-2 0 -5 -1.5l-5 -2.5l-2 -1l-158 -286q-8 -15 -25 -15q-7 0 -14 4
q-14 8 -14 25q0 7 3 13q144 259 151 273q6 10 6 16q0 5 -6 8q-8 3 -44 27t-81.5 64.5t-59.5 73.5q-16 36 -16 74q0 72 47.5 128.5t101.5 56.5q44 0 83.5 -15.5t50.5 -47.5q8 -26 8 -47q0 -48 -40 -62q-14 -5 -29 -5q-51 0 -73 86l-2 7q-4 13 -16 13z" />
    <glyph glyph-name="percent" unicode="&#xf025;" horiz-adv-x="551" 
d="M415 466q0 24 17 40.5t40 16.5q24 0 40.5 -16.5t16.5 -40.5q0 -23 -16.5 -40t-40.5 -17q-23 0 -40 17t-17 40zM140 264q0 -24 -16.5 -40.5t-40.5 -16.5q-23 0 -40 16.5t-17 40.5q0 23 17 40t40 17q24 0 40.5 -17t16.5 -40zM135 665h-6q-54 -9 -54 -62q0 -27 14 -53
q16 -28 85 -61.5t101 -44.5q6 -3 10 -3t9 8l165 296q8 14 25 14q7 0 13 -3q15 -8 15 -25q0 -7 -4 -14q-155 -279 -160 -287q-2 -4 -2 -6q0 -6 17 -16q11 -6 33 -20.5t57 -42t62.5 -66t32.5 -76.5q2 -20 2 -29q0 -61 -36 -107.5t-97 -67.5q-21 -7 -42 -7q-47 0 -80.5 32
t-39.5 69q-1 5 -1 13q0 48 71 65q8 2 12 2q21 0 37 -19t16 -47v-11q0 -22 10.5 -33.5t25.5 -11.5q1 0 3.5 0.5t3.5 0.5q25 4 40.5 22.5t15.5 47.5q0 33 -30.5 63.5t-72.5 50t-71.5 30.5t-40.5 13q-2 0 -5 -1.5l-5 -2.5l-2 -1l-158 -286q-8 -15 -25 -15q-7 0 -14 4
q-14 8 -14 25q0 7 3 13q144 259 151 273q6 10 6 16q0 5 -6 8q-8 3 -44 27t-81.5 64.5t-59.5 73.5q-16 36 -16 74q0 72 47.5 128.5t101.5 56.5q44 0 83.5 -15.5t50.5 -47.5q8 -26 8 -47q0 -48 -40 -62q-14 -5 -29 -5q-51 0 -73 86l-2 7q-4 13 -16 13z" />
    <glyph glyph-name="ampersand" unicode="&#x26;" horiz-adv-x="671" 
d="M455 1098q8 0 24 -16t28 -34q65 -95 65 -233q0 -84 -35.5 -169.5t-98.5 -154.5q-27 -30 -56 -57q-8 -8 -6 -19l25 -145q3 -17 7 -18q-1 0 22 0q107 0 174 -71t67 -170q0 -83 -45 -145t-123 -93q-1 -1 -4 -2q-10 -4 -10 -8q0 -2 1 -7q29 -163 29 -214q0 -48 -14.5 -85.5
t-35.5 -58.5t-49 -34.5t-51.5 -17.5t-46.5 -4q-54 0 -93 16t-59 41.5t-29 52t-9 53.5q0 48 29 81.5t78 33.5q44 0 70 -29.5t26 -72.5q0 -40 -19.5 -63t-47.5 -31q-5 -2 -12 -3.5t-9.5 -2.5t-5.5 -2.5t-4 -3.5t-1 -5q0 -11 21 -20t59 -9q27 0 50.5 5.5t50.5 21.5t42.5 51.5
t15.5 87.5q0 50 -27 201q-1 8 -4 9.5t-11 -0.5q-30 -6 -69 -6q-89 0 -160 28.5t-114.5 76t-66.5 107.5t-23 127q0 146 112 286q62 76 185 178q8 7 9.5 11t-0.5 13q-14 82 -14 164q0 202 98 311q44 48 65 48zM326 394q-94 -76 -153 -142q-93 -105 -93 -232q0 -105 79 -170.5
t209 -65.5q29 0 56 5q12 2 13.5 4t0.5 10l-50 298q-2 8 -5 9.5t-15 -1.5q-46 -13 -73 -44t-27 -73q0 -34 20 -63.5t52 -43.5q15 -6 15 -13q0 -11 -12 -11q-11 0 -27 6q-52 18 -83.5 64.5t-31.5 112.5q0 64 39.5 118t105.5 76q14 5 15.5 7.5t-0.5 16.5l-21 128q-2 8 -4 9
t-10 -5zM441 117q-9 1 -11 -2t0 -12l49 -285q1 -9 4 -10t12 4q43 22 68.5 59t25.5 83q0 65 -43 111.5t-105 51.5zM470 943q-50 0 -91.5 -71t-41.5 -181q0 -53 6 -92q3 -17 13 -8q31 27 63 59q111 111 111 211q0 40 -17 61t-43 21z" />
    <glyph glyph-name="ampersand" unicode="&#xf026;" horiz-adv-x="671" 
d="M455 1098q8 0 24 -16t28 -34q65 -95 65 -233q0 -84 -35.5 -169.5t-98.5 -154.5q-27 -30 -56 -57q-8 -8 -6 -19l25 -145q3 -17 7 -18q-1 0 22 0q107 0 174 -71t67 -170q0 -83 -45 -145t-123 -93q-1 -1 -4 -2q-10 -4 -10 -8q0 -2 1 -7q29 -163 29 -214q0 -48 -14.5 -85.5
t-35.5 -58.5t-49 -34.5t-51.5 -17.5t-46.5 -4q-54 0 -93 16t-59 41.5t-29 52t-9 53.5q0 48 29 81.5t78 33.5q44 0 70 -29.5t26 -72.5q0 -40 -19.5 -63t-47.5 -31q-5 -2 -12 -3.5t-9.5 -2.5t-5.5 -2.5t-4 -3.5t-1 -5q0 -11 21 -20t59 -9q27 0 50.5 5.5t50.5 21.5t42.5 51.5
t15.5 87.5q0 50 -27 201q-1 8 -4 9.5t-11 -0.5q-30 -6 -69 -6q-89 0 -160 28.5t-114.5 76t-66.5 107.5t-23 127q0 146 112 286q62 76 185 178q8 7 9.5 11t-0.5 13q-14 82 -14 164q0 202 98 311q44 48 65 48zM326 394q-94 -76 -153 -142q-93 -105 -93 -232q0 -105 79 -170.5
t209 -65.5q29 0 56 5q12 2 13.5 4t0.5 10l-50 298q-2 8 -5 9.5t-15 -1.5q-46 -13 -73 -44t-27 -73q0 -34 20 -63.5t52 -43.5q15 -6 15 -13q0 -11 -12 -11q-11 0 -27 6q-52 18 -83.5 64.5t-31.5 112.5q0 64 39.5 118t105.5 76q14 5 15.5 7.5t-0.5 16.5l-21 128q-2 8 -4 9
t-10 -5zM441 117q-9 1 -11 -2t0 -12l49 -285q1 -9 4 -10t12 4q43 22 68.5 59t25.5 83q0 65 -43 111.5t-105 51.5zM470 943q-50 0 -91.5 -71t-41.5 -181q0 -53 6 -92q3 -17 13 -8q31 27 63 59q111 111 111 211q0 40 -17 61t-43 21z" />
    <glyph glyph-name="quotesingle" unicode="'" horiz-adv-x="117" 
d="M0 0q17 31 32 120t17 164q0 3 10 3q9 0 9 -3q2 -74 17.5 -163t31.5 -121q0 -3 -2 -3l-9 1q-9 1 -22.5 2t-24.5 1q-8 0 -16.5 -0.5t-15 -1t-12 -1t-9.5 -0.5l-3 -1q-3 0 -3 3z" />
    <glyph glyph-name="quotesingle" unicode="&#xf027;" horiz-adv-x="117" 
d="M0 0q17 31 32 120t17 164q0 3 10 3q9 0 9 -3q2 -74 17.5 -163t31.5 -121q0 -3 -2 -3l-9 1q-9 1 -22.5 2t-24.5 1q-8 0 -16.5 -0.5t-15 -1t-12 -1t-9.5 -0.5l-3 -1q-3 0 -3 3z" />
    <glyph glyph-name="asterisk" unicode="*" horiz-adv-x="442" 
d="M255 289q7 0 24 17q13 13 13 24q-1 4 -1 13q2 38 22 52q11 5 20 7h6q17 0 32.5 -10.5t20.5 -26.5q2 -5 2 -15q0 -8 -1 -12q-2 -11 -8 -19q-10 -15 -29 -18q-3 -1 -10 -1q-4 0 -11 0.5t-10 0.5q-1 0 -4 -0.5t-5 -0.5q-8 -2 -19 -13q-10 -10 -12 -17q-2 -6 -2 -10
q0 -7 4 -11q4 -6 18 -6h9q16 0 23 4q5 4 13.5 14t14.5 14q11 8 25 8q6 0 9 -1q11 -2 19 -7q12 -7 18 -20q5 -9 5 -24q0 -24 -21 -45q-12 -7 -18 -8q-3 -1 -8 -1q-22 0 -44 22q-2 2 -6 6.5t-6.5 6t-8 3.5t-12.5 2h-10q-18 0 -22 -13q-1 -3 -1 -8q0 -12 14 -26q12 -12 19 -13
h28q7 0 11 -1q20 -3 30 -18l8 -19q1 -3 1 -11q0 -6 -2 -16q-5 -16 -20 -27t-32 -11q-1 0 -3.5 0.5t-3.5 0.5q-14 2 -20 7q-22 14 -22 52q0 3 0.5 7t0.5 6q0 11 -15 25q-12 12 -22 12q-6 0 -11 -5q-9 -7 -9 -20v-10q0 -16 4 -22q4 -5 14 -14.5t14 -14.5q8 -11 8 -26
q0 -1 -0.5 -3.5t-0.5 -3.5q-1 -10 -7 -19q-8 -13 -20 -19q-10 -5 -24 -5q-29 0 -44 21q-8 10 -9 19q-1 3 -1 8q0 22 22 44q2 2 5.5 4.5t5 4.5t3.5 5.5t3 8t1 10.5v4q0 15 -6 21q-7 9 -16 9q-3 0 -5 -1q-3 0 -7 -2.5t-8 -5.5l-3 -2q-14 -14 -14 -26q0 -2 0.5 -6t0.5 -7
q0 -37 -22 -52q-6 -5 -20 -7q-1 0 -3.5 -0.5t-3.5 -0.5q-17 0 -32 11t-20 27q-2 5 -2 15q0 8 1 12q1 7 8 19q10 15 29 18h29q7 0 11 1q8 2 19 13q7 5 9 11q3 6 3 14v4q0 12 -8 17q-10 5 -21 5h-4q-8 0 -13.5 -2t-7.5 -3.5t-6 -6t-6 -6.5q-22 -22 -44 -22q-5 0 -8 1
q-9 1 -19 9q-21 15 -21 45q0 14 5 23q8 13 19 20q9 5 19 7q2 0 4 0.5t3 0.5q15 0 26 -8q6 -4 14.5 -14t14.5 -14t23 -4h6q14 0 19 5q6 6 6 17v4q-1 8 -11 16l-7 6q-8 8 -23 10h-28q-7 0 -11 1q-19 3 -29 18q-5 8 -9 19q-1 3 -1 10q0 10 3 17q4 16 19 27t32 11q1 0 3.5 -0.5
t3.5 -0.5q14 -2 20 -7q22 -14 22 -51v-13q0 -13 14 -26q13 -13 31 -13t18 30q0 12 -6 23q-4 5 -13.5 14t-13.5 14q-9 12 -9 27q0 1 0.5 3.5t0.5 3.5q1 7 7 19q7 12 20 18q10 5 25 5q28 0 43 -20q7 -9 9 -19q1 -3 1 -8q0 -22 -22 -44l-6.5 -6.5t-5.5 -6t-2.5 -7.5t-1.5 -15
q0 -31 23 -36zM222 267q-15 0 -25.5 -12t-10.5 -29t10.5 -29t25.5 -12t25.5 12t10.5 29t-10.5 29t-25.5 12z" />
    <glyph glyph-name="asterisk" unicode="&#xf02a;" horiz-adv-x="442" 
d="M255 289q7 0 24 17q13 13 13 24q-1 4 -1 13q2 38 22 52q11 5 20 7h6q17 0 32.5 -10.5t20.5 -26.5q2 -5 2 -15q0 -8 -1 -12q-2 -11 -8 -19q-10 -15 -29 -18q-3 -1 -10 -1q-4 0 -11 0.5t-10 0.5q-1 0 -4 -0.5t-5 -0.5q-8 -2 -19 -13q-10 -10 -12 -17q-2 -6 -2 -10
q0 -7 4 -11q4 -6 18 -6h9q16 0 23 4q5 4 13.5 14t14.5 14q11 8 25 8q6 0 9 -1q11 -2 19 -7q12 -7 18 -20q5 -9 5 -24q0 -24 -21 -45q-12 -7 -18 -8q-3 -1 -8 -1q-22 0 -44 22q-2 2 -6 6.5t-6.5 6t-8 3.5t-12.5 2h-10q-18 0 -22 -13q-1 -3 -1 -8q0 -12 14 -26q12 -12 19 -13
h28q7 0 11 -1q20 -3 30 -18l8 -19q1 -3 1 -11q0 -6 -2 -16q-5 -16 -20 -27t-32 -11q-1 0 -3.5 0.5t-3.5 0.5q-14 2 -20 7q-22 14 -22 52q0 3 0.5 7t0.5 6q0 11 -15 25q-12 12 -22 12q-6 0 -11 -5q-9 -7 -9 -20v-10q0 -16 4 -22q4 -5 14 -14.5t14 -14.5q8 -11 8 -26
q0 -1 -0.5 -3.5t-0.5 -3.5q-1 -10 -7 -19q-8 -13 -20 -19q-10 -5 -24 -5q-29 0 -44 21q-8 10 -9 19q-1 3 -1 8q0 22 22 44q2 2 5.5 4.5t5 4.5t3.5 5.5t3 8t1 10.5v4q0 15 -6 21q-7 9 -16 9q-3 0 -5 -1q-3 0 -7 -2.5t-8 -5.5l-3 -2q-14 -14 -14 -26q0 -2 0.5 -6t0.5 -7
q0 -37 -22 -52q-6 -5 -20 -7q-1 0 -3.5 -0.5t-3.5 -0.5q-17 0 -32 11t-20 27q-2 5 -2 15q0 8 1 12q1 7 8 19q10 15 29 18h29q7 0 11 1q8 2 19 13q7 5 9 11q3 6 3 14v4q0 12 -8 17q-10 5 -21 5h-4q-8 0 -13.5 -2t-7.5 -3.5t-6 -6t-6 -6.5q-22 -22 -44 -22q-5 0 -8 1
q-9 1 -19 9q-21 15 -21 45q0 14 5 23q8 13 19 20q9 5 19 7q2 0 4 0.5t3 0.5q15 0 26 -8q6 -4 14.5 -14t14.5 -14t23 -4h6q14 0 19 5q6 6 6 17v4q-1 8 -11 16l-7 6q-8 8 -23 10h-28q-7 0 -11 1q-19 3 -29 18q-5 8 -9 19q-1 3 -1 10q0 10 3 17q4 16 19 27t32 11q1 0 3.5 -0.5
t3.5 -0.5q14 -2 20 -7q22 -14 22 -51v-13q0 -13 14 -26q13 -13 31 -13t18 30q0 12 -6 23q-4 5 -13.5 14t-13.5 14q-9 12 -9 27q0 1 0.5 3.5t0.5 3.5q1 7 7 19q7 12 20 18q10 5 25 5q28 0 43 -20q7 -9 9 -19q1 -3 1 -8q0 -22 -22 -44l-6.5 -6.5t-5.5 -6t-2.5 -7.5t-1.5 -15
q0 -31 23 -36zM222 267q-15 0 -25.5 -12t-10.5 -29t10.5 -29t25.5 -12t25.5 12t10.5 29t-10.5 29t-25.5 12z" />
    <glyph glyph-name="plus" unicode="+" horiz-adv-x="254" 
d="M248 -17q7 0 7 -7v-24q0 -7 -7 -7h-93q-8 0 -8 -9v-92q0 -8 -7 -8h-24q-7 0 -7 8v93q0 8 -8 8h-93q-8 0 -8 7v24q0 7 8 7h93q8 0 8 9v92q0 7 7 7h24q7 0 7 -7v-92q0 -9 7 -9h94z" />
    <glyph glyph-name="plus" unicode="&#xf02b;" horiz-adv-x="254" 
d="M248 -17q7 0 7 -7v-24q0 -7 -7 -7h-93q-8 0 -8 -9v-92q0 -8 -7 -8h-24q-7 0 -7 8v93q0 8 -8 8h-93q-8 0 -8 7v24q0 7 8 7h93q8 0 8 9v92q0 7 7 7h24q7 0 7 -7v-92q0 -9 7 -9h94z" />
    <glyph glyph-name="comma" unicode="," horiz-adv-x="198" 
d="M92 138q32 0 59 -19q33 -26 33 -71v-9q0 -63 -30 -109q-16 -25 -53 -52.5t-63 -27.5q-6 0 -8 9q0 1 -1 2t-1 2q0 6 10 10l6 5q6 4 13 9t16.5 13.5t16.5 17.5q18 25 18 46q0 7 -2 12q0 3 -1.5 7t-10 11t-20.5 7q-29 0 -47 17.5t-18 47.5q0 31 23 51.5t60 20.5z" />
    <glyph glyph-name="comma" unicode="&#xf02c;" horiz-adv-x="198" 
d="M92 138q32 0 59 -19q33 -26 33 -71v-9q0 -63 -30 -109q-16 -25 -53 -52.5t-63 -27.5q-6 0 -8 9q0 1 -1 2t-1 2q0 6 10 10l6 5q6 4 13 9t16.5 13.5t16.5 17.5q18 25 18 46q0 7 -2 12q0 3 -1.5 7t-10 11t-20.5 7q-29 0 -47 17.5t-18 47.5q0 31 23 51.5t60 20.5z" />
    <glyph glyph-name="hyphen" unicode="-" horiz-adv-x="336" 
d="M314 0h-291q-16 0 -20 6t-4 18q0 8 1 12t6.5 8t16.5 4h291q16 0 20 -6t4 -18t-4 -18t-20 -6z" />
    <glyph glyph-name="hyphen" unicode="&#xf02d;" horiz-adv-x="336" 
d="M314 0h-291q-16 0 -20 6t-4 18q0 8 1 12t6.5 8t16.5 4h291q16 0 20 -6t4 -18t-4 -18t-20 -6z" />
    <glyph glyph-name="period" unicode="." horiz-adv-x="104" 
d="M105 28q0 -17 -12.5 -29.5t-29.5 -12.5t-29.5 12.5t-12.5 29.5t12.5 29.5t29.5 12.5t29.5 -12.5t12.5 -29.5z" />
    <glyph glyph-name="period" unicode="&#xf02e;" horiz-adv-x="104" 
d="M105 28q0 -17 -12.5 -29.5t-29.5 -12.5t-29.5 12.5t-12.5 29.5t12.5 29.5t29.5 12.5t29.5 -12.5t12.5 -29.5z" />
    <glyph glyph-name="slash" unicode="/" horiz-adv-x="382" 
d="M160 6q0 -15 -14 -15h-132q-14 0 -14 15v470q0 15 14 15h132q14 0 14 -15v-470zM382 476v-470q0 -15 -14 -15h-132q-14 0 -14 15v470q0 15 14 15h132q14 0 14 -15z" />
    <glyph glyph-name="slash" unicode="&#xf02f;" horiz-adv-x="382" 
d="M160 6q0 -15 -14 -15h-132q-14 0 -14 15v470q0 15 14 15h132q14 0 14 -15v-470zM382 476v-470q0 -15 -14 -15h-132q-14 0 -14 15v470q0 15 14 15h132q14 0 14 -15z" />
    <glyph glyph-name="zero" unicode="0" horiz-adv-x="419" 
d="M419 -13q0 -101 -61 -172t-148 -71t-148.5 71t-61.5 172q0 102 61.5 173.5t148.5 71.5t148 -71.5t61 -173.5zM210 190q-30 0 -45.5 -53.5t-15.5 -142.5q0 -88 15.5 -140.5t45.5 -52.5q29 0 44.5 52.5t15.5 140.5q0 89 -15.5 142.5t-44.5 53.5z" />
    <glyph glyph-name="zero" unicode="&#xf030;" horiz-adv-x="419" 
d="M419 -13q0 -101 -61 -172t-148 -71t-148.5 71t-61.5 172q0 102 61.5 173.5t148.5 71.5t148 -71.5t61 -173.5zM210 190q-30 0 -45.5 -53.5t-15.5 -142.5q0 -88 15.5 -140.5t45.5 -52.5q29 0 44.5 52.5t15.5 140.5q0 89 -15.5 142.5t-44.5 53.5z" />
    <glyph glyph-name="one" unicode="1" horiz-adv-x="312" 
d="M4 -1l77 214q1 1 2 3.5t1.5 4t1.5 3.5t2 3t2.5 2t3.5 1.5t4 0.5l2 -1h3q22 -3 80 -3q6 0 32 2t33 2q19 -1 19 -22v-394q0 -12 10 -23t21 -11q7 0 10.5 -4.5t3.5 -8.5l1 -5q0 -20 -16 -20h-234q-21 0 -21 20q0 8 5 13t11 5q16 0 29.5 10.5t13.5 26.5v243q0 14 -5 14
q-4 0 -10 -10l-53 -85q-3 -9 -13 -9q-1 0 -9 2q-11 4 -11 13z" />
    <glyph glyph-name="one" unicode="&#xf031;" horiz-adv-x="312" 
d="M4 -1l77 214q1 1 2 3.5t1.5 4t1.5 3.5t2 3t2.5 2t3.5 1.5t4 0.5l2 -1h3q22 -3 80 -3q6 0 32 2t33 2q19 -1 19 -22v-394q0 -12 10 -23t21 -11q7 0 10.5 -4.5t3.5 -8.5l1 -5q0 -20 -16 -20h-234q-21 0 -21 20q0 8 5 13t11 5q16 0 29.5 10.5t13.5 26.5v243q0 14 -5 14
q-4 0 -10 -10l-53 -85q-3 -9 -13 -9q-1 0 -9 2q-11 4 -11 13z" />
    <glyph glyph-name="two" unicode="2" horiz-adv-x="395" 
d="M396 -99q-5 -43 -17 -74t-25.5 -46t-33.5 -23.5t-32.5 -10t-29.5 -1.5q-38 0 -64.5 13t-43.5 26t-32 13q-25 0 -43 -15t-29 -29.5t-19 -14.5q-4 0 -7 2q-18 11 -18 30q0 1 0.5 3t0.5 3q28 99 97 143q65 39 110 100q37 50 37 111q0 21 -8 42q-16 35 -74 35h-9
q-66 -4 -66 -32q0 -7 16.5 -15.5t33.5 -24.5t17 -41q0 -17 -4 -34t-20.5 -34.5t-43.5 -17.5q-53 0 -80 53q-9 22 -9 42q0 40 27 72q36 43 92 54q29 7 85 7q16 0 37 -3t54 -14.5t56 -30.5q45 -38 45 -100q0 -55 -42 -90q-27 -22 -88 -38q-30 -9 -71 -28t-55 -42q38 15 66 15
q10 0 24 -3q30 -7 94 -31q10 -3 16 -3q5 0 8.5 1t6 2t4.5 5l3 6t3.5 8.5t4.5 10.5v1l1 1q3 10 13 10q12 0 12 -13z" />
    <glyph glyph-name="two" unicode="&#xf032;" horiz-adv-x="395" 
d="M396 -99q-5 -43 -17 -74t-25.5 -46t-33.5 -23.5t-32.5 -10t-29.5 -1.5q-38 0 -64.5 13t-43.5 26t-32 13q-25 0 -43 -15t-29 -29.5t-19 -14.5q-4 0 -7 2q-18 11 -18 30q0 1 0.5 3t0.5 3q28 99 97 143q65 39 110 100q37 50 37 111q0 21 -8 42q-16 35 -74 35h-9
q-66 -4 -66 -32q0 -7 16.5 -15.5t33.5 -24.5t17 -41q0 -17 -4 -34t-20.5 -34.5t-43.5 -17.5q-53 0 -80 53q-9 22 -9 42q0 40 27 72q36 43 92 54q29 7 85 7q16 0 37 -3t54 -14.5t56 -30.5q45 -38 45 -100q0 -55 -42 -90q-27 -22 -88 -38q-30 -9 -71 -28t-55 -42q38 15 66 15
q10 0 24 -3q30 -7 94 -31q10 -3 16 -3q5 0 8.5 1t6 2t4.5 5l3 6t3.5 8.5t4.5 10.5v1l1 1q3 10 13 10q12 0 12 -13z" />
    <glyph glyph-name="three" unicode="3" horiz-adv-x="371" 
d="M188 230q19 -1 43 -7.5t53 -19t48 -37t19 -55.5q0 -38 -21 -62q-13 -15 -38 -27q-5 -3 -17 -5t-14 -3q-4 -1 -4 -9q0 -3 1 -5q2 -3 10 -5l32 -9l21 -11q13 -8 23 -21q14 -16 19 -28q6 -13 8 -40v-7q0 -61 -58.5 -98t-136.5 -37h-9q-74 2 -120 33t-47 87q0 41 21 60
q18 20 47 25q4 1 11 1q20 0 38.5 -11t26.5 -29q5 -12 5 -30q-1 -15 -11.5 -34.5t-10.5 -29.5v-5q1 -18 35 -22l6 1h9q21 0 38 23.5t17 82.5q0 9 -3 19.5t-12.5 27t-35.5 27t-65 10.5q-24 0 -24 16q0 8 7.5 14t15.5 7q114 6 114 80v6q0 29 -4 44q-9 38 -53 42h-10
q-15 0 -28 -3q-7 -1 -19.5 -7t-12.5 -11v-4q0 -5 2.5 -8t5.5 -4.5t7 -2.5t5 -1l4 -1l6 -2t7 -4t6.5 -7t5 -10.5t3.5 -15.5v-8q0 -26 -17 -44.5t-47 -18.5h-5q-41 3 -60 26.5t-19 52.5q0 40 53 77.5t115 37.5q2 0 7 -0.5t7 -0.5z" />
    <glyph glyph-name="three" unicode="&#xf033;" horiz-adv-x="371" 
d="M188 230q19 -1 43 -7.5t53 -19t48 -37t19 -55.5q0 -38 -21 -62q-13 -15 -38 -27q-5 -3 -17 -5t-14 -3q-4 -1 -4 -9q0 -3 1 -5q2 -3 10 -5l32 -9l21 -11q13 -8 23 -21q14 -16 19 -28q6 -13 8 -40v-7q0 -61 -58.5 -98t-136.5 -37h-9q-74 2 -120 33t-47 87q0 41 21 60
q18 20 47 25q4 1 11 1q20 0 38.5 -11t26.5 -29q5 -12 5 -30q-1 -15 -11.5 -34.5t-10.5 -29.5v-5q1 -18 35 -22l6 1h9q21 0 38 23.5t17 82.5q0 9 -3 19.5t-12.5 27t-35.5 27t-65 10.5q-24 0 -24 16q0 8 7.5 14t15.5 7q114 6 114 80v6q0 29 -4 44q-9 38 -53 42h-10
q-15 0 -28 -3q-7 -1 -19.5 -7t-12.5 -11v-4q0 -5 2.5 -8t5.5 -4.5t7 -2.5t5 -1l4 -1l6 -2t7 -4t6.5 -7t5 -10.5t3.5 -15.5v-8q0 -26 -17 -44.5t-47 -18.5h-5q-41 3 -60 26.5t-19 52.5q0 40 53 77.5t115 37.5q2 0 7 -0.5t7 -0.5z" />
    <glyph glyph-name="four" unicode="4" horiz-adv-x="431" 
d="M417 -82q15 0 15 -22q0 -23 -15 -23h-59v-53q0 -20 9.5 -28.5t20.5 -8.5q22 0 22 -20t-20 -20h-232q-19 0 -19 20q0 19 23 19q39 0 39 34v57h-181q-9 0 -14.5 6.5t-5.5 14.5q0 4 3 10l1 1v2l6 8q37 52 74.5 135.5t37.5 162.5q0 18 22 18q3 0 37.5 -1t44.5 -1t43 1t36 1
q15 0 15 -14q0 -1 -0.5 -2t-0.5 -2q-2 -6 -47 -64.5t-106.5 -129.5t-96.5 -101h132v78q0 12 9 23l117 112q7 8 19 8t12 -16v-205h59z" />
    <glyph glyph-name="four" unicode="&#xf034;" horiz-adv-x="431" 
d="M417 -82q15 0 15 -22q0 -23 -15 -23h-59v-53q0 -20 9.5 -28.5t20.5 -8.5q22 0 22 -20t-20 -20h-232q-19 0 -19 20q0 19 23 19q39 0 39 34v57h-181q-9 0 -14.5 6.5t-5.5 14.5q0 4 3 10l1 1v2l6 8q37 52 74.5 135.5t37.5 162.5q0 18 22 18q3 0 37.5 -1t44.5 -1t43 1t36 1
q15 0 15 -14q0 -1 -0.5 -2t-0.5 -2q-2 -6 -47 -64.5t-106.5 -129.5t-96.5 -101h132v78q0 12 9 23l117 112q7 8 19 8t12 -16v-205h59z" />
    <glyph glyph-name="five" unicode="5" horiz-adv-x="353" 
d="M193 66q67 0 114 -47t47 -114q0 -69 -48 -114t-133 -45q-89 0 -131 29.5t-42 90.5q0 12 1 18q3 30 21.5 51t55.5 21q32 0 54 -22t22 -54q0 -41 -37 -65q-12 -7 -12 -14q1 -7 12 -14q5 -2 22 -2q21 0 39 33t18 87q0 57 -31 82.5t-64 25.5q-9 0 -16 -1t-12.5 -4t-7.5 -4
t-7 -6l-5 -6l-5 -5t-3.5 -4t-2.5 -2t-3.5 -1h-4.5q-19 0 -19 15v2l10 217q2 16 24 16q85 -10 131 -10q18 0 67 4.5t53 4.5q14 0 14 -20q0 -6 -3 -17.5t-12 -27.5t-23 -29.5t-39 -23.5t-56 -10q-40 0 -95 11h-4q-13 0 -15 -13l-5 -50v-4q0 -7 4 -7q3 0 5 1q44 27 122 27z" />
    <glyph glyph-name="five" unicode="&#xf035;" horiz-adv-x="353" 
d="M193 66q67 0 114 -47t47 -114q0 -69 -48 -114t-133 -45q-89 0 -131 29.5t-42 90.5q0 12 1 18q3 30 21.5 51t55.5 21q32 0 54 -22t22 -54q0 -41 -37 -65q-12 -7 -12 -14q1 -7 12 -14q5 -2 22 -2q21 0 39 33t18 87q0 57 -31 82.5t-64 25.5q-9 0 -16 -1t-12.5 -4t-7.5 -4
t-7 -6l-5 -6l-5 -5t-3.5 -4t-2.5 -2t-3.5 -1h-4.5q-19 0 -19 15v2l10 217q2 16 24 16q85 -10 131 -10q18 0 67 4.5t53 4.5q14 0 14 -20q0 -6 -3 -17.5t-12 -27.5t-23 -29.5t-39 -23.5t-56 -10q-40 0 -95 11h-4q-13 0 -15 -13l-5 -50v-4q0 -7 4 -7q3 0 5 1q44 27 122 27z" />
    <glyph glyph-name="six" unicode="6" horiz-adv-x="384" 
d="M234 71l-4 4q-15 17 -15 40q0 15 7 28q2 4 13.5 16.5t11.5 20.5q0 15 -33 15q-69 0 -69 -165q0 -25 10 -25q4 0 6 2q32 28 76 28q48 0 87 -30q54 -40 60 -98v-13q0 -71 -56 -115q-44 -35 -128 -35q-50 0 -78 13q-54 24 -92 94q-28 52 -30 134v4q0 65 38 139
q26 48 73.5 75t104.5 28q47 0 77 -13q22 -8 40 -31.5t22 -47.5q1 -4 1 -10q0 -23 -16 -44t-38 -27q-12 -3 -24 -3q-28 0 -44 16zM197 -24q-23 0 -37.5 -26t-14.5 -71t14.5 -73t37.5 -28t38 28t15 73q0 44 -14.5 70.5t-38.5 26.5z" />
    <glyph glyph-name="six" unicode="&#xf036;" horiz-adv-x="384" 
d="M234 71l-4 4q-15 17 -15 40q0 15 7 28q2 4 13.5 16.5t11.5 20.5q0 15 -33 15q-69 0 -69 -165q0 -25 10 -25q4 0 6 2q32 28 76 28q48 0 87 -30q54 -40 60 -98v-13q0 -71 -56 -115q-44 -35 -128 -35q-50 0 -78 13q-54 24 -92 94q-28 52 -30 134v4q0 65 38 139
q26 48 73.5 75t104.5 28q47 0 77 -13q22 -8 40 -31.5t22 -47.5q1 -4 1 -10q0 -23 -16 -44t-38 -27q-12 -3 -24 -3q-28 0 -44 16zM197 -24q-23 0 -37.5 -26t-14.5 -71t14.5 -73t37.5 -28t38 28t15 73q0 44 -14.5 70.5t-38.5 26.5z" />
    <glyph glyph-name="seven" unicode="7" horiz-adv-x="390" 
d="M275 -220q0 -36 -16 -36q-3 0 -34.5 4t-45.5 4q-13 0 -43 -4t-38 -4q-13 0 -16 6t-3 24q0 59 67 137q22 26 58.5 61t56 56.5t19.5 33.5q-2 9 -7 9q-3 0 -9 -4q-27 -20 -64 -20q-24 0 -43 18.5t-34 36.5t-31 18q-12 0 -22 -9t-13.5 -16.5t-10.5 -23.5q-1 -2 -4.5 -17.5
t-8.5 -24.5t-14 -9q-19 0 -19 15v161q0 12 17 12q7 0 11 -7q0 -2 1 -3q11 -21 18 -21q8 1 26 18l7 7t9 8l10.5 7t14.5 7t18.5 4t25.5 2q35 0 67.5 -14t54 -28.5t29.5 -14.5q4 0 8.5 1.5t7.5 3t7 5t6 6t5 7t4.5 6.5t4 6.5t2.5 5.5q2 3 7 6t8.5 4t4.5 1q12 0 14.5 -8t2.5 -31
v-4q0 -40 -29 -107t-58 -146t-29 -149z" />
    <glyph glyph-name="seven" unicode="&#xf037;" horiz-adv-x="390" 
d="M275 -220q0 -36 -16 -36q-3 0 -34.5 4t-45.5 4q-13 0 -43 -4t-38 -4q-13 0 -16 6t-3 24q0 59 67 137q22 26 58.5 61t56 56.5t19.5 33.5q-2 9 -7 9q-3 0 -9 -4q-27 -20 -64 -20q-24 0 -43 18.5t-34 36.5t-31 18q-12 0 -22 -9t-13.5 -16.5t-10.5 -23.5q-1 -2 -4.5 -17.5
t-8.5 -24.5t-14 -9q-19 0 -19 15v161q0 12 17 12q7 0 11 -7q0 -2 1 -3q11 -21 18 -21q8 1 26 18l7 7t9 8l10.5 7t14.5 7t18.5 4t25.5 2q35 0 67.5 -14t54 -28.5t29.5 -14.5q4 0 8.5 1.5t7.5 3t7 5t6 6t5 7t4.5 6.5t4 6.5t2.5 5.5q2 3 7 6t8.5 4t4.5 1q12 0 14.5 -8t2.5 -31
v-4q0 -40 -29 -107t-58 -146t-29 -149z" />
    <glyph glyph-name="eight" unicode="8" horiz-adv-x="386" 
d="M306 22q80 -40 80 -114q0 -91 -58.5 -132t-143.5 -41q-78 0 -131 32t-53 92q0 76 90 118q-85 47 -85 129q0 61 52.5 97.5t137.5 36.5q15 0 38.5 -4.5t55.5 -15t54 -35.5t22 -59q0 -67 -59 -104zM173 -225q53 0 74 17t21 55q0 18 -5.5 31t-19 22.5t-24.5 15t-36.5 15
t-39.5 15.5q-33 -13 -55 -38t-22 -53q0 -80 107 -80zM240 53q52 31 52 83q0 25 -19.5 41t-39.5 20.5t-40 4.5q-94 0 -94 -52q0 -15 6 -27t12.5 -19t23.5 -15t27 -12t35 -12t37 -12z" />
    <glyph glyph-name="eight" unicode="&#xf038;" horiz-adv-x="386" 
d="M306 22q80 -40 80 -114q0 -91 -58.5 -132t-143.5 -41q-78 0 -131 32t-53 92q0 76 90 118q-85 47 -85 129q0 61 52.5 97.5t137.5 36.5q15 0 38.5 -4.5t55.5 -15t54 -35.5t22 -59q0 -67 -59 -104zM173 -225q53 0 74 17t21 55q0 18 -5.5 31t-19 22.5t-24.5 15t-36.5 15
t-39.5 15.5q-33 -13 -55 -38t-22 -53q0 -80 107 -80zM240 53q52 31 52 83q0 25 -19.5 41t-39.5 20.5t-40 4.5q-94 0 -94 -52q0 -15 6 -27t12.5 -19t23.5 -15t27 -12t35 -12t37 -12z" />
    <glyph glyph-name="nine" unicode="9" horiz-adv-x="384" 
d="M150 -96l1 -1q1 0 2 -0.5t1 -1.5q15 -17 15 -40q0 -16 -7 -29q-2 -4 -13.5 -16.5t-11.5 -20.5q0 -14 33 -14q69 0 69 163q0 27 -10 27q-4 0 -6 -2q-33 -29 -76 -29q-48 0 -87 30q-53 40 -59 97q0 3 -0.5 7t-0.5 7q0 70 57 115q44 35 127 35q47 0 78 -14q55 -25 92 -93
q28 -52 30 -135v-4q0 -64 -38 -138q-26 -48 -73.5 -75t-104.5 -28q-49 0 -77 12q-22 8 -40 32t-22 48q-1 4 -1 11q0 23 15.5 43.5t38.5 26.5q16 4 24 4q27 0 44 -17zM187 0q24 0 38 25.5t14 70.5t-14.5 73t-37.5 28t-37.5 -28t-14.5 -73t14 -70.5t38 -25.5z" />
    <glyph glyph-name="nine" unicode="&#xf039;" horiz-adv-x="384" 
d="M150 -96l1 -1q1 0 2 -0.5t1 -1.5q15 -17 15 -40q0 -16 -7 -29q-2 -4 -13.5 -16.5t-11.5 -20.5q0 -14 33 -14q69 0 69 163q0 27 -10 27q-4 0 -6 -2q-33 -29 -76 -29q-48 0 -87 30q-53 40 -59 97q0 3 -0.5 7t-0.5 7q0 70 57 115q44 35 127 35q47 0 78 -14q55 -25 92 -93
q28 -52 30 -135v-4q0 -64 -38 -138q-26 -48 -73.5 -75t-104.5 -28q-49 0 -77 12q-22 8 -40 32t-22 48q-1 4 -1 11q0 23 15.5 43.5t38.5 26.5q16 4 24 4q27 0 44 -17zM187 0q24 0 38 25.5t14 70.5t-14.5 73t-37.5 28t-37.5 -28t-14.5 -73t14 -70.5t38 -25.5z" />
    <glyph glyph-name="greater" unicode="&#x3e;" horiz-adv-x="339" 
d="M20 2q-1 -1 -4 -1q-8 0 -14 15q-2 6 -2 9q0 9 14 15q214 73 225 76q8 3 8 7q0 6 -7 7l-226 77q-14 5 -14 14q0 2 2 10q5 14 15 14q1 0 9 -2l300 -102q13 -4 13 -18q0 -15 -13 -18q-303 -102 -306 -103z" />
    <glyph glyph-name="greater" unicode="&#xf03e;" horiz-adv-x="339" 
d="M20 2q-1 -1 -4 -1q-8 0 -14 15q-2 6 -2 9q0 9 14 15q214 73 225 76q8 3 8 7q0 6 -7 7l-226 77q-14 5 -14 14q0 2 2 10q5 14 15 14q1 0 9 -2l300 -102q13 -4 13 -18q0 -15 -13 -18q-303 -102 -306 -103z" />
    <glyph glyph-name="question" unicode="?" horiz-adv-x="684" 
d="M252 262q129 0 204 -79t75 -211q0 -197 -139 -347q-129 -139 -367 -255q-10 -5 -17 -5q-13 0 -13 12q0 10 15 18q200 115 287 249q84 130 84 319q0 123 -37.5 192t-114.5 69q-70 0 -116 -38.5t-46 -74.5q0 -18 16 -18q5 0 20 3.5t30 3.5q39 0 67.5 -29t28.5 -75
q0 -47 -29.5 -76.5t-76.5 -29.5q-58 0 -90.5 43t-32.5 106q0 38 15.5 76t45 71.5t79.5 54.5t112 21zM630 -71q23 0 38.5 -15.5t15.5 -38.5t-15.5 -38.5t-38.5 -15.5t-38.5 15.5t-15.5 38.5t15.5 38.5t38.5 15.5zM629 180q23 0 39 -16t16 -39t-16 -39t-39 -16t-39 16t-16 39
t16 39t39 16z" />
    <glyph glyph-name="question" unicode="&#xf03f;" horiz-adv-x="684" 
d="M252 262q129 0 204 -79t75 -211q0 -197 -139 -347q-129 -139 -367 -255q-10 -5 -17 -5q-13 0 -13 12q0 10 15 18q200 115 287 249q84 130 84 319q0 123 -37.5 192t-114.5 69q-70 0 -116 -38.5t-46 -74.5q0 -18 16 -18q5 0 20 3.5t30 3.5q39 0 67.5 -29t28.5 -75
q0 -47 -29.5 -76.5t-76.5 -29.5q-58 0 -90.5 43t-32.5 106q0 38 15.5 76t45 71.5t79.5 54.5t112 21zM630 -71q23 0 38.5 -15.5t15.5 -38.5t-15.5 -38.5t-38.5 -15.5t-38.5 15.5t-15.5 38.5t15.5 38.5t38.5 15.5zM629 180q23 0 39 -16t16 -39t-16 -39t-39 -16t-39 16t-16 39
t16 39t39 16z" />
    <glyph glyph-name="B" unicode="B" horiz-adv-x="699" 
d="M463 506q114 0 175 -66t61 -153q0 -105 -55.5 -169.5t-153.5 -64.5q-32 0 -61 9q-19 6 -29 -1q-11 -7 -23.5 -27t-12.5 -34t12.5 -34t23.5 -27q10 -7 29 -1q29 9 61 9q98 0 153.5 -64.5t55.5 -169.5q0 -87 -61 -153t-175 -66q-84 0 -129 37t-45 89q0 38 21.5 60t55.5 22
q30 0 49 -18.5t19 -50.5q0 -51 -40 -65q-2 -1 -11 -3t-12.5 -4.5t-3.5 -7.5q0 -11 27 -19q26 -8 58 -8q60 0 83 44t23 146q0 103 -18 149t-65 46q-48 0 -71.5 -25.5t-35.5 -67.5q-8 -27 -21 -27q-14 0 -19 25q-24 128 -89 146q-9 2 -9 -6v-438q0 -21 -21 -21h-1
q-21 0 -21 21v964q0 21 21 21h1q21 0 21 -21v-438q0 -8 9 -6q65 18 89 146q5 25 19 25q13 0 21 -27q12 -42 35.5 -67.5t71.5 -25.5q47 0 65 46t18 149q0 102 -23 146t-83 44q-32 0 -58 -8q-27 -8 -27 -19q0 -5 3.5 -7.5t12.5 -4.5t11 -3q40 -14 40 -65q0 -32 -19 -50.5
t-49 -18.5q-34 0 -55.5 22t-21.5 60q0 52 45 89t129 37zM21 503h86q21 0 21 -21v-964q0 -21 -21 -21h-86q-21 0 -21 21v964q0 21 21 21z" />
    <glyph glyph-name="B" unicode="&#xf042;" horiz-adv-x="699" 
d="M463 506q114 0 175 -66t61 -153q0 -105 -55.5 -169.5t-153.5 -64.5q-32 0 -61 9q-19 6 -29 -1q-11 -7 -23.5 -27t-12.5 -34t12.5 -34t23.5 -27q10 -7 29 -1q29 9 61 9q98 0 153.5 -64.5t55.5 -169.5q0 -87 -61 -153t-175 -66q-84 0 -129 37t-45 89q0 38 21.5 60t55.5 22
q30 0 49 -18.5t19 -50.5q0 -51 -40 -65q-2 -1 -11 -3t-12.5 -4.5t-3.5 -7.5q0 -11 27 -19q26 -8 58 -8q60 0 83 44t23 146q0 103 -18 149t-65 46q-48 0 -71.5 -25.5t-35.5 -67.5q-8 -27 -21 -27q-14 0 -19 25q-24 128 -89 146q-9 2 -9 -6v-438q0 -21 -21 -21h-1
q-21 0 -21 21v964q0 21 21 21h1q21 0 21 -21v-438q0 -8 9 -6q65 18 89 146q5 25 19 25q13 0 21 -27q12 -42 35.5 -67.5t71.5 -25.5q47 0 65 46t18 149q0 102 -23 146t-83 44q-32 0 -58 -8q-27 -8 -27 -19q0 -5 3.5 -7.5t12.5 -4.5t11 -3q40 -14 40 -65q0 -32 -19 -50.5
t-49 -18.5q-34 0 -55.5 22t-21.5 60q0 52 45 89t129 37zM21 503h86q21 0 21 -21v-964q0 -21 -21 -21h-86q-21 0 -21 21v964q0 21 21 21z" />
    <glyph glyph-name="C" unicode="C" horiz-adv-x="417" 
d="M418 -79q0 -13 -4 -32t-17 -47.5t-33 -51.5t-57.5 -40.5t-85.5 -18.5q-11 -5 -11 -14v-79q0 -17 -18 -17q-6 0 -11.5 5t-5.5 12v77q0 6 -6.5 14.5t-12.5 10.5q-53 14 -90 58q-58 68 -65 144q-1 9 -1 28q0 76 36 144t100 96l27 10q2 0 7 5.5t5 10.5v25v63q0 6 5.5 11.5
t11.5 5.5q8 0 13 -5.5t5 -11.5v-73q0 -5 3.5 -13.5t7.5 -9.5h5l1 1q14 0 36 -4.5t55 -17t56 -44t23 -76.5q0 -37 -19 -58.5t-38 -24.5l-19 -3q-27 0 -52 18t-25 56q0 26 17.5 50t45.5 24q18 0 18 22q0 6 -7 13.5t-25 14t-41 6.5q-11 0 -17 -1q-5 -1 -15 -10.5t-10 -14.5
v-396q0 -13 10 -15q12 -3 26 -3q11 0 27 4t36.5 15t37.5 28t29 46t12 65q0 17 10 17h4q15 0 16 -19zM123 6q0 -140 41 -198q2 -3 5 -3q6 0 6 12v329q0 6 -3.5 11t-7.5 5q-2 0 -3 -2q-38 -54 -38 -154z" />
    <glyph glyph-name="C" unicode="&#xf043;" horiz-adv-x="417" 
d="M418 -79q0 -13 -4 -32t-17 -47.5t-33 -51.5t-57.5 -40.5t-85.5 -18.5q-11 -5 -11 -14v-79q0 -17 -18 -17q-6 0 -11.5 5t-5.5 12v77q0 6 -6.5 14.5t-12.5 10.5q-53 14 -90 58q-58 68 -65 144q-1 9 -1 28q0 76 36 144t100 96l27 10q2 0 7 5.5t5 10.5v25v63q0 6 5.5 11.5
t11.5 5.5q8 0 13 -5.5t5 -11.5v-73q0 -5 3.5 -13.5t7.5 -9.5h5l1 1q14 0 36 -4.5t55 -17t56 -44t23 -76.5q0 -37 -19 -58.5t-38 -24.5l-19 -3q-27 0 -52 18t-25 56q0 26 17.5 50t45.5 24q18 0 18 22q0 6 -7 13.5t-25 14t-41 6.5q-11 0 -17 -1q-5 -1 -15 -10.5t-10 -14.5
v-396q0 -13 10 -15q12 -3 26 -3q11 0 27 4t36.5 15t37.5 28t29 46t12 65q0 17 10 17h4q15 0 16 -19zM123 6q0 -140 41 -198q2 -3 5 -3q6 0 6 12v329q0 6 -3.5 11t-7.5 5q-2 0 -3 -2q-38 -54 -38 -154z" />
    <glyph glyph-name="E" unicode="E" horiz-adv-x="326" 
d="M218 139q48 0 78 -25.5t30 -66.5q0 -69 -71.5 -127.5t-147.5 -58.5q-47 0 -77 27v-507q110 18 160 159q18 49 18 126q0 83 -25 144q-3 8 -3 13q0 16 16 24q2 1 6 1q12 0 21 -17q6 -14 19.5 -72t13.5 -96v-5q-6 -148 -110 -294q-32 -41 -49.5 -66t-36.5 -64t-26 -77
q-1 -8 -8.5 -15.5t-12.5 -7.5q-3 0 -6 3.5t-5 6.5l-2 4v594v211q0 73 64.5 129.5t153.5 56.5z" />
    <glyph glyph-name="E" unicode="&#xf045;" horiz-adv-x="326" 
d="M218 139q48 0 78 -25.5t30 -66.5q0 -69 -71.5 -127.5t-147.5 -58.5q-47 0 -77 27v-507q110 18 160 159q18 49 18 126q0 83 -25 144q-3 8 -3 13q0 16 16 24q2 1 6 1q12 0 21 -17q6 -14 19.5 -72t13.5 -96v-5q-6 -148 -110 -294q-32 -41 -49.5 -66t-36.5 -64t-26 -77
q-1 -8 -8.5 -15.5t-12.5 -7.5q-3 0 -6 3.5t-5 6.5l-2 4v594v211q0 73 64.5 129.5t153.5 56.5z" />
    <glyph glyph-name="H" unicode="H" horiz-adv-x="341" 
d="M227 145q51 0 82.5 -26.5t31.5 -70.5q0 -14 -5 -35t-21 -49.5t-39.5 -52t-66.5 -40t-97 -16.5q-51 0 -82 28v-806h-30v875q0 20 6.5 43.5t23.5 50.5t42 48.5t65.5 36t89.5 14.5zM200 -53q58 38 81.5 62t23.5 42q0 10 -7 22q-14 24 -42 24q-39 0 -117 -45
q-105 -60 -105 -103q0 -11 7 -23q15 -26 46 -26q43 0 113 47z" />
    <glyph glyph-name="H" unicode="&#xf048;" horiz-adv-x="341" 
d="M227 145q51 0 82.5 -26.5t31.5 -70.5q0 -14 -5 -35t-21 -49.5t-39.5 -52t-66.5 -40t-97 -16.5q-51 0 -82 28v-806h-30v875q0 20 6.5 43.5t23.5 50.5t42 48.5t65.5 36t89.5 14.5zM200 -53q58 38 81.5 62t23.5 42q0 10 -7 22q-14 24 -42 24q-39 0 -117 -45
q-105 -60 -105 -103q0 -11 7 -23q15 -26 46 -26q43 0 113 47z" />
    <glyph glyph-name="J" unicode="J" horiz-adv-x="262" 
d="M5 -235v235q1 0 3.5 0.5t4.5 0.5q17 2 28 4t35.5 12.5t43 26t40.5 47t38 74.5q18 52 18 130q0 85 -25 146q-3 7 -3 13q0 16 16 24q2 1 6 1q12 0 21 -17q6 -14 20.5 -73t14.5 -97v-5q-6 -153 -114 -300q-32 -42 -49.5 -68t-37 -66t-27.5 -79q-1 -8 -8.5 -15.5t-12.5 -7.5
q-3 0 -6 3.5t-5 7.5z" />
    <glyph glyph-name="J" unicode="&#xf04a;" horiz-adv-x="262" 
d="M5 -235v235q1 0 3.5 0.5t4.5 0.5q17 2 28 4t35.5 12.5t43 26t40.5 47t38 74.5q18 52 18 130q0 85 -25 146q-3 7 -3 13q0 16 16 24q2 1 6 1q12 0 21 -17q6 -14 20.5 -73t14.5 -97v-5q-6 -153 -114 -300q-32 -42 -49.5 -68t-37 -66t-27.5 -79q-1 -8 -8.5 -15.5t-12.5 -7.5
q-3 0 -6 3.5t-5 7.5z" />
    <glyph glyph-name="K" unicode="K" horiz-adv-x="266" 
d="M24 250q6 0 8.5 -0.5t5.5 -5t3 -12.5q8 -44 24.5 -72.5t53 -62.5t46.5 -45l16 -17q48 -51 66.5 -78.5t24.5 -65.5q2 -9 2 -30q0 -29 -7 -64.5t-15 -56.5l-7 -21l-36 48q17 53 23 74q3 10 3 22q0 22 -15 47q-70 119 -176 119q-18 0 -34 -3v215q0 9 14 9z" />
    <glyph glyph-name="K" unicode="&#xf04b;" horiz-adv-x="266" 
d="M24 250q6 0 8.5 -0.5t5.5 -5t3 -12.5q8 -44 24.5 -72.5t53 -62.5t46.5 -45l16 -17q48 -51 66.5 -78.5t24.5 -65.5q2 -9 2 -30q0 -29 -7 -64.5t-15 -56.5l-7 -21l-36 48q17 53 23 74q3 10 3 22q0 22 -15 47q-70 119 -176 119q-18 0 -34 -3v215q0 9 14 9z" />
    <glyph glyph-name="M" unicode="M" horiz-adv-x="729" 
d="M724 237q5 -4 5 -9q0 -8 -12 -20l-2 -3q-13 -15 -96 -105t-88 -94q-6 -6 -19 -6t-19 7q-3 3 -24.5 26t-41 43.5t-21.5 23.5q-8 11 -16 11q-5 0 -12 -5v-179h-32v152q-82 -72 -84 -73q-6 -6 -18 -6q-14 0 -20 7l-87 93q-9 12 -15 12t-22 -13q-8 -6 -21.5 -18t-17.5 -16
q-24 -24 -40 -24q-20 0 -20 10t13 23l36 42q26 31 80 91l4 4q14 18 23 25q12 9 22 9q14 -1 31 -18q2 -3 18.5 -22.5t44 -51t39.5 -45.5q4 6 7 8l29 34v169h31v-135l24 27q19 22 23 25q12 9 22 9q9 0 25 -14q6 -5 43.5 -50.5t40.5 -48.5q10 -10 18 -10q7 0 18 10q6 5 46 53
t46 53q9 7 18 7q10 0 21 -8z" />
    <glyph glyph-name="M" unicode="&#xf04d;" horiz-adv-x="729" 
d="M724 237q5 -4 5 -9q0 -8 -12 -20l-2 -3q-13 -15 -96 -105t-88 -94q-6 -6 -19 -6t-19 7q-3 3 -24.5 26t-41 43.5t-21.5 23.5q-8 11 -16 11q-5 0 -12 -5v-179h-32v152q-82 -72 -84 -73q-6 -6 -18 -6q-14 0 -20 7l-87 93q-9 12 -15 12t-22 -13q-8 -6 -21.5 -18t-17.5 -16
q-24 -24 -40 -24q-20 0 -20 10t13 23l36 42q26 31 80 91l4 4q14 18 23 25q12 9 22 9q14 -1 31 -18q2 -3 18.5 -22.5t44 -51t39.5 -45.5q4 6 7 8l29 34v169h31v-135l24 27q19 22 23 25q12 9 22 9q9 0 25 -14q6 -5 43.5 -50.5t40.5 -48.5q10 -10 18 -10q7 0 18 10q6 5 46 53
t46 53q9 7 18 7q10 0 21 -8z" />
    <glyph glyph-name="O" unicode="O" horiz-adv-x="318" 
d="M143 117q9 19 16 19q6 0 19 -19q29 -45 68 -72q7 -4 55 -32q17 -9 17 -17q0 -7 -15 -14q-35 -16 -61 -39q-4 -4 -21 -19.5t-32 -30t-18 -18.5q-6 -13 -14 -13q-10 0 -14 13q-50 71 -129 110q-14 6 -14 13q0 6 14 14q3 2 9.5 5t11.5 5.5l9 4.5q24 16 36 23q44 34 63 67z
M195 21q-32 27 -50 27q-16 0 -27 -12q-15 -14 -15 -26q0 -16 32 -44q21 -23 39 -23q12 0 31 14q16 15 16 27q0 16 -26 37z" />
    <glyph glyph-name="O" unicode="&#xf04f;" horiz-adv-x="318" 
d="M143 117q9 19 16 19q6 0 19 -19q29 -45 68 -72q7 -4 55 -32q17 -9 17 -17q0 -7 -15 -14q-35 -16 -61 -39q-4 -4 -21 -19.5t-32 -30t-18 -18.5q-6 -13 -14 -13q-10 0 -14 13q-50 71 -129 110q-14 6 -14 13q0 6 14 14q3 2 9.5 5t11.5 5.5l9 4.5q24 16 36 23q44 34 63 67z
M195 21q-32 27 -50 27q-16 0 -27 -12q-15 -14 -15 -26q0 -16 32 -44q21 -23 39 -23q12 0 31 14q16 15 16 27q0 16 -26 37z" />
    <glyph glyph-name="Q" unicode="Q" 
d="M222 141q49 0 79.5 -26t30.5 -68q0 -70 -73 -129t-150 -59q-47 0 -79 27v-808h-30v616v259q0 74 65.5 131t156.5 57z" />
    <glyph glyph-name="Q" unicode="&#xf051;" 
d="M222 141q49 0 79.5 -26t30.5 -68q0 -70 -73 -129t-150 -59q-47 0 -79 27v-808h-30v616v259q0 74 65.5 131t156.5 57z" />
    <glyph glyph-name="R" unicode="R" horiz-adv-x="279" 
d="M260 526q5 -8 13 -49t8 -74v-11q-3 -46 -7.5 -63.5t-16.5 -39.5l-3 -6q-2 -6 -2 -7q0 -4 2 -8q1 -2 1 -3q21 -46 21 -103q0 -22 -4 -41q-9 -46 -28.5 -77t-76.5 -93q-11 -12 -48.5 -44t-54.5 -60t-25 -77q-1 -6 -8.5 -12.5t-12.5 -6.5q-3 0 -6.5 3.5t-5.5 6.5l-1 3v389
q32 2 49 5t45.5 15.5t55 43t54.5 79.5q31 55 31 100q0 15 -3 31.5t-8.5 39.5t-8.5 40q-1 3 -1 9q0 19 14 25q1 0 2.5 0.5t2.5 0.5q14 0 22 -16zM211 215q-18 -27 -54 -68q-10 -12 -41.5 -42.5t-47 -54.5t-25.5 -60q0 -4 4 -8.5t11 -4.5h8q76 0 145 102q27 40 27 83
q0 14 -3 28q0 7 -4 23q-2 6 -12 6q-5 0 -8 -4z" />
    <glyph glyph-name="R" unicode="&#xf052;" horiz-adv-x="279" 
d="M260 526q5 -8 13 -49t8 -74v-11q-3 -46 -7.5 -63.5t-16.5 -39.5l-3 -6q-2 -6 -2 -7q0 -4 2 -8q1 -2 1 -3q21 -46 21 -103q0 -22 -4 -41q-9 -46 -28.5 -77t-76.5 -93q-11 -12 -48.5 -44t-54.5 -60t-25 -77q-1 -6 -8.5 -12.5t-12.5 -6.5q-3 0 -6.5 3.5t-5.5 6.5l-1 3v389
q32 2 49 5t45.5 15.5t55 43t54.5 79.5q31 55 31 100q0 15 -3 31.5t-8.5 39.5t-8.5 40q-1 3 -1 9q0 19 14 25q1 0 2.5 0.5t2.5 0.5q14 0 22 -16zM211 215q-18 -27 -54 -68q-10 -12 -41.5 -42.5t-47 -54.5t-25.5 -60q0 -4 4 -8.5t11 -4.5h8q76 0 145 102q27 40 27 83
q0 14 -3 28q0 7 -4 23q-2 6 -12 6q-5 0 -8 -4z" />
    <glyph glyph-name="T" unicode="T" horiz-adv-x="456" 
d="M360 215q30 0 63.5 -30t33.5 -86q0 -46 -29 -72.5t-73 -26.5q-58 0 -99 28q-11 8 -22 19t-18.5 19.5t-19 22.5t-17.5 21q-49 56 -82 56q-28 0 -50 -14.5t-22 -43.5q0 -22 12 -36.5t26 -14.5q7 0 20 11.5t26 11.5q16 0 26 -11t10 -27q0 -19 -15.5 -30.5t-32.5 -11.5
q-30 0 -63.5 30.5t-33.5 86.5q0 45 29 71.5t72 26.5q37 0 65 -14q46 -24 111 -101q43 -50 87 -50h8q25 2 42.5 18t17.5 40q0 21 -12 35.5t-25 14.5q-9 0 -22 -11.5t-24 -11.5q-18 0 -28 11t-10 28q0 19 15.5 30t33.5 11z" />
    <glyph glyph-name="T" unicode="&#xf054;" horiz-adv-x="456" 
d="M360 215q30 0 63.5 -30t33.5 -86q0 -46 -29 -72.5t-73 -26.5q-58 0 -99 28q-11 8 -22 19t-18.5 19.5t-19 22.5t-17.5 21q-49 56 -82 56q-28 0 -50 -14.5t-22 -43.5q0 -22 12 -36.5t26 -14.5q7 0 20 11.5t26 11.5q16 0 26 -11t10 -27q0 -19 -15.5 -30.5t-32.5 -11.5
q-30 0 -63.5 30.5t-33.5 86.5q0 45 29 71.5t72 26.5q37 0 65 -14q46 -24 111 -101q43 -50 87 -50h8q25 2 42.5 18t17.5 40q0 21 -12 35.5t-25 14.5q-9 0 -22 -11.5t-24 -11.5q-18 0 -28 11t-10 28q0 19 15.5 30t33.5 11z" />
    <glyph glyph-name="U" unicode="U" horiz-adv-x="605" 
d="M358 52q0 -22 -16 -38.5t-39 -16.5q-22 0 -38 16.5t-16 38.5t16 38t38 16t38.5 -16t16.5 -38zM302 221q-206 0 -263 -194q-2 -8 -3 -9q-9 -21 -20 -21q-13 0 -13 13q0 7 1 11q12 63 34.5 113.5t46 81.5t53.5 54.5t53.5 34t50.5 16.5t38.5 7t23.5 1q18 0 37 -2t62 -19
t77.5 -46t70.5 -92t53 -149q1 -4 1 -10q0 -14 -14 -14q-11 0 -19 17q-1 3 -2 4t-1 3q-1 3 -1 4q-5 20 -11 36t-26 48.5t-46 54.5t-74.5 39.5t-108.5 17.5z" />
    <glyph glyph-name="U" unicode="&#xf055;" horiz-adv-x="605" 
d="M358 52q0 -22 -16 -38.5t-39 -16.5q-22 0 -38 16.5t-16 38.5t16 38t38 16t38.5 -16t16.5 -38zM302 221q-206 0 -263 -194q-2 -8 -3 -9q-9 -21 -20 -21q-13 0 -13 13q0 7 1 11q12 63 34.5 113.5t46 81.5t53.5 54.5t53.5 34t50.5 16.5t38.5 7t23.5 1q18 0 37 -2t62 -19
t77.5 -46t70.5 -92t53 -149q1 -4 1 -10q0 -14 -14 -14q-11 0 -19 17q-1 3 -2 4t-1 3q-1 3 -1 4q-5 20 -11 36t-26 48.5t-46 54.5t-74.5 39.5t-108.5 17.5z" />
    <glyph glyph-name="W" unicode="W" horiz-adv-x="654" 
d="M34 -161q0 -7 -10 -7h-14q-10 0 -10 7v323q0 8 10 8h14q10 0 10 -8v-323zM97 -161q0 -7 -10 -7h-14q-10 0 -10 7v323q0 8 10 8h14q10 0 10 -8v-323zM332 137q81 0 152.5 -40t71.5 -96q0 -137 -235 -137q-113 0 -168 39t-55 98q0 58 64.5 97t169.5 39zM218 69
q-3 -12 -3 -25q0 -50 37 -98q14 -17 23 -24q23 -20 52 -29q13 -4 29 -4q19 0 32 4q40 10 48 53q2 12 2 20q0 52 -40.5 98.5t-93.5 46.5q-72 0 -86 -42zM592 -161q0 -7 -10 -7h-15q-10 0 -10 7v323q0 8 10 8h15q10 0 10 -8v-323zM655 -161q0 -7 -11 -7h-14q-11 0 -11 7v323
q0 8 11 8h14q11 0 11 -8v-323z" />
    <glyph glyph-name="W" unicode="&#xf057;" horiz-adv-x="654" 
d="M34 -161q0 -7 -10 -7h-14q-10 0 -10 7v323q0 8 10 8h14q10 0 10 -8v-323zM97 -161q0 -7 -10 -7h-14q-10 0 -10 7v323q0 8 10 8h14q10 0 10 -8v-323zM332 137q81 0 152.5 -40t71.5 -96q0 -137 -235 -137q-113 0 -168 39t-55 98q0 58 64.5 97t169.5 39zM218 69
q-3 -12 -3 -25q0 -50 37 -98q14 -17 23 -24q23 -20 52 -29q13 -4 29 -4q19 0 32 4q40 10 48 53q2 12 2 20q0 52 -40.5 98.5t-93.5 46.5q-72 0 -86 -42zM592 -161q0 -7 -10 -7h-15q-10 0 -10 7v323q0 8 10 8h15q10 0 10 -8v-323zM655 -161q0 -7 -11 -7h-14q-11 0 -11 7v323
q0 8 11 8h14q11 0 11 -8v-323z" />
    <glyph glyph-name="X" unicode="X" 
d="M222 141q49 0 79.5 -26t30.5 -68q0 -70 -73 -129t-150 -59q-47 0 -79 27v-422q48 4 89 33t85 108q31 55 31 100q0 15 -3 31.5t-8.5 39.5t-8.5 40q-1 3 -1 9q0 19 14 25q1 0 2.5 0.5t2.5 0.5q14 0 22 -16q5 -8 13 -49t8 -74v-11q-3 -46 -7.5 -63.5t-16.5 -39.5l-3 -6
q-2 -6 -2 -7q0 -4 2 -8q1 -2 1 -3q21 -46 21 -103q0 -22 -4 -41q-9 -46 -28.5 -77t-76.5 -93q-11 -12 -48.5 -44t-54.5 -60t-25 -77q-1 -6 -8.5 -12.5t-12.5 -6.5q-3 0 -6.5 3t-4.5 7l-2 3v389v491q0 74 65.5 131t156.5 57zM152 -544q-10 -12 -41.5 -42.5t-47 -54.5
t-25.5 -60q0 -4 4 -8.5t11 -4.5h8q76 0 145 102q27 40 27 83q0 15 -3 28q0 7 -4 23q-2 6 -12 6q-5 0 -8 -4q-18 -27 -54 -68z" />
    <glyph glyph-name="X" unicode="&#xf058;" 
d="M222 141q49 0 79.5 -26t30.5 -68q0 -70 -73 -129t-150 -59q-47 0 -79 27v-422q48 4 89 33t85 108q31 55 31 100q0 15 -3 31.5t-8.5 39.5t-8.5 40q-1 3 -1 9q0 19 14 25q1 0 2.5 0.5t2.5 0.5q14 0 22 -16q5 -8 13 -49t8 -74v-11q-3 -46 -7.5 -63.5t-16.5 -39.5l-3 -6
q-2 -6 -2 -7q0 -4 2 -8q1 -2 1 -3q21 -46 21 -103q0 -22 -4 -41q-9 -46 -28.5 -77t-76.5 -93q-11 -12 -48.5 -44t-54.5 -60t-25 -77q-1 -6 -8.5 -12.5t-12.5 -6.5q-3 0 -6.5 3t-4.5 7l-2 3v389v491q0 74 65.5 131t156.5 57zM152 -544q-10 -12 -41.5 -42.5t-47 -54.5
t-25.5 -60q0 -4 4 -8.5t11 -4.5h8q76 0 145 102q27 40 27 83q0 15 -3 28q0 7 -4 23q-2 6 -12 6q-5 0 -8 -4q-18 -27 -54 -68z" />
    <glyph glyph-name="asciicircum" unicode="^" horiz-adv-x="236" 
d="M234 16q1 -1 1 -5q0 -9 -11 -11h-68q-6 0 -11 6q-56 119 -57 123q-3 3 -6 3q-2 0 -4 -3l-56 -123q-3 -7 -11 -7q-4 0 -5 1q-7 1 -7 11q0 3 1 5l106 231q3 6 10 6q6 0 10 -6z" />
    <glyph glyph-name="asciicircum" unicode="&#xf05e;" horiz-adv-x="236" 
d="M234 16q1 -1 1 -5q0 -9 -11 -11h-68q-6 0 -11 6q-56 119 -57 123q-3 3 -6 3q-2 0 -4 -3l-56 -123q-3 -7 -11 -7q-4 0 -5 1q-7 1 -7 11q0 3 1 5l106 231q3 6 10 6q6 0 10 -6z" />
    <glyph glyph-name="b" unicode="b" horiz-adv-x="226" 
d="M12 -170q-4 4 -7 149.5t-4 288.5l-1 143q1 13 10.5 20.5t20.5 7.5q19 0 19 -17q0 -128 -7 -282q0 -12 11 -17q2 -1 5 -1q5 0 22 14q13 8 34 14q11 3 21 3q36 -2 63 -28.5t27 -67.5q0 -85 -120 -169q-9 -6 -35.5 -28.5t-43.5 -32.5q-3 -2 -6 -2q-5 0 -9 5zM47 -81
q0 -15 11 -15q4 0 10 3q48 30 72 75q17 30 17 60q0 29 -16 47q-9 11 -25 11q-13 0 -26 -7q-12 -7 -26.5 -20.5t-17.5 -21.5q-2 -8 -2 -32z" />
    <glyph glyph-name="b" unicode="&#xf062;" horiz-adv-x="226" 
d="M12 -170q-4 4 -7 149.5t-4 288.5l-1 143q1 13 10.5 20.5t20.5 7.5q19 0 19 -17q0 -128 -7 -282q0 -12 11 -17q2 -1 5 -1q5 0 22 14q13 8 34 14q11 3 21 3q36 -2 63 -28.5t27 -67.5q0 -85 -120 -169q-9 -6 -35.5 -28.5t-43.5 -32.5q-3 -2 -6 -2q-5 0 -9 5zM47 -81
q0 -15 11 -15q4 0 10 3q48 30 72 75q17 30 17 60q0 29 -16 47q-9 11 -25 11q-13 0 -26 -7q-12 -7 -26.5 -20.5t-17.5 -21.5q-2 -8 -2 -32z" />
    <glyph glyph-name="c" unicode="c" horiz-adv-x="424" 
d="M233 231q10 0 25.5 -2t42 -11t48.5 -23t38 -42t16 -65t-19 -58.5t-38 -24.5l-19 -3q-27 0 -52 18.5t-25 56.5q0 26 17.5 50t45.5 24q18 0 18 22q0 6 -7 13.5t-24.5 14t-41.5 6.5q-23 0 -43.5 -8.5t-41 -28.5t-33 -61.5t-12.5 -100.5q0 -244 124 -244q15 0 36 7.5
t46.5 23.5t42.5 49.5t17 78.5q0 8 2.5 12t5 5t7.5 1q15 0 15 -22q0 -12 -4 -31t-17 -47.5t-33.5 -52t-59 -40.5t-87.5 -17q-98 0 -153 67q-57 69 -64 145q-1 9 -1 27q0 76 36 144.5t100 96.5q45 20 92 20z" />
    <glyph glyph-name="c" unicode="&#xf063;" horiz-adv-x="424" 
d="M233 231q10 0 25.5 -2t42 -11t48.5 -23t38 -42t16 -65t-19 -58.5t-38 -24.5l-19 -3q-27 0 -52 18.5t-25 56.5q0 26 17.5 50t45.5 24q18 0 18 22q0 6 -7 13.5t-24.5 14t-41.5 6.5q-23 0 -43.5 -8.5t-41 -28.5t-33 -61.5t-12.5 -100.5q0 -244 124 -244q15 0 36 7.5
t46.5 23.5t42.5 49.5t17 78.5q0 8 2.5 12t5 5t7.5 1q15 0 15 -22q0 -12 -4 -31t-17 -47.5t-33.5 -52t-59 -40.5t-87.5 -17q-98 0 -153 67q-57 69 -64 145q-1 9 -1 27q0 76 36 144.5t100 96.5q45 20 92 20z" />
    <glyph glyph-name="e" unicode="e" horiz-adv-x="553" 
d="M340 948q22 -102 104 -217q104 -145 109 -290v-7q0 -36 -9.5 -81.5t-14.5 -57.5q-8 -18 -20 -18q-3 0 -7 2q-15 7 -15 24q0 5 3 13q22 52 22 116q0 67 -22 127q-48 133 -158 156v-665q0 -70 -73 -129t-150 -59q-47 0 -78 25.5t-31 68.5q0 74 65.5 131t156.5 57
q51 0 80 -26v838q0 7 2 8.5t8 1.5h7q17 0 21 -18z" />
    <glyph glyph-name="e" unicode="&#xf065;" horiz-adv-x="553" 
d="M340 948q22 -102 104 -217q104 -145 109 -290v-7q0 -36 -9.5 -81.5t-14.5 -57.5q-8 -18 -20 -18q-3 0 -7 2q-15 7 -15 24q0 5 3 13q22 52 22 116q0 67 -22 127q-48 133 -158 156v-665q0 -70 -73 -129t-150 -59q-47 0 -78 25.5t-31 68.5q0 74 65.5 131t156.5 57
q51 0 80 -26v838q0 7 2 8.5t8 1.5h7q17 0 21 -18z" />
    <glyph glyph-name="h" unicode="h" horiz-adv-x="341" 
d="M112 -145q-49 0 -80.5 25.5t-31.5 70.5q0 25 12 56t36 63t71 53.5t108 21.5q52 0 84 -27v805h30v-875q0 -14 -5 -35t-21 -49.5t-40 -52t-66.5 -40t-96.5 -16.5zM139 52q-105 -60 -105 -103q0 -11 7 -23q15 -26 46 -26q43 0 113 47q58 38 81.5 62t23.5 42q0 10 -7 22
q-14 24 -42 24q-39 0 -117 -45z" />
    <glyph glyph-name="h" unicode="&#xf068;" horiz-adv-x="341" 
d="M112 -145q-49 0 -80.5 25.5t-31.5 70.5q0 25 12 56t36 63t71 53.5t108 21.5q52 0 84 -27v805h30v-875q0 -14 -5 -35t-21 -49.5t-40 -52t-66.5 -40t-96.5 -16.5zM139 52q-105 -60 -105 -103q0 -11 7 -23q15 -26 46 -26q43 0 113 47q58 38 81.5 62t23.5 42q0 10 -7 22
q-14 24 -42 24q-39 0 -117 -45z" />
    <glyph glyph-name="j" unicode="j" horiz-adv-x="250" 
d="M20 250h7q17 0 21 -18q22 -102 104 -217q104 -145 109 -290v-7q0 -36 -9.5 -81.5t-14.5 -57.5q-8 -18 -20 -18q-3 0 -7 2q-15 7 -15 24q0 5 3 13q22 52 22 116q0 67 -22 127q-52 143 -180 159q-2 0 -4.5 0.5t-3.5 0.5v237q0 7 2 8.5t8 1.5z" />
    <glyph glyph-name="j" unicode="&#xf06a;" horiz-adv-x="250" 
d="M20 250h7q17 0 21 -18q22 -102 104 -217q104 -145 109 -290v-7q0 -36 -9.5 -81.5t-14.5 -57.5q-8 -18 -20 -18q-3 0 -7 2q-15 7 -15 24q0 5 3 13q22 52 22 116q0 67 -22 127q-52 143 -180 159q-2 0 -4.5 0.5t-3.5 0.5v237q0 7 2 8.5t8 1.5z" />
    <glyph glyph-name="m" unicode="m" horiz-adv-x="730" 
d="M719 237q6 -5 6 -10q0 -4 -14 -23q-11 -13 -95 -104t-89 -95q-7 -5 -19 -5q-14 0 -20 7q-20 25 -87 92q-9 12 -16 12q-3 0 -15 -8l-1 -1q-1 0 -2 -1l-3 -3q-26 -22 -38 -34q-21 -18 -23 -19l-41 -40q-7 -5 -19 -5q-14 0 -20 7q-4 6 -44 48t-42 44q-11 12 -16 12
q-4 0 -19 -11q-1 0 -3 -2q-26 -22 -38 -34q-1 -1 -8 -7.5t-9.5 -8.5t-9.5 -5t-14 -3q-20 0 -20 10q0 3 12 24l121 137q3 3 10.5 12t12.5 13q12 9 22 9q18 -2 31 -19l100 -116l5 6q15 18 45 51.5t39 43.5q18 21 23 25q10 8 24 8q9 0 23 -14q6 -5 43.5 -50t41.5 -49
q10 -10 17 -10q8 0 19 10q4 4 44.5 53t46.5 54q10 7 18 7q10 0 21 -8z" />
    <glyph glyph-name="m" unicode="&#xf06d;" horiz-adv-x="730" 
d="M719 237q6 -5 6 -10q0 -4 -14 -23q-11 -13 -95 -104t-89 -95q-7 -5 -19 -5q-14 0 -20 7q-20 25 -87 92q-9 12 -16 12q-3 0 -15 -8l-1 -1q-1 0 -2 -1l-3 -3q-26 -22 -38 -34q-21 -18 -23 -19l-41 -40q-7 -5 -19 -5q-14 0 -20 7q-4 6 -44 48t-42 44q-11 12 -16 12
q-4 0 -19 -11q-1 0 -3 -2q-26 -22 -38 -34q-1 -1 -8 -7.5t-9.5 -8.5t-9.5 -5t-14 -3q-20 0 -20 10q0 3 12 24l121 137q3 3 10.5 12t12.5 13q12 9 22 9q18 -2 31 -19l100 -116l5 6q15 18 45 51.5t39 43.5q18 21 23 25q10 8 24 8q9 0 23 -14q6 -5 43.5 -50t41.5 -49
q10 -10 17 -10q8 0 19 10q4 4 44.5 53t46.5 54q10 7 18 7q10 0 21 -8z" />
    <glyph glyph-name="n" unicode="n" horiz-adv-x="168" 
d="M156 186q1 1 4 1q8 0 8 -8v-502q0 -12 -12 -12h-13q-12 0 -12 12v149q0 11 -17 11q-29 0 -99 -30l-3 -1h-2l-2 -1q-8 0 -8 9v515q0 12 12 12h13q12 0 12 -12v-167q0 -5 10 -5q12 0 34.5 5.5t38.5 11.5l17 6h1q2 1 3 1zM37 39v-103q0 -6 12 -6q21 0 51.5 14t30.5 27v103
q0 5 -9 5q-19 0 -52 -15t-33 -25z" />
    <glyph glyph-name="n" unicode="&#xf06e;" horiz-adv-x="168" 
d="M156 186q1 1 4 1q8 0 8 -8v-502q0 -12 -12 -12h-13q-12 0 -12 12v149q0 11 -17 11q-29 0 -99 -30l-3 -1h-2l-2 -1q-8 0 -8 9v515q0 12 12 12h13q12 0 12 -12v-167q0 -5 10 -5q12 0 34.5 5.5t38.5 11.5l17 6h1q2 1 3 1zM37 39v-103q0 -6 12 -6q21 0 51.5 14t30.5 27v103
q0 5 -9 5q-19 0 -52 -15t-33 -25z" />
    <glyph glyph-name="o" unicode="o" horiz-adv-x="200" 
d="M200 21q0 -41 -29.5 -70.5t-70.5 -29.5t-70.5 29.5t-29.5 70.5q0 42 29.5 71t70.5 29t70.5 -29t29.5 -71zM100 94q-30 0 -51.5 -21t-21.5 -52q0 -30 21.5 -51.5t51.5 -21.5q31 0 52 21.5t21 51.5q0 31 -21 52t-52 21z" />
    <glyph glyph-name="o" unicode="&#xf06f;" horiz-adv-x="200" 
d="M200 21q0 -41 -29.5 -70.5t-70.5 -29.5t-70.5 29.5t-29.5 70.5q0 42 29.5 71t70.5 29t70.5 -29t29.5 -71zM100 94q-30 0 -51.5 -21t-21.5 -52q0 -30 21.5 -51.5t51.5 -21.5q31 0 52 21.5t21 51.5q0 31 -21 52t-52 21z" />
    <glyph glyph-name="q" unicode="q" 
d="M302 115v807h30v-875q0 -70 -73 -129t-150 -59q-47 0 -78 25.5t-31 68.5q0 74 65.5 131t156.5 57q51 0 80 -26z" />
    <glyph glyph-name="q" unicode="&#xf071;" 
d="M302 115v807h30v-875q0 -70 -73 -129t-150 -59q-47 0 -78 25.5t-31 68.5q0 74 65.5 131t156.5 57q51 0 80 -26z" />
    <glyph glyph-name="r" unicode="r" horiz-adv-x="265" 
d="M268 -507q-8 -16 -19 -16q-2 0 -8 2q-13 4 -13 23q0 5 1 8q8 46 8 85q0 78 -31 141q-23 47 -47.5 76.5t-52 41.5t-44.5 15t-47 4h-5v376q10 1 16 1q17 0 19 -12q6 -35 19.5 -62t26.5 -40t37 -34t37 -35q58 -62 77 -91t26 -74q3 -16 3 -34q0 -26 -5.5 -55.5t-10.5 -45
t-8 -20.5q-1 -2 -1 -6q0 -2 0.5 -5t0.5 -4q28 -58 28 -114v-20q0 -96 -7 -105zM208 -187q3 -4 7 -4q10 0 12 6l7 24q1 7 1 19q0 47 -26 85q-67 99 -140 99h-8q-13 0 -13 -9q0 -2 1 -3q9 -35 23 -58t45 -53t40 -41q33 -37 51 -65z" />
    <glyph glyph-name="r" unicode="&#xf072;" horiz-adv-x="265" 
d="M268 -507q-8 -16 -19 -16q-2 0 -8 2q-13 4 -13 23q0 5 1 8q8 46 8 85q0 78 -31 141q-23 47 -47.5 76.5t-52 41.5t-44.5 15t-47 4h-5v376q10 1 16 1q17 0 19 -12q6 -35 19.5 -62t26.5 -40t37 -34t37 -35q58 -62 77 -91t26 -74q3 -16 3 -34q0 -26 -5.5 -55.5t-10.5 -45
t-8 -20.5q-1 -2 -1 -6q0 -2 0.5 -5t0.5 -4q28 -58 28 -114v-20q0 -96 -7 -105zM208 -187q3 -4 7 -4q10 0 12 6l7 24q1 7 1 19q0 47 -26 85q-67 99 -140 99h-8q-13 0 -13 -9q0 -2 1 -3q9 -35 23 -58t45 -53t40 -41q33 -37 51 -65z" />
    <glyph glyph-name="u" unicode="u" horiz-adv-x="605" 
d="M358 -55q0 -22 -16.5 -38t-38.5 -16t-38 16t-16 38t16 38.5t38 16.5q23 0 39 -16t16 -39zM302 -224q60 0 108.5 17.5t74.5 39.5t46 54.5t26 48.5t11 36q0 1 1 4l1 3q1 1 2.5 4.5t2 4.5t2 3.5t2 3.5t2 2t3 1.5t3.5 1t4 0.5q14 0 14 -14q0 -6 -1 -10q-17 -86 -53 -149
t-70.5 -92t-77.5 -46t-62 -19t-37 -2q-12 0 -23.5 1t-38.5 7t-50.5 16.5t-53.5 34t-53.5 54.5t-46 81.5t-34.5 113.5q-1 4 -1 11q0 13 13 13q11 0 20 -21q1 -1 3 -9q57 -194 263 -194z" />
    <glyph glyph-name="u" unicode="&#xf075;" horiz-adv-x="605" 
d="M358 -55q0 -22 -16.5 -38t-38.5 -16t-38 16t-16 38t16 38.5t38 16.5q23 0 39 -16t16 -39zM302 -224q60 0 108.5 17.5t74.5 39.5t46 54.5t26 48.5t11 36q0 1 1 4l1 3q1 1 2.5 4.5t2 4.5t2 3.5t2 3.5t2 2t3 1.5t3.5 1t4 0.5q14 0 14 -14q0 -6 -1 -10q-17 -86 -53 -149
t-70.5 -92t-77.5 -46t-62 -19t-37 -2q-12 0 -23.5 1t-38.5 7t-50.5 16.5t-53.5 34t-53.5 54.5t-46 81.5t-34.5 113.5q-1 4 -1 11q0 13 13 13q11 0 20 -21q1 -1 3 -9q57 -194 263 -194z" />
    <glyph glyph-name="v" unicode="v" horiz-adv-x="236" 
d="M0 -15q-1 1 -1 5q0 9 11 11h68q6 0 11 -6q56 -119 57 -123q3 -3 6 -3q2 0 4 3l56 123q3 7 11 7q4 0 5 -1q7 -1 7 -11q0 -3 -1 -5l-106 -231q-3 -6 -10 -6q-6 0 -10 6z" />
    <glyph glyph-name="v" unicode="&#xf076;" horiz-adv-x="236" 
d="M0 -15q-1 1 -1 5q0 9 11 11h68q6 0 11 -6q56 -119 57 -123q3 -3 6 -3q2 0 4 3l56 123q3 7 11 7q4 0 5 -1q7 -1 7 -11q0 -3 -1 -5l-106 -231q-3 -6 -10 -6q-6 0 -10 6z" />
    <glyph glyph-name="w" unicode="w" horiz-adv-x="461" 
d="M235 135q80 0 152 -40t72 -95q0 -138 -235 -138q-114 0 -169 39t-55 99q0 57 64.5 96t170.5 39zM121 67q-4 -12 -4 -27q0 -51 38 -96q9 -12 23 -24q22 -20 51 -29q13 -4 29 -4q18 0 33 4q40 10 48 53q2 12 2 20q0 52 -40.5 99t-93.5 47q-72 0 -86 -43z" />
    <glyph glyph-name="w" unicode="&#xf077;" horiz-adv-x="461" 
d="M235 135q80 0 152 -40t72 -95q0 -138 -235 -138q-114 0 -169 39t-55 99q0 57 64.5 96t170.5 39zM121 67q-4 -12 -4 -27q0 -51 38 -96q9 -12 23 -24q22 -20 51 -29q13 -4 29 -4q18 0 33 4q40 10 48 53q2 12 2 20q0 52 -40.5 99t-93.5 47q-72 0 -86 -43z" />
    <glyph glyph-name="x" unicode="x" horiz-adv-x="555" 
d="M528 445q0 -2 0.5 -4.5t0.5 -3.5q26 -61 26 -112v-20q0 -94 -7 -103q-7 -16 -17 -16q-2 0 -8 2q-13 4 -13 23q0 5 1 8q8 45 8 83q0 76 -31 139q-37 74 -76.5 101t-86.5 31v-524q0 -69 -71.5 -127t-146.5 -58q-46 0 -76.5 25t-30.5 67q0 73 64.5 129.5t153.5 56.5
q47 0 78 -26v826q10 1 16 1q17 0 19 -11q7 -45 22.5 -71t49 -55t44.5 -42q56 -59 75.5 -88t25.5 -73q3 -17 3 -34q0 -25 -5 -54t-10 -44.5t-7 -20.5q-1 -2 -1 -5zM516 541q1 6 1 18q0 47 -26 84q-67 97 -138 97h-7q-4 0 -8 -3t-4 -5t1 -3q6 -27 18.5 -49.5t23.5 -34.5
t31.5 -32t32.5 -34q39 -48 49 -63q3 -4 7 -4q10 0 12 6q3 4 5 14z" />
    <glyph glyph-name="x" unicode="&#xf078;" horiz-adv-x="555" 
d="M528 445q0 -2 0.5 -4.5t0.5 -3.5q26 -61 26 -112v-20q0 -94 -7 -103q-7 -16 -17 -16q-2 0 -8 2q-13 4 -13 23q0 5 1 8q8 45 8 83q0 76 -31 139q-37 74 -76.5 101t-86.5 31v-524q0 -69 -71.5 -127t-146.5 -58q-46 0 -76.5 25t-30.5 67q0 73 64.5 129.5t153.5 56.5
q47 0 78 -26v826q10 1 16 1q17 0 19 -11q7 -45 22.5 -71t49 -55t44.5 -42q56 -59 75.5 -88t25.5 -73q3 -17 3 -34q0 -25 -5 -54t-10 -44.5t-7 -20.5q-1 -2 -1 -5zM516 541q1 6 1 18q0 47 -26 84q-67 97 -138 97h-7q-4 0 -8 -3t-4 -5t1 -3q6 -27 18.5 -49.5t23.5 -34.5
t31.5 -32t32.5 -34q39 -48 49 -63q3 -4 7 -4q10 0 12 6q3 4 5 14z" />
    <glyph glyph-name="asciitilde" unicode="~" horiz-adv-x="237" 
d="M-30 206q-6 0 -6 6q0 10 13 24l20 18q50 40 87 40t68 -26.5t55 -26.5q9 0 21 6q22 17 35 17q3 0 4 -1q3 -1 3 -5q0 -11 -20 -31q-49 -44 -95 -44q-38 0 -69 26.5t-55 26.5q-10 0 -18 -6q-24 -24 -43 -24z" />
    <glyph glyph-name="asciitilde" unicode="&#xf07e;" horiz-adv-x="237" 
d="M-30 206q-6 0 -6 6q0 10 13 24l20 18q50 40 87 40t68 -26.5t55 -26.5q9 0 21 6q22 17 35 17q3 0 4 -1q3 -1 3 -5q0 -11 -20 -31q-49 -44 -95 -44q-38 0 -69 26.5t-55 26.5q-10 0 -18 -6q-24 -24 -43 -24z" />
    <glyph glyph-name="registered" unicode="&#xae;" horiz-adv-x="364" 
d="M353 419q10 0 10 -11l-1 -2v-2l-26 -101q-172 -770 -175 -782q-3 -7 -5 -10.5t-10.5 -7t-23.5 -3.5q-27 0 -27 16q0 4 1 6q2 8 36.5 145.5t34.5 140.5q0 6 -6 6q-2 0 -3 -1q-19 -10 -36 -15q-21 -7 -42 -7q-14 0 -24 3q-16 5 -28 14q-28 21 -28 51q0 28 20 48t48 20
t48 -19.5t20 -48.5q0 -6 -1 -10q14 1 31 11t20 24l40 164q0 13 -7 13q-2 0 -3 -1q-14 -7 -35 -15q-19 -7 -40 -7q-11 0 -27 4q-17 5 -27 14q-28 21 -28 50q0 28 19.5 48t48.5 20q28 0 48 -20t20 -48q0 -6 -1 -9q12 0 31 12t23 24l39 160q0 1 0.5 2t0.5 2q0 16 -11 16
q-3 0 -4 -1q-14 -7 -35 -15q-21 -7 -41 -7q-10 0 -26 4q-18 5 -28 14q-28 21 -28 50q0 28 20 48t48 20q29 0 48.5 -20t19.5 -48v-9q12 0 28 10t28 21t23 22.5t12 12.5q6 4 11 4z" />
    <glyph glyph-name="registered" unicode="&#xf0a8;" horiz-adv-x="364" 
d="M353 419q10 0 10 -11l-1 -2v-2l-26 -101q-172 -770 -175 -782q-3 -7 -5 -10.5t-10.5 -7t-23.5 -3.5q-27 0 -27 16q0 4 1 6q2 8 36.5 145.5t34.5 140.5q0 6 -6 6q-2 0 -3 -1q-19 -10 -36 -15q-21 -7 -42 -7q-14 0 -24 3q-16 5 -28 14q-28 21 -28 51q0 28 20 48t48 20
t48 -19.5t20 -48.5q0 -6 -1 -10q14 1 31 11t20 24l40 164q0 13 -7 13q-2 0 -3 -1q-14 -7 -35 -15q-19 -7 -40 -7q-11 0 -27 4q-17 5 -27 14q-28 21 -28 50q0 28 19.5 48t48.5 20q28 0 48 -20t20 -48q0 -6 -1 -9q12 0 31 12t23 24l39 160q0 1 0.5 2t0.5 2q0 16 -11 16
q-3 0 -4 -1q-14 -7 -35 -15q-21 -7 -41 -7q-10 0 -26 4q-18 5 -28 14q-28 21 -28 50q0 28 20 48t48 20q29 0 48.5 -20t19.5 -48v-9q12 0 28 10t28 21t23 22.5t12 12.5q6 4 11 4z" />
    <glyph glyph-name="degree" unicode="&#xb0;" horiz-adv-x="1012" 
d="M792 -14h-5q-54 11 -71 21q-14 8 -23 21q-2 2 -5 7.5t-4.5 8t-5.5 5t-9 2.5q-9 0 -18.5 -6.5t-23.5 -20t-15 -14.5l-3 -3q-34 -27 -53 -27h-5q-27 5 -75 53q-7 7 -16 7q-11 0 -23 -12q-31 -33 -45 -38q-8 -2 -10 -2q-5 0 -10 2t-9 7t-6.5 8.5t-7 11t-5.5 9.5
q-2 3 -9 14.5t-10.5 17t-11 12t-15.5 10.5t-18 4t-19.5 -6t-14.5 -11.5t-14 -18t-12 -16.5q-42 -54 -78 -54q-2 0 -4 0.5t-4 0.5q-22 4 -22 20q0 19 37 59l4 5q26 28 49 40q5 2 18 8l19.5 9t16.5 9.5t16 14t9 17.5q4 11 4 25q0 45 -30 80l-3 3q-57 61 -57 84q2 13 28.5 67.5
t28.5 59.5q2 8 2 10q0 15 -17 15q-62 0 -118 -38t-56 -95q0 -10 1 -15q5 -35 27 -35h4q14 1 28 16t21 33q8 16 13 16q16 0 16 -32q-4 -59 -39 -94q-20 -20 -48 -20q-31 0 -56 22t-28 53q-1 5 -1 15q0 72 58.5 122.5t138.5 73.5q38 11 77 11q57 0 108 -22.5t80 -66.5
q28 -44 28 -75q0 -7 -1 -11q-4 -24 -21 -40t-40 -16h-5q-31 3 -58 29.5t-38 53.5q-4 12 -4 18q0 14 8 14q5 -1 7.5 -2.5t4.5 -5t3 -4.5t5.5 -7t8.5 -10.5t11.5 -9t15.5 -4.5q4 0 6 1q31 8 31 31q0 9 -4 18q-10 23 -44 52.5t-58 30.5q-17 -1 -32 -22t-20 -46q-2 -10 -2 -15
q0 -44 34 -87q6 -7 16 -18.5t16 -18t12 -16.5t9 -19q2 -8 2 -14q0 -31 -30 -81q-14 -26 -14 -31q0 -12 16 -19q13 -6 49.5 -26.5t45.5 -22.5h4q17 0 28 22q6 12 6 30q0 4 -0.5 14t-0.5 14q0 10 1 15q4 24 19 55q39 72 90 72q18 0 39.5 -16t21.5 -45q0 -52 -84 -117
q-8 -5 -8 -17q0 -19 14 -31q15 -14 40 -14q44 0 63 37q8 16 8 41q0 24 20 66v1q1 1 1 2l3 7q16 36 28 51l2 3q18 27 36 27q12 -2 12 -14q0 -6 -3 -12q-30 -51 -30 -111q0 -3 0.5 -8.5t0.5 -8.5q4 -77 36 -105q10 -8 21 -8q27 0 39 26q10 21 10 48q0 16 -4 44q-11 69 -30 111
q-27 61 -61 88q-35 30 -92 62q-49 29 -109 39q-2 0 -8.5 1t-9.5 2t-6.5 4t-3.5 9q2 11 16 11q3 0 21 -3q28 -3 82 -20t126.5 -60t105.5 -96q46 -75 46 -144q0 -21 -4 -49q-2 -27 -34.5 -69t-80.5 -44zM553 249q-19 -1 -29.5 -19t-10.5 -40v-8q2 -30 16 -30q4 0 10 3
q27 12 37 52q1 4 1 11q0 31 -24 31zM963 86q20 0 34 -14t14 -34t-14 -34t-34 -14t-34 14t-14 34t14.5 34t33.5 14z" />
    <glyph glyph-name="degree" unicode="&#xf0a1;" horiz-adv-x="1012" 
d="M792 -14h-5q-54 11 -71 21q-14 8 -23 21q-2 2 -5 7.5t-4.5 8t-5.5 5t-9 2.5q-9 0 -18.5 -6.5t-23.5 -20t-15 -14.5l-3 -3q-34 -27 -53 -27h-5q-27 5 -75 53q-7 7 -16 7q-11 0 -23 -12q-31 -33 -45 -38q-8 -2 -10 -2q-5 0 -10 2t-9 7t-6.5 8.5t-7 11t-5.5 9.5
q-2 3 -9 14.5t-10.5 17t-11 12t-15.5 10.5t-18 4t-19.5 -6t-14.5 -11.5t-14 -18t-12 -16.5q-42 -54 -78 -54q-2 0 -4 0.5t-4 0.5q-22 4 -22 20q0 19 37 59l4 5q26 28 49 40q5 2 18 8l19.5 9t16.5 9.5t16 14t9 17.5q4 11 4 25q0 45 -30 80l-3 3q-57 61 -57 84q2 13 28.5 67.5
t28.5 59.5q2 8 2 10q0 15 -17 15q-62 0 -118 -38t-56 -95q0 -10 1 -15q5 -35 27 -35h4q14 1 28 16t21 33q8 16 13 16q16 0 16 -32q-4 -59 -39 -94q-20 -20 -48 -20q-31 0 -56 22t-28 53q-1 5 -1 15q0 72 58.5 122.5t138.5 73.5q38 11 77 11q57 0 108 -22.5t80 -66.5
q28 -44 28 -75q0 -7 -1 -11q-4 -24 -21 -40t-40 -16h-5q-31 3 -58 29.5t-38 53.5q-4 12 -4 18q0 14 8 14q5 -1 7.5 -2.5t4.5 -5t3 -4.5t5.5 -7t8.5 -10.5t11.5 -9t15.5 -4.5q4 0 6 1q31 8 31 31q0 9 -4 18q-10 23 -44 52.5t-58 30.5q-17 -1 -32 -22t-20 -46q-2 -10 -2 -15
q0 -44 34 -87q6 -7 16 -18.5t16 -18t12 -16.5t9 -19q2 -8 2 -14q0 -31 -30 -81q-14 -26 -14 -31q0 -12 16 -19q13 -6 49.5 -26.5t45.5 -22.5h4q17 0 28 22q6 12 6 30q0 4 -0.5 14t-0.5 14q0 10 1 15q4 24 19 55q39 72 90 72q18 0 39.5 -16t21.5 -45q0 -52 -84 -117
q-8 -5 -8 -17q0 -19 14 -31q15 -14 40 -14q44 0 63 37q8 16 8 41q0 24 20 66v1q1 1 1 2l3 7q16 36 28 51l2 3q18 27 36 27q12 -2 12 -14q0 -6 -3 -12q-30 -51 -30 -111q0 -3 0.5 -8.5t0.5 -8.5q4 -77 36 -105q10 -8 21 -8q27 0 39 26q10 21 10 48q0 16 -4 44q-11 69 -30 111
q-27 61 -61 88q-35 30 -92 62q-49 29 -109 39q-2 0 -8.5 1t-9.5 2t-6.5 4t-3.5 9q2 11 16 11q3 0 21 -3q28 -3 82 -20t126.5 -60t105.5 -96q46 -75 46 -144q0 -21 -4 -49q-2 -27 -34.5 -69t-80.5 -44zM553 249q-19 -1 -29.5 -19t-10.5 -40v-8q2 -30 16 -30q4 0 10 3
q27 12 37 52q1 4 1 11q0 31 -24 31zM963 86q20 0 34 -14t14 -34t-14 -34t-34 -14t-34 14t-14 34t14.5 34t33.5 14z" />
    <glyph glyph-name="mu" unicode="&#xb5;" horiz-adv-x="985" 
d="M979 237q6 -5 6 -10q0 -4 -14 -23q-11 -13 -95 -104t-89 -95q-7 -5 -18 -5q-14 0 -21 7l-87 92q-9 12 -15 12t-22 -13l-100 -93q-7 -5 -19 -5q-14 0 -20 7q-3 3 -24 25.5t-40.5 43t-21.5 23.5q-11 12 -16 12q-4 0 -19 -11q-1 0 -3 -2q-11 -8 -22 -21q-12 -11 -30.5 -29
t-31 -29.5t-14.5 -13.5q-7 -5 -19 -5q-13 0 -19 7q-77 77 -87 92q-11 12 -16 12q-4 0 -19 -11q-1 0 -1 -1q-1 -1 -2 -1l-38 -34q-1 -1 -8 -7.5t-9.5 -8.5t-9.5 -5t-14 -3q-20 0 -20 10q0 3 12 24l121 137q3 3 7.5 8t8.5 9t8 7q9 9 21 9q16 -1 31 -18q2 -2 98 -114l87 99
q3 3 10.5 11.5t12.5 12.5q10 9 22 9q16 -1 31 -18l99 -115l4 4l84 96q17 19 23 24q10 9 22 9q9 0 25 -14q5 -5 43 -50t42 -49q10 -10 17 -10q8 0 19 10q4 4 44.5 52.5t46.5 53.5q8 7 19 7q10 0 20 -7z" />
    <glyph glyph-name="mu" unicode="&#xf0b5;" horiz-adv-x="985" 
d="M979 237q6 -5 6 -10q0 -4 -14 -23q-11 -13 -95 -104t-89 -95q-7 -5 -18 -5q-14 0 -21 7l-87 92q-9 12 -15 12t-22 -13l-100 -93q-7 -5 -19 -5q-14 0 -20 7q-3 3 -24 25.5t-40.5 43t-21.5 23.5q-11 12 -16 12q-4 0 -19 -11q-1 0 -3 -2q-11 -8 -22 -21q-12 -11 -30.5 -29
t-31 -29.5t-14.5 -13.5q-7 -5 -19 -5q-13 0 -19 7q-77 77 -87 92q-11 12 -16 12q-4 0 -19 -11q-1 0 -1 -1q-1 -1 -2 -1l-38 -34q-1 -1 -8 -7.5t-9.5 -8.5t-9.5 -5t-14 -3q-20 0 -20 10q0 3 12 24l121 137q3 3 7.5 8t8.5 9t8 7q9 9 21 9q16 -1 31 -18q2 -2 98 -114l87 99
q3 3 10.5 11.5t12.5 12.5q10 9 22 9q16 -1 31 -18l99 -115l4 4l84 96q17 19 23 24q10 9 22 9q9 0 25 -14q5 -5 43 -50t42 -49q10 -10 17 -10q8 0 19 10q4 4 44.5 52.5t46.5 53.5q8 7 19 7q10 0 20 -7z" />
    <glyph glyph-name="mu" unicode="&#x3bc;" horiz-adv-x="985" 
d="M979 237q6 -5 6 -10q0 -4 -14 -23q-11 -13 -95 -104t-89 -95q-7 -5 -18 -5q-14 0 -21 7l-87 92q-9 12 -15 12t-22 -13l-100 -93q-7 -5 -19 -5q-14 0 -20 7q-3 3 -24 25.5t-40.5 43t-21.5 23.5q-11 12 -16 12q-4 0 -19 -11q-1 0 -3 -2q-11 -8 -22 -21q-12 -11 -30.5 -29
t-31 -29.5t-14.5 -13.5q-7 -5 -19 -5q-13 0 -19 7q-77 77 -87 92q-11 12 -16 12q-4 0 -19 -11q-1 0 -1 -1q-1 -1 -2 -1l-38 -34q-1 -1 -8 -7.5t-9.5 -8.5t-9.5 -5t-14 -3q-20 0 -20 10q0 3 12 24l121 137q3 3 7.5 8t8.5 9t8 7q9 9 21 9q16 -1 31 -18q2 -2 98 -114l87 99
q3 3 10.5 11.5t12.5 12.5q10 9 22 9q16 -1 31 -18l99 -115l4 4l84 96q17 19 23 24q10 9 22 9q9 0 25 -14q5 -5 43 -50t42 -49q10 -10 17 -10q8 0 19 10q4 4 44.5 52.5t46.5 53.5q8 7 19 7q10 0 20 -7z" />
    <glyph glyph-name="cedilla" unicode="&#xb8;" horiz-adv-x="245" 
d="M0 0h10l226 -226v-121l-226 224h-10v123z" />
    <glyph glyph-name="cedilla" unicode="&#xf0fc;" horiz-adv-x="245" 
d="M0 0h10l226 -226v-121l-226 224h-10v123z" />
    <glyph glyph-name="questiondown" unicode="&#xbf;" horiz-adv-x="330" 
d="M324 -115q6 -6 6 -13q0 -6 -4 -10q-3 -6 -11 -6q-5 0 -8 3l-143 119l-141 -119q-3 -3 -8 -3q-7 0 -12 6q-3 4 -3 9q0 8 6 14l135 113l-135 113q-6 6 -6 14q0 5 3 9q5 6 11 6q4 0 9 -3l141 -119l143 119q3 3 8 3q8 0 11 -6q4 -4 4 -10q0 -7 -6 -13l-135 -113z" />
    <glyph glyph-name="questiondown" unicode="&#xf0c0;" horiz-adv-x="330" 
d="M324 -115q6 -6 6 -13q0 -6 -4 -10q-3 -6 -11 -6q-5 0 -8 3l-143 119l-141 -119q-3 -3 -8 -3q-7 0 -12 6q-3 4 -3 9q0 8 6 14l135 113l-135 113q-6 6 -6 14q0 5 3 9q5 6 11 6q4 0 9 -3l141 -119l143 119q3 3 8 3q8 0 11 -6q4 -4 4 -10q0 -7 -6 -13l-135 -113z" />
    <glyph glyph-name="Acircumflex" unicode="&#xc2;" horiz-adv-x="486" 
d="M373 870v-10q12 0 28 10t28 21.5t23 23t12 12.5q6 4 11 4q10 -5 10 -11l-1 -2v-2l-27 -101l-297 -1300q-3 -10 -10 -13t-30 -3q-29 0 -29 16q1 3 37 148t37 147q1 1 1 4q0 5 -5 5q-1 0 -3 -1q-18 -9 -33 -14h-1l-2 -1q-19 -7 -40 -7q-10 0 -26 4q-15 3 -28 13
q-28 23 -28 51t20 48t48 20t48 -20t20 -48l3 -10q33 2 46 36q3 7 10 33.5t13.5 54t12.5 53.5t6 27q0 8 -6 8q-3 0 -4 -1q-24 -11 -35 -15q-21 -7 -40 -7q-11 0 -27 4q-14 4 -27 14q-28 21 -28 51q0 28 20 48t48 20t48 -20t20 -48q0 -2 -0.5 -5.5t-0.5 -4.5q14 0 31 10t22 28
q4 11 20 76t18 77q2 8 2 11q0 10 -6 10q-2 0 -6 -2q-24 -11 -35 -15q-21 -7 -40 -7q-11 0 -27 4q-16 5 -28 14q-28 21 -28 51q0 28 20 48t48 20t48 -20t20 -48v-10q13 0 32.5 13t23.5 27l39 156q2 8 2 14q0 13 -5 13q-2 0 -3 -1q-38 -17 -45 -20q-18 -6 -42 -6q-13 0 -25 3
q-13 4 -28 14q-28 21 -28 51q0 28 20 48t48 20t48 -20t20 -48v-10q14 0 37.5 17t26.5 28q23 79 39 157q1 3 1 8q0 13 -12 13q-4 0 -8 -2q-18 -9 -33 -14h-1q-1 -1 -2 -1q-19 -7 -40 -7q-10 0 -26 4q-16 3 -28 14q-28 21 -28 50q0 28 20 48t48 20q29 0 48.5 -20t19.5 -48z
" />
    <glyph glyph-name="Acircumflex" unicode="&#xf0e5;" horiz-adv-x="486" 
d="M373 870v-10q12 0 28 10t28 21.5t23 23t12 12.5q6 4 11 4q10 -5 10 -11l-1 -2v-2l-27 -101l-297 -1300q-3 -10 -10 -13t-30 -3q-29 0 -29 16q1 3 37 148t37 147q1 1 1 4q0 5 -5 5q-1 0 -3 -1q-18 -9 -33 -14h-1l-2 -1q-19 -7 -40 -7q-10 0 -26 4q-15 3 -28 13
q-28 23 -28 51t20 48t48 20t48 -20t20 -48l3 -10q33 2 46 36q3 7 10 33.5t13.5 54t12.5 53.5t6 27q0 8 -6 8q-3 0 -4 -1q-24 -11 -35 -15q-21 -7 -40 -7q-11 0 -27 4q-14 4 -27 14q-28 21 -28 51q0 28 20 48t48 20t48 -20t20 -48q0 -2 -0.5 -5.5t-0.5 -4.5q14 0 31 10t22 28
q4 11 20 76t18 77q2 8 2 11q0 10 -6 10q-2 0 -6 -2q-24 -11 -35 -15q-21 -7 -40 -7q-11 0 -27 4q-16 5 -28 14q-28 21 -28 51q0 28 20 48t48 20t48 -20t20 -48v-10q13 0 32.5 13t23.5 27l39 156q2 8 2 14q0 13 -5 13q-2 0 -3 -1q-38 -17 -45 -20q-18 -6 -42 -6q-13 0 -25 3
q-13 4 -28 14q-28 21 -28 51q0 28 20 48t48 20t48 -20t20 -48v-10q14 0 37.5 17t26.5 28q23 79 39 157q1 3 1 8q0 13 -12 13q-4 0 -8 -2q-18 -9 -33 -14h-1q-1 -1 -2 -1q-19 -7 -40 -7q-10 0 -26 4q-16 3 -28 14q-28 21 -28 50q0 28 20 48t48 20q29 0 48.5 -20t19.5 -48z
" />
    <glyph glyph-name="AE" unicode="&#xc6;" horiz-adv-x="117" 
d="M0 287q0 3 3 3h3q4 -1 9.5 -1.5t12 -1t15 -1t16.5 -0.5q12 0 25 1t22 2l9 1q2 0 2 -3q-16 -32 -31.5 -121t-17.5 -163q0 -3 -9 -3q-10 0 -10 3q-2 75 -17 164t-32 120z" />
    <glyph glyph-name="AE" unicode="&#xf0ae;" horiz-adv-x="117" 
d="M0 287q0 3 3 3h3q4 -1 9.5 -1.5t12 -1t15 -1t16.5 -0.5q12 0 25 1t22 2l9 1q2 0 2 -3q-16 -32 -31.5 -121t-17.5 -163q0 -3 -9 -3q-10 0 -10 3q-2 75 -17 164t-32 120z" />
    <glyph glyph-name="Oacute" unicode="&#xd3;" horiz-adv-x="281" 
d="M282 17q0 -11 -8 -18.5t-18 -7.5h-230q-11 0 -18.5 7.5t-7.5 18.5v92q0 11 7.5 18.5t18.5 7.5h230q11 0 18.5 -7.5t7.5 -18.5v-92z" />
    <glyph glyph-name="Oacute" unicode="&#xf0ee;" horiz-adv-x="281" 
d="M282 17q0 -11 -8 -18.5t-18 -7.5h-230q-11 0 -18.5 7.5t-7.5 18.5v92q0 11 7.5 18.5t18.5 7.5h230q11 0 18.5 -7.5t7.5 -18.5v-92z" />
    <glyph glyph-name="Ocircumflex" unicode="&#xd4;" horiz-adv-x="300" 
d="M5 -235v238q18 -3 39 -3q124 0 203 137q16 28 16 55q0 5 -0.5 13t-0.5 12q0 11 -6 34.5t-12 41.5l-5 18l34 32q32 -75 32 -148q0 -19 -3 -35q-8 -50 -30.5 -83.5t-87.5 -104.5q-15 -16 -43 -40.5t-44 -40t-32 -47t-22 -72.5q-2 -7 -10.5 -14t-13.5 -7q-3 0 -6.5 3.5
t-5.5 7.5z" />
    <glyph glyph-name="Ocircumflex" unicode="&#xf0ef;" horiz-adv-x="300" 
d="M5 -235v238q18 -3 39 -3q124 0 203 137q16 28 16 55q0 5 -0.5 13t-0.5 12q0 11 -6 34.5t-12 41.5l-5 18l34 32q32 -75 32 -148q0 -19 -3 -35q-8 -50 -30.5 -83.5t-87.5 -104.5q-15 -16 -43 -40.5t-44 -40t-32 -47t-22 -72.5q-2 -7 -10.5 -14t-13.5 -7q-3 0 -6.5 3.5
t-5.5 7.5z" />
    <glyph glyph-name="Ugrave" unicode="&#xd9;" horiz-adv-x="424" 
d="M414 672q9 -2 9 -15l-27 -102l-93 -400q-22 -99 -24 -99q-105 -449 -129 -538q-1 -4 -1 -5q-6 -17 -33 -17q-32 0 -32 14q0 4 1 7l72 279q0 1 0.5 3t0.5 3q0 11 -8 11q-2 0 -4 -1t-24 -9q-19 -7 -40 -7q-11 0 -27 4q-17 5 -27 14q-28 21 -28 50q0 28 20 48t48 20t48 -20
t20 -48q0 -6 -1 -9q12 0 26.5 8t18.5 22q3 7 21 80t19 79v3q1 3 1 5q0 14 -6 14q-2 0 -3 -1q-5 -2 -13.5 -7t-16.5 -8q-21 -7 -40 -7q-11 0 -27 4q-13 4 -28 14q-28 21 -28 51q0 28 20 48t48 20t48 -20t20 -48v-10q13 0 28.5 9t20.5 26q12 33 41 162q1 2 1 5q0 9 -6 9
q-2 0 -4 -1q-7 -3 -40 -15q-18 -6 -42 -6q-13 0 -25 3q-16 5 -28 14q-28 21 -28 51q0 28 20 48t48 20t48 -20t20 -48v-10q13 0 34 13t26 27q2 7 21 81l18 75q2 8 2 10q0 11 -9 11q-3 0 -7 -2q-21 -9 -36 -15q-19 -7 -40 -7q-11 0 -27 4q-14 4 -27 14q-28 21 -28 51
q0 28 20 48t48 20t48 -20t20 -48q0 -7 -1 -10q12 0 28 10t28 21t23.5 23t12.5 13q6 4 11 4z" />
    <glyph glyph-name="Ugrave" unicode="&#xf0f4;" horiz-adv-x="424" 
d="M414 672q9 -2 9 -15l-27 -102l-93 -400q-22 -99 -24 -99q-105 -449 -129 -538q-1 -4 -1 -5q-6 -17 -33 -17q-32 0 -32 14q0 4 1 7l72 279q0 1 0.5 3t0.5 3q0 11 -8 11q-2 0 -4 -1t-24 -9q-19 -7 -40 -7q-11 0 -27 4q-17 5 -27 14q-28 21 -28 50q0 28 20 48t48 20t48 -20
t20 -48q0 -6 -1 -9q12 0 26.5 8t18.5 22q3 7 21 80t19 79v3q1 3 1 5q0 14 -6 14q-2 0 -3 -1q-5 -2 -13.5 -7t-16.5 -8q-21 -7 -40 -7q-11 0 -27 4q-13 4 -28 14q-28 21 -28 51q0 28 20 48t48 20t48 -20t20 -48v-10q13 0 28.5 9t20.5 26q12 33 41 162q1 2 1 5q0 9 -6 9
q-2 0 -4 -1q-7 -3 -40 -15q-18 -6 -42 -6q-13 0 -25 3q-16 5 -28 14q-28 21 -28 51q0 28 20 48t48 20t48 -20t20 -48v-10q13 0 34 13t26 27q2 7 21 81l18 75q2 8 2 10q0 11 -9 11q-3 0 -7 -2q-21 -9 -36 -15q-19 -7 -40 -7q-11 0 -27 4q-14 4 -27 14q-28 21 -28 51
q0 28 20 48t48 20t48 -20t20 -48q0 -7 -1 -10q12 0 28 10t28 21t23.5 23t12.5 13q6 4 11 4z" />
    <glyph glyph-name="divide" unicode="&#xf7;" horiz-adv-x="312" 
d="M312 -450q0 -6 -4.5 -10.5t-11.5 -4.5h-280q-7 0 -11.5 4.5t-4.5 10.5v896q0 6 4.5 10.5t11.5 4.5h280q7 0 11.5 -4.5t4.5 -10.5v-896zM272 344q0 6 -4.5 10.5t-10.5 4.5h-202q-6 0 -10.5 -4.5t-4.5 -10.5v-692q0 -6 4.5 -10.5t10.5 -4.5h202q6 0 10.5 4.5t4.5 10.5v692z
" />
    <glyph glyph-name="divide" unicode="&#xf0d6;" horiz-adv-x="312" 
d="M312 -450q0 -6 -4.5 -10.5t-11.5 -4.5h-280q-7 0 -11.5 4.5t-4.5 10.5v896q0 6 4.5 10.5t11.5 4.5h280q7 0 11.5 -4.5t4.5 -10.5v-896zM272 344q0 6 -4.5 10.5t-10.5 4.5h-202q-6 0 -10.5 -4.5t-4.5 -10.5v-692q0 -6 4.5 -10.5t10.5 -4.5h202q6 0 10.5 4.5t4.5 10.5v692z
" />
    <glyph glyph-name="OE" unicode="&#x152;" horiz-adv-x="269" 
d="M233 -161q37 -40 37 -57q0 -4 -5 -4q-4 0 -7 1l-1 1h-2q-45 17 -78 17q-11 0 -16 -1q-23 -4 -35 -25t-12 -47q0 -15 4 -26q2 -10 9.5 -23t16.5 -13q16 -14 16 -24q0 -1 -2 -7t-15 -6q-14 0 -26 9q-116 89 -116 155q0 39 24.5 67.5t57.5 28.5q3 0 8 -1.5t8 -1.5
q12 -3 16 -3q9 0 11 5q1 1 1 4q0 2 -6 14q-17 28 -43 60l-49 60q-10 10 -10 24q0 15 14 29q60 63 60 127q0 32 -14 62t-30.5 50.5t-16.5 21.5q-4 8 -4 16q0 21 20 21q10 0 18 -8l165 -193q4 -9 4 -19q0 -8 -4 -15q-2 -3 -13 -20.5t-15 -24t-13 -22t-12.5 -26t-7.5 -25.5
t-5 -29q0 -2 -0.5 -6.5t-0.5 -6.5q0 -26 11 -52t22 -41.5t36 -45.5z" />
    <glyph glyph-name="OE" unicode="&#xf0ce;" horiz-adv-x="269" 
d="M233 -161q37 -40 37 -57q0 -4 -5 -4q-4 0 -7 1l-1 1h-2q-45 17 -78 17q-11 0 -16 -1q-23 -4 -35 -25t-12 -47q0 -15 4 -26q2 -10 9.5 -23t16.5 -13q16 -14 16 -24q0 -1 -2 -7t-15 -6q-14 0 -26 9q-116 89 -116 155q0 39 24.5 67.5t57.5 28.5q3 0 8 -1.5t8 -1.5
q12 -3 16 -3q9 0 11 5q1 1 1 4q0 2 -6 14q-17 28 -43 60l-49 60q-10 10 -10 24q0 15 14 29q60 63 60 127q0 32 -14 62t-30.5 50.5t-16.5 21.5q-4 8 -4 16q0 21 20 21q10 0 18 -8l165 -193q4 -9 4 -19q0 -8 -4 -15q-2 -3 -13 -20.5t-15 -24t-13 -22t-12.5 -26t-7.5 -25.5
t-5 -29q0 -2 -0.5 -6.5t-0.5 -6.5q0 -26 11 -52t22 -41.5t36 -45.5z" />
    <glyph glyph-name="oe" unicode="&#x153;" 
d="M109 -141q-47 0 -78 25.5t-31 68.5q0 74 65.5 131t156.5 57q49 0 79.5 -26t30.5 -68q0 -70 -73 -129t-150 -59z" />
    <glyph glyph-name="oe" unicode="&#xf0cf;" 
d="M109 -141q-47 0 -78 25.5t-31 68.5q0 74 65.5 131t156.5 57q49 0 79.5 -26t30.5 -68q0 -70 -73 -129t-150 -59z" />
    <glyph glyph-name="Ydieresis" unicode="&#x178;" horiz-adv-x="601" 
d="M420 243q9 9 15 13q14 12 18 14q10 7 20 11q15 5 23 5q12 0 27.5 -11.5t15.5 -35.5q0 -8 -1 -12q-3 -21 -14.5 -33t-19.5 -14.5t-14 -2.5q-33 5 -33 29v4q0 12 16 31q1 1 1 3q0 6 -8 6q-3 -1 -14 -9.5t-26.5 -26.5t-25.5 -37q-3 -6 -22.5 -46.5t-38 -80t-19.5 -41.5
q-4 -11 -15 -11h-13q-20 0 -38 3q-8 0 -8 7v6q0 10 5 18q8 18 13 27l25 50q18 38 25 59q10 23 18 50q0 2 2 7t2 8v4q0 18 -10 18q-2 0 -6 -2q-50 -22 -73 -35q-14 -5 -28 -18q-5 -5 -5 -14v-7q2 -8 10 -24.5t8 -31.5q0 -13 -4 -31.5t-13.5 -41t-30 -37.5t-47.5 -15
q-29 0 -46 12t-21 24.5t-4 25.5q0 3 0.5 6t0.5 4q0 8 6 22q1 4 3.5 10.5t4.5 11.5l2 5q4 8 4 14q0 7 -6 9q-5 2 -23.5 6.5t-27.5 9.5q-21 9 -26 33q-2 5 -2 16q0 15 8 31q17 32 42 43q11 5 33 5h9q7 -2 24 -10q10 -5 19 -5q6 0 9 1q9 3 15 19l9 20q3 5 9.5 20.5t10.5 23.5
l2.5 5t3 5.5t3.5 4.5q11 13 43 13h40q5 0 5 -4q0 -3 -3 -9l-58 -124q-1 -1 -1 -3q0 -5 3 -5q7 0 49.5 22t45.5 23q17 7 36 7q30 0 34 -24q3 -14 3 -27v-6q0 -9 5 -9q1 0 3 2q0 4 16 17zM126 222q0 28 -40 37q-2 0 -4 0.5t-4 0.5q-17 0 -30 -11q-7 -6 -13 -18q-4 -12 -4 -20
q0 -30 28 -38q6 -2 11 -2q3 0 6 0.5t6.5 1.5t5.5 1q29 8 37 38q1 3 1 10zM181 156q-12 -12 -12 -22q-9 -16 -23 -48q-13 -26 -15 -39v-4q0 -23 24 -23q11 0 25 14q11 11 20.5 32t10.5 40v4q0 16 -10 31q-3 10 -12 16q-1 0 -2 0.5t-2 0.5q-2 0 -4 -2z" />
    <glyph glyph-name="Ydieresis" unicode="&#xf0d9;" horiz-adv-x="601" 
d="M420 243q9 9 15 13q14 12 18 14q10 7 20 11q15 5 23 5q12 0 27.5 -11.5t15.5 -35.5q0 -8 -1 -12q-3 -21 -14.5 -33t-19.5 -14.5t-14 -2.5q-33 5 -33 29v4q0 12 16 31q1 1 1 3q0 6 -8 6q-3 -1 -14 -9.5t-26.5 -26.5t-25.5 -37q-3 -6 -22.5 -46.5t-38 -80t-19.5 -41.5
q-4 -11 -15 -11h-13q-20 0 -38 3q-8 0 -8 7v6q0 10 5 18q8 18 13 27l25 50q18 38 25 59q10 23 18 50q0 2 2 7t2 8v4q0 18 -10 18q-2 0 -6 -2q-50 -22 -73 -35q-14 -5 -28 -18q-5 -5 -5 -14v-7q2 -8 10 -24.5t8 -31.5q0 -13 -4 -31.5t-13.5 -41t-30 -37.5t-47.5 -15
q-29 0 -46 12t-21 24.5t-4 25.5q0 3 0.5 6t0.5 4q0 8 6 22q1 4 3.5 10.5t4.5 11.5l2 5q4 8 4 14q0 7 -6 9q-5 2 -23.5 6.5t-27.5 9.5q-21 9 -26 33q-2 5 -2 16q0 15 8 31q17 32 42 43q11 5 33 5h9q7 -2 24 -10q10 -5 19 -5q6 0 9 1q9 3 15 19l9 20q3 5 9.5 20.5t10.5 23.5
l2.5 5t3 5.5t3.5 4.5q11 13 43 13h40q5 0 5 -4q0 -3 -3 -9l-58 -124q-1 -1 -1 -3q0 -5 3 -5q7 0 49.5 22t45.5 23q17 7 36 7q30 0 34 -24q3 -14 3 -27v-6q0 -9 5 -9q1 0 3 2q0 4 16 17zM126 222q0 28 -40 37q-2 0 -4 0.5t-4 0.5q-17 0 -30 -11q-7 -6 -13 -18q-4 -12 -4 -20
q0 -30 28 -38q6 -2 11 -2q3 0 6 0.5t6.5 1.5t5.5 1q29 8 37 38q1 3 1 10zM181 156q-12 -12 -12 -22q-9 -16 -23 -48q-13 -26 -15 -39v-4q0 -23 24 -23q11 0 25 14q11 11 20.5 32t10.5 40v4q0 16 -10 31q-3 10 -12 16q-1 0 -2 0.5t-2 0.5q-2 0 -4 -2z" />
    <glyph glyph-name="dotaccent" unicode="&#x2d9;" horiz-adv-x="342" 
d="M112 -145q-49 0 -80.5 25.5t-31.5 70.5q0 25 12 56t36 63t71 53.5t108 21.5q51 0 82.5 -26.5t31.5 -70.5q0 -14 -5 -35t-21 -49.5t-39.5 -52t-66.5 -40t-97 -16.5zM200 -53q58 38 81.5 62t23.5 42q0 10 -7 22q-14 24 -42 24q-39 0 -117 -45q-105 -60 -105 -103
q0 -11 7 -23q15 -26 46 -26q43 0 113 47z" />
    <glyph glyph-name="dotaccent" unicode="&#xf0fa;" horiz-adv-x="342" 
d="M112 -145q-49 0 -80.5 25.5t-31.5 70.5q0 25 12 56t36 63t71 53.5t108 21.5q51 0 82.5 -26.5t31.5 -70.5q0 -14 -5 -35t-21 -49.5t-39.5 -52t-66.5 -40t-97 -16.5zM200 -53q58 38 81.5 62t23.5 42q0 10 -7 22q-14 24 -42 24q-39 0 -117 -45q-105 -60 -105 -103
q0 -11 7 -23q15 -26 46 -26q43 0 113 47z" />
    <glyph glyph-name="hungarumlaut" unicode="&#x2dd;" horiz-adv-x="256" 
d="M10 0h-10v123h10l226 224v-121z" />
    <glyph glyph-name="hungarumlaut" unicode="&#xf0fd;" horiz-adv-x="256" 
d="M10 0h-10v123h10l226 224v-121z" />
    <glyph glyph-name="quoteleft" unicode="&#x2018;" horiz-adv-x="534" 
d="M128 -13q-12 -14 -21 -14h-99q-8 0 -8 7q0 4 3 7l399 500q12 15 18 15h106q6 0 6 -5q0 -3 -5 -10zM62 423q26 0 44.5 -18.5t18.5 -44.5t-18.5 -44t-44.5 -18t-44 18t-18 44t18 44.5t44 18.5zM469 174q26 0 44.5 -18.5t18.5 -44.5t-18.5 -44t-44.5 -18q-25 0 -43.5 18.5
t-18.5 43.5q0 26 18 44.5t44 18.5z" />
    <glyph glyph-name="quoteleft" unicode="&#xf0d4;" horiz-adv-x="534" 
d="M128 -13q-12 -14 -21 -14h-99q-8 0 -8 7q0 4 3 7l399 500q12 15 18 15h106q6 0 6 -5q0 -3 -5 -10zM62 423q26 0 44.5 -18.5t18.5 -44.5t-18.5 -44t-44.5 -18t-44 18t-18 44t18 44.5t44 18.5zM469 174q26 0 44.5 -18.5t18.5 -44.5t-18.5 -44t-44.5 -18q-25 0 -43.5 18.5
t-18.5 43.5q0 26 18 44.5t44 18.5z" />
    <glyph glyph-name="quoteright" unicode="&#x2019;" horiz-adv-x="185" 
d="M51 16q0 -16 -16 -16h-19q-16 0 -16 16v501q0 16 16 16h19q16 0 16 -16v-501zM186 517v-501q0 -16 -16 -16h-18q-16 0 -16 16v501q0 16 16 16h18q16 0 16 -16z" />
    <glyph glyph-name="quoteright" unicode="&#xf0d5;" horiz-adv-x="185" 
d="M51 16q0 -16 -16 -16h-19q-16 0 -16 16v501q0 16 16 16h19q16 0 16 -16v-501zM186 517v-501q0 -16 -16 -16h-18q-16 0 -16 16v501q0 16 16 16h18q16 0 16 -16z" />
    <glyph glyph-name="quotesinglbase" unicode="&#x201a;" horiz-adv-x="330" 
d="M146 121q12 20 20 20q7 0 19 -20q33 -49 71 -75l56 -34q17 -10 17 -17q0 -8 -17 -15q-48 -27 -62 -41q-64 -59 -72 -70q-7 -13 -15 -13t-17 13q-22 33 -58 64.5t-75 50.5q-13 6 -13 14q0 7 14 14l32 16q33 22 37 25q46 37 63 68z" />
    <glyph glyph-name="quotesinglbase" unicode="&#xf0e2;" horiz-adv-x="330" 
d="M146 121q12 20 20 20q7 0 19 -20q33 -49 71 -75l56 -34q17 -10 17 -17q0 -8 -17 -15q-48 -27 -62 -41q-64 -59 -72 -70q-7 -13 -15 -13t-17 13q-22 33 -58 64.5t-75 50.5q-13 6 -13 14q0 7 14 14l32 16q33 22 37 25q46 37 63 68z" />
    <glyph glyph-name="perthousand" unicode="&#x2030;" horiz-adv-x="247" 
d="M235 167q12 -6 12 -16q0 -2 -4 -15.5t-6 -23.5q-98 -351 -101 -353q-12 -10 -35 -10q-29 0 -29 13q8 28 30.5 95.5t42 123t20.5 61.5q1 4 1 11q0 9 -5 9q-3 0 -5 -1q-19 -10 -36 -15q-19 -7 -39 -7q-10 0 -26 4q-12 2 -28 13q-27 22 -27 51q0 28 19.5 47.5t47.5 19.5
t47.5 -19.5t19.5 -47.5v-10q11 0 27 10t27.5 20.5t23.5 22.5l12 13q6 4 11 4z" />
    <glyph glyph-name="perthousand" unicode="&#xf0e4;" horiz-adv-x="247" 
d="M235 167q12 -6 12 -16q0 -2 -4 -15.5t-6 -23.5q-98 -351 -101 -353q-12 -10 -35 -10q-29 0 -29 13q8 28 30.5 95.5t42 123t20.5 61.5q1 4 1 11q0 9 -5 9q-3 0 -5 -1q-19 -10 -36 -15q-19 -7 -39 -7q-10 0 -26 4q-12 2 -28 13q-27 22 -27 51q0 28 19.5 47.5t47.5 19.5
t47.5 -19.5t19.5 -47.5v-10q11 0 27 10t27.5 20.5t23.5 22.5l12 13q6 4 11 4z" />
    <glyph glyph-name="guilsinglleft" unicode="&#x2039;" horiz-adv-x="250" 
d="M190 -32h10q33 0 40 -7q7 -9 7 -40q0 -29 -7 -36q-10 -10 -38 -10t-40 10q-5 4 -5 38q-4 13 -14.5 29.5t-19.5 16.5q-13 0 -31 -42q-2 -2 -2 -4q0 -31 -8 -38q-9 -10 -37 -10t-40 10q-5 3 -5 38q0 33 5 38q8 7 43 7h10q14 5 30 15t16 19q0 5 -6 10t-13 9t-16.5 8.5
t-11.5 5.5q-1 0 -4.5 -0.5t-5.5 -0.5q-30 0 -42 10q-5 5 -5 39t5 37q8 7 41 7q30 0 36 -7q8 -6 8 -39q4 -14 14.5 -30.5t19.5 -16.5q12 0 33 47q0 35 5 39q7 7 41 7q31 0 37 -7q7 -9 7 -40q0 -29 -7 -36q-12 -10 -38 -10q-2 0 -6 0.5t-6 0.5q-47 -17 -47 -34q0 -5 6 -10
t13 -9t16.5 -8.5t11.5 -5.5z" />
    <glyph glyph-name="guilsinglleft" unicode="&#xf0dc;" horiz-adv-x="250" 
d="M190 -32h10q33 0 40 -7q7 -9 7 -40q0 -29 -7 -36q-10 -10 -38 -10t-40 10q-5 4 -5 38q-4 13 -14.5 29.5t-19.5 16.5q-13 0 -31 -42q-2 -2 -2 -4q0 -31 -8 -38q-9 -10 -37 -10t-40 10q-5 3 -5 38q0 33 5 38q8 7 43 7h10q14 5 30 15t16 19q0 5 -6 10t-13 9t-16.5 8.5
t-11.5 5.5q-1 0 -4.5 -0.5t-5.5 -0.5q-30 0 -42 10q-5 5 -5 39t5 37q8 7 41 7q30 0 36 -7q8 -6 8 -39q4 -14 14.5 -30.5t19.5 -16.5q12 0 33 47q0 35 5 39q7 7 41 7q31 0 37 -7q7 -9 7 -40q0 -29 -7 -36q-12 -10 -38 -10q-2 0 -6 0.5t-6 0.5q-47 -17 -47 -34q0 -5 6 -10
t13 -9t16.5 -8.5t11.5 -5.5z" />
    <glyph glyph-name="guilsinglright" unicode="&#x203a;" horiz-adv-x="533" 
d="M517 250q16 0 16 -16v-468q0 -6 -4.5 -11t-11.5 -5t-11.5 5t-4.5 11v41q0 9 -9 17.5t-21 8.5h-412q-9 0 -18 -10t-9 -20v-37q0 -6 -4.5 -11t-11.5 -5t-11.5 5t-4.5 11v468q0 16 16 16t16 -16v-48q0 -14 7.5 -22t15.5 -8h416q12 0 21 8.5t9 24.5v45q0 16 16 16zM32 13v-39
q0 -18 19.5 -29.5t52.5 -11.5h329q68 0 68 41v46q0 16 -18.5 26t-49.5 10h-334q-67 0 -67 -43z" />
    <glyph glyph-name="guilsinglright" unicode="&#xf0dd;" horiz-adv-x="533" 
d="M517 250q16 0 16 -16v-468q0 -6 -4.5 -11t-11.5 -5t-11.5 5t-4.5 11v41q0 9 -9 17.5t-21 8.5h-412q-9 0 -18 -10t-9 -20v-37q0 -6 -4.5 -11t-11.5 -5t-11.5 5t-4.5 11v468q0 16 16 16t16 -16v-48q0 -14 7.5 -22t15.5 -8h416q12 0 21 8.5t9 24.5v45q0 16 16 16zM32 13v-39
q0 -18 19.5 -29.5t52.5 -11.5h329q68 0 68 41v46q0 16 -18.5 26t-49.5 10h-334q-67 0 -67 -43z" />
    <glyph glyph-name="summation" unicode="&#x2211;" horiz-adv-x="283" 
d="M282 141q0 -11 -8 -18.5t-18 -7.5h-230q-11 0 -18.5 7.5t-7.5 18.5v92q0 11 7.5 18.5t18.5 7.5h230q11 0 18.5 -7.5t7.5 -18.5v-92z" />
    <glyph glyph-name="summation" unicode="&#xf0b7;" horiz-adv-x="283" 
d="M282 141q0 -11 -8 -18.5t-18 -7.5h-230q-11 0 -18.5 7.5t-7.5 18.5v92q0 11 7.5 18.5t18.5 7.5h230q11 0 18.5 -7.5t7.5 -18.5v-92z" />
    <glyph glyph-name="integral" unicode="&#x222b;" horiz-adv-x="413" 
d="M314 151h6q37 -1 64 -27t27 -67q0 -85 -122 -170q-6 -4 -33 -27.5t-45 -32.5q-3 -2 -6 -2q-4 0 -8 5q-3 3 -7 135q-32 -41 -84 -77q-3 -2 -32 -27t-47 -34q-3 -2 -6 -2q-5 0 -9 5q-3 4 -6 149t-4 289l-2 143q1 12 10.5 19t20.5 7q19 0 19 -16q0 -9 -3.5 -139.5
t-3.5 -141.5q0 -14 11 -17q2 -1 5 -1q5 0 14 6t10 7q19 12 33 15q4 1 14 1h6q27 0 51 -16l-3 276q1 12 10.5 19t20.5 7q19 0 19 -16q0 -9 -3 -139.5t-3 -141.5q0 -14 10 -17q1 -1 5 -1t8 2t9 6t7 5q19 12 33 15q5 1 14 1zM141 -18q16 29 16 59t-16 49q-9 10 -24 10
q-13 0 -26 -7q-12 -7 -27 -20.5t-18 -22.5q-2 -8 -2 -32l3 -98q0 -16 11 -16q4 0 9 3q50 32 74 75zM324 -18q16 31 16 59q0 29 -15 49q-9 10 -24 10q-13 0 -26 -7t-28 -20.5t-18 -22.5q-1 -3 -1 -23l3 -107q0 -16 11 -16q3 0 9 3q52 32 73 75z" />
    <glyph glyph-name="integral" unicode="&#xf0ba;" horiz-adv-x="413" 
d="M314 151h6q37 -1 64 -27t27 -67q0 -85 -122 -170q-6 -4 -33 -27.5t-45 -32.5q-3 -2 -6 -2q-4 0 -8 5q-3 3 -7 135q-32 -41 -84 -77q-3 -2 -32 -27t-47 -34q-3 -2 -6 -2q-5 0 -9 5q-3 4 -6 149t-4 289l-2 143q1 12 10.5 19t20.5 7q19 0 19 -16q0 -9 -3.5 -139.5
t-3.5 -141.5q0 -14 11 -17q2 -1 5 -1q5 0 14 6t10 7q19 12 33 15q4 1 14 1h6q27 0 51 -16l-3 276q1 12 10.5 19t20.5 7q19 0 19 -16q0 -9 -3 -139.5t-3 -141.5q0 -14 10 -17q1 -1 5 -1t8 2t9 6t7 5q19 12 33 15q5 1 14 1zM141 -18q16 29 16 59t-16 49q-9 10 -24 10
q-13 0 -26 -7q-12 -7 -27 -20.5t-18 -22.5q-2 -8 -2 -32l3 -98q0 -16 11 -16q4 0 9 3q50 32 74 75zM324 -18q16 31 16 59q0 29 -15 49q-9 10 -24 10q-13 0 -26 -7t-28 -20.5t-18 -22.5q-1 -3 -1 -23l3 -107q0 -16 11 -16q3 0 9 3q52 32 73 75z" />
    <glyph glyph-name="approxequal" unicode="&#x2248;" horiz-adv-x="322" 
d="M310 172q10 -5 10 -11v-1q-1 -2 -1 -3l-27 -101q-19 -67 -45 -152l-116 -381q-8 -23 -38 -23q-31 0 -31 18v1q1 1 1 2l95 283v1q1 1 1 2q0 5 -4 5q-18 -10 -33 -14q-21 -7 -42 -7q-13 0 -25 3q-14 4 -27 14q-28 21 -28 51q0 29 20 48.5t48 19.5t48 -20t20 -48
q0 -6 -1 -10q12 0 27.5 9t21.5 22q6 12 29.5 83.5t25.5 81.5q3 11 3 15q0 7 -5 7q-1 0 -7 -2q-19 -10 -36 -15q-21 -7 -42 -7q-14 0 -24 3q-16 5 -28 14q-28 21 -28 51q0 28 20 48t48 20t48 -19.5t20 -48.5v-10q12 0 28 10t27.5 21t23.5 24l12 12q6 4 11 4z" />
    <glyph glyph-name="approxequal" unicode="&#xf0c5;" horiz-adv-x="322" 
d="M310 172q10 -5 10 -11v-1q-1 -2 -1 -3l-27 -101q-19 -67 -45 -152l-116 -381q-8 -23 -38 -23q-31 0 -31 18v1q1 1 1 2l95 283v1q1 1 1 2q0 5 -4 5q-18 -10 -33 -14q-21 -7 -42 -7q-13 0 -25 3q-14 4 -27 14q-28 21 -28 51q0 29 20 48.5t48 19.5t48 -20t20 -48
q0 -6 -1 -10q12 0 27.5 9t21.5 22q6 12 29.5 83.5t25.5 81.5q3 11 3 15q0 7 -5 7q-1 0 -7 -2q-19 -10 -36 -15q-21 -7 -42 -7q-14 0 -24 3q-16 5 -28 14q-28 21 -28 51q0 28 20 48t48 20t48 -19.5t20 -48.5v-10q12 0 28 10t27.5 21t23.5 24l12 12q6 4 11 4z" />
    <glyph glyph-name="lessequal" unicode="&#x2264;" horiz-adv-x="249" 
d="M126 1q-16 0 -19 14l-105 459q-1 2 -1 5q0 13 14 16h4q13 0 18 -13l88 -385l89 385q3 13 17 13h4q14 -3 14 -17v-4l-106 -459q-3 -14 -17 -14z" />
    <glyph glyph-name="lessequal" unicode="&#xf0b2;" horiz-adv-x="249" 
d="M126 1q-16 0 -19 14l-105 459q-1 2 -1 5q0 13 14 16h4q13 0 18 -13l88 -385l89 385q3 13 17 13h4q14 -3 14 -17v-4l-106 -459q-3 -14 -17 -14z" />
    <glyph glyph-name="greaterequal" unicode="&#x2265;" horiz-adv-x="314" 
d="M286 318q10 0 18 -8t8 -18v-280q0 -12 -12 -12h-13q-13 0 -13 12v164q0 17 -118 17t-118 -17v-164q0 -12 -12 -12h-14q-12 0 -12 12v280q0 10 8 18t18 8h260z" />
    <glyph glyph-name="greaterequal" unicode="&#xf0b3;" horiz-adv-x="314" 
d="M286 318q10 0 18 -8t8 -18v-280q0 -12 -12 -12h-13q-13 0 -13 12v164q0 17 -118 17t-118 -17v-164q0 -12 -12 -12h-14q-12 0 -12 12v280q0 10 8 18t18 8h260z" />
    <glyph glyph-name="fi" unicode="&#xf0de;" horiz-adv-x="956" 
d="M937 400q18 0 18 -24t-18 -24h-119q-7 -139 -98.5 -240.5t-213.5 -111.5v-140q0 -18 -24 -18t-24 18v140q-122 10 -213 111.5t-99 240.5h-132q-18 0 -18 24t18 24h132q8 140 98.5 241t213.5 111v129q0 17 24 17t24 -17v-129q123 -10 214 -111t98 -241h119zM653 400
q0 48 -1 78t-5.5 67t-14.5 60t-25.5 44.5t-41 32.5t-59.5 14v-296h147zM458 696q-26 -2 -46.5 -8.5t-35.5 -20.5t-25.5 -26.5t-17 -37t-10 -41.5t-5 -50t-2 -52.5t-0.5 -59.5h142v296zM316 352q0 -44 2 -75.5t6.5 -68t14.5 -61.5t25 -47.5t39 -35t55 -16.5v304h-142zM506 48
q45 5 75 31t44.5 71t20.5 91t7 111h-147v-304z" />
    <glyph glyph-name="fi" unicode="&#xfb01;" horiz-adv-x="956" 
d="M937 400q18 0 18 -24t-18 -24h-119q-7 -139 -98.5 -240.5t-213.5 -111.5v-140q0 -18 -24 -18t-24 18v140q-122 10 -213 111.5t-99 240.5h-132q-18 0 -18 24t18 24h132q8 140 98.5 241t213.5 111v129q0 17 24 17t24 -17v-129q123 -10 214 -111t98 -241h119zM653 400
q0 48 -1 78t-5.5 67t-14.5 60t-25.5 44.5t-41 32.5t-59.5 14v-296h147zM458 696q-26 -2 -46.5 -8.5t-35.5 -20.5t-25.5 -26.5t-17 -37t-10 -41.5t-5 -50t-2 -52.5t-0.5 -59.5h142v296zM316 352q0 -44 2 -75.5t6.5 -68t14.5 -61.5t25 -47.5t39 -35t55 -16.5v304h-142zM506 48
q45 5 75 31t44.5 71t20.5 91t7 111h-147v-304z" />
  </font>
</defs>
</svg>
