<?xml version="1.0" encoding="UTF-8" standalone="no"?>
<svg
   xmlns:dc="http://purl.org/dc/elements/1.1/"
   xmlns:cc="http://creativecommons.org/ns#"
   xmlns:rdf="http://www.w3.org/1999/02/22-rdf-syntax-ns#"
   xmlns:svg="http://www.w3.org/2000/svg"
   xmlns="http://www.w3.org/2000/svg"
   xmlns:sodipodi="http://sodipodi.sourceforge.net/DTD/sodipodi-0.dtd"
   xmlns:inkscape="http://www.inkscape.org/namespaces/inkscape"
   version="1.2"
   width="5.6022677mm"
   height="7.1135445mm"
   viewBox="0 0 3.1879998 4.0479996"
   id="svg2"
   inkscape:version="0.91 r13725"
   sodipodi:docname="blanche doublement pointée.svg">
  <metadata
     id="metadata186">
    <rdf:RDF>
      <cc:Work
         rdf:about="">
        <dc:format>image/svg+xml</dc:format>
        <dc:type
           rdf:resource="http://purl.org/dc/dcmitype/StillImage" />
        <dc:title></dc:title>
        <cc:license
           rdf:resource="https://creativecommons.org/publicdomain/mark/1.0/" />
      </cc:Work>
      <cc:License
         rdf:about="http://creativecommons.org/publicdomain/zero/1.0/">
        <cc:permits
           rdf:resource="http://creativecommons.org/ns#Reproduction" />
        <cc:permits
           rdf:resource="http://creativecommons.org/ns#Distribution" />
        <cc:permits
           rdf:resource="http://creativecommons.org/ns#DerivativeWorks" />
      </cc:License>
    </rdf:RDF>
  </metadata>
  <defs
     id="defs184" />
  <sodipodi:namedview
     pagecolor="#ffffff"
     bordercolor="#666666"
     borderopacity="1"
     objecttolerance="10"
     gridtolerance="10"
     guidetolerance="10"
     inkscape:pageopacity="0"
     inkscape:pageshadow="2"
     inkscape:window-width="1920"
     inkscape:window-height="1018"
     id="namedview182"
     showgrid="false"
     fit-margin-top="0"
     fit-margin-left="0"
     fit-margin-right="0"
     fit-margin-bottom="0"
     inkscape:zoom="1.2685914"
     inkscape:cx="47.054101"
     inkscape:cy="21.72446"
     inkscape:window-x="-8"
     inkscape:window-y="-8"
     inkscape:window-maximized="1"
     inkscape:current-layer="svg2" />
  <!-- Page: 1/1 -->
  <rect
     transform="translate(0.065,1.0479997)"
     x="-0.064999998"
     y="-0.2386"
     width="0.13"
     height="3.2386"
     ry="0.039999999"
     id="rect120"
     style="fill:currentColor" />
  <path
     transform="matrix(0.004,0,0,-0.004,2.74,0.54799969)"
     d="M 0,0 C 0,31 25,56 56,56 87,56 112,31 112,0 112,-31 87,-56 56,-56 25,-56 0,-31 0,0 Z"
     id="path122"
     inkscape:connector-curvature="0"
     style="fill:currentColor" />
  <path
     transform="matrix(0.004,0,0,-0.004,1.84,0.54799969)"
     d="M 0,0 C 0,31 25,56 56,56 87,56 112,31 112,0 112,-31 87,-56 56,-56 25,-56 0,-31 0,0 Z"
     id="path124"
     inkscape:connector-curvature="0"
     style="fill:currentColor" />
  <a
     id="a126"
     transform="translate(-25.5181,-6.2973003)">
    <path
       transform="matrix(0.004,0,0,-0.004,25.5181,6.8453)"
       d="m 315,65 c 0,24 -21,41 -42,41 -4,0 -8,0 -12,-1 C 230,96 184,65 147,41 110,17 63,-12 43,-37 36,-45 32,-55 32,-65 c 0,-24 21,-41 42,-41 4,0 8,0 12,1 31,9 78,40 115,64 37,24 84,53 104,78 7,8 10,18 10,28 z m -51,72 c 47,0 83,-21 83,-72 0,-19 -4,-37 -10,-56 -12,-38 -32,-74 -65,-96 -54,-36 -113,-51 -188,-51 -47,0 -84,22 -84,73 0,19 5,37 11,56 12,38 31,74 64,96 54,36 114,50 189,50 z"
       id="path128"
       inkscape:connector-curvature="0"
       style="fill:currentColor" />
  </a>
</svg>
