<?xml version="1.0" encoding="UTF-8"?>
<svg width="45px" height="65px" viewBox="0 0 45 65" version="1.1" xmlns="http://www.w3.org/2000/svg" xmlns:xlink="http://www.w3.org/1999/xlink">
    <!-- Generator: Sketch 47.1 (45422) - http://www.bohemiancoding.com/sketch -->
    <title>note-up</title>
    <desc>Created with Sketch.</desc>
    <defs></defs>
    <g id="Page-1" stroke="none" stroke-width="1" fill="none" fill-rule="evenodd">
        <g id="note-up" fill-rule="nonzero" fill="#000000">
            <g id="dots-whole" transform="translate(33.750000, 47.500000)">
                <path d="M6,2.24 C6,3.48 7,4.48 8.24,4.48 C9.48,4.48 10.48,3.48 10.48,2.24 C10.48,1 9.48,0 8.24,0 C7,0 6,1 6,2.24 Z" id="dot2-whole"></path>
                <path d="M0,2.24 C0,3.48 1,4.48 2.24,4.48 C3.48,4.48 4.48,3.48 4.48,2.24 C4.48,1 3.48,0 2.24,0 C1,0 0,1 0,2.24 Z" id="dot1-whole"></path>
            </g>
            <g id="dots" transform="translate(27.000000, 47.500000)">
                <path d="M6,2.24 C6,3.48 7,4.48 8.24,4.48 C9.48,4.48 10.48,3.48 10.48,2.24 C10.48,1 9.48,0 8.24,0 C7,0 6,1 6,2.24 Z" id="dot2"></path>
                <path d="M0,2.24 C0,3.48 1,4.48 2.24,4.48 C3.48,4.48 4.48,3.48 4.48,2.24 C4.48,1 3.48,0 2.24,0 C1,0 0,1 0,2.24 Z" id="dot1"></path>
            </g>
            <g id="signature-whole" transform="translate(0.000000, 31.000000)">
                <path d="M2.14096916,8.98810535 L2.10132159,6.37136526 L2.10132159,5.93524191 C2.10132159,5.06299521 2.14096916,4.19074852 2.25991189,3.31850182 C4.04405286,4.82510975 5.94713656,6.49030799 5.94713656,8.82951504 C5.94713656,10.1378851 5.39207048,11.4859027 4.24229075,11.4859027 C3.01321586,11.4859027 2.18061674,10.2964754 2.14096916,8.98810535 Z M0.475770925,1.89118905 L1.77635684e-15,25.4814974 C0.317180617,25.6797353 0.713656388,25.798678 1.07048458,25.798678 C1.42731278,25.798678 1.82378855,25.6797353 2.14096916,25.4814974 L1.86343612,11.8030833 C2.85462555,12.6356824 4.16299559,13.1511009 5.47136564,13.1511009 C7.53303965,13.1511009 9,11.2480172 9,9.10704808 C9,5.93524191 5.59030837,4.46828156 3.17180617,2.40660755 C2.57709251,1.89118905 2.22026432,0.899999619 1.3876652,0.899999619 C0.872246696,0.899999619 0.475770925,1.33612297 0.475770925,1.89118905 Z" id="flat-whole" transform="translate(4.500000, 13.349339) scale(-1, 1) rotate(-180.000000) translate(-4.500000, -13.349339) "></path>
                <path d="M2.859,23.231 L2.859,16.175 L5.859,15.347 L5.859,22.367 L2.859,23.231 Z M8.766,21.524 L6.7035,22.115 L6.7035,15.095 L8.766,14.519 L8.766,11.603 L6.7035,12.179 L6.7035,5.006345 L5.859,5.006345 L5.859,12.3965 L2.859,13.259 L2.859,6.284345 L2.0625,6.284345 L2.0625,13.5245 L0,14.102 L0,17.024 L2.0625,16.448 L2.0625,23.4545 L0,24.029 L0,26.939 L2.0625,26.363 L2.0625,33.495155 L2.859,33.495155 L2.859,26.108 L5.859,25.283 L5.859,32.221655 L6.7035,32.221655 L6.7035,25.022 L8.766,24.4445 L8.766,21.524 Z" id="sharp-whole"></path>
            </g>
            <g id="signature" transform="translate(0.000000, 31.000000)">
                <path d="M2.14096916,8.98810535 L2.10132159,6.37136526 L2.10132159,5.93524191 C2.10132159,5.06299521 2.14096916,4.19074852 2.25991189,3.31850182 C4.04405286,4.82510975 5.94713656,6.49030799 5.94713656,8.82951504 C5.94713656,10.1378851 5.39207048,11.4859027 4.24229075,11.4859027 C3.01321586,11.4859027 2.18061674,10.2964754 2.14096916,8.98810535 Z M0.475770925,1.89118905 L1.77635684e-15,25.4814974 C0.317180617,25.6797353 0.713656388,25.798678 1.07048458,25.798678 C1.42731278,25.798678 1.82378855,25.6797353 2.14096916,25.4814974 L1.86343612,11.8030833 C2.85462555,12.6356824 4.16299559,13.1511009 5.47136564,13.1511009 C7.53303965,13.1511009 9,11.2480172 9,9.10704808 C9,5.93524191 5.59030837,4.46828156 3.17180617,2.40660755 C2.57709251,1.89118905 2.22026432,0.899999619 1.3876652,0.899999619 C0.872246696,0.899999619 0.475770925,1.33612297 0.475770925,1.89118905 Z" id="flat" transform="translate(4.500000, 13.349339) scale(-1, 1) rotate(-180.000000) translate(-4.500000, -13.349339) "></path>
                <path d="M2.859,23.231 L2.859,16.175 L5.859,15.347 L5.859,22.367 L2.859,23.231 Z M8.766,21.524 L6.7035,22.115 L6.7035,15.095 L8.766,14.519 L8.766,11.603 L6.7035,12.179 L6.7035,5.006345 L5.859,5.006345 L5.859,12.3965 L2.859,13.259 L2.859,6.284345 L2.0625,6.284345 L2.0625,13.5245 L0,14.102 L0,17.024 L2.0625,16.448 L2.0625,23.4545 L0,24.029 L0,26.939 L2.0625,26.363 L2.0625,33.495155 L2.859,33.495155 L2.859,26.108 L5.859,25.283 L5.859,32.221655 L6.7035,32.221655 L6.7035,25.022 L8.766,24.4445 L8.766,21.524 Z" id="sharp"></path>
            </g>
            <g id="note" transform="translate(11.000000, 0.000000)">
                <g id="flags" transform="translate(12.000000, 0.000000)">
                    <path d="M1.162,35.4800031 C1.162,28.3600031 9.282,23.8000031 9.282,16.6800031 C9.282,15.3600031 8.922,14.0800031 8.362,12.8800031 C9.082,11.4000031 9.522,9.8800031 9.522,8.2000031 C9.522,5.6800031 8.882,3.2000031 7.842,0.8800031 C7.642,0.5600031 7.362,0.4000031 7.082,0.4000031 C6.562,0.4000031 6.042,0.8400031 6.162,1.4800031 C7.202,3.5600031 7.842,5.8800031 7.842,8.2000031 C7.842,12.0800031 4.042,15.8400031 1.162,18.4800031 L1.162,15.4800031 L0.522,15.4800031 L0.522,35.4800031 L1.162,35.4800031 Z M7.282,14.8000031 C7.482,15.4000031 7.562,16.0400031 7.562,16.6800031 C7.562,20.5200031 3.922,24.2800031 1.162,26.9600031 C1.162,22.2400031 4.802,18.7200031 7.282,14.8000031 Z" id="flag-sixteenth" transform="translate(5.522000, 17.940003) scale(-1, 1) rotate(-180.000000) translate(-5.522000, -17.940003) "></path>
                    <path d="M1.162,30.4800031 C1.162,22.5600031 9.522,17.0800031 9.522,9.1600031 C9.522,6.3200031 8.882,3.5200031 7.842,0.8800031 C7.642,0.5600031 7.362,0.4000031 7.082,0.4000031 C6.562,0.4000031 6.042,0.8400031 6.162,1.4800031 C7.202,3.9200031 7.842,6.5200031 7.842,9.1600031 C7.842,13.3200031 4.042,17.4800031 1.162,20.4800031 L0.522,20.4800031 L0.522,30.4800031 L1.162,30.4800031 Z" id="flag-eighth" transform="translate(5.522000, 15.440003) scale(-1, 1) rotate(-180.000000) translate(-5.522000, -15.440003) "></path>
                </g>
                <rect id="stem" x="11.862" y="0" width="1.29999995" height="48.122001"></rect>
                <g id="heads" transform="translate(0.000000, 44.000000)">
                    <path d="M8.56884077,10.46377 C6.5760871,10.46377 5.81884071,8.7500019 5.81884071,6.9565236 C5.81884071,3.8876829 8.09057989,1.5362336 11.1594205,1.5362336 C13.1521742,1.5362336 13.9094206,3.2500018 13.9094206,5.0434801 C13.9094206,8.1123207 11.6376814,10.46377 8.56884077,10.46377 Z M19.7282613,6.0000018 C19.7282613,4.2862337 18.3333337,2.9710162 16.8188409,2.1340597 C14.7065221,0.9384075 12.3152177,0.5000017 9.88405819,0.5000017 C7.45289871,0.5000017 5.02173924,0.9384075 2.90942035,2.1340597 C1.39492757,2.9710162 0,4.2862337 0,6.0000018 C0,7.71377 1.39492757,9.0289874 2.90942035,9.8659439 C5.02173924,11.0615961 7.45289871,11.5000019 9.88405819,11.5000019 C12.3152177,11.5000019 14.7065221,11.0615961 16.8188409,9.8659439 C18.3333337,9.0289874 19.7282613,7.71377 19.7282613,6.0000018 Z" id="head-whole" transform="translate(9.864131, 6.000002) scale(-1, 1) rotate(-180.000000) translate(-9.864131, -6.000002) "></path>
                    <path d="M11.9827094,8.6200019 C11.9827094,9.5800019 11.1838621,10.2600019 10.3850148,10.2600019 C10.2328534,10.2600019 10.080692,10.2600019 9.92853065,10.2200019 C8.74927989,9.8600019 6.99942391,8.6200019 5.59193106,7.6600018 C4.18443821,6.7000018 2.39654188,5.5400018 1.63573494,4.5400018 C1.3694525,4.2200018 1.21729111,3.8200018 1.21729111,3.4200018 C1.21729111,2.4600017 2.01613841,1.7800017 2.8149857,1.7800017 C2.96714709,1.7800017 3.11930848,1.7800017 3.27146987,1.8200017 C4.45072064,2.1800017 6.23861696,3.4200018 7.64610981,4.3800018 C9.05360267,5.3400018 10.841499,6.5000018 11.6023059,7.5000018 C11.8685884,7.8200019 11.9827094,8.2200019 11.9827094,8.6200019 Z M10.0426517,11.5000019 C11.830548,11.5000019 13.2000005,10.6600019 13.2000005,8.6200019 C13.2000005,7.8600019 13.0478391,7.1400018 12.8195971,6.3800018 C12.3631129,4.8600018 11.6023059,3.4200018 10.3469745,2.5400017 C8.29279572,1.1000017 6.04841523,0.5000017 3.19538918,0.5000017 C1.40749285,0.5000017 0,1.3800017 0,3.4200018 C0,4.1800018 0.190201737,4.9000018 0.418443821,5.6600018 C0.874927989,7.1800018 1.59769459,8.6200019 2.85302605,9.5000019 C4.90720481,10.9400019 7.18962565,11.5000019 10.0426517,11.5000019 Z" id="head-half" transform="translate(6.600000, 6.000002) scale(-1, 1) rotate(-180.000000) translate(-6.600000, -6.000002) "></path>
                    <path d="M8.8,11.520003 C11.04,11.520003 13.16,10.360003 13.16,7.880003 C13.16,5.000003 10.92,3.040003 9.04,1.920003 C7.6,1.080003 6,0.480003 4.36,0.480003 C2.12,0.480003 0,1.640003 0,4.120003 C0,7.000003 2.24,8.960003 4.12,10.080003 C5.56,10.920003 7.16,11.520003 8.8,11.520003 Z" id="head" transform="translate(6.580000, 6.000003) scale(-1, 1) rotate(-180.000000) translate(-6.580000, -6.000003) "></path>
                </g>
            </g>
        </g>
    </g>
</svg>