<?xml version="1.0" encoding="UTF-8" standalone="no"?>
<svg
   xmlns:dc="http://purl.org/dc/elements/1.1/"
   xmlns:cc="http://creativecommons.org/ns#"
   xmlns:rdf="http://www.w3.org/1999/02/22-rdf-syntax-ns#"
   xmlns:svg="http://www.w3.org/2000/svg"
   xmlns="http://www.w3.org/2000/svg"
   xmlns:sodipodi="http://sodipodi.sourceforge.net/DTD/sodipodi-0.dtd"
   xmlns:inkscape="http://www.inkscape.org/namespaces/inkscape"
   version="1.2"
   width="6.8274565mm"
   height="9.7565212mm"
   viewBox="0 0 3.8852001 5.5519993"
   id="svg2"
   inkscape:version="0.91 r13725"
   sodipodi:docname="quadruple-croche doublement pointée tête en bas.svg">
  <metadata
     id="metadata186">
    <rdf:RDF>
      <cc:Work
         rdf:about="">
        <dc:format>image/svg+xml</dc:format>
        <dc:type
           rdf:resource="http://purl.org/dc/dcmitype/StillImage" />
        <dc:title></dc:title>
        <cc:license
           rdf:resource="https://creativecommons.org/publicdomain/mark/1.0/" />
      </cc:Work>
      <cc:License
         rdf:about="http://creativecommons.org/publicdomain/zero/1.0/">
        <cc:permits
           rdf:resource="http://creativecommons.org/ns#Reproduction" />
        <cc:permits
           rdf:resource="http://creativecommons.org/ns#Distribution" />
        <cc:permits
           rdf:resource="http://creativecommons.org/ns#DerivativeWorks" />
      </cc:License>
    </rdf:RDF>
  </metadata>
  <defs
     id="defs184" />
  <sodipodi:namedview
     pagecolor="#ffffff"
     bordercolor="#666666"
     borderopacity="1"
     objecttolerance="10"
     gridtolerance="10"
     guidetolerance="10"
     inkscape:pageopacity="0"
     inkscape:pageshadow="2"
     inkscape:window-width="1920"
     inkscape:window-height="1018"
     id="namedview182"
     showgrid="false"
     fit-margin-top="0"
     fit-margin-left="0"
     fit-margin-right="0"
     fit-margin-bottom="0"
     inkscape:zoom="2.5371828"
     inkscape:cx="-132.48925"
     inkscape:cy="-59.446062"
     inkscape:window-x="-8"
     inkscape:window-y="-8"
     inkscape:window-maximized="1"
     inkscape:current-layer="svg2" />
  <!-- Page: 1/1 -->
  <path
     transform="matrix(0.004,0,0,-0.004,1.3162,0.03999966)"
     d="m 0,-213 0,-12 c 0,-112 85,-197 145,-289 3,13 5,27 5,40 0,95 -85,191 -150,261 z M 0,0 c 0,-177 193,-297 193,-474 0,-31 -7,-62 -19,-90 17,-35 29,-72 29,-113 0,-39 -11,-77 -29,-112 17,-35 29,-72 29,-113 0,-33 -14,-65 -35,-91 24,-41 41,-85 41,-134 0,-61 -16,-121 -42,-176 -5,-8 -12,-11 -19,-11 -13,0 -26,11 -23,27 26,50 42,104 42,160 0,93 -95,180 -167,240 l 0,-113 -16,0 0,1000 16,0 z m 0,-438 0,-12 c 0,-114 88,-198 148,-292 8,21 12,42 12,65 0,92 -91,178 -160,239 z m 0,-224 0,-13 c 0,-110 83,-192 144,-281 10,16 16,35 16,54 0,92 -91,179 -160,240 z"
     id="path60"
     inkscape:connector-curvature="0"
     style="fill:currentColor" />
  <rect
     transform="translate(1.2512,3.4999997)"
     x="-0.064999998"
     y="-3.5"
     width="0.13"
     height="4.8122001"
     ry="0.039999999"
     id="rect62"
     style="fill:currentColor" />
  <path
     transform="matrix(0.004,0,0,-0.004,3.4372,4.9999997)"
     d="M 0,0 C 0,31 25,56 56,56 87,56 112,31 112,0 112,-31 87,-56 56,-56 25,-56 0,-31 0,0 Z"
     id="path66"
     inkscape:connector-curvature="0"
     style="fill:currentColor" />
  <path
     transform="matrix(0.004,0,0,-0.004,2.5372,4.9999997)"
     d="M 0,0 C 0,31 25,56 56,56 87,56 112,31 112,0 112,-31 87,-56 56,-56 25,-56 0,-31 0,0 Z"
     id="path68"
     inkscape:connector-curvature="0"
     style="fill:currentColor" />
  <a
     id="a70"
     transform="translate(-98.0314,-3.8453003)">
    <path
       transform="matrix(0.004,0,0,-0.004,98.0314,8.8453)"
       d="m 220,138 c 56,0 109,-29 109,-91 0,-72 -56,-121 -103,-149 -36,-21 -76,-36 -117,-36 -56,0 -109,29 -109,91 0,72 56,121 103,149 36,21 76,36 117,36 z"
       id="path72"
       inkscape:connector-curvature="0"
       style="fill:currentColor" />
  </a>
</svg>
