<?xml version="1.0" encoding="UTF-8"?>
<svg width="45px" height="69px" viewBox="0 0 45 69" version="1.1" xmlns="http://www.w3.org/2000/svg" xmlns:xlink="http://www.w3.org/1999/xlink">
    <!-- Generator: Sketch 48.2 (47327) - http://www.bohemiancoding.com/sketch -->
    <title>note-down</title>
    <desc>Created with Sketch.</desc>
    <defs></defs>
    <g id="Page-1" stroke="none" stroke-width="1" fill="none" fill-rule="evenodd">
        <g id="note-down" fill="#000000" fill-rule="nonzero">
            <g id="dots-whole" transform="translate(34.000000, 16.500000)">
                <path d="M6,2.24 C6,3.48 7,4.48 8.24,4.48 C9.48,4.48 10.48,3.48 10.48,2.24 C10.48,1 9.48,0 8.24,0 C7,0 6,1 6,2.24 Z" id="dot2-whole"></path>
                <path d="M0,2.24 C0,3.48 1,4.48 2.24,4.48 C3.48,4.48 4.48,3.48 4.48,2.24 C4.48,1 3.48,0 2.24,0 C1,0 0,1 0,2.24 Z" id="dot1-whole"></path>
            </g>
            <g id="dots" transform="translate(34.000000, 16.500000)">
                <path d="M6,2.24 C6,3.48 7,4.48 8.24,4.48 C9.48,4.48 10.48,3.48 10.48,2.24 C10.48,1 9.48,0 8.24,0 C7,0 6,1 6,2.24 Z" id="dot2"></path>
                <path d="M0,2.24 C0,3.48 1,4.48 2.24,4.48 C3.48,4.48 4.48,3.48 4.48,2.24 C4.48,1 3.48,0 2.24,0 C1,0 0,1 0,2.24 Z" id="dot1"></path>
            </g>
            <g id="signature-whole">
                <path d="M8.76948144,11.2849869 L8.76948144,33.7700005 L7.54519952,33.7700005 L7.54519952,25.3430427 L1,26.7606617 L1,4 L2.17719416,4 L2.17719416,12.7813626 L8.76948144,11.2849869 Z M2.17719416,16.5616801 L2.17719416,22.7440744 L7.54519952,21.5627251 L7.54519952,15.3803309 L2.17719416,16.5616801 Z" id="natural-whole"></path>
                <path d="M2.14096916,8.98810573 L2.10132159,6.37136564 L2.10132159,5.93524229 C2.10132159,5.06299559 2.14096916,4.1907489 2.25991189,3.3185022 C4.04405286,4.82511013 5.94713656,6.49030837 5.94713656,8.82951542 C5.94713656,10.1378855 5.39207048,11.4859031 4.24229075,11.4859031 C3.01321586,11.4859031 2.18061674,10.2964758 2.14096916,8.98810573 Z M0.475770925,1.89118943 L1.77635684e-15,25.4814978 C0.317180617,25.6797357 0.713656388,25.7986784 1.07048458,25.7986784 C1.42731278,25.7986784 1.82378855,25.6797357 2.14096916,25.4814978 L1.86343612,11.8030837 C2.85462555,12.6356828 4.16299559,13.1511013 5.47136564,13.1511013 C7.53303965,13.1511013 9,11.2480176 9,9.10704846 C9,5.93524229 5.59030837,4.46828194 3.17180617,2.40660793 C2.57709251,1.89118943 2.22026432,0.9 1.3876652,0.9 C0.872246696,0.9 0.475770925,1.33612335 0.475770925,1.89118943 Z" id="flat-whole" transform="translate(4.500000, 13.349339) scale(-1, 1) rotate(-180.000000) translate(-4.500000, -13.349339) "></path>
                <path d="M2.859,23.231 L2.859,16.175 L5.859,15.347 L5.859,22.367 L2.859,23.231 Z M8.766,21.524 L6.7035,22.115 L6.7035,15.095 L8.766,14.519 L8.766,11.603 L6.7035,12.179 L6.7035,5.006345 L5.859,5.006345 L5.859,12.3965 L2.859,13.259 L2.859,6.284345 L2.0625,6.284345 L2.0625,13.5245 L0,14.102 L0,17.024 L2.0625,16.448 L2.0625,23.4545 L0,24.029 L0,26.939 L2.0625,26.363 L2.0625,33.495155 L2.859,33.495155 L2.859,26.108 L5.859,25.283 L5.859,32.221655 L6.7035,32.221655 L6.7035,25.022 L8.766,24.4445 L8.766,21.524 Z" id="sharp-whole"></path>
            </g>
            <g id="signature" transform="translate(7.000000, 0.000000)">
                <path d="M8.76948144,11.2849869 L8.76948144,33.7700005 L7.54519952,33.7700005 L7.54519952,25.3430427 L1,26.7606617 L1,4 L2.17719416,4 L2.17719416,12.7813626 L8.76948144,11.2849869 Z M2.17719416,16.5616801 L2.17719416,22.7440744 L7.54519952,21.5627251 L7.54519952,15.3803309 L2.17719416,16.5616801 Z" id="natural"></path>
                <path d="M2.14096916,8.98810573 L2.10132159,6.37136564 L2.10132159,5.93524229 C2.10132159,5.06299559 2.14096916,4.1907489 2.25991189,3.3185022 C4.04405286,4.82511013 5.94713656,6.49030837 5.94713656,8.82951542 C5.94713656,10.1378855 5.39207048,11.4859031 4.24229075,11.4859031 C3.01321586,11.4859031 2.18061674,10.2964758 2.14096916,8.98810573 Z M0.475770925,1.89118943 L0,25.4814978 C0.317180617,25.6797357 0.713656388,25.7986784 1.07048458,25.7986784 C1.42731278,25.7986784 1.82378855,25.6797357 2.14096916,25.4814978 L1.86343612,11.8030837 C2.85462555,12.6356828 4.16299559,13.1511013 5.47136564,13.1511013 C7.53303965,13.1511013 9,11.2480176 9,9.10704846 C9,5.93524229 5.59030837,4.46828194 3.17180617,2.40660793 C2.57709251,1.89118943 2.22026432,0.9 1.3876652,0.9 C0.872246696,0.9 0.475770925,1.33612335 0.475770925,1.89118943 Z" id="flat" transform="translate(4.500000, 13.349339) scale(-1, 1) rotate(-180.000000) translate(-4.500000, -13.349339) "></path>
                <path d="M2.859,23.231 L2.859,16.175 L5.859,15.347 L5.859,22.367 L2.859,23.231 Z M8.766,21.524 L6.7035,22.115 L6.7035,15.095 L8.766,14.519 L8.766,11.603 L6.7035,12.179 L6.7035,5.006345 L5.859,5.006345 L5.859,12.3965 L2.859,13.259 L2.859,6.284345 L2.0625,6.284345 L2.0625,13.5245 L0,14.102 L0,17.024 L2.0625,16.448 L2.0625,23.4545 L0,24.029 L0,26.939 L2.0625,26.363 L2.0625,33.495155 L2.859,33.495155 L2.859,26.108 L5.859,25.283 L5.859,32.221655 L6.7035,32.221655 L6.7035,25.022 L8.766,24.4445 L8.766,21.524 Z" id="sharp"></path>
            </g>
            <g id="note" transform="translate(20.000000, 41.000000) rotate(180.000000) translate(-20.000000, -41.000000) translate(9.000000, 13.000000)">
                <g id="flags" transform="translate(12.000000, 0.000000)">
                    <path d="M1.162,35.4800029 C1.162,28.3600029 9.282,23.8000029 9.282,16.6800029 C9.282,15.3600029 8.922,14.0800029 8.362,12.8800029 C9.082,11.4000029 9.522,9.8800029 9.522,8.2000029 C9.522,5.6800029 8.882,3.2000029 7.842,0.8800029 C7.642,0.5600029 7.362,0.4000029 7.082,0.4000029 C6.562,0.4000029 6.042,0.8400029 6.162,1.4800029 C7.202,3.5600029 7.842,5.8800029 7.842,8.2000029 C7.842,12.0800029 4.042,15.8400029 1.162,18.4800029 L1.162,15.4800029 L0.522,15.4800029 L0.522,35.4800029 L1.162,35.4800029 Z M7.282,14.8000029 C7.482,15.4000029 7.562,16.0400029 7.562,16.6800029 C7.562,20.5200029 3.922,24.2800029 1.162,26.9600029 C1.162,22.2400029 4.802,18.7200029 7.282,14.8000029 Z" id="flag-sixteenth" transform="translate(5.022000, 17.940003) scale(-1, 1) rotate(-180.000000) translate(-5.022000, -17.940003) "></path>
                    <path d="M1.162,30.4800029 C1.162,22.5600029 9.522,17.0800029 9.522,9.1600029 C9.522,6.3200029 8.882,3.5200029 7.842,0.8800029 C7.642,0.5600029 7.362,0.4000029 7.082,0.4000029 C6.562,0.4000029 6.042,0.8400029 6.162,1.4800029 C7.202,3.9200029 7.842,6.5200029 7.842,9.1600029 C7.842,13.3200029 4.042,17.4800029 1.162,20.4800029 L0.522,20.4800029 L0.522,30.4800029 L1.162,30.4800029 Z" id="flag-eighth" transform="translate(5.022000, 15.440003) scale(-1, 1) rotate(-180.000000) translate(-5.022000, -15.440003) "></path>
                </g>
                <rect id="stem" x="11.862" y="-3e-06" width="1.29999995" height="48.122001"></rect>
                <g id="heads" transform="translate(0.000000, 44.000000)">
                    <path d="M8.56884077,10.4637704 C6.5760871,10.4637704 5.81884071,8.7500023 5.81884071,6.956524 C5.81884071,3.8876833 8.09057989,1.536234 11.1594205,1.536234 C13.1521742,1.536234 13.9094206,3.2500022 13.9094206,5.0434805 C13.9094206,8.1123211 11.6376814,10.4637704 8.56884077,10.4637704 Z M19.7282613,6.0000022 C19.7282613,4.2862341 18.3333337,2.9710166 16.8188409,2.1340601 C14.7065221,0.9384079 12.3152177,0.5000021 9.88405819,0.5000021 C7.45289871,0.5000021 5.02173924,0.9384079 2.90942035,2.1340601 C1.39492757,2.9710166 0,4.2862341 0,6.0000022 C0,7.7137704 1.39492757,9.0289878 2.90942035,9.8659443 C5.02173924,11.0615965 7.45289871,11.5000023 9.88405819,11.5000023 C12.3152177,11.5000023 14.7065221,11.0615965 16.8188409,9.8659443 C18.3333337,9.0289878 19.7282613,7.7137704 19.7282613,6.0000022 Z" id="head-whole" transform="translate(9.864131, 6.000002) scale(-1, 1) rotate(-180.000000) translate(-9.864131, -6.000002) "></path>
                    <path d="M11.9827094,8.6200023 C11.9827094,9.5800023 11.1838621,10.2600023 10.3850148,10.2600023 C10.2328534,10.2600023 10.080692,10.2600023 9.92853065,10.2200023 C8.74927989,9.8600023 6.99942391,8.6200023 5.59193106,7.6600022 C4.18443821,6.7000022 2.39654188,5.5400022 1.63573494,4.5400022 C1.3694525,4.2200022 1.21729111,3.8200022 1.21729111,3.4200022 C1.21729111,2.4600021 2.01613841,1.7800021 2.8149857,1.7800021 C2.96714709,1.7800021 3.11930848,1.7800021 3.27146987,1.8200021 C4.45072064,2.1800021 6.23861696,3.4200022 7.64610981,4.3800022 C9.05360267,5.3400022 10.841499,6.5000022 11.6023059,7.5000022 C11.8685884,7.8200023 11.9827094,8.2200023 11.9827094,8.6200023 Z M10.0426517,11.5000023 C11.830548,11.5000023 13.2000005,10.6600023 13.2000005,8.6200023 C13.2000005,7.8600023 13.0478391,7.1400022 12.8195971,6.3800022 C12.3631129,4.8600022 11.6023059,3.4200022 10.3469745,2.5400021 C8.29279572,1.1000021 6.04841523,0.5000021 3.19538918,0.5000021 C1.40749285,0.5000021 0,1.3800021 0,3.4200022 C0,4.1800022 0.190201737,4.9000022 0.418443821,5.6600022 C0.874927989,7.1800022 1.59769459,8.6200023 2.85302605,9.5000023 C4.90720481,10.9400023 7.18962565,11.5000023 10.0426517,11.5000023 Z" id="head-half" transform="translate(6.600000, 6.000002) scale(-1, 1) rotate(-180.000000) translate(-6.600000, -6.000002) "></path>
                    <path d="M8.8,11.520003 C11.04,11.520003 13.16,10.360003 13.16,7.880003 C13.16,5.000003 10.92,3.040003 9.04,1.920003 C7.6,1.080003 6,0.480003 4.36,0.480003 C2.12,0.480003 0,1.640003 0,4.120003 C0,7.000003 2.24,8.960003 4.12,10.080003 C5.56,10.920003 7.16,11.520003 8.8,11.520003 Z" id="head" transform="translate(6.580000, 6.000003) scale(-1, 1) rotate(-180.000000) translate(-6.580000, -6.000003) "></path>
                </g>
            </g>
        </g>
    </g>
</svg>