<?xml version="1.0" encoding="UTF-8" standalone="no"?>
<svg
   xmlns:dc="http://purl.org/dc/elements/1.1/"
   xmlns:cc="http://creativecommons.org/ns#"
   xmlns:rdf="http://www.w3.org/1999/02/22-rdf-syntax-ns#"
   xmlns:svg="http://www.w3.org/2000/svg"
   xmlns="http://www.w3.org/2000/svg"
   xmlns:sodipodi="http://sodipodi.sourceforge.net/DTD/sodipodi-0.dtd"
   xmlns:inkscape="http://www.inkscape.org/namespaces/inkscape"
   version="1.2"
   width="5.4724035mm"
   height="8.4385481mm"
   viewBox="0 0 3.1141001 4.8019998"
   id="svg2"
   inkscape:version="0.91 r13725"
   sodipodi:docname="triple-croche doublement pointée.svg">
  <metadata
     id="metadata186">
    <rdf:RDF>
      <cc:Work
         rdf:about="">
        <dc:format>image/svg+xml</dc:format>
        <dc:type
           rdf:resource="http://purl.org/dc/dcmitype/StillImage" />
        <dc:title></dc:title>
        <cc:license
           rdf:resource="https://creativecommons.org/publicdomain/mark/1.0/" />
      </cc:Work>
      <cc:License
         rdf:about="http://creativecommons.org/publicdomain/zero/1.0/">
        <cc:permits
           rdf:resource="http://creativecommons.org/ns#Reproduction" />
        <cc:permits
           rdf:resource="http://creativecommons.org/ns#Distribution" />
        <cc:permits
           rdf:resource="http://creativecommons.org/ns#DerivativeWorks" />
      </cc:License>
    </rdf:RDF>
  </metadata>
  <defs
     id="defs184" />
  <sodipodi:namedview
     pagecolor="#ffffff"
     bordercolor="#666666"
     borderopacity="1"
     objecttolerance="10"
     gridtolerance="10"
     guidetolerance="10"
     inkscape:pageopacity="0"
     inkscape:pageshadow="2"
     inkscape:window-width="1920"
     inkscape:window-height="1018"
     id="namedview182"
     showgrid="false"
     fit-margin-top="0"
     fit-margin-left="0"
     fit-margin-right="0"
     fit-margin-bottom="0"
     inkscape:zoom="1.2685914"
     inkscape:cx="291.47229"
     inkscape:cy="-71.936792"
     inkscape:window-x="-8"
     inkscape:window-y="-8"
     inkscape:window-maximized="1"
     inkscape:current-layer="svg2" />
  <!-- Page: 1/1 -->
  <path
     transform="matrix(0.004,0,0,-0.004,0.13,4.7619997)"
     d="m 0,205 c 90,50 208,128 208,228 0,23 -3,44 -8,66 C 122,411 0,342 0,220 l 0,-15 z m 227,659 c 0,26 -26,75 13,75 27,0 29,-51 29,-75 0,-38 -11,-70 -30,-100 16,-38 25,-79 25,-120 0,-38 -11,-70 -30,-100 11,-36 17,-73 17,-111 C 251,254 0,179 0,0 l -16,0 0,750 16,0 0,-105 c 98,44 227,116 227,219 z M 0,425 c 96,45 222,117 222,219 0,27 -5,54 -14,79 C 129,633 0,565 0,440 l 0,-15 z"
     id="path138"
     inkscape:connector-curvature="0"
     style="fill:currentColor" />
  <rect
     transform="translate(0.065,1.0519997)"
     x="-0.064999998"
     y="-0.31220001"
     width="0.13"
     height="4.0622001"
     ry="0.039999999"
     id="rect140"
     style="fill:currentColor" />
  <path
     transform="matrix(0.004,0,0,-0.004,2.6661,0.55199969)"
     d="M 0,0 C 0,31 25,56 56,56 87,56 112,31 112,0 112,-31 87,-56 56,-56 25,-56 0,-31 0,0 Z"
     id="path142"
     inkscape:connector-curvature="0"
     style="fill:currentColor" />
  <path
     transform="matrix(0.004,0,0,-0.004,1.7661,0.55199969)"
     d="M 0,0 C 0,31 25,56 56,56 87,56 112,31 112,0 112,-31 87,-56 56,-56 25,-56 0,-31 0,0 Z"
     id="path144"
     inkscape:connector-curvature="0"
     style="fill:currentColor" />
  <a
     id="a146"
     transform="translate(-51.9789,-6.2933003)">
    <path
       transform="matrix(0.004,0,0,-0.004,51.9789,6.8453)"
       d="m 220,138 c 56,0 109,-29 109,-91 0,-72 -56,-121 -103,-149 -36,-21 -76,-36 -117,-36 -56,0 -109,29 -109,91 0,72 56,121 103,149 36,21 76,36 117,36 z"
       id="path148"
       inkscape:connector-curvature="0"
       style="fill:currentColor" />
  </a>
</svg>
