<?xml version="1.0" encoding="utf-8"?>
<!-- Generator: Adobe Illustrator 16.0.0, SVG Export Plug-In . SVG Version: 6.00 Build 0)  -->
<!DOCTYPE svg PUBLIC "-//W3C//DTD SVG 1.1//EN" "http://www.w3.org/Graphics/SVG/1.1/DTD/svg11.dtd">
<svg version="1.1" id="Layer_1" xmlns="http://www.w3.org/2000/svg" xmlns:xlink="http://www.w3.org/1999/xlink" x="0px" y="0px"
	 width="80px" height="80px" viewBox="0 0 80 80" enable-background="new 0 0 80 80" xml:space="preserve">
<g>
	<g>
		<path fill="none" stroke="#000000" stroke-width="3.3253" stroke-miterlimit="10" d="M46.27,34.343l-2.637-2.93l6.154-7.033
			c0,0-6.299-0.879-8.645,0.732c-2.344,1.611-4.396,3.369-4.396,3.369s-1.318,3.372-1.174,4.69c0.148,1.317,1.174,4.98,1.174,4.98
			l-14.36,14.361l2.857,2.857"/>
		<path fill="none" stroke="#000000" stroke-width="3.3253" stroke-miterlimit="10" d="M46.008,34.081l2.932,2.64l7.033-6.155
			c0,0,0.877,6.3-0.732,8.645c-1.613,2.345-3.369,4.396-3.369,4.396s-3.373,1.318-4.691,1.172c-1.32-0.146-4.98-1.17-4.98-1.17
			L27.84,57.965l-2.859-2.857"/>
	</g>
	<circle fill="none" stroke="#000000" stroke-width="3.3253" stroke-miterlimit="10" cx="40" cy="40" r="30.459"/>
</g>
</svg>
