<?xml version="1.0" standalone="no"?>
<!DOCTYPE svg PUBLIC "-//W3C//DTD SVG 1.1//EN" "http://www.w3.org/Graphics/SVG/1.1/DTD/svg11.dtd" >
<svg xmlns="http://www.w3.org/2000/svg" xmlns:xlink="http://www.w3.org/1999/xlink" version="1.1">
<metadata>
Created by FontForge 20170731 at Sun Mar  9 00:14:12 2008
 By Aleksey,,,
Copyright (c) 2001, 2008 by Robert Allgeyer. SIL Open Font License.
</metadata>
<defs>
<font id="MusiSync" horiz-adv-x="1024" >
  <font-face 
    font-family="MusiSync"
    font-weight="400"
    font-stretch="normal"
    units-per-em="2048"
    panose-1="2 0 0 0 0 0 0 0 0 0"
    ascent="1638"
    descent="-410"
    x-height="96"
    cap-height="1167"
    bbox="-16 -414 2931 2255"
    underline-thickness="102"
    underline-position="-358"
    unicode-range="U+0020-2122"
  />
<missing-glyph horiz-adv-x="512" 
 />
    <glyph glyph-name=".notdef" horiz-adv-x="512" 
 />
    <glyph glyph-name=".null" horiz-adv-x="0" 
 />
    <glyph glyph-name="nonmarkingreturn" horiz-adv-x="682" 
 />
    <glyph glyph-name="uni0020" unicode=" " horiz-adv-x="512" 
 />
    <glyph glyph-name="exclam" unicode="!" horiz-adv-x="512" 
d="M420 76v-74h-420v10l127 160q29 37 59.5 74t56 71.5t42 68.5t16.5 65q0 63 -38 101t-101 38q-49 0 -72.5 -24.5t-52.5 -98.5h-37q12 53 26.5 79.5t36.5 53.5q58 62 140 62q78 0 130 -50.5t52 -122.5q0 -59 -30.5 -115.5t-96.5 -127.5l-149 -170h311zM420 838v-74h-420v10
l127 160q29 37 59.5 73.5t56 71.5t42 69t16.5 64q0 64 -38 102t-101 38q-49 0 -72.5 -24.5t-52.5 -98.5h-37q12 53 26.5 79.5t36.5 53.5q58 61 140 61q78 0 130 -50t52 -122q0 -59 -30.5 -115.5t-96.5 -127.5l-149 -170h311z" />
    <glyph glyph-name="quotedbl" unicode="&#x22;" horiz-adv-x="512" 
d="M102 0h-102v1434h102v-1434zM311 0h-106v1434h106v-1434z" />
    <glyph glyph-name="numbersign" unicode="#" horiz-adv-x="512" 
d="M449 223v-63h-99v-160h-78v160h-272v63l305 434h45v-434h99zM272 223v301l-215 -301h215zM174 1092v32q53 11 77.5 20t47.5 32q20 18 39.5 52t19.5 62q0 47 -31.5 68.5t-80.5 21.5q-47 0 -78 -26.5t-64 -81.5h-32q16 47 28.5 68.5t34.5 41.5q53 48 127 48q70 0 118 -38
t48 -98q0 -41 -19.5 -83t-70.5 -76q35 -15 43 -21t25 -20q18 -27 30.5 -47.5t12.5 -61.5q0 -108 -78 -168q-35 -29 -86.5 -42t-104.5 -13q-51 0 -80.5 12t-29.5 39q0 16 9 20.5t30 4.5q12 0 24 -2t35 -15q29 -16 50.5 -17t39.5 7q51 16 81 38.5t34 82.5q6 53 -21.5 95
t-75.5 58q-18 5 -37.5 6t-64.5 1z" />
    <glyph glyph-name="dollar" unicode="$" horiz-adv-x="512" 
d="M449 223v-63h-99v-160h-78v160h-272v63l305 434h45v-434h99zM272 223v301l-215 -301h215zM449 999v-63h-99v-162h-78v162h-272v63l305 435h45v-435h99zM272 999v301l-215 -301h215z" />
    <glyph glyph-name="percent" unicode="%" horiz-adv-x="512" 
d="M449 223v-63h-99v-160h-78v160h-272v63l305 434h45v-434h99zM272 223v301l-215 -301h215zM172 1368l-61 -151q92 -5 150 -24t95 -52q41 -37 50.5 -70t9.5 -86t-14.5 -87t-47.5 -69q-37 -41 -91 -49t-116 -8q-53 0 -84.5 12.5t-31.5 40.5q0 19 10 25t33 6q16 0 30.5 -5
t36.5 -22q9 -8 44.5 -10t72.5 15q47 22 67.5 53t24.5 100q0 37 -7 62.5t-23.5 44t-46 32t-74.5 27.5q-15 4 -35.5 6t-40.5 2h-37h-27l-16 35l96 231h252v-59h-219z" />
    <glyph glyph-name="ampersand" unicode="&#x26;" horiz-adv-x="512" 
d="M430 385v-33q-27 -4 -42 -14t-26 -41l-14 -43q-16 -37 -26.5 -60.5t-32.5 -58.5q24 -41 47.5 -57.5t50.5 -16.5q16 0 25.5 11.5t25.5 38.5l15 -11q-27 -100 -91 -100q-22 0 -49.5 19.5t-58.5 64.5q-35 -45 -71 -64.5t-74 -19.5q-52 0 -80.5 35t-28.5 98q0 113 100 195
l25 18q-14 49 -18.5 77t-4.5 54q0 58 29 96.5t70 38.5t63.5 -29.5t22.5 -76.5q0 -49 -23.5 -91t-81.5 -77q11 -29 20 -50.5t19 -41t21.5 -39t25.5 -43.5q27 37 44.5 80t17.5 71q0 23 -7.5 28t-31.5 9v33h139zM166 373l12 8q76 57 76 127q0 35 -15.5 51t-35.5 16
q-23 0 -44.5 -30.5t-21.5 -63.5q0 -16 1 -27.5t4 -22.5t8.5 -24.5t15.5 -33.5zM139 303l-2 6q-43 -37 -66.5 -82t-23.5 -88q0 -53 27.5 -73.5t62.5 -20.5q23 0 47.5 22.5t46.5 51.5q-12 24 -22 41.5t-21.5 37t-22.5 44t-26 61.5z" />
    <glyph glyph-name="quotesingle" unicode="'" horiz-adv-x="512" 
d="M102 1434v-1403v-31h-102v1403v31h102z" />
    <glyph glyph-name="parenleft" unicode="(" horiz-adv-x="512" 
d="M260 350v-2q59 -45 98 -85t39 -99q0 -76 -51 -118t-143 -42q-86 0 -144.5 38t-58.5 114q0 24 7 44.5t24.5 41t45 43t68.5 53.5q-41 33 -64.5 55.5t-35.5 43t-16 40t-4 43.5q0 66 53 109t131 43q74 0 122 -38t48 -102q0 -49 -21.5 -95t-97.5 -87zM250 266l-55 39
q-48 -35 -87.5 -68.5t-44.5 -80.5q-2 -25 10.5 -44.5t34 -31.5t48 -18.5t55.5 -6.5q47 0 77.5 23.5t35.5 58.5q2 21 1 36t-9.5 29.5t-24 29t-41.5 34.5zM166 414l45 -31q49 35 76.5 66.5t23.5 74.5q-4 47 -33.5 67.5t-66.5 20.5q-47 0 -84 -21.5t-37 -60.5q0 -41 14.5 -62.5
t61.5 -53.5zM49 813v35q119 10 196 60t87 163q-43 -24 -80 -33.5t-68 -9.5q-75 0 -121.5 50t-46.5 136q0 93 51.5 147t131.5 54q88 0 139 -63q24 -35 39.5 -85t15.5 -106q0 -45 -2 -86t-13 -77.5t-32.5 -68.5t-58.5 -59q-23 -16 -54.5 -27.5t-64.5 -17.5t-64.5 -9t-54.5 -3z
M180 1079l29 2q20 0 57 15.5t51 33.5q21 27 13 103q-11 67 -46.5 101t-84.5 34q-47 0 -85 -37t-42 -108q-4 -74 25.5 -108t82.5 -36z" />
    <glyph glyph-name="parenright" unicode=")" horiz-adv-x="512" 
d="M125 1085v31q53 10 77.5 19.5t47.5 31.5q18 21 38.5 53.5t20.5 61.5q0 47 -32.5 68.5t-79.5 21.5t-79 -26.5t-65 -81.5h-33q17 47 30 69.5t36 40.5q51 49 127 49q70 0 118 -37.5t48 -97.5q0 -41 -20.5 -83t-69.5 -77q33 -14 41 -20t24 -21q21 -26 33 -46.5t12 -61.5
q0 -111 -80 -168q-34 -29 -85.5 -42t-104.5 -13q-51 0 -81 12t-30 39q0 16 10.5 20t28.5 4q13 0 25 -2t35 -14q28 -16 49.5 -17t40.5 5q51 16 80.5 39.5t36.5 83.5q4 53 -24 94t-75 57q-18 6 -37.5 7t-62.5 1zM260 348v-2q59 -45 98 -85t39 -99q0 -76 -51 -118t-143 -42
q-86 0 -144.5 38t-58.5 114q0 24 7 44.5t24.5 41t45 43t68.5 53.5q-41 33 -64.5 55.5t-35.5 43t-16 40t-4 43.5q0 66 53 109t131 43q74 0 122 -38t48 -102q0 -49 -21.5 -95t-97.5 -87zM250 264l-55 39q-48 -35 -87.5 -68.5t-44.5 -80.5q-2 -25 10.5 -44.5t34 -31.5t48 -18.5
t55.5 -6.5q47 0 77.5 23.5t35.5 58.5q2 21 1 36t-9.5 29.5t-24 29t-41.5 34.5zM166 412l45 -31q49 35 76.5 66.5t23.5 74.5q-4 47 -33.5 67.5t-66.5 20.5q-47 0 -84 -21.5t-37 -60.5q0 -41 14.5 -62.5t61.5 -53.5z" />
    <glyph glyph-name="asterisk" unicode="*" horiz-adv-x="512" 
d="M180 365v8q-28 -19 -37.5 -25t-19.5 -12q-6 -6 -12.5 -13.5t-28.5 -31.5q-16 -17 -24.5 -23t-20.5 -6q-37 0 -37 37q0 23 14.5 33t51.5 16q34 6 54.5 14.5t51.5 26.5l-12 8q-13 9 -14 7.5t-15 9.5q-12 4 -27.5 7t-33.5 9q-37 6 -53.5 16.5t-16.5 32.5q0 37 33 37
q12 0 23.5 -7t29.5 -30q25 -28 44.5 -41.5t49.5 -31.5v12q0 22 -5 45.5t-11 52.5q-12 31 -12 53q0 33 36 33q37 0 37 -37q0 -10 -1 -21.5t-7 -27.5q-20 -39 -20 -86v-29l8 5q8 4 12 7t29 23q0 2 12 15l25 24q34 41 57 41q37 0 37 -41q0 -22 -11.5 -29.5t-41.5 -11.5
q-35 -6 -56.5 -14t-62.5 -31l12 -8q39 -27 98 -33q35 -6 48.5 -14t13.5 -31q0 -41 -37 -41q-29 0 -61 45q-23 29 -39.5 42t-34.5 20l-8 4v-8q0 -60 24 -115q8 -14 8 -33q0 -18 -12 -31.5t-29 -13.5q-16 0 -26 12.5t-10 28.5q0 14 12 49q10 25 13 43.5t3 34.5v25z" />
    <glyph glyph-name="plus" unicode="+" horiz-adv-x="512" 
d="M172 348v174h82v-174h174v-82h-174v-174h-82v174h-172v82h172z" />
    <glyph glyph-name="comma" unicode="," horiz-adv-x="518" 
d="M125 -113v27q37 25 51 44t14 42q0 4 -12 4q-2 0 -3 -1t-3 -1q-2 -2 -12 -2h-13q-26 0 -35.5 11.5t-9.5 33.5q0 49 52 49q30 0 50.5 -21.5t20.5 -56.5q0 -32 -26.5 -69t-73.5 -60z" />
    <glyph glyph-name="hyphen" unicode="-" horiz-adv-x="512" 
d="M0 299h260v-43h-260v43z" />
    <glyph glyph-name="period" unicode="." horiz-adv-x="512" 
d="M211 217q43 0 75.5 -31.5t32.5 -79.5q0 -43 -31.5 -73.5t-76.5 -30.5q-47 0 -78 30.5t-31 76.5q0 47 32 77.5t77 30.5z" />
    <glyph glyph-name="slash" unicode="/" horiz-adv-x="512" 
d="M258 612l-199 -602h-59l199 602h59z" />
    <glyph glyph-name="zero" unicode="0" horiz-adv-x="512" 
d="M201 586q86 0 139 -83t53 -218q0 -80 -24.5 -151t-63.5 -105q-47 -31 -108 -31q-84 0 -131 53q-29 37 -47.5 105.5t-18.5 134.5q0 80 24.5 149.5t63.5 104.5q47 41 113 41zM201 555h-6q-56 0 -88.5 -64.5t-32.5 -205.5q0 -138 32.5 -200t90.5 -62q57 0 88.5 61t31.5 199
q0 141 -29.5 206.5t-86.5 65.5z" />
    <glyph glyph-name="one" unicode="1" horiz-adv-x="512" 
d="M156 586h8v-523q0 -30 14.5 -36.5t67.5 -6.5v-20h-240v20q49 3 65.5 12t16.5 50v358q0 21 -2 37.5t-12 22.5q-6 4 -16.5 0t-20.5 -8l-37 -21v37z" />
    <glyph glyph-name="two" unicode="2" horiz-adv-x="512" 
d="M373 66v-66h-373v10l113 142q26 32 53 65t49.5 64.5t36.5 61.5t14 56q0 56 -33.5 89.5t-89.5 33.5q-45 0 -64.5 -21.5t-45.5 -86.5h-33q10 47 22.5 71.5t32.5 46.5q49 54 125 54q68 0 115 -44t47 -108q0 -53 -27.5 -102t-85.5 -115l-133 -151h277z" />
    <glyph glyph-name="three" unicode="3" horiz-adv-x="512" 
d="M94 285v28q47 11 68.5 18t42.5 27q16 17 34.5 47.5t18.5 55.5q0 41 -28.5 60.5t-71.5 19.5q-41 0 -70 -23.5t-57 -73.5h-29q14 41 25.5 61.5t31.5 37.5q45 43 113 43q61 0 104 -34t43 -87q0 -37 -17 -74t-62 -67q28 -13 36.5 -19t22.5 -18q16 -23 27.5 -42.5t11.5 -54.5
q0 -98 -70 -149q-30 -25 -76.5 -34t-93.5 -9q-45 0 -71.5 8t-26.5 31q0 16 9 19t26 3q10 0 21.5 -2t31.5 -12q25 -14 44.5 -15t35.5 5q45 14 71.5 34.5t30.5 73.5q4 47 -20.5 84t-65.5 52q-16 4 -33.5 5t-56.5 1z" />
    <glyph glyph-name="four" unicode="4" horiz-adv-x="512" 
d="M399 201v-58h-88v-143h-67v143h-244v58l272 385h39v-385h88zM244 201v268l-193 -268h193z" />
    <glyph glyph-name="five" unicode="5" horiz-adv-x="512" 
d="M125 522l-62 -141q80 -4 136.5 -18.5t89.5 -43.5q35 -32 44 -62t9 -77t-13.5 -77.5t-41.5 -59.5q-33 -35 -81 -40t-104 -5q-47 0 -74.5 8t-27.5 33q0 16 9 21.5t28 5.5q14 0 27.5 -4.5t33.5 -18.5q6 -8 38 -10t65 14q41 21 60.5 47.5t21.5 87.5q2 68 -26 95.5t-107 52.5
q-19 8 -68 8h-59l-9 43l82 192h246v-51h-217z" />
    <glyph glyph-name="six" unicode="6" horiz-adv-x="512" 
d="M344 600v-41q-53 0 -100 -18.5t-85 -50t-63.5 -75.5t-34.5 -93q43 24 82 33.5t70 9.5q72 0 118 -48.5t46 -115.5q0 -94 -50.5 -147.5t-131.5 -53.5q-89 0 -138 63q-28 33 -42.5 84.5t-14.5 106.5q0 90 27.5 147.5t85.5 114.5q34 37 100 60.5t131 23.5zM182 47h17
q61 2 95 45t32 107q-7 55 -35.5 89t-77.5 34q-41 0 -89 -17.5t-71 -34.5v-12q0 -37 6.5 -75t21.5 -68.5t39.5 -49t61.5 -18.5z" />
    <glyph glyph-name="seven" unicode="7" horiz-adv-x="512" 
d="M336 573v-55l-172 -518h-64l168 510h-268v63h336z" />
    <glyph glyph-name="eight" unicode="8" horiz-adv-x="512" 
d="M231 301v-2q54 -41 87.5 -76t33.5 -88q0 -67 -47 -102t-125 -35q-74 0 -127 31.5t-53 97.5q0 43 27.5 76t101.5 86q-35 28 -56.5 49.5t-32.5 39t-15.5 34t-4.5 39.5q0 59 47.5 97t116.5 38q66 0 109 -34t43 -89q0 -45 -19.5 -86t-85.5 -76zM221 225l-49 35
q-41 -31 -77 -61.5t-40 -71.5q-4 -45 39 -66.5t92 -21.5q43 0 70 21.5t31 50.5q4 36 -7.5 57.5t-58.5 56.5zM147 356l39 -26q45 28 70 57t20 68q-4 41 -29.5 59t-60.5 18q-41 0 -73.5 -18t-32.5 -53t12 -55.5t55 -49.5z" />
    <glyph glyph-name="nine" unicode="9" horiz-adv-x="512" 
d="M33 0v43q59 6 108 18.5t86 37t59.5 62.5t28.5 95q-41 -31 -78.5 -36t-68.5 -5q-76 0 -122 50t-46 136q0 93 51 147t131 54q88 0 140 -63q24 -35 39.5 -85.5t15.5 -105.5q0 -45 -2 -86t-13.5 -78t-33 -68.5t-58.5 -58.5q-22 -16 -54 -27.5t-64.5 -17.5t-64.5 -9t-54 -3z
M170 258h27q10 0 26.5 5t32.5 13.5t29.5 18.5t17.5 20q10 19 11 42.5t1 52.5q0 69 -42 107t-91 38q-47 0 -85 -37t-42 -108q-4 -74 29 -112t86 -40z" />
    <glyph glyph-name="colon" unicode=":" 
d="M385 1434h35v-1209q0 -24 -2 -28t-10 -25q-5 -12 -14 -25.5t-19 -29.5q-45 -51 -105 -82q-65 -35 -116 -35q-56 0 -86 12q-37 13 -52 49l-12 41q-2 11 -3 25t-1 31q0 59 43 112q43 49 108.5 80t131.5 31q55 0 102 -31v1084zM131 221q-20 -14 -57 -57q-37 -47 -37 -70
q6 -24 39 -37q39 0 78 21q45 14 100 59q16 8 34.5 25.5t41.5 44.5q47 53 47 84q0 24 -31 35q-78 0 -215 -105zM655 256q0 -31 -21.5 -53.5t-51.5 -22.5q-31 0 -53.5 22.5t-22.5 53.5t22.5 52.5t53.5 21.5q30 0 51.5 -21.5t21.5 -52.5zM893 256q0 -31 -21.5 -53.5
t-52.5 -22.5t-52.5 22.5t-21.5 53.5t21.5 52.5t52.5 21.5t52.5 -21.5t21.5 -52.5z" />
    <glyph glyph-name="semicolon" unicode=";" 
d="M428 231q0 -55 -41 -114q-43 -56 -110.5 -86.5t-131.5 -30.5q-57 0 -102 33q-43 33 -43 88q0 59 43 115q20 22 49 45.5t64 46.5q37 16 67.5 23t59.5 7q61 0 108 -34v1110h37v-1203zM684 215q0 -31 -22.5 -53.5t-53.5 -22.5q-30 0 -53 22.5t-23 53.5t23 53.5t53 22.5
q31 0 53.5 -22.5t22.5 -53.5zM907 215q0 -31 -21.5 -53.5t-51.5 -22.5q-33 0 -54.5 22.5t-21.5 53.5t21.5 53.5t54.5 22.5q30 0 51.5 -22.5t21.5 -53.5z" />
    <glyph glyph-name="less" unicode="&#x3c;" 
d="M233 1540v-72h-36v43q-31 -43 -107 -43q-51 0 -70.5 28t-19.5 65q0 61 51 71t146 10v19q0 20 -13.5 24.5t-64.5 4.5h-51v43h57q70 0 89 -18.5t19 -72.5v-102zM197 1599h-29q-23 0 -46.5 -1t-42 -5t-30.5 -15t-12 -30q0 -22 22.5 -29.5t51.5 -7.5q30 0 50.5 13.5
t35.5 29.5v45zM524 1511v-43h-51q-72 0 -116 36t-44 95q0 60 50.5 97t128.5 37h32v-43h-30q-62 0 -103 -26t-41 -65q0 -47 44 -67.5t89 -20.5h41zM924 1468h-2q-17 0 -26 13.5t-9 29.5q0 13 10 27t27 14q22 0 30.5 -14t8.5 -27q0 -16 -8.5 -29.5t-30.5 -13.5zM821 1511v-43
h-49q-72 0 -117 36t-45 95q0 60 49.5 97t126.5 37h17q4 0 4 -2h2h12v-41h-30q-62 0 -103 -26t-41 -65q0 -24 12.5 -40.5t32 -26.5t44 -15.5t46.5 -5.5h39z" />
    <glyph glyph-name="equal" unicode="=" horiz-adv-x="512" 
d="M408 420v-53h-408v53h408zM408 258v-53h-408v53h408z" />
    <glyph glyph-name="greater" unicode="&#x3e;" 
d="M0 1468v265h70v-43q16 24 40.5 33.5t59.5 9.5h20v-43h-26q-39 0 -60.5 -26t-33.5 -65v-131h-70zM326 1745q-17 0 -26 11t-9 20q0 10 10 21t25 11q18 0 26 -10t8 -20q0 -11 -8 -22t-26 -11zM291 1468v222h69v-222h-69zM582 1815v-82h96v-43h-96v-136q0 -43 53 -43h35v-43
h-56q-51 0 -71 21q-25 20 -25 65v136h-61v43h61v82h64zM795 1468q-21 0 -33 14.5t-12 28.5q0 13 12 25t33 12q18 0 30.5 -12t12.5 -25q0 -14 -11.5 -28.5t-31.5 -14.5z" />
    <glyph glyph-name="question" unicode="?" 
d="M209 223q27 21 39 33q6 6 14 15.5t19 21.5l71 86q35 47 73 97t67 106q20 41 34.5 73.5t34.5 94.5l21 110q4 29 7 54.5t3 48.5l-6 94q-2 26 -5 48.5t-12 39.5q-10 43 -34.5 96t-49.5 84q-51 57 -127 57q-73 0 -139 -34q-63 -39 -94 -127l-6 -21q0 -18 12 -26l29 -13l26 6
l41 9q49 0 86 -43q37 -41 37 -101q0 -37 -18 -76q-21 -41 -49 -63q-41 -23 -76 -23q-72 0 -121 56q-51 57 -51 143t32.5 153.5t85 114.5t119 72t131.5 25q93 0 179 -62q86 -63 136 -169.5t50 -223.5q0 -221 -113 -401q-16 -25 -30.5 -46.5t-28.5 -39.5q-14 -23 -31.5 -44.5
t-36.5 -44.5q-32 -36 -71 -74t-84 -77q-25 -19 -59.5 -45.5t-88.5 -61.5l-217 -145l-8 39zM825 1202q0 39 24.5 67.5t55.5 28.5q25 0 53 -28q23 -29 23 -70t-23 -70q-28 -28 -55 -28q-31 0 -55 31q-23 34 -23 69zM825 807q0 35 23 70q24 30 57 30q25 0 51 -33
q11 -14 18 -29.5t7 -37.5q0 -45 -20.5 -71.5t-55.5 -26.5q-33 0 -57 26q-23 29 -23 72z" />
    <glyph glyph-name="at" unicode="@" horiz-adv-x="512" 
d="M449 223v-63h-99v-160h-78v160h-272v63l305 434h45v-434h99zM272 223v301l-215 -301h215zM444 836v-74h-419v10l127 160q28 37 59 73.5t56.5 71.5t42 69t16.5 64q0 64 -38 102t-102 38q-49 0 -72.5 -25t-52.5 -98h-36q12 53 26.5 79.5t36.5 53.5q57 61 139 61
q78 0 130.5 -50t52.5 -122q0 -59 -31 -115.5t-96 -127.5l-150 -170h311z" />
    <glyph glyph-name="A" unicode="A" horiz-adv-x="1536" 
d="M244 57q-17 -22 -47.5 -42.5t-73.5 -20.5q-62 0 -92.5 32.5t-30.5 79.5q0 46 19.5 76.5t47 49t58.5 25.5t53 7h66q0 27 -14.5 51.5t-73.5 24.5h-86v74h92q45 0 75.5 -14.5t49 -39t27 -55.5t8.5 -61v-250h-78v63zM176 193q-43 0 -74.5 -24t-31.5 -58q0 -37 21.5 -45.5
t49.5 -8.5q21 0 39.5 8.5t32.5 18.5t22.5 21.5t8.5 17.5v27v43h-68zM496 414v-74q18 25 53 49.5t86 24.5q20 0 45 -8.5t46.5 -28t35.5 -53t14 -84.5v-246h-86v237q0 50 -9 79.5t-67 29.5q-36 0 -56.5 -27.5t-37.5 -52.5q-4 -8 -14 -31.5t-10 -33.5v-201h-84v299v121h84z
M1262 -6h-84v63q-17 -37 -51.5 -50t-86.5 -13q-73 0 -123.5 54t-50.5 147q0 104 54.5 159.5t126.5 59.5q28 0 61 -11.5t49 -33.5l21 -29v252h84v-598zM1178 246q-9 35 -47.5 64.5t-79.5 29.5q-60 0 -85.5 -37t-25.5 -102q0 -64 30.5 -104t90.5 -40q22 0 43.5 14.5t38 35
t26 44t9.5 42.5v53z" />
    <glyph glyph-name="B" unicode="B" horiz-adv-x="512" 
d="M74 291l-74 -12v110l74 17v172h61v-160l111 16v221h49v-213l78 13v-115l-78 -12v-164l78 20v-123l-78 -12v-172h-49v164l-111 -16v-222h-61v209l-74 -12v115l74 16v160zM246 315l-111 -12v-164l111 21v155z" />
    <glyph glyph-name="C" unicode="C" 
d="M268 1036q-2 -2 -19.5 -18.5t-45 -69.5t-47.5 -143v-189q10 -59 21 -97t24.5 -61.5t30 -35.5t36.5 -21v635zM362 1384v-266q21 0 56 -8t71 -23q66 -20 115 -81q41 -54 41 -129q0 -74 -67 -113l-66 -16q-25 4 -38 11t-28 29q-10 15 -14 28t-8 36q-2 22 6 46t19 40
q8 16 22 30.5t35 18.5q31 0 31 17q0 10 -23 28l-57 25q-8 2 -24.5 5t-33.5 3q-14 0 -26.5 -1t-10.5 -3v-680q31 4 52.5 8t43 11.5t34.5 19.5q24 20 45.5 44.5t35.5 55.5q39 70 39 117h39q-18 -158 -102 -236q-45 -41 -94 -59t-97 -23v-270l-90 2v277q-39 12 -85 42.5
t-91 80.5q-43 47 -67.5 116.5t-24.5 151.5q0 139 78 248q41 53 91 89t99 50v278h94z" />
    <glyph glyph-name="D" unicode="D" horiz-adv-x="1536" 
d="M1300 512v-2q0 -37 -22.5 -60.5t-58.5 -23.5q-37 0 -60.5 22.5t-23.5 59.5t23.5 60.5t60.5 23.5q36 0 58.5 -21.5t22.5 -58.5zM0 426h207v166h545v-166h204v-82h-956v82z" />
    <glyph glyph-name="E" unicode="E" horiz-adv-x="512" 
d="M207 307h-66l191 682q-70 -61 -134.5 -73.5t-150.5 57.5q-47 52 -47 95t15.5 81.5t44 57.5t56.5 20q19 0 42 -8q45 -17 66.5 -53t21.5 -83q-2 -12 -8.5 -23t-9.5 -20.5t-1 -17.5t15 -12q30 -9 59 6.5t51.5 37t50.5 60.5h33q-22 -82 -41.5 -149.5t-44 -153.5t-50.5 -175
t-50.5 -175t-42.5 -154z" />
    <glyph glyph-name="F" unicode="F" 
d="M473 1421h33v-1200v-26q-2 -5 -5 -11t-3 -14q-6 -12 -14.5 -25.5t-20.5 -27.5q-41 -47 -103 -84q-63 -33 -116 -33q-60 0 -86 14q-33 11 -54 45l-8 41q-2 11 -3 17t-1 8v31q0 61 43 114q41 47 106.5 77t131.5 30q55 0 100 -27v1071zM221 219q-10 -8 -24.5 -20.5
t-32.5 -34.5q-35 -47 -35 -72q4 -26 37 -35q39 0 78 21q24 10 49.5 24.5t50.5 32.5q16 12 34.5 29.5t37.5 40.5q49 49 49 82q0 24 -31 37q-78 0 -213 -105zM651 1438q0 78 -45 135q-51 63 -119 96q-18 10 -35.5 15.5t-35.5 9.5q-19 8 -72 8q-82 0 -157.5 -42t-123.5 -120
q-8 -10 -13 -22.5l-9 -22.5q-2 -2 -2 -16q0 -11 -2 -13q0 -6 -2 -12t-2 -16h-33q8 73 31 139q16 35 32.5 63.5t38.5 55.5q25 28 50.5 47.5t60.5 36.5q61 30 131 30q76 0 137 -30q29 -17 55.5 -36.5t47.5 -43.5q47 -53 72.5 -121t33.5 -141h-39zM401 1495q0 -31 -14 -39
q-22 -18 -43 -18q-25 0 -45 18q-14 8 -14 39q0 14 14 35q4 4 8 4q6 0 8 2q11 2 18 3t11 1q12 0 22.5 -3t20.5 -7q14 -21 14 -35z" />
    <glyph glyph-name="G" unicode="G" 
d="M424 522q-49 -16 -81 -54t-39 -83t11.5 -89t69.5 -71q12 0 15 -10t-9 -10q-49 10 -86 41q-69 57 -76 147q-4 45 8.5 87t34.5 77q27 37 64 64q2 2 11.5 9t18.5 13t27 19l-37 178q-49 -41 -97 -90.5t-87 -104.5t-62.5 -116.5t-23.5 -129.5q0 -63 26.5 -118.5t70.5 -96.5
t101.5 -64.5t116.5 -23.5q2 0 18.5 2t35 5t34 6.5t15.5 7.5l-6 28q-39 197 -74 377zM459 526l82 -397q71 27 96 92.5t11.5 133t-63.5 119.5t-126 52zM354 1061q31 16 57.5 48t49 68.5t39 74.5t26.5 69q11 33 15 74t-13 69q-12 25 -31.5 29t-39 -3t-37 -22.5t-25.5 -27.5
q-22 -39 -38.5 -87t-22.5 -99.5t-1.5 -99t21.5 -93.5zM324 1030q-17 66 -30 129.5t-13 130.5q0 49 7 107.5t25.5 114t51 99.5t86.5 64q5 2 10 2q7 0 16.5 -8t20 -23.5t18.5 -32t12 -22.5q27 -51 39.5 -108.5t14.5 -114.5q4 -86 -9.5 -170t-54.5 -164q-14 -24 -28.5 -48.5
t-34.5 -47.5l-14.5 -14.5l-21.5 -21.5t-19.5 -20.5t-8.5 -11.5l41 -200q0 2 20.5 0t45 -6.5t46 -8.5t25.5 -6q52 -24 89.5 -66t60 -94.5t22.5 -106.5t-16 -110q-41 -106 -131 -157q-10 -6 -28.5 -13.5t-14.5 -23.5q24 -109 32.5 -150t12.5 -106q4 -62 -21.5 -112
t-68.5 -81.5t-78.5 -37t-48.5 -5.5q-45 0 -88 17q-53 20 -89 61t-36 100q0 37 21.5 76t56.5 56q39 20 70.5 11t52 -34t28.5 -60.5t-1 -66.5t-36.5 -52.5t-76.5 -19.5q20 -36 56 -45.5t74 -1.5t71.5 29.5t52.5 46.5q12 18 18 47t7 60.5t-2 49t-10 54.5q-30 121 -38 152
q-4 10 -21.5 6.5t-29.5 -6.5q-86 -11 -144 10q-90 24 -158.5 85.5t-110 149t-41.5 133v57.5q0 81 28 152q53 111 125.5 204t165.5 173z" />
    <glyph glyph-name="H" unicode="H" 
d="M0 428h207v166h545v-166h198v-82h-950v82z" />
    <glyph glyph-name="I" unicode="I" 
d="M254 307h-66l191 682q-35 -31 -75 -59.5t-83 -44t-87 -11t-87 38.5q-37 31 -41.5 63t-4.5 46q0 33 15 69.5t43 56t53 19.5q24 0 46 -8q45 -16 66.5 -52t21.5 -83q-2 -12 -8.5 -23.5t-9.5 -20.5t-1 -17.5t15 -12.5q30 -8 66 16.5t68 57.5t75 90h32q-22 -82 -41.5 -149.5
t-44 -153.5t-50 -175t-50.5 -175t-43 -154zM752 727q0 -37 -26 -63.5t-62 -26.5q-37 0 -64 26.5t-27 63.5t27 62.5t64 25.5q36 0 62 -25.5t26 -62.5z" />
    <glyph glyph-name="J" unicode="J" 
d="M338 958q-76 -88 -107 -143q-14 -29 -22 -55.5t-8 -50.5q0 -41 32 -105l41 -61q5 -4 9 -11.5t12 -17.5q10 -10 18.5 -22.5t18.5 -22.5l-21 -29q-10 6 -24.5 12.5t-30.5 14.5q-18 6 -30.5 8t-22.5 2q-37 0 -53 -22q-9 -15 -14 -30t-7 -32q0 -22 16 -78q15 -41 50 -73
l-17 -27q-41 31 -72.5 59.5t-54.5 55.5q-10 12 -19 27.5t-20 31.5q-12 31 -12 64q0 51 33 84q41 28 88 28q43 0 102 -30l-203 274q136 117 136 221q0 80 -86 189h57zM602 805q0 -29 -20.5 -48.5t-49.5 -19.5q-28 0 -48.5 19.5t-20.5 48.5t20.5 50.5t48.5 21.5
q29 0 49.5 -21.5t20.5 -50.5z" />
    <glyph glyph-name="K" unicode="K" horiz-adv-x="512" 
d="M449 999v-63h-99v-162h-78v162h-272v63l305 435h45v-435h99zM272 999v301l-215 -301h215zM442 76v-74h-419v10l127 160q28 37 59 74t56.5 71.5t42 68.5t16.5 65q0 63 -38 101t-102 38q-49 0 -72.5 -24.5t-52.5 -98.5h-36q12 53 26 79.5t37 53.5q57 62 139 62
q78 0 130.5 -50.5t52.5 -122.5q0 -59 -31 -115.5t-96 -127.5l-150 -170h311z" />
    <glyph glyph-name="L" unicode="L" horiz-adv-x="512" 
d="M420 76v-74h-420v10l127 160q29 37 59.5 74t56 71.5t42 68.5t16.5 65q0 63 -38 101t-101 38q-49 0 -72.5 -24.5t-52.5 -98.5h-37q12 53 26.5 79.5t36.5 53.5q58 62 140 62q78 0 130 -50.5t52 -122.5q0 -59 -30.5 -115.5t-96.5 -127.5l-149 -170h311zM137 1083v31
q53 10 78 19.5t47 31.5q19 21 39.5 53.5t20.5 61.5q0 47 -33 68.5t-80 21.5t-79 -26.5t-64 -81.5h-33q16 47 29.5 69.5t35.5 40.5q52 49 127 49q70 0 118 -37.5t48 -97.5q0 -41 -20.5 -83t-69.5 -77q33 -14 41 -20t25 -21q20 -26 32.5 -46.5t12.5 -61.5q0 -111 -80 -168
q-35 -29 -86 -42t-105 -13q-51 0 -80.5 12t-29.5 39q0 16 10 20t29 4q12 0 24 -2t35 -14q29 -16 50.5 -17t39.5 5q51 16 81 39.5t36 83.5q4 53 -23.5 94t-74.5 57q-19 6 -38.5 7t-62.5 1z" />
    <glyph glyph-name="M" unicode="M" horiz-adv-x="2048" 
d="M981 1176v118h-555v-118h555zM426 229q0 -55 -39 -112q-43 -56 -110.5 -86.5t-131.5 -30.5q-57 0 -102 33q-43 33 -43 88q0 59 43 115q20 22 49 45.5t64 46.5q37 16 67.5 23t59.5 7q61 0 108 -34v1110h1460v-1203q0 -61 -41 -114q-43 -56 -110.5 -86.5t-128.5 -30.5
q-58 0 -103 33q-43 33 -43 88q0 59 43 115q43 51 111 92q37 16 68.5 23t60.5 7q55 0 109 -34v970h-801v-1063q0 -55 -41 -114q-43 -56 -110.5 -86.5t-131.5 -30.5q-55 0 -100 33t-45 88q0 63 45 115q39 51 110 92q37 16 68 23t59 7q58 0 111 -34v716h-555v-811z" />
    <glyph glyph-name="N" unicode="N" 
d="M909 1174v120h-483v-120h483zM944 1434v-1203q0 -61 -41 -114q-43 -56 -110.5 -86.5t-128.5 -30.5q-58 0 -103 33t-45 88q0 57 45 115q43 51 111 92q37 16 68.5 23t60.5 7q55 0 108 -34v716h-483v-809q0 -57 -39 -114q-43 -56 -110.5 -86.5t-131.5 -30.5q-57 0 -102 33
q-43 33 -43 88q0 59 43 115q20 22 49 45.5t64 46.5q37 16 67.5 23t59.5 7q61 0 108 -34v1110h553z" />
    <glyph glyph-name="O" unicode="O" horiz-adv-x="1536" 
d="M1262 227q0 -30 -22.5 -51.5t-53.5 -21.5t-52.5 21.5t-21.5 51.5q0 33 21.5 54.5t52.5 21.5t53.5 -21.5t22.5 -54.5zM391 1434h623v-1203q0 -61 -41 -114q-41 -56 -108.5 -86.5t-131.5 -30.5q-55 0 -100 33t-45 88q0 63 45 115q39 51 110 92q37 16 68 23t59 7
q62 0 109 -34v972h-553v-122h240v-134h-240v-809q0 -61 -41 -114q-41 -56 -108.5 -86.5t-131.5 -30.5q-57 0 -102 33q-43 33 -43 88q0 59 43 115q20 22 49 45.5t64 46.5q34 16 66 23t61 7q61 0 108 -34v1110z" />
    <glyph glyph-name="P" unicode="P" horiz-adv-x="512" 
d="M287 344v-2q59 -45 98 -85t39 -99q0 -76 -51 -117t-144 -41q-86 0 -144 37t-58 113q0 24 7 44.5t24.5 41t45 43t68.5 53.5q-41 33 -64.5 55.5t-36 43t-16.5 39.5t-4 44q0 66 53.5 109t131.5 43q73 0 121.5 -38t48.5 -102q0 -49 -22 -95t-97 -87zM276 260l-55 39
q-47 -35 -87 -68.5t-44 -80.5q-2 -25 10.5 -44.5t34 -32t48 -18.5t55.5 -6q47 0 77.5 23.5t34.5 58.5q2 21 1 36t-9 29.5t-23.5 29t-42.5 34.5zM193 408l45 -31q49 35 76.5 66.5t23.5 74.5q-4 47 -34 67.5t-66 20.5q-48 0 -84.5 -21.5t-36.5 -60.5q0 -41 14 -62.5t62 -53.5z
M389 1421l-2 -47q-59 0 -112.5 -20.5t-95.5 -56t-70.5 -85t-38.5 -104.5q47 29 91 38t79 9q82 0 133 -53.5t51 -130.5q0 -109 -56.5 -167.5t-148.5 -58.5q-102 0 -156 72q-32 37 -47.5 94.5t-15.5 120.5q0 101 31.5 165.5t95.5 129.5q41 41 114.5 67.5t147.5 26.5zM205 799
h18q70 2 108 50t36 120q-9 63 -31.5 88.5t-75.5 42.5q-20 6 -50 2t-58.5 -12.5t-54 -19.5t-38.5 -19v-15q0 -43 7.5 -85t25 -75.5t45 -55t68.5 -21.5z" />
    <glyph glyph-name="Q" unicode="Q" horiz-adv-x="512" 
d="M291 924q-66 -74 -92 -123q-27 -51 -27 -92q0 -35 29 -88l35 -54q6 -6 18 -24q8 -11 14 -20t17 -19l-19 -25q-8 4 -19 10.5t-27.5 14.5t-45.5 8q-31 0 -45 -20q-14 -19 -18 -54q0 -37 14 -65q8 -17 17.5 -33t25.5 -31l-14 -22q-74 49 -109 98q-10 8 -17.5 21.5
t-15.5 29.5q-12 27 -12 56q0 36 29 71q34 23 75 23q39 0 89 -25l-175 234q115 102 115 190q0 66 -72 162h48z" />
    <glyph glyph-name="R" unicode="R" horiz-adv-x="1536" 
d="M211 252q0 -31 2 -44t12 -42q8 -16 17.5 -33.5t23.5 -34.5q49 -63 121 -63q55 6 78 35q18 26 18 110q0 21 -4 41.5t-10 38.5q-6 21 -17.5 39t-25.5 35q-47 61 -123 61q-47 -6 -69.5 -34.5t-22.5 -108.5zM0 215q0 78 61 127q60 49 134 68q16 4 34.5 7t38.5 7q37 6 72 6
q84 0 152 -20q79 -17 141 -68q63 -45 63 -127q0 -72 -55 -121q-53 -47 -135 -71q-41 -13 -80 -18t-74 -5q-71 0 -151 19.5t-140 68.5q-61 49 -61 127zM993 295q0 -37 -25.5 -63.5t-62.5 -26.5t-63.5 26.5t-26.5 63.5t26.5 62.5t63.5 25.5t62.5 -25.5t25.5 -62.5z" />
    <glyph glyph-name="S" unicode="S" horiz-adv-x="512" 
d="M324 1018l-70 -31l-29 -8l-32 -2q-46 0 -78 27q-35 28 -35 69q0 35 20.5 61.5t55.5 32.5q45 0 71 -26q23 -29 23 -62q0 -10 -1 -16t-7 -29l14 -6q72 23 123 107h20l-229 -828h-43l117 416q-82 -45 -133 -45q-41 0 -78 31q-33 26 -33 67q0 37 24.5 66.5t63.5 29.5
q27 0 57 -30q21 -27 21 -66l-6 -16l-6 -17q2 -12 20 -14q21 0 86 53z" />
    <glyph glyph-name="T" unicode="T" horiz-adv-x="2048" 
d="M1149 1430h676h35v-134v-1065q0 -61 -41 -114q-43 -56 -111 -86.5t-127 -30.5q-55 0 -100 31q-47 41 -47 88q0 61 47 114q37 54 106 93q41 16 71 23t60 7q56 0 107 -32v966h-676v-1059q0 -55 -41 -114q-41 -56 -108.5 -86.5t-133.5 -30.5q-55 0 -100 31q-43 37 -43 88
q0 61 43 114q22 27 51 49.5t62 43.5q34 16 66 23t61 7q30 0 55.5 -8t54.5 -24v966h-690v-1059q0 -61 -41 -114q-43 -56 -110.5 -86.5t-129.5 -30.5q-30 0 -53.5 8t-46.5 23q-45 39 -45 88q0 63 45 114q21 27 48.5 50.5t64.5 42.5q35 16 65.5 23t59.5 7q61 0 106 -32v1106h37
h723zM1933 1475v141h-637v43h674v-184h-37zM195 1473v186h761v-43h-725v-143h-36zM1094 1630v15q22 4 33.5 8t21.5 14q10 8 18.5 23.5t8.5 27.5q0 39 -50 39q-22 0 -35.5 -11t-27.5 -36h-14q6 21 12 30t16 19q21 21 56 21q30 0 51.5 -16.5t21.5 -43.5q0 -18 -8 -36.5
t-31 -34.5q15 -7 19 -10t10 -9q10 -10 15.5 -20.5t5.5 -26.5q0 -47 -35 -76q-35 -24 -86 -24q-49 0 -49 22q0 13 18 13q4 0 10 -1t17 -8q24 -10 38 -4q23 6 36.5 16.5t15.5 37.5q4 24 -8.5 42.5t-34.5 24.5q-21 4 -45 4z" />
    <glyph glyph-name="U" unicode="U" horiz-adv-x="1536" 
d="M674 -393q-129 0 -249 43t-243 137q-4 0 -21.5 26.5t-42 65.5t-49 83t-42 78t-21 45t-4.5 15q0 3 2 3q3 -1 10 -7q31 -20 60.5 -53t54.5 -66.5t44.5 -61.5t29.5 -36q123 -96 255 -132t259 -36q123 0 244.5 39t240.5 125q12 6 32.5 35t46.5 63.5t55.5 69.5t58.5 54
q8 6 10 6q5 0 5 -7q0 -3 -3.5 -14.5t-22 -46.5t-45 -78t-51 -81t-42 -63.5t-15.5 -25.5q-123 -94 -237.5 -137t-243.5 -43h-76z" />
    <glyph glyph-name="V" unicode="V" horiz-adv-x="2048" 
d="M946 -379q-47 0 -127 8.5t-173 27.5t-189.5 51t-177.5 79q0 2 -26 29.5t-62.5 68.5t-77.5 86t-70 82t-35.5 50.5t-6.5 17.5q0 5 5 5q4 0 12 -3q19 -8 57 -42t79 -73t76.5 -72.5t52.5 -41.5q174 -101 351 -134.5t351 -33.5t343 40.5t335 127.5q14 6 50 38.5t77 71.5t80 74
t57 45q8 3 12 3t4 -4t-7 -16t-35.5 -49t-68.5 -84t-77 -88t-62.5 -69.5t-70.5 -45t-142.5 -46t-184.5 -53t-159.5 -37t-113.5 -13.5h-76zM1391 1432v-1432h-99v1432h99z" />
    <glyph glyph-name="W" unicode="W" 
d="M842 766h-207v-172h-426v172h-209v82h842v-82z" />
    <glyph glyph-name="X" unicode="X" horiz-adv-x="512" 
d="M283 76q0 33 -22.5 49t-47.5 16q-29 0 -51 -16q-23 -19 -23 -49v-76h-139v141h90q25 6 37 27q12 14 12 47q0 27 -14 47q-14 25 -27 27h-98v141h139v-88q0 -20 23 -37l20 -12l31 -4q27 0 47 14q19 14 23 37v90h149v-141h-92q-21 -6 -39 -27q-8 -10 -13 -22.5t-5 -24.5
q0 -27 14 -47.5t43 -26.5h92v-141h-149v76z" />
    <glyph glyph-name="Y" unicode="Y" horiz-adv-x="3072" 
d="M391 1434h2540v-1203q0 -61 -41 -114q-43 -56 -110.5 -86.5t-129.5 -30.5q-57 0 -102 33q-43 33 -43 88q0 59 43 115q43 53 112 92q35 16 67 23t60 7q56 0 109 -34v970h-799v-1063q0 -61 -41 -114q-43 -56 -110.5 -86.5t-128.5 -30.5q-58 0 -103 33q-43 33 -43 88
q0 59 43 115q43 51 111 92q37 16 68.5 23t60.5 7q55 0 108 -34v970h-800v-1063q0 -55 -41 -114q-43 -56 -111 -86.5t-131 -30.5q-55 0 -100 33t-45 88q0 63 45 115q39 51 110 92q37 16 67.5 23t59.5 7q58 0 111 -34v970h-801v-1065q0 -55 -39 -112q-43 -56 -110.5 -86.5
t-131.5 -30.5q-57 0 -102 33q-43 33 -43 88q0 59 43 115q20 22 49 45.5t64 46.5q37 16 67.5 23t59.5 7q61 0 108 -34v1110z" />
    <glyph glyph-name="Z" unicode="Z" 
d="M264 242q0 -31 2 -43.5t15 -40.5q10 -33 36 -66q54 -59 117 -59q51 10 74 33q16 28 16 104q0 41 -12 78t-41 69q-45 58 -117 58q-47 -6 -65 -33q-25 -29 -25 -100zM63 205q0 37 16.5 67.5t43.5 55.5q57 45 129 61q16 4 32.5 8t34.5 9q3 2 19 2h16h33q35 0 71 -4.5
t77 -14.5q75 -16 133 -61q57 -43 57 -123q0 -35 -10 -62.5t-37 -52.5q-29 -24 -60.5 -40.5t-72.5 -31.5q-37 -8 -73 -13t-71 -5q-69 0 -145 17.5t-133 66.5q-27 22 -43.5 53t-16.5 68zM752 1444q0 72 -56 133q-28 31 -61 54.5t-74 41.5q-43 17 -81 25t-85 8q-94 0 -182 -43
t-139 -115q-15 -18 -23 -47q-6 -12 -8 -20t-2 -37h-41q8 76 37 137q16 35 36.5 62.5t47.5 54.5q49 55 121 84q73 30 153 30q88 0 156 -30q37 -15 66.5 -35.5t56.5 -44.5q51 -51 80.5 -117.5t40.5 -140.5h-43zM463 1511q0 -30 -23 -47q-10 -8 -21 -14t-24 -6q-16 0 -27.5 6
t-23.5 14q-16 17 -16 47q0 9 3 20t13 21q4 2 8 3t10 1q15 9 33 9q11 0 23 -4.5t22 -8.5q23 -28 23 -41z" />
    <glyph glyph-name="bracketleft" unicode="[" horiz-adv-x="512" 
d="M0 0v1403v31h207v-1403v-31h-207zM307 0v1403v31h86v-1403v-31h-86z" />
    <glyph glyph-name="backslash" unicode="\" horiz-adv-x="512" 
d="M102 1434v-1403v-31h-102v1403v31h102z" />
    <glyph glyph-name="bracketright" unicode="]" horiz-adv-x="512" 
d="M195 1434v-1403v-31h-86v1403v31h86zM512 1434v-1403v-31h-207v1403v31h207z" />
    <glyph glyph-name="asciicircum" unicode="^" horiz-adv-x="512" 
d="M449 223v-63h-99v-160h-78v160h-272v63l305 434h45v-434h99zM272 223v301l-215 -301h215zM401 1423l-2 -47q-59 0 -112.5 -20.5t-95 -56t-70.5 -85t-39 -104.5q47 29 91 38t79 9q82 0 132 -53t52 -131q2 -105 -55 -165t-150 -60q-102 0 -155 71q-33 37 -48.5 94.5
t-15.5 120.5q0 101 32 165.5t95 129.5q41 41 115 67.5t147 26.5zM217 801h19q69 2 107 50t36 120q-8 63 -30.5 88.5t-76.5 42.5q-20 6 -49.5 2t-58.5 -12.5t-54.5 -19.5t-37.5 -19v-15q0 -43 7 -85t24.5 -75.5t45 -55t68.5 -21.5z" />
    <glyph glyph-name="underscore" unicode="_" 
d="M0 -92h1024v-107h-1024v107z" />
    <glyph glyph-name="grave" unicode="`" horiz-adv-x="512" 
d="M231 1223q-4 -4 -26 -4q-47 -9 -74 20t-27 74q0 43 33 69q31 31 90 31q62 0 98.5 -46t36.5 -107q0 -46 -13 -91t-40 -84q-28 -41 -67 -63.5t-88 -38.5v51q24 10 41.5 23.5t31.5 36.5q17 20 24 30.5t7 34.5q0 43 -27 64z" />
    <glyph glyph-name="a" unicode="a" horiz-adv-x="512" 
d="M242 68q-17 -23 -46.5 -45.5t-72.5 -22.5q-62 0 -92.5 36t-30.5 81q0 47 19.5 77.5t47 48t58.5 24.5t53 7h64q0 27 -13.5 51.5t-74.5 24.5h-103v74h111q45 0 75.5 -14.5t49 -39t27 -54t8.5 -60.5v-256h-80v68zM176 205q-45 0 -72.5 -23.5t-27.5 -56.5q0 -37 18.5 -47
t46.5 -10q19 0 37.5 8t32.5 20.5t22.5 23.5t8.5 17v23v45h-66z" />
    <glyph glyph-name="b" unicode="b" horiz-adv-x="512" 
d="M0 860h45v-500q64 46 139 46q52 0 92.5 -29t40.5 -78q0 -35 -30 -66q-13 -18 -35.5 -36.5t-52.5 -40.5l-107 -78q-29 -19 -51.5 -39.5t-40.5 -38.5v860zM45 86l61 61q17 17 30.5 29t21.5 25q41 47 41 94q0 16 -6.5 27.5t-14.5 21.5q-8 6 -18 11t-27 5q-57 0 -88 -61v-213
z" />
    <glyph glyph-name="c" unicode="c" 
d="M0 739q0 95 53 185q45 86 135 147q88 57 183 57h37q4 -2 13 -3t23 -5q29 -10 39.5 -14t26.5 -10q33 -17 61.5 -36.5t51.5 -47.5q47 -54 47 -123q0 -60 -39 -105q-47 -41 -103 -41q-102 0 -122 113q0 51 32 84q31 39 78 49l16 2l17 6l6 13q-8 32 -57 49q-39 20 -88 20
q-50 0 -91 -28q-18 -9 -40 -31q-17 -16 -31 -37q-41 -78 -41 -248q0 -186 14 -221q37 -152 180 -152q111 0 183 123q34 70 47 146h47q-6 -72 -30.5 -129.5t-65.5 -104.5q-90 -92 -230 -92q-108 0 -186 66q-82 61 -123 164q-18 47 -30.5 102t-12.5 102z" />
    <glyph glyph-name="d" unicode="d" 
d="M385 1434h35v-1209q0 -24 -2 -28t-10 -25q-5 -12 -14 -25.5t-19 -29.5q-45 -51 -105 -82q-65 -35 -116 -35q-56 0 -86 12q-37 13 -52 49l-12 41q-2 11 -3 25t-1 31q0 59 43 112q43 49 108.5 80t131.5 31q55 0 102 -31v1084zM131 221q-20 -14 -57 -57q-37 -47 -37 -70
q6 -24 39 -37q39 0 78 21q45 14 100 59q16 8 34.5 25.5t41.5 44.5q47 53 47 84q0 24 -31 35q-78 0 -215 -105zM655 256q0 -31 -21.5 -53.5t-51.5 -22.5q-31 0 -53.5 22.5t-22.5 53.5t22.5 52.5t53.5 21.5q30 0 51.5 -21.5t21.5 -52.5z" />
    <glyph glyph-name="e" unicode="e" 
d="M426 1434q4 -41 13.5 -75t19.5 -63q14 -51 45 -94l35 -43l49 -59l90 -105q102 -133 102 -278q0 -35 -6 -77t-24 -87q-15 -35 -24 -58.5t-26 -52.5l-30 -2l35 90q6 19 12 37.5t10 40.5l6 56l2 24v41l-8 33l-16 49q-21 63 -70 115q-45 57 -98 84q-29 16 -60.5 26.5
t-56.5 10.5v-814q0 -63 -45 -120q-27 -45 -102 -80q-64 -33 -134 -33q-63 0 -102 33q-43 30 -43 92q0 31 9 60.5t32 56.5q20 24 46 46.5t60 39.5q68 30 123 30q88 0 121 -32v733v375h35z" />
    <glyph glyph-name="f" unicode="f" 
d="M553 229q0 -26 -12.5 -54t-32.5 -56q-45 -58 -111.5 -88.5t-132.5 -30.5q-59 0 -98 33q-43 30 -43 90q0 59 43 113q24 36 108 94q82 28 129 28q31 0 57.5 -11t49.5 -28v1113l43 2v-1205zM631 1450q0 70 -43 129q-23 31 -51.5 53.5t-65.5 36.5q-16 14 -33.5 20.5
t-31.5 10.5q-37 6 -74 6q-78 0 -153 -42t-120 -114q-4 -10 -9 -21t-9 -26l-4 -12t-2 -12q-2 -2 -2 -29h-33q6 74 31 135q14 33 31.5 61.5t37.5 55.5q47 53 107 80q29 14 60.5 22t64.5 8q37 0 70.5 -8t62.5 -22q65 -29 102 -78q84 -109 101 -254h-37zM389 1503q0 -22 -16 -39
q-15 -14 -41 -14q-21 0 -41 14q-15 13 -15 39q0 21 15 35q0 4 12 8q10 0 17.5 2t11.5 2q24 0 41 -12q16 -22 16 -35z" />
    <glyph glyph-name="g" unicode="g" 
d="M291 643q-35 -12 -56.5 -38.5t-27.5 -56.5t7 -59.5t48 -48.5q10 0 12 -7t-8 -7q-20 4 -57 29q-49 41 -51 100q-6 59 28 113q19 24 43 43q4 4 22.5 13t18.5 11q-8 29 -14 60.5t-12 64.5q-33 -29 -66 -61.5t-59.5 -70.5t-43 -81t-16.5 -88q0 -43 18.5 -81t48.5 -65.5
t68.5 -44t79.5 -16.5q2 0 13.5 1t24 3t22.5 4t10 7l-3 15t-1 3q-4 23 -9 46.5t-9 47.5q-9 41 -16 82t-15 82zM369 375q49 18 66.5 62t8 90t-43 82t-87.5 36zM242 1012q41 24 72.5 78.5t43.5 99.5q9 22 11 49t-9 49q-10 19 -23 21t-25.5 -4.5t-24 -16.5t-17.5 -18
q-32 -53 -42.5 -127t14.5 -131zM221 991q-10 45 -19 87t-9 89q0 33 5 73t17 78t34.5 68.5t57.5 45.5q3 1 6 1q5 0 12 -6t15 -17t13 -22.5t7 -13.5q19 -35 27 -73.5t10 -77.5q4 -60 -5 -118t-38 -112q-12 -20 -22 -36.5t-21 -28.5q-2 -2 -9 -9.5t-15 -15.5t-14.5 -14t-6.5 -8
q8 -37 13.5 -70t15.5 -68q0 2 14.5 1t31.5 -3t31.5 -5t16.5 -5q35 -16 60.5 -45t41 -64.5t15.5 -76.5t-10 -72q-29 -74 -90 -108q-9 -5 -21 -10t-8 -15q2 -12 4 -23.5t4 -23.5q8 -33 13 -65.5t10 -67.5q2 -45 -14.5 -78t-46.5 -52.5t-55.5 -23t-37.5 -3.5q-27 0 -55 7
q-35 15 -60.5 42.5t-25.5 68.5q0 24 15 52t38 38q39 20 67.5 -1.5t35.5 -55t-10 -65.5t-66 -30q14 -24 37.5 -30t49 0t49 20t36.5 31q16 26 18 72.5t-8 74.5q0 23 -10.5 52.5t-16.5 52.5q-2 8 -15.5 5t-19.5 -5q-53 -10 -98 6q-61 16 -108.5 59t-75.5 101t-28 121t20 114
q34 76 85.5 139.5t112.5 118.5z" />
    <glyph glyph-name="h" unicode="h" 
d="M385 1434h35v-1209q0 -24 -2 -28t-10 -25q-5 -12 -14 -25.5t-19 -29.5q-45 -51 -105 -82q-65 -35 -116 -35q-56 0 -86 12q-37 13 -52 49l-12 41q-2 11 -3 25t-1 31q0 59 43 112q43 49 108.5 80t131.5 31q55 0 102 -31v1084zM131 221q-20 -14 -57 -57q-37 -47 -37 -70
q6 -24 39 -37q39 0 78 21q45 14 100 59q16 8 34.5 25.5t41.5 44.5q47 53 47 84q0 24 -31 35q-78 0 -215 -105z" />
    <glyph glyph-name="i" unicode="i" 
d="M426 1434q4 -41 13.5 -75t19.5 -63q14 -51 45 -94l35 -43l49 -59l90 -105q102 -133 102 -278q0 -35 -6 -77t-24 -87q-15 -35 -24 -58.5t-26 -52.5l-30 -2l35 90q6 19 12 37.5t10 40.5l6 56l2 24v41l-8 33l-16 49q-21 63 -70 115q-45 57 -98 84q-29 16 -60.5 26.5
t-56.5 10.5v-814q0 -63 -45 -120q-27 -45 -102 -80q-64 -33 -134 -33q-63 0 -102 33q-43 30 -43 92q0 31 9 60.5t32 56.5q20 24 46 46.5t60 39.5q68 30 123 30q88 0 121 -32v733v375h35zM674 238q0 -31 -22.5 -53.5t-53.5 -22.5t-53.5 22.5t-22.5 53.5q0 30 22.5 51.5
t53.5 21.5t53.5 -21.5t22.5 -51.5z" />
    <glyph glyph-name="j" unicode="j" 
d="M428 231q0 -55 -41 -114q-43 -56 -110.5 -86.5t-131.5 -30.5q-57 0 -102 33q-43 33 -43 88q0 59 43 115q20 22 49 45.5t64 46.5q37 16 67.5 23t59.5 7q61 0 108 -34v1110h37v-1203zM684 215q0 -31 -22.5 -53.5t-53.5 -22.5q-30 0 -53 22.5t-23 53.5t23 53.5t53 22.5
q31 0 53.5 -22.5t22.5 -53.5z" />
    <glyph glyph-name="k" unicode="k" horiz-adv-x="512" 
d="M420 844v-74h-420v10l127 160q29 37 59.5 74t56 71.5t42 68.5t16.5 65q0 63 -38 101t-101 38q-49 0 -72.5 -24.5t-52.5 -98.5h-37q12 53 26.5 79.5t36.5 53.5q58 62 140 62q78 0 130 -50.5t52 -122.5q0 -59 -30.5 -115.5t-96.5 -127.5l-149 -170h311zM272 348v-2
q60 -45 99 -85t39 -99q0 -76 -51.5 -118t-143.5 -42q-86 0 -144.5 38t-58.5 114q0 24 7.5 44.5t24.5 41t45 43t69 53.5q-41 33 -64.5 55.5t-36 43t-16.5 40t-4 43.5q0 66 53 109t131 43q74 0 122 -38t48 -102q0 -49 -21.5 -95t-97.5 -87zM262 264l-55 39q-47 -35 -87 -68.5
t-44 -80.5q-2 -25 10 -44.5t33.5 -31.5t48.5 -18.5t55 -6.5q47 0 78 23.5t35 58.5q2 21 1 36t-9.5 29.5t-23.5 29t-42 34.5zM178 412l45 -31q49 35 77 66.5t24 74.5q-5 47 -34.5 67.5t-66.5 20.5q-47 0 -84 -21.5t-37 -60.5q0 -41 14.5 -62.5t61.5 -53.5z" />
    <glyph glyph-name="l" unicode="l" horiz-adv-x="1542" 
d="M201 1530v-33v-37h-49v39q-21 -39 -74 -39q-39 0 -58.5 23.5t-19.5 50.5q0 47 40 64.5t112 17.5v18q0 17 -8.5 36.5t-47.5 19.5h-65v34h73q56 0 76.5 -31.5t20.5 -72.5v-90zM152 1585q-52 0 -78.5 -4t-26.5 -43q0 -43 45 -43q23 0 38 13.5t22 29.5v12v35zM621 1499h65
v-39h-74q-55 0 -91 35t-36 94q0 60 37 97.5t99 37.5h65v-34h-65q-43 0 -64.5 -28t-21.5 -67q0 -47 25.5 -71.5t60.5 -24.5zM760 1585q4 -45 28.5 -65.5t57.5 -20.5h92v-39h-96q-60 0 -92.5 35t-32.5 94q0 56 32.5 95.5t88.5 39.5q30 0 49.5 -11t31 -28.5t15.5 -38t4 -38.5
v-23h-178zM895 1616q0 22 -10.5 48t-48.5 26q-35 0 -53.5 -24t-18.5 -50h131zM999 1837h41v-377h-41v377zM1137 1460q-13 0 -22 10.5t-9 24.5q0 12 9 21.5t22 9.5q16 0 23 -9.5t7 -21.5q0 -14 -7 -24.5t-23 -10.5zM387 1499h66v-39h-74q-55 0 -91 35t-36 94q0 60 37 97.5
t98 37.5h66v-34h-66q-43 0 -64.5 -28t-21.5 -67q0 -47 25.5 -71.5t60.5 -24.5z" />
    <glyph glyph-name="m" unicode="m" horiz-adv-x="2048" 
d="M1819 1174v120h-557v-120h557zM1853 1294v-1063q0 -61 -41 -114q-43 -56 -110.5 -86.5t-128.5 -30.5q-57 0 -103 33q-43 33 -43 88q0 59 43 115q43 51 111 92q37 16 68.5 23t60.5 7q55 0 109 -34v716h-557v-809q0 -55 -41 -114q-43 -56 -111 -86.5t-131 -30.5
q-55 0 -100 33t-45 88q0 63 45 115q39 51 110 92q37 16 67.5 23t59.5 7q58 0 111 -34v970h-801v-1065q0 -55 -39 -112q-43 -56 -110.5 -86.5t-131.5 -30.5q-57 0 -102 33q-43 33 -43 88q0 59 43 115q20 22 49 45.5t64 46.5q37 16 67.5 23t59.5 7q61 0 108 -34v1110h1462
v-140z" />
    <glyph glyph-name="n" unicode="n" horiz-adv-x="1536" 
d="M391 1434h869v-1203q0 -61 -41 -114q-41 -56 -109 -86.5t-131 -30.5q-55 0 -100 33t-45 88q0 63 45 115q39 51 110 92q37 16 67.5 23t59.5 7q62 0 109 -34v972h-799v-1065q0 -61 -41 -114q-41 -56 -108.5 -86.5t-131.5 -30.5q-57 0 -102 33q-43 33 -43 88q0 59 43 115
q20 22 49 45.5t64 46.5q34 16 66 23t61 7q61 0 108 -34v1110z" />
    <glyph glyph-name="o" unicode="o" horiz-adv-x="2048" 
d="M647 227q0 -30 -21.5 -51.5t-54.5 -21.5q-30 0 -51.5 21.5t-21.5 51.5q0 33 21.5 54.5t51.5 21.5q33 0 54.5 -21.5t21.5 -54.5zM391 1434h1372v-1203q0 -61 -41 -114q-41 -56 -108.5 -86.5t-130.5 -30.5q-56 0 -101 33t-45 88q0 63 45 115q39 51 111 92q37 16 67.5 23
t59.5 7q61 0 109 -34v716h-379v134h379v122h-1303v-1065q0 -61 -41 -114q-41 -56 -108.5 -86.5t-131.5 -30.5q-57 0 -102 33q-43 33 -43 88q0 59 43 115q20 22 49 45.5t64 46.5q34 16 66 23t61 7q61 0 108 -34v1110z" />
    <glyph glyph-name="p" unicode="p" horiz-adv-x="512" 
d="M102 299v-469v-31h-102v469v31h102zM102 1638v-473v-30h-102v473v30h102z" />
    <glyph glyph-name="q" unicode="q" 
d="M428 231q0 -55 -41 -114q-43 -56 -110.5 -86.5t-131.5 -30.5q-57 0 -102 33q-43 33 -43 88q0 59 43 115q20 22 49 45.5t64 46.5q37 16 67.5 23t59.5 7q61 0 108 -34v1110h37v-1203z" />
    <glyph glyph-name="r" unicode="r" 
d="M455 1432h32v-1209q0 -26 -2 -28q-2 2 -11 -24t-32 -56q-22 -23 -47.5 -43.5t-58.5 -36.5q-29 -19 -58.5 -27t-56.5 -8q-28 0 -49.5 4t-38.5 8q-33 13 -47 49l-14 39q-2 2 -2 25v31q0 63 41 116q43 47 109.5 77t129.5 30q58 0 105 -29v1082zM201 221q-11 -8 -26 -21.5
t-34 -35.5q-37 -47 -37 -68q2 -26 39 -37q39 0 78 21q58 20 101 57q28 17 75 68q49 51 49 86q0 22 -32 35q-76 0 -213 -105zM721 256q0 -33 -19.5 -53.5t-52.5 -20.5t-54.5 20.5t-21.5 53.5q0 31 21.5 51.5t54.5 20.5t52.5 -20.5t19.5 -51.5zM657 1444q0 67 -49 129
q-47 57 -116 92q-33 14 -72 25q-25 8 -76 8q-80 0 -157.5 -42t-120.5 -114q-9 -10 -14 -23.5t-9 -25.5q-4 -4 -4 -10q0 -13 -2 -15q0 -4 -1 -11t-1 -13h-35q4 35 13.5 68.5t19.5 64.5q14 31 31.5 60.5t39.5 52.5q46 51 109 84q33 12 64.5 19t66.5 7q39 0 74 -7t65 -19
q62 -35 105 -80q47 -52 72.5 -116.5t33.5 -133.5h-37zM403 1493q0 -20 -16 -33q-22 -16 -43 -16q-18 0 -41 16q-18 8 -18 33q0 18 18 37q2 2 12 6q15 6 29 6q27 0 43 -12q16 -23 16 -37z" />
    <glyph glyph-name="s" unicode="s" 
d="M426 731v-498q0 -63 -45 -120q-27 -45 -102 -80q-64 -33 -134 -33q-63 0 -102 33q-43 30 -43 92q0 31 9 60.5t32 56.5q20 24 46 46.5t60 39.5q68 30 123 30q88 0 121 -32v733v375h35q4 -41 13.5 -75t19.5 -63q14 -51 45 -94l35 -43l49 -59l90 -105q102 -133 102 -278
q0 -66 -14 -109q-3 -15 -16 -47q30 -65 30 -160q0 -24 -3 -53t-11 -57h-39l6 57l2 25v41l-8 30l-16 52q-11 30 -29 58t-41 54q-47 58 -98 86q-29 17 -60.5 27t-56.5 10zM459 956q6 -28 16 -44.5t27 -37.5l35 -45l45 -51l96 -100q16 -23 27.5 -40t19.5 -34l8 60l2 24v41
l-8 33l-16 49q-21 63 -70 115q-45 57 -98 84q-54 32 -105 37q4 -17 9.5 -43.5t11.5 -47.5z" />
    <glyph glyph-name="t" unicode="t" horiz-adv-x="2048" 
d="M1141 231q0 -30 -12.5 -59t-30.5 -57q-43 -56 -109.5 -85.5t-130.5 -29.5q-55 0 -100 31q-43 37 -43 86q0 35 10 61.5t33 54.5q49 58 106 91q41 16 73 23t60 7q58 0 105 -35v1111h39v-1199zM426 231q0 -57 -41 -116q-45 -56 -110.5 -85.5t-129.5 -29.5q-32 0 -55.5 8
t-46.5 23q-43 37 -43 86q0 35 10 61.5t33 54.5q20 27 47 48.5t68 42.5q35 16 65.5 23t57.5 7q57 0 110 -35v1111h35v-1199zM1870 231q0 -57 -41 -116q-43 -56 -111.5 -85.5t-128.5 -29.5q-55 0 -100 31q-47 37 -47 86q0 35 12 61.5t35 54.5q45 52 108 91q37 16 70 23t62 7
q53 0 106 -35v1111h35v-1199zM178 1458v201h748v-43h-711v-158h-37zM1950 1458v158h-619v43h662v-201h-43zM1092 1645v14q22 4 33.5 8t21.5 14q8 11 17.5 25t9.5 27q0 41 -52 41q-20 0 -33.5 -12.5t-29.5 -37.5h-15q9 23 14 32t15 18q29 22 57 22q31 0 52.5 -16.5
t21.5 -44.5q0 -19 -9 -36.5t-32 -33.5q17 -6 20 -9t11 -9q8 -13 13 -22t5 -28q0 -51 -34 -73q-35 -25 -84 -25q-50 0 -50 23q0 10 17 10q6 0 11 -1t15 -5q21 -13 41 -6q23 8 35.5 17t16.5 38q2 22 -10.5 40.5t-32.5 26.5q-2 3 -19 3h-26z" />
    <glyph glyph-name="u" unicode="u" horiz-adv-x="512" 
d="M190 -119q-4 0 -21 3t-38.5 9.5t-42 17.5t-33.5 28q-20 49 -31.5 77.5t-17 49.5t-5.5 27q0 3 3 3q14 0 24.5 -12t16.5 -29.5t10 -33t8 -21.5q27 -39 72 -49t70 -10q45 0 67.5 13t57.5 46q6 8 12 23.5t14.5 32t17.5 28.5t21 12q4 0 4 -7q0 -6 -5 -25t-18.5 -48.5
t-25.5 -54t-12 -22.5q-12 -19 -30.5 -30t-36 -17.5t-32 -8.5t-18.5 -2h-31z" />
    <glyph glyph-name="v" unicode="v" horiz-adv-x="1536" 
d="M709 -393q-125 0 -255 34.5t-253 137.5q0 -4 -18.5 25.5t-45 73.5t-55.5 95.5t-50.5 94.5t-25 58t-3.5 21q0 7 4 7q3 0 7 -2q13 -15 39.5 -55t55 -83t55 -79.5t37.5 -45.5q129 -110 259 -147t259 -37q123 0 252 40t252 132q12 8 37.5 47t53 84t54.5 87t39 55q7 4 11 4
t4 -2q-1 -5 -5 -19t-25.5 -56t-51 -94.5t-56.5 -98.5t-46 -76.5t-19 -28.5q-123 -103 -253 -137.5t-257 -34.5zM961 1432v-1432h-99v1432h99z" />
    <glyph glyph-name="w" unicode="w" 
d="M211 252q0 -31 2 -44t12 -42q8 -16 17.5 -33.5t23.5 -34.5q49 -63 121 -63q55 6 78 35q18 26 18 110q0 21 -4 41.5t-10 38.5q-6 21 -17.5 39t-25.5 35q-47 61 -123 61q-47 -6 -69.5 -34.5t-22.5 -108.5zM0 215q0 78 61 127q60 49 134 68q16 4 34.5 7t38.5 7q37 6 72 6
q84 0 152 -20q79 -17 141 -68q63 -45 63 -127q0 -72 -55 -121q-53 -47 -135 -71q-41 -13 -80 -18t-74 -5q-71 0 -151 19.5t-140 68.5q-61 49 -61 127z" />
    <glyph glyph-name="x" unicode="x" horiz-adv-x="512" 
d="M383 426l43 -43l-170 -170l170 -170l-43 -43l-170 170l-170 -170l-43 43l170 170l-170 170l43 43l170 -170z" />
    <glyph glyph-name="y" unicode="y" horiz-adv-x="2048" 
d="M1389 1040h-463v-809q2 -47 -25 -89t-68.5 -73.5t-93 -50t-98.5 -18.5q-55 0 -100 33t-45 88q0 57 45 115q39 51 110 92q37 16 69 23t60 7q56 0 109 -34v716h-461v-809q0 -55 -41 -114q-43 -56 -110.5 -86.5t-131.5 -30.5q-57 0 -102 33q-43 33 -43 88q0 59 43 115
q20 22 49 45.5t64 46.5q37 16 67.5 23t59.5 7q61 0 108 -34v1110h1534v-1203q0 -52 -25.5 -91.5t-67.5 -71t-93 -50t-99 -18.5q-55 0 -100 33q-43 33 -43 88q0 59 43 115q43 53 113 92q35 16 66.5 23t60.5 7q55 0 108 -34v716h-463v-809q0 -28 -11 -57t-32 -57
q-43 -56 -110.5 -86.5t-130.5 -30.5q-56 0 -101 33t-45 88q0 63 45 115q39 51 111 92q37 16 68.5 23t60.5 7q55 0 109 -34v716zM1389 1174v120h-463v-120h460h3zM889 1174v120h-461v-120h459h2zM1425 1174h463v120h-463v-120z" />
    <glyph glyph-name="z" unicode="z" horiz-adv-x="1536" 
d="M911 412h93v-412h-93v186q-8 -57 -53 -92q-27 -22 -57.5 -37.5t-67.5 -25.5q-37 -13 -71.5 -17t-67.5 -4h-31q-28 0 -31 2q-14 0 -33.5 4t-43.5 9q-72 18 -127 67q-46 35 -56 90v-182h-94v412h94v-183q8 50 50 86q26 21 58 37.5t71 26.5q100 22 135 22q78 0 139 -20
q35 -8 68.5 -22.5t62.5 -36.5q47 -41 55 -96v186zM465 215q0 -14 2 -24.5t12 -32.5q8 -17 16.5 -30t20.5 -30q49 -59 111 -59q49 8 65 35q6 6 17 35q6 18 6 63q0 80 -49 141q-54 56 -113 56q-47 -2 -70 -35q-18 -25 -18 -94v-25zM1079 412h95v-412h-95v412zM0 412h94v-412
h-94v412z" />
    <glyph glyph-name="braceleft" unicode="{" 
d="M0 0v1403v31h207v-1403v-31h-207zM457 532q0 37 26 64q25 27 64 27q35 0 59 -27q27 -27 27 -64q0 -34 -25.5 -61t-60.5 -27t-62.5 27t-27.5 61zM457 901q0 37 26.5 63.5t63.5 26.5q33 0 59.5 -26.5t26.5 -63.5t-27 -61q-26 -27 -59 -27t-64 25q-26 26 -26 63zM307 0v1403
v31h51v-1403v-31h-51z" />
    <glyph glyph-name="bar" unicode="|" horiz-adv-x="512" 
d="M102 1434v-1403v-31h-102v1403v31h102z" />
    <glyph glyph-name="braceright" unicode="}" 
d="M385 537q0 41 26.5 61t61.5 20q33 0 59 -20q29 -23 29 -61q0 -50 -26 -76q-29 -25 -62 -25q-35 0 -61.5 26.5t-26.5 74.5zM385 907q0 39 27 60q28 22 61 22q29 0 64 -22q24 -23 24 -60q0 -47 -26.5 -74.5t-61.5 -27.5q-33 0 -61 29q-27 24 -27 73zM649 1419v15h58v-1420
v-14h-58v1419zM807 1419v15h217v-1420v-14h-217v1419z" />
    <glyph glyph-name="asciitilde" unicode="~" 
d="M358 1321h99l-369 -645h-88zM563 1321h99l-369 -645h-88z" />
    <glyph glyph-name="uni00A0" unicode="&#xa0;" horiz-adv-x="512" 
 />
    <glyph glyph-name="exclamdown" unicode="&#xa1;" 
d="M511 810v8q-28 -19 -37.5 -25t-19.5 -12q-6 -6 -12.5 -13.5t-28.5 -31.5q-16 -17 -24.5 -23t-20.5 -6q-37 0 -37 37q0 23 14.5 33t51.5 16q34 6 54.5 14.5t51.5 26.5l-12 8q-13 9 -14 7.5t-15 9.5q-12 4 -27.5 7t-33.5 9q-37 6 -53.5 16.5t-16.5 32.5q0 37 33 37
q12 0 23.5 -7t29.5 -30q25 -28 44.5 -41.5t49.5 -31.5v12q0 22 -5 45.5t-11 52.5q-12 31 -12 53q0 33 36 33q37 0 37 -37q0 -10 -1 -21.5t-7 -27.5q-20 -39 -20 -86v-29l8 5q8 4 12 7t29 23q0 2 12 15l25 24q34 41 57 41q37 0 37 -41q0 -22 -11.5 -29.5t-41.5 -11.5
q-35 -6 -56.5 -14t-62.5 -31l12 -8q39 -27 98 -33q35 -6 48.5 -14t13.5 -31q0 -41 -37 -41q-29 0 -61 45q-23 29 -39.5 42t-34.5 20l-8 4v-8q0 -60 24 -115q8 -14 8 -33q0 -18 -12 -31.5t-29 -13.5q-16 0 -26 12.5t-10 28.5q0 14 12 49q10 25 13 43.5t3 34.5v25z" />
    <glyph glyph-name="cent" unicode="&#xa2;" 
d="M511 810v8q-28 -19 -37.5 -25t-19.5 -12q-6 -6 -12.5 -13.5t-28.5 -31.5q-16 -17 -24.5 -23t-20.5 -6q-37 0 -37 37q0 23 14.5 33t51.5 16q34 6 54.5 14.5t51.5 26.5l-12 8q-13 9 -14 7.5t-15 9.5q-12 4 -27.5 7t-33.5 9q-37 6 -53.5 16.5t-16.5 32.5q0 37 33 37
q12 0 23.5 -7t29.5 -30q25 -28 44.5 -41.5t49.5 -31.5v12q0 22 -5 45.5t-11 52.5q-12 31 -12 53q0 33 36 33q37 0 37 -37q0 -10 -1 -21.5t-7 -27.5q-20 -39 -20 -86v-29l8 5q8 4 12 7t29 23q0 2 12 15l25 24q34 41 57 41q37 0 37 -41q0 -22 -11.5 -29.5t-41.5 -11.5
q-35 -6 -56.5 -14t-62.5 -31l12 -8q39 -27 98 -33q35 -6 48.5 -14t13.5 -31q0 -41 -37 -41q-29 0 -61 45q-23 29 -39.5 42t-34.5 20l-8 4v-8q0 -60 24 -115q8 -14 8 -33q0 -18 -12 -31.5t-29 -13.5q-16 0 -26 12.5t-10 28.5q0 14 12 49q10 25 13 43.5t3 34.5v25z" />
    <glyph glyph-name="sterling" unicode="&#xa3;" 
d="M487 1434q5 -41 14 -75t19 -63q15 -51 45 -94l35 -43l49 -59l90 -105q103 -133 103 -278q0 -35 -6.5 -77t-24.5 -87q-14 -35 -23.5 -58.5t-25.5 -52.5l-31 -2l35 90q6 19 12 37.5t10 40.5l7 56l2 24v41l-9 33l-16 49q-20 63 -70 115q-45 57 -98 84q-29 16 -60.5 26.5
t-56.5 10.5v-814q0 -63 -45 -120q-26 -45 -102 -80q-64 -33 -133 -33q-64 0 -103 33q-43 30 -43 92q0 31 9.5 60.5t31.5 56.5q21 24 46.5 46.5t60.5 39.5q67 30 123 30q88 0 121 -32v733v375h34zM735 238q0 -31 -22.5 -53.5t-53.5 -22.5q-30 0 -52.5 22.5t-22.5 53.5
q0 30 22.5 51.5t52.5 21.5q31 0 53.5 -21.5t22.5 -51.5zM631 1450q0 70 -43 129q-23 31 -51.5 53.5t-65.5 36.5q-16 14 -33.5 20.5t-31.5 10.5q-37 6 -74 6q-78 0 -153 -42t-120 -114q-4 -10 -9 -21t-9 -26l-4 -12t-2 -12q-2 -2 -2 -29h-33q6 74 31 135q14 33 31.5 61.5
t37.5 55.5q47 53 107 80q29 14 60.5 22t64.5 8q37 0 70.5 -8t62.5 -22q65 -29 102 -78q84 -109 101 -254h-37zM389 1503q0 -22 -16 -39q-15 -14 -41 -14q-21 0 -41 14q-15 13 -15 39q0 21 15 35q0 4 12 8q10 0 17.5 2t11.5 2q24 0 41 -12q16 -22 16 -35z" />
    <glyph glyph-name="currency" unicode="&#xa4;" horiz-adv-x="2048" 
d="M1942 1485v137h-701v29h733v-166h-32zM201 369h-51q34 135 71 264t74 264q-27 -25 -57.5 -47.5t-63.5 -33.5t-67.5 -8t-67.5 32q-35 32 -35 71.5t10.5 67t39 45.5t69.5 4q35 -10 52.5 -40t17.5 -64q-5 -17 -14 -34.5t9 -21.5q25 -6 52.5 12.5t52 44t57.5 68.5h27
q0 -4 -12.5 -45t-34 -114.5t-44 -154.5t-46 -165t-39.5 -145zM899 336h-51q35 135 72.5 264t72.5 264q-26 -24 -57 -46.5t-63.5 -34t-67.5 -8.5t-68 32q-28 24 -33.5 62t8 71t42 51.5t69.5 3.5q35 -10 52.5 -39.5t17.5 -64.5q-2 -8 -7 -17.5t-7 -16.5t0 -13t12 -8
q22 -7 50 11.5t52.5 44.5t57.5 69h26q-39 -136 -66.5 -234t-58 -205.5t-53.5 -185.5zM1585 1434q4 -39 10.5 -73t18.5 -61q10 -28 21.5 -50.5t25.5 -45.5l35 -47l51 -55l86 -107q106 -131 106 -278q0 -35 -7 -77t-23 -87q-35 -82 -54 -111l-30 -2l37 90q6 19 11 37.5
t11 40.5l10 82v39q-20 66 -26 82q-23 70 -70 113q-47 59 -100 86q-27 18 -57.5 28.5t-55.5 10.5v-813q0 -66 -45 -123q-33 -45 -104 -82q-35 -15 -68 -23t-68 -8q-57 0 -102 31q-18 18 -29.5 40.5t-11.5 53.5q0 63 41 117q19 26 45.5 46.5t59.5 37.5q36 16 66 23t58 7
q86 0 121 -30v733v375h37zM70 1485v166h725v-29h-693v-137h-32zM969 1606v14q22 4 33.5 8t21.5 14q8 11 17.5 25t9.5 27q0 41 -52 41q-20 0 -33.5 -12.5t-29.5 -36.5h-14q8 22 13 31t15 18q29 22 58 22q30 0 51.5 -16.5t21.5 -44.5q0 -19 -9 -36.5t-32 -33.5q17 -6 20 -9
t11 -9q8 -13 13.5 -22t5.5 -27q0 -52 -35 -74q-35 -25 -84 -25t-49 23q0 10 16 10q6 0 11 -1t16 -5q20 -12 41 -6q22 8 34.5 17t16.5 38q2 23 -10.5 41t-32.5 27q-2 2 -19 2h-26z" />
    <glyph glyph-name="yen" unicode="&#xa5;" 
d="M453 -199q-86 0 -165 29t-165 90q-4 0 -27.5 37t-47 79t-34.5 64t-11 28q0 2 2 2q1 0 5 -3q21 -14 41.5 -36.5t37.5 -44t29.5 -39t18.5 -23.5q82 -66 170 -89.5t174 -23.5t166 25.5t160 83.5q6 4 19.5 22t32 42t39 47.5t38.5 35.5q4 2 6 2q4 0 4 -4q0 -7 -11 -29t-37 -63
t-49.5 -77t-64.5 -66.5t-117.5 -59.5t-162.5 -29h-51z" />
    <glyph glyph-name="brokenbar" unicode="&#xa6;" horiz-adv-x="512" 
d="M102 504v-473v-31h-102v473v31h102zM102 1434v-473v-31h-102v473v31h102z" />
    <glyph glyph-name="section" unicode="&#xa7;" horiz-adv-x="3072" 
d="M2793 231q0 -61 -40 -114q-43 -56 -111 -86.5t-127 -30.5q-55 0 -100 31q-48 41 -48 88q0 61 48 114q36 54 106 93q41 16 70.5 23t60.5 7q55 0 107 -32v966h-1143v-1059q0 -28 -11.5 -57t-31.5 -57q-41 -56 -108.5 -86.5t-133.5 -30.5q-55 0 -100 31q-43 37 -43 88
q0 61 43 114q22 27 51 49.5t61 43.5q35 16 67 23t60 7q31 0 56.5 -8t54.5 -24v966h-1157v-1059q0 -63 -39 -114q-43 -56 -110.5 -86.5t-129.5 -30.5q-30 0 -53.5 8t-46.5 23q-45 39 -45 88q0 63 45 114q21 27 48.5 50.5t64.5 42.5q35 16 65.5 23t59.5 7q61 0 106 -32v1106
h2404v-1199z" />
    <glyph glyph-name="dieresis" unicode="&#xa8;" 
d="M1040 1638v-51h-1005v-358h1005v-51h-1005v-359h1005v-51h-1005v-358h1005v-52h-1005v-358h1005v-51h-1056v1689h1056z" />
    <glyph glyph-name="copyright" unicode="&#xa9;" 
d="M1040 410v-52h-1056v52h1056zM1040 1638v-51h-1056v51h1056zM1040 1229v-51h-1056v51h1056zM1040 819v-51h-1056v51h1056zM1040 0v-51h-1056v51h1056z" />
    <glyph glyph-name="ordfeminine" unicode="&#xaa;" 
d="M772 412h129v-412h-129v189q-7 -59 -53 -95q-27 -22 -57.5 -37.5t-67.5 -25.5q-37 -13 -72 -17t-67 -4h-31q-29 0 -31 2q-14 0 -33.5 4t-44.5 9q-71 18 -127 67q-48 37 -55 97v-189h-133v412h133v-189q6 54 49 92q27 21 58.5 37.5t70.5 26.5q101 22 135 22q78 0 140 -20
q35 -8 68.5 -22.5t62.5 -36.5q48 -42 55 -99v189zM326 215q0 -14 2 -24.5t12 -32.5q8 -17 16.5 -30t20.5 -30q49 -59 110 -59q50 8 66 35q6 6 16 35q6 18 6 63q0 80 -49 141q-53 56 -112 56q-47 -2 -70 -35q-18 -25 -18 -94v-25z" />
    <glyph glyph-name="guillemotleft" unicode="&#xab;" horiz-adv-x="2048" 
d="M1935 1622h-712v31h745v-174h-33v143zM109 1479h-33v174h798v-31h-765v-143zM1028 1636q23 4 34 8.5t21 14.5q9 10 18 24.5t9 26.5q0 41 -51 41q-21 0 -34 -12.5t-30 -36.5h-14q8 22 13 31.5t16 17.5q28 23 57 23q31 0 52.5 -16.5t21.5 -45.5q0 -18 -9.5 -35.5
t-31.5 -34.5q16 -6 19 -9t11 -9q9 -12 14 -21.5t5 -27.5q0 -51 -35 -74q-35 -24 -84 -24t-49 22q0 10 16 10q7 0 12 -1t15 -5q20 -12 41 -6q22 8 34.5 17.5t16.5 37.5q2 23 -10 41.5t-33 26.5q-2 2 -18 2h-27v14zM1245 1427v-1196q0 -61 -41 -114q-41 -56 -108.5 -86.5
t-130.5 -30.5q-54 0 -101 35q-43 33 -43 84q0 59 43 114q37 50 111 91q37 18 68.5 25t58.5 7q55 0 108 -34v1105h35zM150 369q34 135 71 264t74 264q-27 -25 -57.5 -47.5t-63.5 -33.5t-67.5 -8t-67.5 32q-36 28 -36 66t11 69t39.5 49t69.5 4q35 -10 52.5 -40t17.5 -64
q-5 -17 -14 -34.5t9 -21.5q25 -6 52.5 12.5t52 44t57.5 68.5h27q0 -4 -12.5 -45t-34 -114.5t-44 -154.5t-46 -165t-39.5 -145h-51z" />
    <glyph glyph-name="logicalnot" unicode="&#xac;" 
d="M1935 1622h-712v31h745v-174h-33v143zM109 1479h-33v174h798v-31h-765v-143zM1028 1636q23 4 34 8.5t21 14.5q9 10 18 24.5t9 26.5q0 41 -51 41q-21 0 -34 -12.5t-30 -36.5h-14q8 22 13 31.5t16 17.5q28 23 57 23q31 0 52.5 -16.5t21.5 -45.5q0 -18 -9.5 -35.5
t-31.5 -34.5q16 -6 19 -9t11 -9q9 -12 14 -21.5t5 -27.5q0 -51 -35 -74q-35 -24 -84 -24t-49 22q0 10 16 10q7 0 12 -1t15 -5q20 -12 41 -6q22 8 34.5 17.5t16.5 37.5q2 23 -10 41.5t-33 26.5q-2 2 -18 2h-27v14zM424 1427v-1196q0 -61 -41 -114q-41 -56 -108.5 -86.5
t-131.5 -30.5q-53 0 -100 35q-43 33 -43 84q0 59 43 114q37 50 111 91q36 18 68 25t59 7q55 0 108 -34v1105h35zM1610 369q35 135 71.5 264t73.5 264q-26 -25 -57 -47.5t-63.5 -33.5t-67.5 -8t-68 32q-29 24 -34 62t7.5 71t41 51t69.5 4q35 -10 52.5 -40t17.5 -64
q-4 -17 -13.5 -34.5t9.5 -21.5q24 -6 52 12.5t52.5 44t56.5 68.5h27q0 -4 -12.5 -45t-34 -114.5t-44 -154.5t-46 -165t-39.5 -145h-51z" />
    <glyph glyph-name="uni00AD" unicode="&#xad;" horiz-adv-x="512" 
d="M0 358h260v-102h-260v102z" />
    <glyph glyph-name="registered" unicode="&#xae;" 
d="M1040 -51h-1056v51h646v358h-646v52h646v358h-646v51h646v359h-646v51h646v358h-646v51h1056v-1689zM682 1178v-359h151v359h-151zM682 1587v-358h151v358h-151zM682 768v-358h151v358h-151zM833 358h-151v-358h151v358z" />
    <glyph glyph-name="uni00AF" unicode="&#xaf;" 
d="M1040 1638v-1689h-1056v51h749v358h-749v52h749v358h-749v51h749v359h-749v51h749v358h-749v51h1056zM989 0v358h-205v-358h205zM989 768h-205v-358h205v358zM784 1587v-358h205v358h-205zM989 1178h-205v-359h205v359z" />
    <glyph glyph-name="degree" unicode="&#xb0;" horiz-adv-x="512" 
d="M162 618q67 0 113.5 -46t46.5 -113q0 -70 -46.5 -116t-113.5 -46q-70 0 -116 46t-46 116q0 67 46 113t116 46zM162 575q-47 0 -82 -32.5t-35 -83.5t34 -87t83 -36q47 0 82 36t35 87t-35 83.5t-82 32.5z" />
    <glyph glyph-name="plusminus" unicode="&#xb1;" 
d="M106 1432v-1434l-106 2v1434zM465 1434v-1434l-107 2v1434z" />
    <glyph glyph-name="twosuperior" unicode="&#xb2;" horiz-adv-x="512" 
d="M449 223v-63h-99v-160h-78v160h-272v63l305 434h45v-434h99zM272 223v301l-215 -301h215zM63 745v39q136 11 222 67t98 183q-49 -28 -90 -37.5t-76 -9.5q-86 0 -138 55.5t-52 153.5q0 104 56 164.5t148 60.5q99 0 158 -71q29 -39 45.5 -95.5t16.5 -117.5q0 -52 -3.5 -99
t-14.5 -88t-34.5 -76.5t-66.5 -64.5q-25 -18 -60.5 -30.5t-73.5 -19.5t-74 -10.5t-61 -3.5zM211 1044l33 3q10 0 28.5 4t37 12t34.5 18.5t23 20.5q24 31 12 115q-10 77 -51 114t-97 37q-53 0 -95 -41t-46 -121q-4 -86 29 -122.5t92 -39.5z" />
    <glyph glyph-name="threesuperior" unicode="&#xb3;" horiz-adv-x="1536" 
d="M1366 1040h-455v-809q0 -61 -41 -114q-43 -56 -110.5 -86.5t-130.5 -30.5q-56 0 -101 33t-45 88q0 57 45 115q39 51 111 92q37 16 68.5 23t60.5 7q55 0 109 -34v716h-451v-809q0 -57 -39 -114q-43 -56 -110.5 -86.5t-131.5 -30.5q-57 0 -102 33q-43 33 -43 88
q0 59 43 115q20 22 49 45.5t64 46.5q37 16 67.5 23t59.5 7q61 0 108 -34v1110h1010v-1203q0 -55 -41 -114q-43 -56 -110.5 -86.5t-131.5 -30.5q-55 0 -100 33t-45 88q0 63 45 115q39 51 110 92q37 16 69 23t60 7q56 0 109 -34v716zM1366 1174v120h-455v-120h455zM877 1174
v120h-451v-120h451z" />
    <glyph glyph-name="acute" unicode="&#xb4;" 
d="M-16 1229h1005v358h-1005v51h1056v-1689h-1056v51h1005v358h-1005v52h1005v358h-1005v51h1005v359h-1005v51z" />
    <glyph glyph-name="mu" unicode="&#xb5;" horiz-adv-x="2048" 
d="M43 1489v162h795v-29h-764v-133h-31zM1942 1481v133h-719v28h749v-161h-30zM1872 231q0 -32 -9.5 -59t-31.5 -53q-41 -58 -107.5 -88.5t-132.5 -30.5q-57 0 -100 37q-43 26 -43 84q0 57 43 112q39 52 113 93q34 18 66 25t61 7q59 0 106 -36v1108h35v-1199zM367 977
q-82 -94 -115 -157.5t-33 -114.5q0 -46 35 -111l45 -68q4 -12 23 -28q10 -15 19 -28t19 -24l-22 -28q-10 4 -25.5 11t-33.5 17q-25 9 -58 9q-41 0 -57 -23q-8 -14 -14.5 -29.5t-8.5 -37.5q0 -29 17 -82q10 -21 22.5 -42.5t32.5 -37.5l-18 -29q-93 64 -136 123
q-16 14 -24 31.5t-17 33.5q-18 31 -18 66q0 29 11.5 51.5t27.5 38.5q39 33 92 33q25 0 53.5 -8t59.5 -27l-217 297q69 66 106 124t37 112q0 43 -24.5 94t-67.5 110h57zM1212 977q-79 -92 -114 -157.5t-35 -114.5q0 -23 10 -50.5t27 -60.5l45 -68q4 -8 24 -28q9 -15 17 -27
t20 -25l-24 -28q-11 4 -26 11t-32 17q-24 9 -57 9q-41 0 -57 -23q-9 -14 -15 -29.5t-10 -37.5q0 -39 19 -82q8 -21 21 -42.5t34 -37.5l-19 -29q-39 29 -73.5 58.5t-63.5 64.5q-14 14 -23.5 31.5t-17.5 33.5q-14 27 -14 66q0 61 35 90q39 33 92 33q55 0 115 -35l-218 297
q142 131 142 236q0 84 -90 204h59zM997 1606v14q23 4 34 8t22 14q8 11 17 25t9 27q0 41 -51 41q-20 0 -33.5 -12.5t-29.5 -36.5h-15q8 22 13.5 31t15.5 18q29 22 57 22q31 0 52.5 -16.5t21.5 -44.5q0 -19 -9 -36.5t-32 -33.5q16 -6 19.5 -9t11.5 -9q8 -13 13 -22t5 -27
q0 -52 -35 -74q-34 -25 -84 -25q-49 0 -49 23q0 10 17 10q6 0 11 -1t15 -5q21 -12 41 -6q23 8 35 17t16 38q2 23 -10 41t-33 27q-2 2 -18 2h-27z" />
    <glyph glyph-name="paragraph" unicode="&#xb6;" horiz-adv-x="2048" 
d="M63 1489v162h781v-29h-748v-133h-33zM1942 1489v133h-719v29h751v-162h-32zM1888 973q-43 -47 -71.5 -86t-44.5 -68q-35 -65 -35 -114q0 -46 35 -111l45 -68q4 -4 9 -12t13 -18q10 -15 20.5 -27t20.5 -25l-22 -28q-15 6 -29 12t-33 16q-22 9 -55 9q-35 0 -58 -23
q-20 -20 -22 -65q0 -41 18 -84q11 -21 23 -41.5t31 -36.5l-19 -29q-88 64 -133 121q-31 31 -43 67q-14 27 -14 64q0 53 35 94q43 31 94 31q45 0 110 -35l-217 297q144 125 144 236q0 86 -93 202h62zM1174 231q0 -47 -26 -89t-67 -73.5t-91 -50t-99 -18.5q-31 0 -54.5 9
t-45.5 26q-46 33 -46 84q0 33 11.5 59.5t34.5 54.5q18 29 47.5 51.5t63.5 39t68 24.5t58 8q55 0 109 -34v1105h37v-1196zM424 231q0 -61 -41 -114q-41 -56 -108.5 -86.5t-131.5 -30.5q-53 0 -100 35q-43 33 -43 84q0 59 43 114q39 52 111 91q36 18 68 25t59 7q55 0 108 -34
v1105h35v-1196zM977 1620v14q22 4 33.5 8.5t21.5 14.5q8 10 17.5 24.5t9.5 26.5q0 41 -51 41q-21 0 -34 -12.5t-30 -36.5h-14q8 22 13 31.5t15 17.5q29 23 58 23q31 0 52.5 -16.5t21.5 -45.5q0 -18 -9.5 -35.5t-31.5 -34.5q16 -6 19 -9t11 -9q8 -12 13.5 -21.5t5.5 -27.5
q0 -51 -35 -74q-35 -24 -84 -24t-49 22q0 10 16 10q6 0 11.5 -1t15.5 -5q20 -12 41 -6q22 8 34.5 17.5t16.5 37.5q2 23 -10.5 41.5t-32.5 26.5q-2 2 -18 2h-27z" />
    <glyph glyph-name="periodcentered" unicode="&#xb7;" 
d="M511 810v8q-28 -19 -37.5 -25t-19.5 -12q-6 -6 -12.5 -13.5t-28.5 -31.5q-16 -17 -24.5 -23t-20.5 -6q-37 0 -37 37q0 23 14.5 33t51.5 16q34 6 54.5 14.5t51.5 26.5l-12 8q-13 9 -14 7.5t-15 9.5q-12 4 -27.5 7t-33.5 9q-37 6 -53.5 16.5t-16.5 32.5q0 37 33 37
q12 0 23.5 -7t29.5 -30q25 -28 44.5 -41.5t49.5 -31.5v12q0 22 -5 45.5t-11 52.5q-12 31 -12 53q0 33 36 33q37 0 37 -37q0 -10 -1 -21.5t-7 -27.5q-20 -39 -20 -86v-29l8 5q8 4 12 7t29 23q0 2 12 15l25 24q34 41 57 41q37 0 37 -41q0 -22 -11.5 -29.5t-41.5 -11.5
q-35 -6 -56.5 -14t-62.5 -31l12 -8q39 -27 98 -33q35 -6 48.5 -14t13.5 -31q0 -41 -37 -41q-29 0 -61 45q-23 29 -39.5 42t-34.5 20l-8 4v-8q0 -60 24 -115q8 -14 8 -33q0 -18 -12 -31.5t-29 -13.5q-16 0 -26 12.5t-10 28.5q0 14 12 49q10 25 13 43.5t3 34.5v25z" />
    <glyph glyph-name="cedilla" unicode="&#xb8;" 
d="M511 810v8q-28 -19 -37.5 -25t-19.5 -12q-6 -6 -12.5 -13.5t-28.5 -31.5q-16 -17 -24.5 -23t-20.5 -6q-37 0 -37 37q0 23 14.5 33t51.5 16q34 6 54.5 14.5t51.5 26.5l-12 8q-13 9 -14 7.5t-15 9.5q-12 4 -27.5 7t-33.5 9q-37 6 -53.5 16.5t-16.5 32.5q0 37 33 37
q12 0 23.5 -7t29.5 -30q25 -28 44.5 -41.5t49.5 -31.5v12q0 22 -5 45.5t-11 52.5q-12 31 -12 53q0 33 36 33q37 0 37 -37q0 -10 -1 -21.5t-7 -27.5q-20 -39 -20 -86v-29l8 5q8 4 12 7t29 23q0 2 12 15l25 24q34 41 57 41q37 0 37 -41q0 -22 -11.5 -29.5t-41.5 -11.5
q-35 -6 -56.5 -14t-62.5 -31l12 -8q39 -27 98 -33q35 -6 48.5 -14t13.5 -31q0 -41 -37 -41q-29 0 -61 45q-23 29 -39.5 42t-34.5 20l-8 4v-8q0 -60 24 -115q8 -14 8 -33q0 -18 -12 -31.5t-29 -13.5q-16 0 -26 12.5t-10 28.5q0 14 12 49q10 25 13 43.5t3 34.5v25z" />
    <glyph glyph-name="onesuperior" unicode="&#xb9;" horiz-adv-x="2048" 
d="M197 1616v-156h-43v41q-17 -18 -34.5 -29.5t-45.5 -11.5q-35 0 -54.5 22.5t-19.5 49.5q0 47 27.5 65.5t126.5 18.5v22q0 17 -6.5 28t-45.5 11h-61v35h74q59 0 70.5 -27.5t11.5 -68.5zM154 1577l-2 2q-46 0 -78.5 -3t-32.5 -42q0 -23 14.5 -28t30.5 -5q27 0 45.5 14.5
t22.5 30.5q2 2 1 9.5t-1 11.5v10zM530 1806v-94h66v-35h-66v-131q0 -45 31 -45q10 0 21.5 -1t13.5 1v-41h-45q-27 0 -47 21q-17 22 -17 65v131h-51v35h51v94h43zM729 1579h-12q0 -45 25.5 -61.5t58.5 -16.5h80v-41h-90q-60 0 -88.5 34t-28.5 93q0 55 28.5 90t83.5 35
q62 0 78.5 -29.5t16.5 -66.5v-37h-152zM838 1616q0 22 -7.5 41.5t-46.5 19.5q-28 0 -47.5 -17.5t-19.5 -43.5h121zM971 1651v61h45v-35q10 19 25.5 27t48.5 8q22 0 42.5 -8t30.5 -31q11 23 33.5 31t54.5 8q13 0 27 -3t26.5 -13t19.5 -29.5t7 -50.5v-156h-47v152q0 37 -9 51
t-36 14q-45 0 -63 -45q-2 -6 -3.5 -18t-1.5 -17v-137h-43v156q0 35 -9 48t-36 13q-18 0 -40.5 -17.5t-26.5 -33.5q-2 -4 -1 -13t1 -18v-135h-45v191zM1432 1638v41v33h43v-35q16 23 40.5 29t53.5 6q45 0 73.5 -29.5t28.5 -85.5q0 -69 -36 -103t-81 -34q-22 0 -43.5 11.5
t-31.5 27.5h-4v-135h-43v274zM1475 1583v-14q-2 -19 22.5 -43.5t46.5 -24.5q41 0 62.5 25.5t21.5 68.5q0 39 -14.5 60.5t-50.5 21.5q-23 0 -49.5 -15t-34.5 -42q-4 -16 -4 -29v-8zM1876 1460q-53 0 -87 35t-34 94q0 66 37 94.5t90 28.5t86 -27.5t33 -87.5q0 -69 -39 -103
t-86 -34zM1870 1501h12q33 0 55.5 24.5t22.5 67.5q0 33 -16.5 58.5t-59.5 25.5q-39 0 -62.5 -24.5t-23.5 -59.5q0 -43 19.5 -67.5t52.5 -24.5z" />
    <glyph glyph-name="ordmasculine" unicode="&#xba;" 
d="M496 1432q4 -41 13 -75t19 -63q15 -51 45 -94l35 -43l49 -59l91 -105q102 -133 102 -278q0 -35 -6 -77t-25 -87q-14 -35 -23.5 -58.5t-25.5 -52.5l-31 -2l35 90q6 19 12.5 37.5t10.5 40.5l6 56l2 24v41l-8 33l-17 49q-20 63 -69 115q-45 57 -99 84q-28 16 -60 26t-56 10
v-813q0 -63 -45 -120q-27 -45 -103 -80q-65 -31 -133 -31q-63 0 -102 31q-43 30 -43 92q0 31 9 60.5t32 56.5q20 24 45.5 46.5t60.5 39.5q68 30 123 30q88 0 121 -32v733v375h35zM631 1454q0 70 -43 129q-23 31 -51.5 53.5t-65.5 36.5q-16 15 -33.5 21t-31.5 10q-37 6 -74 6
q-78 0 -153 -42t-120 -114q-4 -10 -9 -21t-9 -26l-4 -12t-2 -12q-2 -2 -2 -29h-33q6 74 31 135q14 33 31.5 61.5t37.5 55.5q47 53 107 80q29 14 60.5 22.5t64.5 8.5q37 0 70.5 -8.5t62.5 -22.5q65 -29 102 -78q84 -109 101 -254h-37zM389 1507q0 -22 -16 -39
q-15 -14 -41 -14q-21 0 -41 14q-15 13 -15 39q0 21 15 35q0 4 12 8q10 0 17.5 2t11.5 2q24 0 41 -12q16 -22 16 -35z" />
    <glyph glyph-name="guillemotright" unicode="&#xbb;" horiz-adv-x="2048" 
d="M1935 1622h-712v31h745v-174h-33v143zM389 1427h35q4 -36 12 -71t21 -64q8 -26 19 -49.5t26 -46.5l37 -41l47 -61l88 -105q104 -133 104 -274q0 -37 -6 -78t-24 -86q-15 -35 -24 -59.5t-26 -53.5h-32l34 90q9 21 14 39.5t9 36.5l10 58v22v43q-6 14 -6 33q-6 14 -18 49
q-13 31 -29 58.5t-41 54.5q-45 57 -98 84q-29 16 -60.5 26t-56.5 10v-809q0 -65 -41 -118q-37 -52 -107 -82q-63 -33 -131 -33q-63 0 -102 33q-43 26 -43 92q0 63 39 115q41 55 108.5 86.5t120.5 31.5q86 0 121 -34v731v372zM109 1479h-33v174h798v-31h-765v-143zM1028 1636
q23 4 34 8.5t21 14.5q9 10 18 24.5t9 26.5q0 41 -51 41q-21 0 -34 -12.5t-30 -36.5h-14q8 22 13 31.5t16 17.5q28 23 57 23q31 0 52.5 -16.5t21.5 -45.5q0 -18 -9.5 -35.5t-31.5 -34.5q16 -6 19 -9t11 -9q9 -12 14 -21.5t5 -27.5q0 -51 -35 -74q-35 -24 -84 -24t-49 22
q0 10 16 10q7 0 12 -1t15 -5q20 -12 41 -6q22 8 34.5 17.5t16.5 37.5q2 23 -10 41.5t-33 26.5q-2 2 -18 2h-27v14zM1245 1427v-1196q0 -61 -41 -114q-41 -56 -108.5 -86.5t-130.5 -30.5q-54 0 -101 35q-43 33 -43 84q0 59 43 114q37 50 111 91q37 18 68.5 25t58.5 7
q55 0 108 -34v1105h35z" />
    <glyph glyph-name="onequarter" unicode="&#xbc;" horiz-adv-x="2048" 
d="M1935 1622h-712v31h745v-174h-33v143zM1540 1427h35q4 -36 12 -71t21 -64q8 -26 19 -49.5t26 -46.5l37 -41l47 -61l88 -105q104 -133 104 -274q0 -37 -6 -78t-25 -86q-14 -35 -23 -59.5t-26 -53.5h-32l34 90q9 21 14 39.5t9 36.5l10 58v22v43q-6 14 -6 33q-6 14 -18 49
q-13 31 -29 58.5t-41 54.5q-45 57 -98 84q-29 16 -61 26t-56 10v-809q0 -65 -41 -118q-37 -52 -107 -82q-63 -33 -131 -33q-63 0 -102 33q-43 26 -43 92q0 63 39 115q41 55 108.5 86.5t120.5 31.5q86 0 121 -34v731v372zM109 1479h-33v174h798v-31h-765v-143zM1028 1636
q23 4 34 8.5t21 14.5q9 10 18 24.5t9 26.5q0 41 -51 41q-21 0 -34 -12.5t-30 -36.5h-14q8 22 13 31.5t16 17.5q28 23 57 23q31 0 52.5 -16.5t21.5 -45.5q0 -18 -9.5 -35.5t-31.5 -34.5q16 -6 19 -9t11 -9q9 -12 14 -21.5t5 -27.5q0 -51 -35 -74q-35 -24 -84 -24t-49 22
q0 10 16 10q7 0 12 -1t15 -5q20 -12 41 -6q22 8 34.5 17.5t16.5 37.5q2 23 -10 41.5t-33 26.5q-2 2 -18 2h-27v14zM424 1427v-1196q0 -61 -41 -114q-41 -56 -108.5 -86.5t-131.5 -30.5q-53 0 -100 35q-43 33 -43 84q0 59 43 114q37 50 111 91q36 18 68 25t59 7q55 0 108 -34
v1105h35z" />
    <glyph glyph-name="onehalf" unicode="&#xbd;" horiz-adv-x="512" 
d="M41 106l164 37v144l-164 -33v-148zM0 598h41v-238l209 46v-603h-45v230l-205 -37v602z" />
    <glyph glyph-name="threequarters" unicode="&#xbe;" horiz-adv-x="2048" 
d="M1604 1176h243v118h-899v-1063q0 -55 -41 -114q-43 -56 -110.5 -86.5t-130.5 -30.5q-56 0 -101 33t-45 88q0 63 45 115q39 51 111 92q37 16 67.5 23t59.5 7q14 0 33.5 -11t37 -21.5t28.5 -14.5t11 13v970h-487v-118h2h254v-138h-256v-811q0 -53 -39 -110
q-43 -56 -110.5 -86.5t-131.5 -30.5q-57 0 -102 33q-43 33 -43 88q0 59 43 115q20 22 49 45.5t64 46.5q37 16 67.5 23t59.5 7q61 0 108 -34v1110h1491v-1203q0 -61 -41 -114q-43 -56 -110.5 -86.5t-128.5 -30.5q-58 0 -103 33q-43 33 -43 88q0 59 43 115q43 51 111 92
q37 16 68.5 23t60.5 7q55 0 108 -34v714h-243v138z" />
    <glyph glyph-name="questiondown" unicode="&#xbf;" 
d="M511 810v8q-28 -19 -37.5 -25t-19.5 -12q-6 -6 -12.5 -13.5t-28.5 -31.5q-16 -17 -24.5 -23t-20.5 -6q-37 0 -37 37q0 23 14.5 33t51.5 16q34 6 54.5 14.5t51.5 26.5l-12 8q-13 9 -14 7.5t-15 9.5q-12 4 -27.5 7t-33.5 9q-37 6 -53.5 16.5t-16.5 32.5q0 37 33 37
q12 0 23.5 -7t29.5 -30q25 -28 44.5 -41.5t49.5 -31.5v12q0 22 -5 45.5t-11 52.5q-12 31 -12 53q0 33 36 33q37 0 37 -37q0 -10 -1 -21.5t-7 -27.5q-20 -39 -20 -86v-29l8 5q8 4 12 7t29 23q0 2 12 15l25 24q34 41 57 41q37 0 37 -41q0 -22 -11.5 -29.5t-41.5 -11.5
q-35 -6 -56.5 -14t-62.5 -31l12 -8q39 -27 98 -33q35 -6 48.5 -14t13.5 -31q0 -41 -37 -41q-29 0 -61 45q-23 29 -39.5 42t-34.5 20l-8 4v-8q0 -60 24 -115q8 -14 8 -33q0 -18 -12 -31.5t-29 -13.5q-16 0 -26 12.5t-10 28.5q0 14 12 49q10 25 13 43.5t3 34.5v25z" />
    <glyph glyph-name="Agrave" unicode="&#xc0;" 
d="M504 344v-2q59 -45 98 -85t39 -99q0 -76 -51 -117t-144 -41q-86 0 -144 37t-58 113q0 24 7 44.5t24.5 41t45 43t68.5 53.5q-41 33 -64.5 55.5t-36 43t-16.5 39.5t-4 44q0 66 53.5 109t131.5 43q73 0 121.5 -38t48.5 -102q0 -49 -21.5 -95t-97.5 -87zM494 260l-56 39
q-47 -35 -87 -68.5t-44 -80.5q-2 -25 10.5 -44.5t34 -32t48 -18.5t55.5 -6q47 0 77.5 23.5t34.5 58.5q2 21 1 36t-9 29.5t-23.5 29t-41.5 34.5zM410 408l45 -31q49 35 76.5 66.5t23.5 74.5q-4 47 -33.5 67.5t-66.5 20.5q-47 0 -84 -21.5t-37 -60.5q0 -41 14 -62.5t62 -53.5z
M176 1421h8v-585q0 -35 16.5 -42.5t75.5 -7.5v-22h-268v22q55 2 73.5 12.5t18.5 57.5v404q0 22 -2 40.5t-14 24.5q-8 4 -20.5 0t-22.5 -8l-41 -25v43zM809 836v-74h-418v12l127 158q29 37 59.5 73.5t55 72.5t41 70t16.5 64q0 62 -38 100t-101 38q-49 0 -71.5 -23.5
t-51.5 -99.5h-37q12 53 25.5 80.5t36.5 54.5q55 59 141 59q37 0 70.5 -13t58.5 -35.5t39 -53.5t14 -68q0 -61 -31.5 -116.5t-95.5 -128.5l-149 -170h309z" />
    <glyph glyph-name="Aacute" unicode="&#xc1;" horiz-adv-x="512" 
d="M449 985v-63h-99v-162h-78v162h-272v63l305 434h45v-434h99zM272 985v301l-215 -301h215zM295 348v-2q59 -45 98 -85t39 -99q0 -76 -51 -118t-143 -42q-86 0 -144.5 38t-58.5 114q0 24 7 44.5t24.5 41t45 43t68.5 53.5q-41 33 -64.5 55.5t-35.5 43t-16.5 40t-4.5 43.5
q0 66 53.5 109t131.5 43q73 0 121.5 -38t48.5 -102q0 -49 -21.5 -95t-97.5 -87zM285 264l-56 39q-47 -35 -87 -68.5t-44 -80.5q-2 -25 10.5 -44.5t34 -31.5t48 -18.5t55.5 -6.5q47 0 77.5 23.5t34.5 58.5q2 21 1 36t-9 29.5t-23.5 29t-41.5 34.5zM201 412l45 -31
q49 35 76.5 66.5t23.5 74.5q-4 47 -33.5 67.5t-66.5 20.5q-47 0 -84 -21.5t-37 -60.5q0 -41 14.5 -62.5t61.5 -53.5z" />
    <glyph glyph-name="Acircumflex" unicode="&#xc2;" 
d="M530 231q0 -55 -41 -114q-43 -56 -110.5 -86.5t-130.5 -30.5q-58 0 -103 33q-43 33 -43 88q0 59 43 115q21 22 49.5 45.5t63.5 46.5q37 16 67.5 23t59.5 7q61 0 109 -34v1110h36v-1203zM786 215q0 -31 -22.5 -53.5t-52.5 -22.5q-31 0 -53.5 22.5t-22.5 53.5t22.5 53.5
t53.5 22.5q30 0 52.5 -22.5t22.5 -53.5zM631 1462q0 70 -43 129q-23 31 -51.5 53.5t-65.5 36.5q-16 15 -33.5 21t-31.5 10q-37 6 -74 6q-78 0 -153 -42t-120 -113q-4 -11 -9 -22t-9 -25q-2 -7 -4 -13t-2 -12q-2 -2 -2 -29h-33q6 74 31 135q14 33 31.5 62t37.5 55
q47 53 107 80q29 14 60.5 22.5t64.5 8.5q37 0 70.5 -8.5t62.5 -22.5q65 -29 102 -78q84 -108 101 -254h-37zM389 1516q0 -23 -16 -39q-15 -15 -41 -15q-21 0 -41 15q-15 12 -15 39q0 20 15 34q0 4 12 9q10 0 17.5 2t11.5 2q24 0 41 -13q16 -22 16 -34z" />
    <glyph glyph-name="Atilde" unicode="&#xc3;" horiz-adv-x="512" 
d="M0 362h512v-106h-512v106z" />
    <glyph glyph-name="Adieresis" unicode="&#xc4;" 
d="M0 362h510v-106h-510v106z" />
    <glyph glyph-name="Aring" unicode="&#xc5;" horiz-adv-x="512" 
d="M449 223v-63h-99v-160h-78v160h-272v63l305 434h45v-434h99zM272 223v301l-215 -301h215zM301 1104v-2q59 -45 98 -85t39 -99q0 -76 -51 -118t-143 -42q-86 0 -144.5 38t-58.5 113q0 25 7 45.5t24.5 41t45 43t68.5 53.5q-41 32 -64.5 54.5t-35.5 43t-16 40t-4 44.5
q0 65 53 108t131 43q74 0 122 -37.5t48 -101.5q0 -49 -21.5 -95t-97.5 -87zM291 1020l-55 39q-48 -35 -87.5 -69t-44.5 -81q-2 -24 10.5 -43.5t34 -32t48 -18.5t55.5 -6q47 0 77.5 23.5t35.5 58.5q2 20 1 35.5t-9.5 30t-24 28.5t-41.5 35zM207 1167l45 -30q49 34 76.5 66
t23.5 75q-4 47 -33.5 67.5t-66.5 20.5q-47 0 -84 -21.5t-37 -60.5q0 -41 14.5 -62.5t61.5 -54.5z" />
    <glyph glyph-name="AE" unicode="&#xc6;" horiz-adv-x="512" 
d="M393 1425v-63l-192 -582h-72l188 574h-301v71h377zM449 223v-63h-99v-160h-78v160h-272v63l305 434h45v-434h99zM272 223v301l-215 -301h215z" />
    <glyph glyph-name="Ccedilla" unicode="&#xc7;" 
d="M511 810v8q-28 -19 -37.5 -25t-19.5 -12q-6 -6 -12.5 -13.5t-28.5 -31.5q-16 -17 -24.5 -23t-20.5 -6q-37 0 -37 37q0 23 14.5 33t51.5 16q34 6 54.5 14.5t51.5 26.5l-12 8q-13 9 -14 7.5t-15 9.5q-12 4 -27.5 7t-33.5 9q-37 6 -53.5 16.5t-16.5 32.5q0 37 33 37
q12 0 23.5 -7t29.5 -30q25 -28 44.5 -41.5t49.5 -31.5v12q0 22 -5 45.5t-11 52.5q-12 31 -12 53q0 33 36 33q37 0 37 -37q0 -10 -1 -21.5t-7 -27.5q-20 -39 -20 -86v-29l8 5q8 4 12 7t29 23q0 2 12 15l25 24q34 41 57 41q37 0 37 -41q0 -22 -11.5 -29.5t-41.5 -11.5
q-35 -6 -56.5 -14t-62.5 -31l12 -8q39 -27 98 -33q35 -6 48.5 -14t13.5 -31q0 -41 -37 -41q-29 0 -61 45q-23 29 -39.5 42t-34.5 20l-8 4v-8q0 -60 24 -115q8 -14 8 -33q0 -18 -12 -31.5t-29 -13.5q-16 0 -26 12.5t-10 28.5q0 14 12 49q10 25 13 43.5t3 34.5v25z" />
    <glyph glyph-name="Egrave" unicode="&#xc8;" 
d="M391 1434h35q4 -41 13.5 -75t19.5 -63q16 -53 45 -94l35 -43l49 -59l90 -105q102 -133 102 -278q0 -35 -6 -77t-24 -87q-15 -35 -24 -58.5t-26 -52.5l-30 -2l35 90q6 19 12 37.5t10 40.5l6 56l2 24v41l-8 33q-8 24 -16 49q-21 63 -70 115q-43 55 -98 84
q-29 16 -60.5 26.5t-56.5 10.5v-814q0 -63 -45 -120q-29 -47 -102 -80q-64 -33 -134 -33q-63 0 -102 33q-43 30 -43 92q0 31 9 60.5t32 56.5q20 24 46 46.5t60 39.5q68 30 123 30q88 0 121 -32v733v375z" />
    <glyph glyph-name="Eacute" unicode="&#xc9;" 
d="M391 1434h35q4 -41 13.5 -75t19.5 -63q16 -53 45 -94l35 -43l49 -59l90 -105q102 -133 102 -278q0 -35 -6 -77t-24 -87q-15 -35 -24 -58.5t-26 -52.5l-30 -2l35 90q6 19 12 37.5t10 40.5l6 56l2 24v41l-8 33q-8 24 -16 49q-21 63 -70 115q-43 55 -98 84
q-29 16 -60.5 26.5t-56.5 10.5v-814q0 -63 -45 -120q-29 -47 -102 -80q-64 -33 -134 -33q-63 0 -102 33q-43 30 -43 92q0 31 9 60.5t32 56.5q20 24 46 46.5t60 39.5q68 30 123 30q88 0 121 -32v733v375z" />
    <glyph glyph-name="Ecircumflex" unicode="&#xca;" 
d="M35 387q24 0 56 10.5t61 26.5q55 29 98 84q49 51 69 115q9 24 13 36.5t5 16.5t2 12t5 17v40l-2 25l-6 55q-4 23 -10.5 41.5t-12.5 36.5l-34 90l30 -2q17 -28 26 -52t23 -58q19 -45 25 -87t6 -77q0 -146 -102 -279l-90 -104l-50 -60l-34 -43q-29 -41 -45 -94
q-11 -28 -20 -62t-13 -75h-35v1200q0 64 45 121q29 47 102 80q64 33 134 33q63 0 102 -33q43 -31 43 -92q0 -31 -9 -60.5t-32 -56.5q-20 -25 -46 -47.5t-60 -38.5q-68 -31 -123 -31q-88 0 -121 33v-721z" />
    <glyph glyph-name="Edieresis" unicode="&#xcb;" 
d="M35 387q24 0 56 10.5t61 26.5q55 29 98 84q49 51 69 115q9 24 13 36.5t5 16.5t2 12t5 17v40l-2 25l-6 55q-4 23 -10.5 41.5t-12.5 36.5l-34 90l30 -2q17 -28 26 -52t23 -58q19 -45 25 -87t6 -77q0 -146 -102 -279l-90 -104l-50 -60l-34 -43q-29 -41 -45 -94
q-11 -28 -20 -62t-13 -75h-35v1200q0 64 45 121q29 47 102 80q64 33 134 33q63 0 102 -33q43 -31 43 -92q0 -31 -9 -60.5t-32 -56.5q-20 -25 -46 -47.5t-60 -38.5q-68 -31 -123 -31q-88 0 -121 33v-721z" />
    <glyph glyph-name="Igrave" unicode="&#xcc;" horiz-adv-x="512" 
d="M109 883h-43q-15 75 -26 145t-20.5 126t-14.5 95t-5 51q0 35 25.5 59.5t62.5 24.5q35 0 60.5 -23.5t25.5 -55.5q0 -48 -13.5 -136t-37.5 -204q-4 -21 -7 -40.5t-7 -41.5z" />
    <glyph glyph-name="Iacute" unicode="&#xcd;" horiz-adv-x="512" 
d="M258 635q45 0 79 -35t34 -82q0 -45 -34 -77.5t-81 -32.5t-80 32.5t-33 79.5t34 81t81 34z" />
    <glyph glyph-name="Icircumflex" unicode="&#xce;" horiz-adv-x="512" 
d="M0 526h512v-129h-512v129z" />
    <glyph glyph-name="Idieresis" unicode="&#xcf;" horiz-adv-x="1536" 
d="M50 1794h1419v-2177h-1419v2177zM101 434h230v338h-230v-338zM101 823h230v338h-230v-338zM927 434h227v338h-227v-338zM927 823h227v338h-227v-338zM382 772v-338h221v338h-221zM101 1212h230v324h-230v-324zM382 823h221v338h-221v-338zM875 434v338h-221v-338h221z
M927 1212h227v324h-227v-324zM654 1161v-338h221v338h-221zM382 1212h221v324h-221v-324zM654 1212h221v324h-221v-324zM1205 434h213v338h-213v-338zM1418 823v338h-213v-338h213zM1205 1536v-324h213v324h-213zM101 51h230v332h-230v-332zM927 51h227v332h-227v-332z
M382 51h221v332h-221v-332zM875 383h-221v-332h221v332zM1205 51h213v332h-213v-332zM101 -332h230v332h-230v-332zM927 -332h227v332h-227v-332zM382 -332h221v332h-221v-332zM875 0h-221v-332h221v332zM1205 -332h213v332h-213v-332z" />
    <glyph glyph-name="Eth" unicode="&#xd0;" 
d="M508 86l45 43l49 55l21 25l16 31q8 14 10 26.5t2 22.5q0 30 -18 49q-17 18 -43 18h-19q-8 -2 -15 -6t-19 -10q-21 -10 -29 -39v-215zM438 184l-20 -16l-25 -18l-33 -25l-43 -25l-34 -30q-19 -13 -38.5 -31.5t-39.5 -38.5v860h45v-502q78 48 127 48q47 0 84 -25v479h47
v-502q65 48 129 48q53 0 86 -27q20 -17 31.5 -36t11.5 -44q0 -41 -30.5 -76t-78.5 -69l-104 -76q-21 -15 -43.5 -33t-48.5 -45v209zM250 86q29 29 55.5 56.5t48.5 56.5q37 43 37 90q0 65 -61 65l-25 -4l-24 -10q-25 -18 -31 -39v-215z" />
    <glyph glyph-name="Ntilde" unicode="&#xd1;" horiz-adv-x="2048" 
d="M1860 229q0 -59 -39 -110q-45 -58 -113 -88.5t-129 -30.5q-53 0 -98 33q-47 35 -47 88q0 55 47 115q18 22 44.5 46.5t61.5 43.5q37 16 70 22t61 6q60 0 107 -30v968h-1401v-1063q0 -28 -9 -56t-32 -54q-41 -58 -108.5 -88.5t-129.5 -30.5q-30 0 -53.5 8t-46.5 25
q-45 33 -45 88q0 63 45 115q21 22 48.5 46.5t62.5 43.5q37 16 67.5 22t59.5 6q30 0 54.5 -7t51.5 -23v1110h1471v-1205zM1931 1483v131h-708v28h739v-159h-31zM1061 199h-51q34 135 72 263t73 263q-27 -25 -57.5 -46.5t-63.5 -33.5t-67.5 -9t-67.5 30q-29 24 -34 62t7.5 72
t41 52t69.5 4q37 -10 54.5 -40t17.5 -64q-6 -17 -14.5 -34.5t12.5 -23.5q22 -6 49.5 13.5t51.5 44t55 73.5h30zM70 1491v160h768v-29h-738v-131h-30zM983 1622v14q23 4 34 8.5t21 14.5q9 10 18 24.5t9 26.5q0 41 -51 41q-21 0 -34 -12.5t-30 -36.5h-14q8 22 13 31.5t16 17.5
q28 23 57 23q31 0 52.5 -16.5t21.5 -45.5q0 -18 -9.5 -35.5t-31.5 -34.5q16 -6 19 -9t11 -9q9 -12 14 -21.5t5 -27.5q0 -51 -35 -74q-35 -24 -84 -24t-49 22q0 10 16 10q6 0 11.5 -1t15.5 -5q20 -12 41 -6q22 8 34.5 17.5t16.5 37.5q2 23 -10 41.5t-33 26.5q-2 2 -18 2h-27z
" />
    <glyph glyph-name="Ograve" unicode="&#xd2;" horiz-adv-x="2048" 
d="M1948 1491v137h-762v29h794v-166h-32zM201 369h-54l148 528q-27 -25 -57.5 -47.5t-63.5 -33.5t-67.5 -8t-67.5 32q-36 35 -36 71t11 65.5t39.5 47.5t69.5 4q35 -10 51 -40t16 -64q0 -9 -4 -18t-7 -16t-2 -13.5t11 -8.5q25 -6 52.5 12.5t52 44t56.5 68.5h26
q0 -4 -12.5 -45t-33 -114.5t-44 -155.5t-46 -165t-38.5 -144zM1765 369h-49q35 135 71 264t73 264q-27 -25 -57.5 -47.5t-63.5 -33.5t-68 -8t-67 32q-29 24 -34 62t8 71t42 51t70 4q34 -10 50.5 -40t16.5 -64q-2 -17 -11 -34.5t9 -21.5q23 -6 51.5 12.5t53 44t56.5 68.5h28
q0 -4 -12.5 -45t-34 -114.5t-45 -155.5t-47 -165t-40.5 -144zM1016 1434q4 -39 13 -73t20 -61q22 -59 47 -96l32 -47l50 -55l90 -107q53 -65 77.5 -136t24.5 -142q0 -35 -5 -77t-26 -87q-16 -35 -24 -58.5t-25 -52.5l-30 -2l34 90q6 19 12.5 37.5t10.5 40.5l8 58v24v39
q-2 8 -4 16.5t-2 18.5q-2 6 -6 18.5t-10 28.5q-21 59 -70 113q-45 57 -100 86q-27 18 -60 28.5t-57 10.5v-813q0 -68 -43 -123q-17 -25 -43.5 -44.5t-61.5 -37.5q-34 -15 -67 -23t-66 -8q-30 0 -56 8t-46 23q-43 37 -43 94q0 63 41 117q43 51 106 84q35 16 67 23t58 7
q80 0 121 -30v733v375h33zM68 1491v166h770v-29h-738v-137h-32zM956 1628v14q23 5 34 9t22 14q8 10 17 24.5t9 26.5q0 41 -51 41q-20 0 -33.5 -12t-29.5 -37h-15q9 23 14 32t15 17q29 23 57 23q31 0 52.5 -16.5t21.5 -45.5q0 -18 -9 -35.5t-32 -33.5q16 -7 19.5 -10t11.5 -9
q8 -12 13 -21.5t5 -27.5q0 -51 -35 -74q-34 -24 -84 -24q-49 0 -49 22q0 11 17 11q6 0 11 -1.5t15 -5.5q21 -12 41 -6q23 8 35 17.5t16 38.5q3 22 -9.5 40.5t-33.5 26.5q-2 2 -18 2h-27z" />
    <glyph glyph-name="Oacute" unicode="&#xd3;" horiz-adv-x="2048" 
d="M1163 229q0 -51 -41 -110q-43 -60 -110.5 -89.5t-132.5 -29.5q-27 0 -53.5 8t-49.5 23q-39 37 -39 90q0 33 8.5 59.5t30.5 52.5q47 56 115 93q35 16 66.5 23t60.5 7q59 0 110 -32v968h-702v-1063q0 -28 -9 -56t-32 -54q-43 -60 -110.5 -89.5t-129.5 -29.5q-28 0 -53.5 8
t-48.5 23q-43 39 -43 90q0 59 43 112q23 27 51.5 49.5t61.5 43.5q37 16 67.5 23t59.5 7q57 0 108 -32v1108h772v-1203zM1939 1491v131h-725v29h756v-160h-31zM1755 365h-53q39 129 76 261t73 263q-28 -23 -59 -44.5t-63.5 -33.5t-66.5 -9t-67 29q-28 25 -33.5 63t7 70.5
t40 52t68.5 5.5q37 -10 54.5 -39t17.5 -63q-4 -21 -12 -38.5t10 -21.5q20 -6 48 13.5t52.5 44t56.5 69.5h29q0 -4 -12 -45t-32.5 -114.5t-44 -154.5t-47 -164t-42.5 -144zM72 1491v160h772v-29h-742v-131h-30zM997 1630v15q23 4 34 8t22 14q8 10 17 24.5t9 26.5q0 41 -51 41
q-20 0 -33.5 -12t-29.5 -37h-15q8 23 13.5 32t15.5 17q29 23 57 23q31 0 52.5 -16.5t21.5 -45.5q0 -18 -9 -35.5t-32 -33.5q16 -6 19.5 -9.5t11.5 -9.5q8 -12 13 -21t5 -28q0 -51 -35 -74q-34 -24 -84 -24q-49 0 -49 22q0 11 17 11q6 0 11 -1t15 -6q21 -12 41 -6
q23 8 35 17.5t16 38.5q2 22 -10 40.5t-33 26.5q-2 2 -18 2h-27z" />
    <glyph glyph-name="Ocircumflex" unicode="&#xd4;" horiz-adv-x="2048" 
d="M1935 1479v143h-712v31h745v-174h-33zM1153 379h-49q37 135 72.5 263t72.5 263q-26 -22 -57 -44.5t-63.5 -35t-66.5 -9.5t-69 32q-28 24 -33.5 62t8 70t42 50.5t67.5 3.5q37 -10 53.5 -37.5t16.5 -62.5q-4 -21 -13.5 -36t11.5 -19q22 -7 51 11.5t53.5 43t56.5 67.5h25
q0 -4 -12 -45t-33.5 -114.5t-45 -154.5t-47.5 -164t-40 -144zM1765 377h-49q37 135 74 263t74 263q-29 -22 -58.5 -44.5t-62.5 -35t-67 -9.5t-68 32q-29 24 -34 61t7 70t41 51.5t70 3.5q34 -10 51.5 -37.5t17.5 -62.5q-4 -21 -14 -36t10 -19q23 -7 50.5 11.5t52 43
t58.5 67.5h26q0 -4 -12.5 -45t-33 -114.5t-44 -154.5t-47 -164t-42.5 -144zM424 1427q4 -36 12 -71t21 -64q8 -26 19 -49.5t26 -46.5l37 -41l47 -61l88 -105q104 -133 104 -274q0 -37 -6 -78t-24 -86q-15 -35 -24 -59.5t-26 -53.5h-32l34 90q9 21 14 39.5t9 36.5l10 58v22
v43q-6 14 -6 33q-6 14 -18 49q-13 31 -29 58.5t-41 54.5q-43 55 -98 84q-29 16 -60.5 26t-56.5 10v-809q0 -65 -41 -118q-37 -52 -107 -82q-63 -33 -131 -33q-63 0 -102 33q-43 26 -43 92q0 63 39 115q41 55 108.5 86.5t120.5 31.5q86 0 121 -34v731v372h35zM76 1479v174
h798v-31h-765v-143h-33zM1028 1622v14q23 4 34 8.5t21 14.5q9 10 18 24.5t9 26.5q0 41 -51 41q-21 0 -34 -12.5t-30 -36.5h-14q8 22 13 31.5t16 17.5q28 23 57 23q31 0 52.5 -16.5t21.5 -45.5q0 -18 -9.5 -35.5t-31.5 -34.5q16 -6 19 -9t11 -9q9 -12 14 -21.5t5 -27.5
q0 -51 -35 -74q-35 -24 -84 -24t-49 22q0 10 16 10q7 0 12 -1t15 -5q20 -12 41 -6q22 8 34.5 17.5t16.5 37.5q2 23 -10 41.5t-33 26.5q-2 2 -18 2h-27z" />
    <glyph glyph-name="Otilde" unicode="&#xd5;" horiz-adv-x="2048" 
d="M1024 1432h844v-1201q0 -28 -11.5 -57t-29.5 -55q-45 -60 -113.5 -89.5t-130.5 -29.5q-29 0 -53.5 8t-48.5 23q-43 39 -43 90q0 59 43 112q24 27 52 50.5t64 42.5q35 16 66 23t61 7q58 0 109 -32v966h-774v-1061q0 -28 -8.5 -56t-30.5 -54q-43 -60 -111.5 -89.5
t-130.5 -29.5q-53 0 -98 31q-45 39 -45 90q0 61 45 112q37 52 108 93q37 16 68 23t59 7q64 0 109 -32v968v140zM1942 1491v131h-744v29h776v-160h-32zM197 334h-47q34 135 70 264t75 264q-27 -22 -58.5 -43.5t-65.5 -34t-67.5 -9.5t-66.5 32q-35 27 -35 64.5t11.5 67.5
t40 50.5t69.5 5.5q70 -26 70 -108q-5 -17 -14 -32t9 -21q23 -7 51.5 12.5t53 45.5t57.5 69h25q-19 -64 -33 -116t-32.5 -119t-38 -136.5t-39 -137t-35.5 -118.5zM55 1491v160h811v-29h-778v-131h-33zM993 1624v14q23 4 34 8.5t22 14.5q8 10 17 24.5t9 26.5q0 41 -51 41
q-20 0 -33.5 -12t-29.5 -37h-15q8 22 13.5 31.5t15.5 17.5q29 23 57 23q31 0 52.5 -16.5t21.5 -45.5q0 -18 -9.5 -35.5t-31.5 -33.5q16 -7 19 -10t12 -9q8 -12 13 -21.5t5 -27.5q0 -51 -35 -74q-35 -24 -84 -24t-49 22q0 10 17 10q6 0 11 -1t15 -5q21 -12 41 -6
q23 8 35 17.5t16 37.5q2 23 -10 41.5t-33 26.5q-2 2 -18 2h-27z" />
    <glyph glyph-name="Odieresis" unicode="&#xd6;" 
d="M213 256l168 168v1010h43v-1053l-168 -168l168 -170l-43 -43l-168 170l-170 -170l-43 43l170 170l-170 168l43 43zM698 219q0 -31 -21.5 -53.5t-51.5 -22.5q-31 0 -52.5 22.5t-21.5 53.5t21.5 52.5t52.5 21.5q30 0 51.5 -21.5t21.5 -52.5z" />
    <glyph glyph-name="multiply" unicode="&#xd7;" 
d="M383 635l43 -43l-170 -170l170 -170l-43 -43l-170 170l-170 -170l-43 43l170 170l-170 170l43 43l170 -170z" />
    <glyph glyph-name="Oslash" unicode="&#xd8;" 
d="M379 301l-113 -111l113 -112l-78 -78l-111 113l-112 -113l-78 78l113 112l-113 111l78 78l112 -113l111 113l39 -41v1096h39v-1133zM301 340l-111 -111l-112 111l-39 -39l113 -111l-113 -112l39 -39l112 113l111 -113l39 39l-111 112l111 111zM604 188q0 -28 -18.5 -47.5
t-46.5 -19.5q-27 0 -45.5 19.5t-18.5 47.5q0 27 18.5 45.5t45.5 18.5q28 0 46.5 -18.5t18.5 -45.5z" />
    <glyph glyph-name="Ugrave" unicode="&#xd9;" horiz-adv-x="2048" 
d="M381 1311v123h1491v-1051l-170 -170l170 -170l-43 -43l-170 170l-168 -170l-43 43l170 170l-170 170l43 41l168 -168l170 168v569h-371v123h371v195h-1405v-928l-170 -170l170 -170l-43 -43l-168 170l-170 -170l-43 43l170 170l-170 170l43 41l170 -168l168 168v887z
M633 190q0 -24 -17.5 -42.5t-44.5 -18.5q-26 0 -44.5 18.5t-18.5 42.5q0 27 18.5 45.5t44.5 18.5q27 0 44.5 -18.5t17.5 -45.5z" />
    <glyph glyph-name="Uacute" unicode="&#xda;" 
d="M383 424v1012h43v-1055l-170 -170l170 -170l-43 -41l-170 168l-170 -168l-43 41l170 170l-170 170l43 43l170 -170z" />
    <glyph glyph-name="Ucircumflex" unicode="&#xdb;" 
d="M305 217l127 -129l-88 -88l-127 129l-129 -129l-88 88l129 129l-129 127l88 88l129 -127l127 127l88 -88zM217 262l-129 127l-43 -45l129 -127l-129 -129l43 -43l129 129l127 -129l45 43l-127 129l127 127l-45 45z" />
    <glyph glyph-name="Udieresis" unicode="&#xdc;" 
d="M305 217l127 -129l-88 -88l-127 129l-129 -129l-88 88l129 129l-129 127l88 88l129 -127l127 127l45 -45v1251h43v-1294zM217 262l-129 127l-43 -45l129 -127l-129 -129l43 -43l129 129l127 -129l45 43l-127 129l127 127l-45 45z" />
    <glyph glyph-name="Yacute" unicode="&#xdd;" horiz-adv-x="2048" 
d="M57 1489v162h772v-29h-741v-133h-31zM1956 1489v133h-733v29h764v-162h-31zM1946 975q-41 -47 -69 -85t-44 -69q-35 -65 -35 -114q0 -31 35 -113l45 -68q4 -4 8 -11t15 -17q10 -15 19 -26t19 -26l-24 -28q-12 8 -27.5 14t-32.5 14q-22 5 -35.5 8t-17.5 3q-35 0 -59 -25
q-19 -26 -21 -65q0 -25 17 -84q20 -47 53 -80l-16 -29q-47 33 -82 63.5t-58 59.5q-14 16 -22 32.5t-19 35.5q-14 26 -14 65q0 55 37 90q39 33 94 33q49 0 111 -37l-217 299q143 129 143 238q0 86 -92 202h61zM1100 233q0 -32 -9.5 -61t-31.5 -55q-41 -54 -108.5 -85.5
t-133.5 -31.5q-51 0 -98 35q-45 33 -45 84q0 59 45 117q41 53 110 90q35 18 68 25t59 7q60 0 109 -36v1110h35v-1199zM365 975q-41 -47 -69 -85t-46 -69q-31 -65 -31 -114q0 -48 35 -113l43 -68q4 -12 22 -28q11 -15 20 -26t19 -26l-22 -28l-57 28q-23 5 -35.5 8t-22.5 3
q-39 0 -59 -25q-19 -29 -25 -65q0 -41 19 -84q10 -21 23.5 -41.5t33.5 -38.5l-23 -29q-45 33 -77.5 63.5t-55.5 59.5q-14 16 -23 32.5t-20 35.5q-14 26 -14 65q0 57 39 90t90 33t113 -37l-217 299q69 66 106 124t37 114q0 43 -23.5 93t-66.5 109h57zM979 1618v14
q22 4 33.5 8.5t21.5 14.5q8 10 17.5 24.5t9.5 26.5q0 41 -51 41q-21 0 -34 -12.5t-30 -36.5h-14q8 22 13 31.5t16 17.5q28 22 57 22q31 0 52.5 -16t21.5 -45q0 -18 -9.5 -35.5t-31.5 -34.5q16 -6 19 -9t11 -9q9 -12 14 -21.5t5 -27.5q0 -51 -35 -74q-35 -24 -84 -24t-49 22
q0 10 16 10q6 0 11.5 -1t15.5 -5q20 -12 41 -6q22 8 34.5 17.5t16.5 37.5q2 23 -10.5 41.5t-32.5 26.5q-2 2 -18 2h-27z" />
    <glyph glyph-name="Thorn" unicode="&#xde;" horiz-adv-x="2048" 
d="M426 233q0 -61 -41 -114q-41 -60 -108.5 -89.5t-131.5 -29.5q-55 0 -100 33t-45 88q0 57 45 115q39 51 111 92q69 30 127 30q55 0 108 -34v1108h35v-1199zM1858 233q0 -61 -41 -114q-45 -60 -112 -89.5t-128 -29.5q-59 0 -104 33q-43 33 -43 88q0 59 43 115
q22 26 50.5 48.5t61.5 43.5q74 30 127 30q51 0 111 -34v1108h35v-1199zM66 1487v164h735v-29h-705v-135h-30zM1939 1487v135h-731v29h764v-164h-33zM1206 971q-41 -47 -68.5 -86t-45.5 -68q-33 -63 -33 -119q0 -45 37 -112l43 -68q6 -4 24 -24q11 -15 19 -27t18 -25l-22 -28
q-13 8 -28 14t-32 14q-20 4 -32.5 7.5t-22.5 3.5q-37 0 -57 -25q-19 -25 -25 -68q0 -41 18 -79q21 -45 54 -84l-21 -25q-45 35 -77.5 65.5t-55.5 57.5q-12 16 -23.5 31.5t-17.5 31.5q-10 58 -10 68q0 61 31 86q39 33 94 33q51 0 110 -35l-217 297q146 133 146 237
q0 46 -23.5 97t-68.5 110h59zM965 1620v14q22 4 33.5 8.5t21.5 14.5q8 10 17.5 24.5t9.5 26.5q0 41 -52 41q-20 0 -33.5 -12.5t-29.5 -36.5h-14q8 22 13 31.5t15 17.5q29 23 58 23q30 0 51.5 -16.5t21.5 -45.5q0 -18 -9 -35.5t-32 -34.5q17 -6 20 -9t11 -9q8 -12 13 -21.5
t5 -27.5q0 -51 -34 -74q-35 -24 -84 -24t-49 22q0 10 16 10q6 0 11 -1t16 -5q20 -12 40 -6q23 8 35.5 17.5t16.5 37.5q2 23 -10.5 41.5t-32.5 26.5q-2 2 -19 2h-26z" />
    <glyph glyph-name="uni00DF" unicode="&#xdf;" 
d="M511 810v8q-28 -19 -37.5 -25t-19.5 -12q-6 -6 -12.5 -13.5t-28.5 -31.5q-16 -17 -24.5 -23t-20.5 -6q-37 0 -37 37q0 23 14.5 33t51.5 16q34 6 54.5 14.5t51.5 26.5l-12 8q-13 9 -14 7.5t-15 9.5q-12 4 -27.5 7t-33.5 9q-37 6 -53.5 16.5t-16.5 32.5q0 37 33 37
q12 0 23.5 -7t29.5 -30q25 -28 44.5 -41.5t49.5 -31.5v12q0 22 -5 45.5t-11 52.5q-12 31 -12 53q0 33 36 33q37 0 37 -37q0 -10 -1 -21.5t-7 -27.5q-20 -39 -20 -86v-29l8 5q8 4 12 7t29 23q0 2 12 15l25 24q34 41 57 41q37 0 37 -41q0 -22 -11.5 -29.5t-41.5 -11.5
q-35 -6 -56.5 -14t-62.5 -31l12 -8q39 -27 98 -33q35 -6 48.5 -14t13.5 -31q0 -41 -37 -41q-29 0 -61 45q-23 29 -39.5 42t-34.5 20l-8 4v-8q0 -60 24 -115q8 -14 8 -33q0 -18 -12 -31.5t-29 -13.5q-16 0 -26 12.5t-10 28.5q0 14 12 49q10 25 13 43.5t3 34.5v25z" />
    <glyph glyph-name="agrave" unicode="&#xe0;" horiz-adv-x="1536" 
d="M1260 1843v-1202q0 -61 -41 -115q-41 -55 -109 -85.5t-131 -30.5q-55 0 -100 32.5t-45 87.5q0 64 45 115q39 51 110 92q37 17 67.5 24t59.5 7q62 0 109 -35v948l-799 -381v-1069q0 -61 -41 -114q-41 -56 -108.5 -86.5t-131.5 -30.5q-57 0 -102 33q-43 33 -43 88
q0 59 43 115q20 22 49 45.5t64 46.5q34 16 66 23t61 7q61 0 108 -34v1110z" />
    <glyph glyph-name="aacute" unicode="&#xe1;" horiz-adv-x="1536" 
d="M1260 2253v-1202q0 -62 -41 -115q-41 -55 -109 -86t-131 -31q-55 0 -100 33t-45 88q0 64 45 115q39 51 110 92q37 16 67.5 23.5t59.5 7.5q62 0 109 -35v885l-799 -754v-1043q0 -61 -41 -114q-41 -56 -108.5 -86.5t-131.5 -30.5q-57 0 -102 33q-43 33 -43 88q0 59 43 115
q20 22 49 45.5t64 46.5q34 16 66 23t61 7q61 0 108 -34v1110z" />
    <glyph glyph-name="acircumflex" unicode="&#xe2;" horiz-adv-x="1536" 
d="M1260 1434v-1203q0 -61 -41 -114q-41 -56 -109 -86.5t-131 -30.5q-55 0 -100 33t-45 88q0 63 45 115q39 51 110 92q37 16 67.5 23t59.5 7q62 0 109 -34v972l-797 377v-1032q0 -61 -41 -115q-41 -55 -108.5 -85.5t-131.5 -30.5q-57 0 -102 32q-43 33 -43 88q0 60 43 115
q21 23 49.5 46.5t63.5 45.5q35 17 66.5 24t60.5 7q61 0 108 -35v1110z" />
    <glyph glyph-name="atilde" unicode="&#xe3;" horiz-adv-x="1536" 
d="M1260 1434v-1203q0 -61 -41 -114q-41 -56 -109 -86.5t-131 -30.5q-55 0 -100 33t-45 88q0 63 45 115q39 51 110 92q37 16 67.5 23t59.5 7q62 0 109 -34v950l-797 754v-977q0 -62 -41 -115q-41 -55 -108.5 -86t-131.5 -31q-57 0 -102 33q-43 33 -43 88q0 59 43 115
q21 22 49.5 45.5t63.5 46.5q35 16 66.5 23.5t60.5 7.5q61 0 108 -35v1110z" />
    <glyph glyph-name="adieresis" unicode="&#xe4;" horiz-adv-x="1536" 
d="M0 0v1202q0 62 41 115q41 55 108.5 86t131.5 31q55 0 100 -33t45 -88q0 -64 -45 -115q-39 -51 -111 -92q-37 -16 -67.5 -23.5t-59.5 -7.5q-61 0 -108 35v-938l796 440v998q0 61 41 114q41 56 109 86.5t131 30.5q57 0 102 -33q43 -32 43 -88q0 -59 -43 -114
q-20 -23 -48.5 -46.5t-63.5 -46.5q-35 -16 -66.5 -23t-60.5 -7q-62 0 -109 35v-1039z" />
    <glyph glyph-name="aring" unicode="&#xe5;" horiz-adv-x="1536" 
d="M0 -2v1202q0 62 41 115q41 55 108.5 86t131.5 31q55 0 100 -33t45 -88q0 -64 -45 -115q-39 -51 -111 -92q-37 -17 -67.5 -24t-59.5 -7q-61 0 -108 35v-879l799 836v956q0 62 40 115q41 55 109 86t131 31q57 0 103 -33q43 -33 43 -88q0 -59 -43 -115q-21 -22 -49.5 -45.5
t-63.5 -46.5q-35 -16 -66.5 -23.5t-60.5 -7.5q-62 0 -109 35v-1020z" />
    <glyph glyph-name="ae" unicode="&#xe6;" horiz-adv-x="1536" 
d="M0 410v1202q0 61 41 114q41 56 108.5 86.5t131.5 30.5q55 0 100 -32.5t45 -88.5q0 -63 -45 -114q-39 -52 -111 -92q-37 -17 -67.5 -24t-59.5 -7q-61 0 -108 35v-971l796 -381v1034q0 62 41 115q41 55 109 86t131 31q57 0 102 -33q43 -33 43 -88q0 -60 -43 -115
q-20 -22 -48.5 -46t-63.5 -46q-35 -16 -66.5 -23.5t-60.5 -7.5q-62 0 -109 35v-1110z" />
    <glyph glyph-name="ccedilla" unicode="&#xe7;" horiz-adv-x="1536" 
d="M0 854v1167q0 62 41 115q41 55 108.5 86t131.5 31q55 0 100 -33t45 -88q0 -64 -45 -115q-39 -51 -111 -92q-37 -16 -67.5 -23.5t-59.5 -7.5q-61 0 -108 35v-915l799 -787v975q0 62 40 115q41 55 109 86t131 31q57 0 103 -33q43 -33 43 -88q0 -60 -43 -115
q-21 -22 -49.5 -46t-63.5 -46q-35 -16 -66.5 -23.5t-60.5 -7.5q-62 0 -109 35v-1110z" />
    <glyph glyph-name="egrave" unicode="&#xe8;" 
d="M424 1434q4 -41 13 -75t20 -63q16 -55 45 -92l35 -45l49 -57l90 -105q102 -133 102 -278q0 -35 -6 -77t-24 -87q-15 -35 -24 -57.5t-26 -53.5h-30l34 88q7 19 13 37.5t10 40.5l6 56l2 24v41q-4 8 -5 16.5t-3 16.5q0 4 -16 49q-21 64 -70 115q-43 55 -98 84
q-29 16 -60.5 27.5t-56.5 11.5v-668l-170 -170l170 -170l-43 -43l-168 170l-170 -170l-43 43l170 170l-170 170l43 41l170 -168l168 168v1010h43zM852 182q0 -30 -21.5 -53t-52.5 -23q-30 0 -51.5 23t-21.5 53q0 31 21.5 52.5t51.5 21.5q31 0 52.5 -21.5t21.5 -52.5z" />
    <glyph glyph-name="eacute" unicode="&#xe9;" 
d="M424 1434q4 -41 13 -75t20 -63q16 -55 45 -92l35 -45l49 -57l90 -105q102 -133 102 -278q0 -35 -6 -77t-24 -87q-15 -35 -24 -57.5t-26 -53.5h-30l34 88q7 19 13 37.5t10 40.5l6 56l2 24v41q-4 8 -5 16.5t-3 16.5q0 4 -16 49q-21 64 -70 115q-43 55 -98 84
q-29 16 -60.5 27.5t-56.5 11.5v-668l-170 -170l170 -170l-43 -43l-168 170l-170 -170l-43 43l170 170l-170 170l43 41l170 -168l168 168v1010h43z" />
    <glyph glyph-name="ecircumflex" unicode="&#xea;" horiz-adv-x="2048" 
d="M424 1307v-924l-170 -170l170 -170l-43 -43l-168 170l-170 -170l-43 43l170 170l-170 170l43 41l170 -168l168 168v1010h1280v-1051l-170 -170l170 -170l-43 -43l-170 170l-168 -170l-43 43l170 170l-170 170l43 41l168 -168l170 168v883h-1194z" />
    <glyph glyph-name="edieresis" unicode="&#xeb;" 
d="M424 735v-352l-168 -170l168 -170l-41 -43l-170 170l-170 -170l-43 43l170 170l-170 170l43 41l170 -168l170 168v1010h41h37q10 -82 33 -138q12 -53 43 -92l34 -45l50 -57l90 -105q102 -133 102 -278q0 -64 -14 -109q-4 -12 -17 -48q31 -66 31 -159q0 -59 -14 -108h-39
l6 57l2 23v41q-2 6 -4 13t-4 20q0 4 -17 49q-10 30 -28.5 58t-40.5 54q-47 58 -99 86q-14 9 -35.5 16t-43 12t-41 8t-31.5 3zM494 958q6 -28 15 -44.5t26 -36.5l34 -46l45 -51l97 -100q16 -23 27.5 -40t19.5 -34l8 60l2 24v41q-6 25 -8 33q0 4 -17 49q-20 64 -69 115
q-43 55 -99 84q-51 32 -102 37q4 -17 9 -43.5t12 -47.5z" />
    <glyph glyph-name="igrave" unicode="&#xec;" horiz-adv-x="2048" 
d="M424 1307v-924l-168 -170l168 -170l-41 -43l-170 170l-170 -170l-43 43l170 170l-170 170l43 41l170 -168l170 168v1010h1378v-1051l-168 -170l168 -170l-43 -43l-170 170l-168 -170l-43 43l170 170l-170 170l43 41l168 -168l170 168v883h-624v-924l-170 -170l170 -170
l-43 -43l-168 170l-170 -170l-43 43l170 170l-170 170l43 41l170 -168l168 168v883h-627zM55 1509v162h772v-29h-741v-133h-31zM1954 1509v133h-733v29h764v-162h-31zM977 1638v15q22 4 33.5 8t21.5 14q8 11 17.5 25t9.5 26q0 41 -51 41q-21 0 -34 -12t-30 -37h-14
q8 23 13 32t15 17q29 23 58 23q31 0 52.5 -16.5t21.5 -44.5q0 -19 -9.5 -36.5t-31.5 -33.5q16 -6 19 -9t11 -10q8 -12 13.5 -21t5.5 -28q0 -51 -35 -73q-35 -25 -84 -25t-49 23q0 10 16 10q6 0 11.5 -1t15.5 -5q20 -13 41 -7q22 9 34.5 18t16.5 38q2 22 -10.5 40.5
t-32.5 26.5q-2 2 -18 2h-27z" />
    <glyph glyph-name="iacute" unicode="&#xed;" horiz-adv-x="3072" 
d="M424 1307v-924l-168 -170l168 -170l-41 -43l-170 170l-170 -170l-43 43l170 170l-170 170l43 41l170 -168l170 168v1010h2390v-1051l-168 -170l168 -170l-43 -43l-170 170l-168 -170l-43 43l170 170l-170 170l43 41l168 -168l170 168v883h-1133v-924l-170 -170l170 -170
l-43 -43l-168 170l-169 -170l-43 43l169 170l-169 170l43 41l169 -168l168 168v883h-1130z" />
    <glyph glyph-name="icircumflex" unicode="&#xee;" 
d="M511 810v8q-28 -19 -37.5 -25t-19.5 -12q-6 -6 -12.5 -13.5t-28.5 -31.5q-16 -17 -24.5 -23t-20.5 -6q-37 0 -37 37q0 23 14.5 33t51.5 16q34 6 54.5 14.5t51.5 26.5l-12 8q-13 9 -14 7.5t-15 9.5q-12 4 -27.5 7t-33.5 9q-37 6 -53.5 16.5t-16.5 32.5q0 37 33 37
q12 0 23.5 -7t29.5 -30q25 -28 44.5 -41.5t49.5 -31.5v12q0 22 -5 45.5t-11 52.5q-12 31 -12 53q0 33 36 33q37 0 37 -37q0 -10 -1 -21.5t-7 -27.5q-20 -39 -20 -86v-29l8 5q8 4 12 7t29 23q0 2 12 15l25 24q34 41 57 41q37 0 37 -41q0 -22 -11.5 -29.5t-41.5 -11.5
q-35 -6 -56.5 -14t-62.5 -31l12 -8q39 -27 98 -33q35 -6 48.5 -14t13.5 -31q0 -41 -37 -41q-29 0 -61 45q-23 29 -39.5 42t-34.5 20l-8 4v-8q0 -60 24 -115q8 -14 8 -33q0 -18 -12 -31.5t-29 -13.5q-16 0 -26 12.5t-10 28.5q0 14 12 49q10 25 13 43.5t3 34.5v25z" />
    <glyph glyph-name="idieresis" unicode="&#xef;" horiz-adv-x="3072" 
d="M2791 2249v-1198q0 -62 -41 -115q-43 -55 -110.5 -86t-126.5 -31q-55 0 -100 31q-48 41 -48 88q0 61 48 115q36 53 106 92q41 16 70.5 23.5t60.5 7.5q55 0 107 -33v936l-1139 -391v-1047q0 -29 -11.5 -57.5t-31.5 -57.5q-41 -55 -108.5 -85.5t-133.5 -30.5q-55 0 -100 30
q-43 37 -43 88q0 62 43 115q22 27 51 49.5t62 42.5q34 17 66 24t61 7q30 0 55.5 -8t54.5 -25v938l-1159 -387v-1053q0 -63 -39 -114q-43 -56 -110.5 -86.5t-129.5 -30.5q-30 0 -53.5 8t-46.5 23q-45 39 -45 88q0 63 45 114q21 27 48.5 50.5t64.5 42.5q35 16 65.5 23t59.5 7
q61 0 106 -32v1106z" />
    <glyph glyph-name="eth" unicode="&#xf0;" horiz-adv-x="3072" 
d="M2793 1430v-1199q0 -61 -40 -114q-43 -56 -111 -86.5t-127 -30.5q-55 0 -100 31q-48 41 -48 88q0 61 48 114q36 54 106 93q41 16 70.5 23t60.5 7q55 0 107 -32v960l-1143 381l2 -1024q0 -29 -11.5 -57.5t-31.5 -57.5q-41 -55 -108.5 -85.5t-133.5 -30.5q-55 0 -100 30
q-43 37 -43 88q0 62 43 115q22 27 51 49.5t62 42.5q34 17 66 24t61 7q30 0 55.5 -8t54.5 -25v948l-1157 387v-1017q0 -64 -39 -115q-43 -55 -110.5 -86t-129.5 -31q-30 0 -53.5 8.5t-46.5 22.5q-45 39 -45 88q0 63 45 115q21 26 48.5 49.5t64.5 42.5q35 16 65.5 23.5
t59.5 7.5q61 0 106 -33v1106z" />
    <glyph glyph-name="ntilde" unicode="&#xf1;" horiz-adv-x="3072" 
d="M0 821v1198q0 62 41 115q43 55 110.5 86t127.5 31q55 0 100 -31q47 -41 47 -88q0 -61 -47 -115q-37 -53 -107 -92q-41 -16 -70.5 -23.5t-60.5 -7.5q-55 0 -106 33v-960l1143 -381l-2 1024q0 28 11 57t32 57q41 56 108.5 86.5t132.5 30.5q56 0 101 -31q43 -36 43 -88
q0 -61 -43 -114q-23 -27 -51.5 -49.5t-61.5 -42.5q-35 -17 -66.5 -24t-60.5 -7q-31 0 -56.5 8t-54.5 25v-949l1157 -387v1018q0 64 39 115q43 55 111 86t129 31q31 0 54.5 -8.5t45.5 -22.5q45 -39 45 -88q0 -64 -45 -115q-20 -27 -47.5 -50.5t-64.5 -41.5q-35 -16 -66 -23.5
t-59 -7.5q-62 0 -107 33v-1106z" />
    <glyph glyph-name="ograve" unicode="&#xf2;" horiz-adv-x="3072" 
d="M2791 2249v-1198q0 -62 -41 -115q-43 -55 -110.5 -86t-126.5 -31q-55 0 -100 31q-48 41 -48 88q0 61 48 115q36 53 106 92q41 16 70.5 23.5t60.5 7.5q55 0 107 -33v936l-1141 -391l2 -1047q0 -29 -11.5 -57.5t-31.5 -57.5q-41 -55 -108.5 -85.5t-133.5 -30.5
q-55 0 -100 30q-43 37 -43 88q0 62 43 115q22 27 51 49.5t62 42.5q34 17 66 24t61 7q30 0 55.5 -8t54.5 -25v944l-1159 -403v-1043q0 -63 -39 -114q-43 -56 -110.5 -86.5t-129.5 -30.5q-30 0 -53.5 8t-46.5 23q-45 39 -45 88q0 63 45 114q21 27 48.5 50.5t64.5 42.5
q35 16 65.5 23t59.5 7q61 0 106 -32v1106z" />
    <glyph glyph-name="oacute" unicode="&#xf3;" 
d="M511 810v8q-28 -19 -37.5 -25t-19.5 -12q-6 -6 -12.5 -13.5t-28.5 -31.5q-16 -17 -24.5 -23t-20.5 -6q-37 0 -37 37q0 23 14.5 33t51.5 16q34 6 54.5 14.5t51.5 26.5l-12 8q-13 9 -14 7.5t-15 9.5q-12 4 -27.5 7t-33.5 9q-37 6 -53.5 16.5t-16.5 32.5q0 37 33 37
q12 0 23.5 -7t29.5 -30q25 -28 44.5 -41.5t49.5 -31.5v12q0 22 -5 45.5t-11 52.5q-12 31 -12 53q0 33 36 33q37 0 37 -37q0 -10 -1 -21.5t-7 -27.5q-20 -39 -20 -86v-29l8 5q8 4 12 7t29 23q0 2 12 15l25 24q34 41 57 41q37 0 37 -41q0 -22 -11.5 -29.5t-41.5 -11.5
q-35 -6 -56.5 -14t-62.5 -31l12 -8q39 -27 98 -33q35 -6 48.5 -14t13.5 -31q0 -41 -37 -41q-29 0 -61 45q-23 29 -39.5 42t-34.5 20l-8 4v-8q0 -60 24 -115q8 -14 8 -33q0 -18 -12 -31.5t-29 -13.5q-16 0 -26 12.5t-10 28.5q0 14 12 49q10 25 13 43.5t3 34.5v25z" />
    <glyph glyph-name="ocircumflex" unicode="&#xf4;" 
d="M428 1841v-1202q0 -55 -41 -115q-43 -55 -110.5 -85.5t-131.5 -30.5q-57 0 -102 32q-43 33 -43 88q0 60 43 115q20 23 49 46.5t64 45.5q37 17 67.5 24t59.5 7q61 0 108 -35v1110h37z" />
    <glyph glyph-name="otilde" unicode="&#xf5;" 
d="M428 2255v-1202q0 -56 -41 -115q-43 -55 -110.5 -86t-131.5 -31q-57 0 -102 33q-43 33 -43 88q0 59 43 115q20 22 49 45.5t64 46.5q37 16 67.5 23.5t59.5 7.5q61 0 108 -35v1110h37z" />
    <glyph glyph-name="odieresis" unicode="&#xf6;" 
d="M0 410v1202q0 55 41 114q43 56 110.5 86.5t131.5 30.5q57 0 102 -33q43 -32 43 -88q0 -59 -43 -114q-20 -23 -49 -46.5t-64 -45.5q-36 -17 -67 -24t-60 -7q-61 0 -108 35v-1110h-37z" />
    <glyph glyph-name="divide" unicode="&#xf7;" 
d="M0 819v1202q0 56 41 115q43 55 110.5 86t131.5 31q57 0 102 -33q43 -33 43 -88q0 -59 -43 -115q-20 -22 -49 -45.5t-64 -46.5q-36 -16 -67 -23.5t-60 -7.5q-61 0 -108 35v-1110h-37z" />
    <glyph glyph-name="oslash" unicode="&#xf8;" 
d="M511 810v8q-28 -19 -37.5 -25t-19.5 -12q-6 -6 -12.5 -13.5t-28.5 -31.5q-16 -17 -24.5 -23t-20.5 -6q-37 0 -37 37q0 23 14.5 33t51.5 16q34 6 54.5 14.5t51.5 26.5l-12 8q-13 9 -14 7.5t-15 9.5q-12 4 -27.5 7t-33.5 9q-37 6 -53.5 16.5t-16.5 32.5q0 37 33 37
q12 0 23.5 -7t29.5 -30q25 -28 44.5 -41.5t49.5 -31.5v12q0 22 -5 45.5t-11 52.5q-12 31 -12 53q0 33 36 33q37 0 37 -37q0 -10 -1 -21.5t-7 -27.5q-20 -39 -20 -86v-29l8 5q8 4 12 7t29 23q0 2 12 15l25 24q34 41 57 41q37 0 37 -41q0 -22 -11.5 -29.5t-41.5 -11.5
q-35 -6 -56.5 -14t-62.5 -31l12 -8q39 -27 98 -33q35 -6 48.5 -14t13.5 -31q0 -41 -37 -41q-29 0 -61 45q-23 29 -39.5 42t-34.5 20l-8 4v-8q0 -60 24 -115q8 -14 8 -33q0 -18 -12 -31.5t-29 -13.5q-16 0 -26 12.5t-10 28.5q0 14 12 49q10 25 13 43.5t3 34.5v25z" />
    <glyph glyph-name="ugrave" unicode="&#xf9;" 
d="M511 810v8q-28 -19 -37.5 -25t-19.5 -12q-6 -6 -12.5 -13.5t-28.5 -31.5q-16 -17 -24.5 -23t-20.5 -6q-37 0 -37 37q0 23 14.5 33t51.5 16q34 6 54.5 14.5t51.5 26.5l-12 8q-13 9 -14 7.5t-15 9.5q-12 4 -27.5 7t-33.5 9q-37 6 -53.5 16.5t-16.5 32.5q0 37 33 37
q12 0 23.5 -7t29.5 -30q25 -28 44.5 -41.5t49.5 -31.5v12q0 22 -5 45.5t-11 52.5q-12 31 -12 53q0 33 36 33q37 0 37 -37q0 -10 -1 -21.5t-7 -27.5q-20 -39 -20 -86v-29l8 5q8 4 12 7t29 23q0 2 12 15l25 24q34 41 57 41q37 0 37 -41q0 -22 -11.5 -29.5t-41.5 -11.5
q-35 -6 -56.5 -14t-62.5 -31l12 -8q39 -27 98 -33q35 -6 48.5 -14t13.5 -31q0 -41 -37 -41q-29 0 -61 45q-23 29 -39.5 42t-34.5 20l-8 4v-8q0 -60 24 -115q8 -14 8 -33q0 -18 -12 -31.5t-29 -13.5q-16 0 -26 12.5t-10 28.5q0 14 12 49q10 25 13 43.5t3 34.5v25z" />
    <glyph glyph-name="uacute" unicode="&#xfa;" 
d="M426 1180l485 358v127l-485 -358v-127zM391 1434l555 409v-1202q0 -61 -41 -115q-43 -55 -110.5 -85.5t-128.5 -30.5q-58 0 -103 32.5t-45 87.5q0 58 45 115q43 51 111 92q37 17 68.5 24t60.5 7q55 0 108 -35v653l-485 -364v-791q0 -57 -39 -114q-43 -56 -110.5 -86.5
t-131.5 -30.5q-57 0 -102 33q-43 33 -43 88q0 59 43 115q20 22 49 45.5t64 46.5q37 16 67.5 23t59.5 7q61 0 108 -34v1110z" />
    <glyph glyph-name="ucircumflex" unicode="&#xfb;" 
d="M520 307l-485 404v-127l485 -404v127zM555 -2l-555 467v1143q0 61 41 114q43 56 110.5 86.5t129.5 30.5q57 0 102 -32.5t45 -88.5q0 -57 -45 -114q-43 -52 -111 -93q-36 -16 -68 -23t-61 -7q-55 0 -108 35v-654l485 -397v735q0 57 39 115q43 55 110.5 86t131.5 31
q57 0 102 -33q43 -33 43 -88q0 -60 -43 -115q-20 -22 -49 -46t-63 -46q-37 -17 -68 -24t-59 -7q-62 0 -109 35v-1110z" />
    <glyph glyph-name="udieresis" unicode="&#xfc;" 
d="M511 810v8q-28 -19 -37.5 -25t-19.5 -12q-6 -6 -12.5 -13.5t-28.5 -31.5q-16 -17 -24.5 -23t-20.5 -6q-37 0 -37 37q0 23 14.5 33t51.5 16q34 6 54.5 14.5t51.5 26.5l-12 8q-13 9 -14 7.5t-15 9.5q-12 4 -27.5 7t-33.5 9q-37 6 -53.5 16.5t-16.5 32.5q0 37 33 37
q12 0 23.5 -7t29.5 -30q25 -28 44.5 -41.5t49.5 -31.5v12q0 22 -5 45.5t-11 52.5q-12 31 -12 53q0 33 36 33q37 0 37 -37q0 -10 -1 -21.5t-7 -27.5q-20 -39 -20 -86v-29l8 5q8 4 12 7t29 23q0 2 12 15l25 24q34 41 57 41q37 0 37 -41q0 -22 -11.5 -29.5t-41.5 -11.5
q-35 -6 -56.5 -14t-62.5 -31l12 -8q39 -27 98 -33q35 -6 48.5 -14t13.5 -31q0 -41 -37 -41q-29 0 -61 45q-23 29 -39.5 42t-34.5 20l-8 4v-8q0 -60 24 -115q8 -14 8 -33q0 -18 -12 -31.5t-29 -13.5q-16 0 -26 12.5t-10 28.5q0 14 12 49q10 25 13 43.5t3 34.5v25z" />
    <glyph glyph-name="yacute" unicode="&#xfd;" horiz-adv-x="2048" 
d="M1862 233q0 -55 -41 -114q-45 -53 -112 -83t-130 -30q-53 0 -98 33q-43 33 -43 86q0 61 43 111q41 53 110 94q66 32 129 32q56 0 107 -38v1103h35v-1194zM51 1489v162h764v-29h-733v-133h-31zM1956 1489v133h-762v29h793v-162h-31zM362 971q-40 -47 -68 -85t-46 -69
q-33 -63 -33 -115q0 -47 37 -110l43 -68q4 -4 8 -11t14 -17q11 -15 20 -26t19 -26l-24 -28q-10 6 -24.5 13t-33.5 15q-20 5 -32.5 8t-22.5 3q-37 0 -57 -25q-19 -29 -25 -65q0 -41 19 -84q10 -21 22 -41.5t31 -36.5l-19 -29q-45 31 -77.5 61.5t-55.5 59.5q-28 31 -43 67
q-10 17 -12 33.5t-2 32.5q0 55 35 90q39 33 94 33q51 0 111 -37l-215 297q69 66 106 124t37 112q0 43 -23.5 93t-66.5 109h57zM1106 231q0 -65 -43 -114q-41 -54 -108.5 -85.5t-131.5 -31.5q-26 0 -52 9t-46 25.5t-32.5 38t-12.5 46.5q0 33 11 59.5t34 54.5q45 58 111 91
q34 18 66 25t59 7q59 0 108 -37v1106h37v-1194zM975 1606v14q22 4 33.5 8t21.5 14q8 11 17.5 25t9.5 27q0 41 -51 41q-21 0 -34.5 -12.5t-29.5 -36.5h-14q8 22 13 31t15 18q29 22 58 22q30 0 51.5 -16.5t21.5 -44.5q0 -19 -9 -36.5t-31 -33.5q16 -6 19 -9t11 -9
q8 -13 13.5 -22t5.5 -27q0 -52 -35 -74q-35 -25 -84 -25t-49 23q0 10 16 10q6 0 11.5 -1t15.5 -5q20 -12 41 -6q22 8 34.5 17t16.5 38q2 23 -10.5 41t-32.5 27q-2 2 -19 2h-26z" />
    <glyph glyph-name="thorn" unicode="&#xfe;" horiz-adv-x="2048" 
d="M49 1489v162h758v-29h-725v-133h-33zM1956 1489v133h-748v29h781v-162h-33zM1997 977q-86 -96 -115 -156q-37 -61 -37 -114q0 -50 37 -113l43 -68q4 -4 25.5 -28.5t40.5 -51.5l-25 -30q-12 8 -27.5 14t-33.5 16q-19 9 -56 9t-59 -23q-18 -26 -21 -65q0 -39 19 -84
q16 -43 53 -80l-18 -29q-47 35 -80 65.5t-53 57.5q-15 16 -25 32.5t-16 35.5q-11 16 -14 31.5t-3 31.5q0 55 37 92q39 33 92 33q45 0 111 -37l-215 299q139 129 139 238q0 88 -90 202h61zM426 233q0 -61 -41 -114q-41 -56 -108.5 -87.5t-131.5 -31.5q-53 0 -100 35
q-45 31 -45 86q0 57 45 115q39 51 111 92q69 30 127 30q55 0 108 -34v1108h35v-1199zM1188 977q-39 -47 -66.5 -85t-48.5 -71q-33 -63 -33 -114q0 -50 37 -113l43 -68q6 -6 25 -30q10 -13 18 -24t21 -26l-25 -30q-10 8 -25.5 14t-33.5 16q-23 9 -56 9q-40 0 -59 -23
q-20 -26 -22 -65q0 -31 16 -84q10 -21 23.5 -41.5t33.5 -38.5l-20 -29q-45 35 -78 64.5t-57 58.5q-27 35 -41 68q-15 26 -15 63q0 55 39 92q39 33 88 33q52 0 113 -37l-217 299q143 131 143 238q0 41 -23.5 92t-66.5 110h57zM948 1620v14q23 4 34 8.5t22 14.5q8 10 17 24.5
t9 26.5q0 41 -51 41q-21 0 -34 -12.5t-30 -36.5h-14q8 22 13.5 31.5t15.5 17.5q28 23 57 23q31 0 52.5 -16.5t21.5 -45.5q0 -18 -9.5 -35.5t-31.5 -34.5q16 -6 19 -9t12 -9q8 -12 13 -21.5t5 -27.5q0 -51 -35 -74q-35 -24 -84 -24t-49 22q0 10 17 10q6 0 11 -1t15 -5
q21 -12 41 -6q23 8 35 17.5t16 37.5q2 23 -10 41.5t-33 26.5q-2 2 -18 2h-27z" />
    <glyph glyph-name="ydieresis" unicode="&#xff;" 
d="M511 810v8q-28 -19 -37.5 -25t-19.5 -12q-6 -6 -12.5 -13.5t-28.5 -31.5q-16 -17 -24.5 -23t-20.5 -6q-37 0 -37 37q0 23 14.5 33t51.5 16q34 6 54.5 14.5t51.5 26.5l-12 8q-13 9 -14 7.5t-15 9.5q-12 4 -27.5 7t-33.5 9q-37 6 -53.5 16.5t-16.5 32.5q0 37 33 37
q12 0 23.5 -7t29.5 -30q25 -28 44.5 -41.5t49.5 -31.5v12q0 22 -5 45.5t-11 52.5q-12 31 -12 53q0 33 36 33q37 0 37 -37q0 -10 -1 -21.5t-7 -27.5q-20 -39 -20 -86v-29l8 5q8 4 12 7t29 23q0 2 12 15l25 24q34 41 57 41q37 0 37 -41q0 -22 -11.5 -29.5t-41.5 -11.5
q-35 -6 -56.5 -14t-62.5 -31l12 -8q39 -27 98 -33q35 -6 48.5 -14t13.5 -31q0 -41 -37 -41q-29 0 -61 45q-23 29 -39.5 42t-34.5 20l-8 4v-8q0 -60 24 -115q8 -14 8 -33q0 -18 -12 -31.5t-29 -13.5q-16 0 -26 12.5t-10 28.5q0 14 12 49q10 25 13 43.5t3 34.5v25z" />
    <glyph glyph-name="OE" unicode="&#x152;" 
d="M511 810v8q-28 -19 -37.5 -25t-19.5 -12q-6 -6 -12.5 -13.5t-28.5 -31.5q-16 -17 -24.5 -23t-20.5 -6q-37 0 -37 37q0 23 14.5 33t51.5 16q34 6 54.5 14.5t51.5 26.5l-12 8q-13 9 -14 7.5t-15 9.5q-12 4 -27.5 7t-33.5 9q-37 6 -53.5 16.5t-16.5 32.5q0 37 33 37
q12 0 23.5 -7t29.5 -30q25 -28 44.5 -41.5t49.5 -31.5v12q0 22 -5 45.5t-11 52.5q-12 31 -12 53q0 33 36 33q37 0 37 -37q0 -10 -1 -21.5t-7 -27.5q-20 -39 -20 -86v-29l8 5q8 4 12 7t29 23q0 2 12 15l25 24q34 41 57 41q37 0 37 -41q0 -22 -11.5 -29.5t-41.5 -11.5
q-35 -6 -56.5 -14t-62.5 -31l12 -8q39 -27 98 -33q35 -6 48.5 -14t13.5 -31q0 -41 -37 -41q-29 0 -61 45q-23 29 -39.5 42t-34.5 20l-8 4v-8q0 -60 24 -115q8 -14 8 -33q0 -18 -12 -31.5t-29 -13.5q-16 0 -26 12.5t-10 28.5q0 14 12 49q10 25 13 43.5t3 34.5v25z" />
    <glyph glyph-name="oe" unicode="&#x153;" 
d="M1040 410v-52h-1056v52h1056zM1040 1638v-51h-1056v51h1056zM1040 1229v-51h-1056v51h1056zM1040 819v-51h-1056v51h1056zM1040 0v-51h-1056v51h1056z" />
    <glyph glyph-name="Scaron" unicode="&#x160;" 
d="M511 810v8q-28 -19 -37.5 -25t-19.5 -12q-6 -6 -12.5 -13.5t-28.5 -31.5q-16 -17 -24.5 -23t-20.5 -6q-37 0 -37 37q0 23 14.5 33t51.5 16q34 6 54.5 14.5t51.5 26.5l-12 8q-13 9 -14 7.5t-15 9.5q-12 4 -27.5 7t-33.5 9q-37 6 -53.5 16.5t-16.5 32.5q0 37 33 37
q12 0 23.5 -7t29.5 -30q25 -28 44.5 -41.5t49.5 -31.5v12q0 22 -5 45.5t-11 52.5q-12 31 -12 53q0 33 36 33q37 0 37 -37q0 -10 -1 -21.5t-7 -27.5q-20 -39 -20 -86v-29l8 5q8 4 12 7t29 23q0 2 12 15l25 24q34 41 57 41q37 0 37 -41q0 -22 -11.5 -29.5t-41.5 -11.5
q-35 -6 -56.5 -14t-62.5 -31l12 -8q39 -27 98 -33q35 -6 48.5 -14t13.5 -31q0 -41 -37 -41q-29 0 -61 45q-23 29 -39.5 42t-34.5 20l-8 4v-8q0 -60 24 -115q8 -14 8 -33q0 -18 -12 -31.5t-29 -13.5q-16 0 -26 12.5t-10 28.5q0 14 12 49q10 25 13 43.5t3 34.5v25z" />
    <glyph glyph-name="scaron" unicode="&#x161;" horiz-adv-x="2048" 
d="M1604 1176h243v118h-682l2 -1063q0 -55 -41 -114q-43 -56 -110.5 -86.5t-130.5 -30.5q-56 0 -101 33t-45 88q0 63 45 115q39 51 111 92q37 16 67.5 23t59.5 7q14 0 36.5 -7t36 -17t24.5 -19.5t11 7.5l-2 972h-702v-118h2h254v-138h-256v-811q0 -53 -39 -110
q-43 -56 -110.5 -86.5t-131.5 -30.5q-57 0 -102 33q-43 33 -43 88q0 59 43 115q20 22 49 45.5t64 46.5q37 16 67.5 23t59.5 7q61 0 108 -34v1110h1491v-1203q0 -61 -41 -114q-43 -56 -110.5 -86.5t-128.5 -30.5q-58 0 -103 33q-43 33 -43 88q0 59 43 115q43 51 111 92
q37 16 68.5 23t60.5 7q55 0 108 -34v714h-243v138z" />
    <glyph glyph-name="Ydieresis" unicode="&#x178;" 
d="M1040 410v-52h-1056v52h1056zM1040 1638v-51h-1056v51h1056zM1040 1229v-51h-1056v51h1056zM1040 819v-51h-1056v51h1056zM1040 0v-51h-1056v51h1056z" />
    <glyph glyph-name="Zcaron" unicode="&#x17d;" 
d="M511 810v8q-28 -19 -37.5 -25t-19.5 -12q-6 -6 -12.5 -13.5t-28.5 -31.5q-16 -17 -24.5 -23t-20.5 -6q-37 0 -37 37q0 23 14.5 33t51.5 16q34 6 54.5 14.5t51.5 26.5l-12 8q-13 9 -14 7.5t-15 9.5q-12 4 -27.5 7t-33.5 9q-37 6 -53.5 16.5t-16.5 32.5q0 37 33 37
q12 0 23.5 -7t29.5 -30q25 -28 44.5 -41.5t49.5 -31.5v12q0 22 -5 45.5t-11 52.5q-12 31 -12 53q0 33 36 33q37 0 37 -37q0 -10 -1 -21.5t-7 -27.5q-20 -39 -20 -86v-29l8 5q8 4 12 7t29 23q0 2 12 15l25 24q34 41 57 41q37 0 37 -41q0 -22 -11.5 -29.5t-41.5 -11.5
q-35 -6 -56.5 -14t-62.5 -31l12 -8q39 -27 98 -33q35 -6 48.5 -14t13.5 -31q0 -41 -37 -41q-29 0 -61 45q-23 29 -39.5 42t-34.5 20l-8 4v-8q0 -60 24 -115q8 -14 8 -33q0 -18 -12 -31.5t-29 -13.5q-16 0 -26 12.5t-10 28.5q0 14 12 49q10 25 13 43.5t3 34.5v25z" />
    <glyph glyph-name="zcaron" unicode="&#x17e;" 
d="M1040 410v-52h-1056v52h1056zM1040 1638v-51h-1056v51h1056zM1040 1229v-51h-1056v51h1056zM1040 819v-51h-1056v51h1056zM1040 0v-51h-1056v51h1056z" />
    <glyph glyph-name="florin" unicode="&#x192;" 
d="M511 810v8q-28 -19 -37.5 -25t-19.5 -12q-6 -6 -12.5 -13.5t-28.5 -31.5q-16 -17 -24.5 -23t-20.5 -6q-37 0 -37 37q0 23 14.5 33t51.5 16q34 6 54.5 14.5t51.5 26.5l-12 8q-13 9 -14 7.5t-15 9.5q-12 4 -27.5 7t-33.5 9q-37 6 -53.5 16.5t-16.5 32.5q0 37 33 37
q12 0 23.5 -7t29.5 -30q25 -28 44.5 -41.5t49.5 -31.5v12q0 22 -5 45.5t-11 52.5q-12 31 -12 53q0 33 36 33q37 0 37 -37q0 -10 -1 -21.5t-7 -27.5q-20 -39 -20 -86v-29l8 5q8 4 12 7t29 23q0 2 12 15l25 24q34 41 57 41q37 0 37 -41q0 -22 -11.5 -29.5t-41.5 -11.5
q-35 -6 -56.5 -14t-62.5 -31l12 -8q39 -27 98 -33q35 -6 48.5 -14t13.5 -31q0 -41 -37 -41q-29 0 -61 45q-23 29 -39.5 42t-34.5 20l-8 4v-8q0 -60 24 -115q8 -14 8 -33q0 -18 -12 -31.5t-29 -13.5q-16 0 -26 12.5t-10 28.5q0 14 12 49q10 25 13 43.5t3 34.5v25z" />
    <glyph glyph-name="circumflex" unicode="&#x2c6;" 
d="M511 810v8q-28 -19 -37.5 -25t-19.5 -12q-6 -6 -12.5 -13.5t-28.5 -31.5q-16 -17 -24.5 -23t-20.5 -6q-37 0 -37 37q0 23 14.5 33t51.5 16q34 6 54.5 14.5t51.5 26.5l-12 8q-13 9 -14 7.5t-15 9.5q-12 4 -27.5 7t-33.5 9q-37 6 -53.5 16.5t-16.5 32.5q0 37 33 37
q12 0 23.5 -7t29.5 -30q25 -28 44.5 -41.5t49.5 -31.5v12q0 22 -5 45.5t-11 52.5q-12 31 -12 53q0 33 36 33q37 0 37 -37q0 -10 -1 -21.5t-7 -27.5q-20 -39 -20 -86v-29l8 5q8 4 12 7t29 23q0 2 12 15l25 24q34 41 57 41q37 0 37 -41q0 -22 -11.5 -29.5t-41.5 -11.5
q-35 -6 -56.5 -14t-62.5 -31l12 -8q39 -27 98 -33q35 -6 48.5 -14t13.5 -31q0 -41 -37 -41q-29 0 -61 45q-23 29 -39.5 42t-34.5 20l-8 4v-8q0 -60 24 -115q8 -14 8 -33q0 -18 -12 -31.5t-29 -13.5q-16 0 -26 12.5t-10 28.5q0 14 12 49q10 25 13 43.5t3 34.5v25z" />
    <glyph glyph-name="tilde" unicode="&#x2dc;" 
d="M1040 410v-52h-1056v52h1056zM1040 1638v-51h-1056v51h1056zM1040 1229v-51h-1056v51h1056zM1040 819v-51h-1056v51h1056zM1040 0v-51h-1056v51h1056z" />
    <glyph glyph-name="endash" unicode="&#x2013;" horiz-adv-x="512" 
d="M0 358h512v-102h-512v102z" />
    <glyph glyph-name="emdash" unicode="&#x2014;" 
d="M0 358h1024v-102h-1024v102z" />
    <glyph glyph-name="quoteleft" unicode="&#x2018;" horiz-adv-x="512" 
d="M102 1434v-1403v-31h-102v1403v31h102z" />
    <glyph glyph-name="quoteright" unicode="&#x2019;" horiz-adv-x="512" 
d="M102 1434v-1403v-31h-102v1403v31h102z" />
    <glyph glyph-name="quotesinglbase" unicode="&#x201a;" 
d="M511 810v8q-28 -19 -37.5 -25t-19.5 -12q-6 -6 -12.5 -13.5t-28.5 -31.5q-16 -17 -24.5 -23t-20.5 -6q-37 0 -37 37q0 23 14.5 33t51.5 16q34 6 54.5 14.5t51.5 26.5l-12 8q-13 9 -14 7.5t-15 9.5q-12 4 -27.5 7t-33.5 9q-37 6 -53.5 16.5t-16.5 32.5q0 37 33 37
q12 0 23.5 -7t29.5 -30q25 -28 44.5 -41.5t49.5 -31.5v12q0 22 -5 45.5t-11 52.5q-12 31 -12 53q0 33 36 33q37 0 37 -37q0 -10 -1 -21.5t-7 -27.5q-20 -39 -20 -86v-29l8 5q8 4 12 7t29 23q0 2 12 15l25 24q34 41 57 41q37 0 37 -41q0 -22 -11.5 -29.5t-41.5 -11.5
q-35 -6 -56.5 -14t-62.5 -31l12 -8q39 -27 98 -33q35 -6 48.5 -14t13.5 -31q0 -41 -37 -41q-29 0 -61 45q-23 29 -39.5 42t-34.5 20l-8 4v-8q0 -60 24 -115q8 -14 8 -33q0 -18 -12 -31.5t-29 -13.5q-16 0 -26 12.5t-10 28.5q0 14 12 49q10 25 13 43.5t3 34.5v25z" />
    <glyph glyph-name="quotedblleft" unicode="&#x201c;" horiz-adv-x="512" 
d="M102 0h-102v1434h102v-1434zM311 0h-106v1434h106v-1434z" />
    <glyph glyph-name="quotedblright" unicode="&#x201d;" horiz-adv-x="512" 
d="M102 0h-102v1434h102v-1434zM311 0h-106v1434h106v-1434z" />
    <glyph glyph-name="quotedblbase" unicode="&#x201e;" 
d="M511 810v8q-28 -19 -37.5 -25t-19.5 -12q-6 -6 -12.5 -13.5t-28.5 -31.5q-16 -17 -24.5 -23t-20.5 -6q-37 0 -37 37q0 23 14.5 33t51.5 16q34 6 54.5 14.5t51.5 26.5l-12 8q-13 9 -14 7.5t-15 9.5q-12 4 -27.5 7t-33.5 9q-37 6 -53.5 16.5t-16.5 32.5q0 37 33 37
q12 0 23.5 -7t29.5 -30q25 -28 44.5 -41.5t49.5 -31.5v12q0 22 -5 45.5t-11 52.5q-12 31 -12 53q0 33 36 33q37 0 37 -37q0 -10 -1 -21.5t-7 -27.5q-20 -39 -20 -86v-29l8 5q8 4 12 7t29 23q0 2 12 15l25 24q34 41 57 41q37 0 37 -41q0 -22 -11.5 -29.5t-41.5 -11.5
q-35 -6 -56.5 -14t-62.5 -31l12 -8q39 -27 98 -33q35 -6 48.5 -14t13.5 -31q0 -41 -37 -41q-29 0 -61 45q-23 29 -39.5 42t-34.5 20l-8 4v-8q0 -60 24 -115q8 -14 8 -33q0 -18 -12 -31.5t-29 -13.5q-16 0 -26 12.5t-10 28.5q0 14 12 49q10 25 13 43.5t3 34.5v25z" />
    <glyph glyph-name="dagger" unicode="&#x2020;" 
d="M511 810v8q-28 -19 -37.5 -25t-19.5 -12q-6 -6 -12.5 -13.5t-28.5 -31.5q-16 -17 -24.5 -23t-20.5 -6q-37 0 -37 37q0 23 14.5 33t51.5 16q34 6 54.5 14.5t51.5 26.5l-12 8q-13 9 -14 7.5t-15 9.5q-12 4 -27.5 7t-33.5 9q-37 6 -53.5 16.5t-16.5 32.5q0 37 33 37
q12 0 23.5 -7t29.5 -30q25 -28 44.5 -41.5t49.5 -31.5v12q0 22 -5 45.5t-11 52.5q-12 31 -12 53q0 33 36 33q37 0 37 -37q0 -10 -1 -21.5t-7 -27.5q-20 -39 -20 -86v-29l8 5q8 4 12 7t29 23q0 2 12 15l25 24q34 41 57 41q37 0 37 -41q0 -22 -11.5 -29.5t-41.5 -11.5
q-35 -6 -56.5 -14t-62.5 -31l12 -8q39 -27 98 -33q35 -6 48.5 -14t13.5 -31q0 -41 -37 -41q-29 0 -61 45q-23 29 -39.5 42t-34.5 20l-8 4v-8q0 -60 24 -115q8 -14 8 -33q0 -18 -12 -31.5t-29 -13.5q-16 0 -26 12.5t-10 28.5q0 14 12 49q10 25 13 43.5t3 34.5v25z" />
    <glyph glyph-name="daggerdbl" unicode="&#x2021;" 
d="M511 810v8q-28 -19 -37.5 -25t-19.5 -12q-6 -6 -12.5 -13.5t-28.5 -31.5q-16 -17 -24.5 -23t-20.5 -6q-37 0 -37 37q0 23 14.5 33t51.5 16q34 6 54.5 14.5t51.5 26.5l-12 8q-13 9 -14 7.5t-15 9.5q-12 4 -27.5 7t-33.5 9q-37 6 -53.5 16.5t-16.5 32.5q0 37 33 37
q12 0 23.5 -7t29.5 -30q25 -28 44.5 -41.5t49.5 -31.5v12q0 22 -5 45.5t-11 52.5q-12 31 -12 53q0 33 36 33q37 0 37 -37q0 -10 -1 -21.5t-7 -27.5q-20 -39 -20 -86v-29l8 5q8 4 12 7t29 23q0 2 12 15l25 24q34 41 57 41q37 0 37 -41q0 -22 -11.5 -29.5t-41.5 -11.5
q-35 -6 -56.5 -14t-62.5 -31l12 -8q39 -27 98 -33q35 -6 48.5 -14t13.5 -31q0 -41 -37 -41q-29 0 -61 45q-23 29 -39.5 42t-34.5 20l-8 4v-8q0 -60 24 -115q8 -14 8 -33q0 -18 -12 -31.5t-29 -13.5q-16 0 -26 12.5t-10 28.5q0 14 12 49q10 25 13 43.5t3 34.5v25z" />
    <glyph glyph-name="bullet" unicode="&#x2022;" 
d="M511 810v8q-28 -19 -37.5 -25t-19.5 -12q-6 -6 -12.5 -13.5t-28.5 -31.5q-16 -17 -24.5 -23t-20.5 -6q-37 0 -37 37q0 23 14.5 33t51.5 16q34 6 54.5 14.5t51.5 26.5l-12 8q-13 9 -14 7.5t-15 9.5q-12 4 -27.5 7t-33.5 9q-37 6 -53.5 16.5t-16.5 32.5q0 37 33 37
q12 0 23.5 -7t29.5 -30q25 -28 44.5 -41.5t49.5 -31.5v12q0 22 -5 45.5t-11 52.5q-12 31 -12 53q0 33 36 33q37 0 37 -37q0 -10 -1 -21.5t-7 -27.5q-20 -39 -20 -86v-29l8 5q8 4 12 7t29 23q0 2 12 15l25 24q34 41 57 41q37 0 37 -41q0 -22 -11.5 -29.5t-41.5 -11.5
q-35 -6 -56.5 -14t-62.5 -31l12 -8q39 -27 98 -33q35 -6 48.5 -14t13.5 -31q0 -41 -37 -41q-29 0 -61 45q-23 29 -39.5 42t-34.5 20l-8 4v-8q0 -60 24 -115q8 -14 8 -33q0 -18 -12 -31.5t-29 -13.5q-16 0 -26 12.5t-10 28.5q0 14 12 49q10 25 13 43.5t3 34.5v25z" />
    <glyph glyph-name="ellipsis" unicode="&#x2026;" 
d="M511 810v8q-28 -19 -37.5 -25t-19.5 -12q-6 -6 -12.5 -13.5t-28.5 -31.5q-16 -17 -24.5 -23t-20.5 -6q-37 0 -37 37q0 23 14.5 33t51.5 16q34 6 54.5 14.5t51.5 26.5l-12 8q-13 9 -14 7.5t-15 9.5q-12 4 -27.5 7t-33.5 9q-37 6 -53.5 16.5t-16.5 32.5q0 37 33 37
q12 0 23.5 -7t29.5 -30q25 -28 44.5 -41.5t49.5 -31.5v12q0 22 -5 45.5t-11 52.5q-12 31 -12 53q0 33 36 33q37 0 37 -37q0 -10 -1 -21.5t-7 -27.5q-20 -39 -20 -86v-29l8 5q8 4 12 7t29 23q0 2 12 15l25 24q34 41 57 41q37 0 37 -41q0 -22 -11.5 -29.5t-41.5 -11.5
q-35 -6 -56.5 -14t-62.5 -31l12 -8q39 -27 98 -33q35 -6 48.5 -14t13.5 -31q0 -41 -37 -41q-29 0 -61 45q-23 29 -39.5 42t-34.5 20l-8 4v-8q0 -60 24 -115q8 -14 8 -33q0 -18 -12 -31.5t-29 -13.5q-16 0 -26 12.5t-10 28.5q0 14 12 49q10 25 13 43.5t3 34.5v25z" />
    <glyph glyph-name="perthousand" unicode="&#x2030;" 
d="M511 810v8q-28 -19 -37.5 -25t-19.5 -12q-6 -6 -12.5 -13.5t-28.5 -31.5q-16 -17 -24.5 -23t-20.5 -6q-37 0 -37 37q0 23 14.5 33t51.5 16q34 6 54.5 14.5t51.5 26.5l-12 8q-13 9 -14 7.5t-15 9.5q-12 4 -27.5 7t-33.5 9q-37 6 -53.5 16.5t-16.5 32.5q0 37 33 37
q12 0 23.5 -7t29.5 -30q25 -28 44.5 -41.5t49.5 -31.5v12q0 22 -5 45.5t-11 52.5q-12 31 -12 53q0 33 36 33q37 0 37 -37q0 -10 -1 -21.5t-7 -27.5q-20 -39 -20 -86v-29l8 5q8 4 12 7t29 23q0 2 12 15l25 24q34 41 57 41q37 0 37 -41q0 -22 -11.5 -29.5t-41.5 -11.5
q-35 -6 -56.5 -14t-62.5 -31l12 -8q39 -27 98 -33q35 -6 48.5 -14t13.5 -31q0 -41 -37 -41q-29 0 -61 45q-23 29 -39.5 42t-34.5 20l-8 4v-8q0 -60 24 -115q8 -14 8 -33q0 -18 -12 -31.5t-29 -13.5q-16 0 -26 12.5t-10 28.5q0 14 12 49q10 25 13 43.5t3 34.5v25z" />
    <glyph glyph-name="guilsinglleft" unicode="&#x2039;" 
d="M511 810v8q-28 -19 -37.5 -25t-19.5 -12q-6 -6 -12.5 -13.5t-28.5 -31.5q-16 -17 -24.5 -23t-20.5 -6q-37 0 -37 37q0 23 14.5 33t51.5 16q34 6 54.5 14.5t51.5 26.5l-12 8q-13 9 -14 7.5t-15 9.5q-12 4 -27.5 7t-33.5 9q-37 6 -53.5 16.5t-16.5 32.5q0 37 33 37
q12 0 23.5 -7t29.5 -30q25 -28 44.5 -41.5t49.5 -31.5v12q0 22 -5 45.5t-11 52.5q-12 31 -12 53q0 33 36 33q37 0 37 -37q0 -10 -1 -21.5t-7 -27.5q-20 -39 -20 -86v-29l8 5q8 4 12 7t29 23q0 2 12 15l25 24q34 41 57 41q37 0 37 -41q0 -22 -11.5 -29.5t-41.5 -11.5
q-35 -6 -56.5 -14t-62.5 -31l12 -8q39 -27 98 -33q35 -6 48.5 -14t13.5 -31q0 -41 -37 -41q-29 0 -61 45q-23 29 -39.5 42t-34.5 20l-8 4v-8q0 -60 24 -115q8 -14 8 -33q0 -18 -12 -31.5t-29 -13.5q-16 0 -26 12.5t-10 28.5q0 14 12 49q10 25 13 43.5t3 34.5v25z" />
    <glyph glyph-name="guilsinglright" unicode="&#x203a;" 
d="M1040 410v-52h-1056v52h1056zM1040 1638v-51h-1056v51h1056zM1040 1229v-51h-1056v51h1056zM1040 819v-51h-1056v51h1056zM1040 0v-51h-1056v51h1056z" />
    <glyph glyph-name="Euro" unicode="&#x20ac;" 
d="M511 810v8q-28 -19 -37.5 -25t-19.5 -12q-6 -6 -12.5 -13.5t-28.5 -31.5q-16 -17 -24.5 -23t-20.5 -6q-37 0 -37 37q0 23 14.5 33t51.5 16q34 6 54.5 14.5t51.5 26.5l-12 8q-13 9 -14 7.5t-15 9.5q-12 4 -27.5 7t-33.5 9q-37 6 -53.5 16.5t-16.5 32.5q0 37 33 37
q12 0 23.5 -7t29.5 -30q25 -28 44.5 -41.5t49.5 -31.5v12q0 22 -5 45.5t-11 52.5q-12 31 -12 53q0 33 36 33q37 0 37 -37q0 -10 -1 -21.5t-7 -27.5q-20 -39 -20 -86v-29l8 5q8 4 12 7t29 23q0 2 12 15l25 24q34 41 57 41q37 0 37 -41q0 -22 -11.5 -29.5t-41.5 -11.5
q-35 -6 -56.5 -14t-62.5 -31l12 -8q39 -27 98 -33q35 -6 48.5 -14t13.5 -31q0 -41 -37 -41q-29 0 -61 45q-23 29 -39.5 42t-34.5 20l-8 4v-8q0 -60 24 -115q8 -14 8 -33q0 -18 -12 -31.5t-29 -13.5q-16 0 -26 12.5t-10 28.5q0 14 12 49q10 25 13 43.5t3 34.5v25z" />
    <glyph glyph-name="trademark" unicode="&#x2122;" horiz-adv-x="2048" 
d="M1149 1430h676h35v-134v-1065q0 -61 -41 -114q-43 -56 -111 -86.5t-127 -30.5q-55 0 -100 31q-47 41 -47 88q0 61 47 114q37 54 106 93q41 16 71 23t60 7q56 0 107 -32v966h-676v-1059q0 -55 -41 -114q-41 -56 -108.5 -86.5t-133.5 -30.5q-55 0 -100 31q-43 37 -43 88
q0 61 43 114q22 27 51 49.5t62 43.5q34 16 66 23t61 7q30 0 55.5 -8t54.5 -24v966h-690v-1059q0 -61 -41 -114q-43 -56 -110.5 -86.5t-129.5 -30.5q-30 0 -53.5 8t-46.5 23q-45 39 -45 88q0 63 45 114q21 27 48.5 50.5t64.5 42.5q35 16 65.5 23t59.5 7q61 0 106 -32v1106h37
h723z" />
  </font>
</defs>
</svg>
