<?xml version="1.0" encoding="utf-8"?>
<!-- Generator: Adobe Illustrator 16.0.0, SVG Export Plug-In . SVG Version: 6.00 Build 0)  -->
<!DOCTYPE svg PUBLIC "-//W3C//DTD SVG 1.1//EN" "http://www.w3.org/Graphics/SVG/1.1/DTD/svg11.dtd">
<svg version="1.1" id="Layer_1" xmlns="http://www.w3.org/2000/svg" xmlns:xlink="http://www.w3.org/1999/xlink" x="0px" y="0px"
	 width="93.478px" height="93.885px" viewBox="0 0 93.478 93.885" enable-background="new 0 0 93.478 93.885" xml:space="preserve">
<polygon fill="#34976D" points="80.03,56.439 77.219,52.289 72.205,52.25 75.285,48.292 73.771,43.516 78.486,45.222 82.565,42.303 
	82.399,47.314 86.432,50.293 81.616,51.682 "/>
<g>
	<ellipse fill="#EC7D3E" cx="50.726" cy="50.705" rx="16.125" ry="17.076"/>
	<g>
		<circle fill="none" stroke="#000000" stroke-width="3.619" stroke-miterlimit="10" cx="46.483" cy="47.158" r="44.06"/>
		
			<ellipse fill="none" stroke="#000000" stroke-width="3.619" stroke-miterlimit="10" cx="45.577" cy="48.523" rx="15.23" ry="15.857"/>
		
			<line fill="none" stroke="#000000" stroke-width="3.619" stroke-miterlimit="10" x1="21.917" y1="83.734" x2="36.735" y2="61.433"/>
		
			<line fill="none" stroke="#000000" stroke-width="3.619" stroke-miterlimit="10" x1="54.418" y1="61.433" x2="71.049" y2="83.734"/>
	</g>
	<polygon fill="#34976D" points="20.597,49.295 17.786,45.144 12.772,45.106 15.853,41.148 14.339,36.369 19.054,38.076 
		23.131,35.16 22.966,40.169 27,43.148 22.182,44.539 	"/>
	<polygon fill="none" stroke="#000000" stroke-width="2.0579" stroke-miterlimit="10" points="18.257,47.843 15.446,43.692 
		10.433,43.654 13.514,39.695 12,34.915 16.714,36.621 20.792,33.706 20.627,38.718 24.661,41.693 19.843,43.083 	"/>
	<polygon fill="#D33049" points="50.105,27.195 47.293,23.043 42.28,23.005 45.361,19.048 43.847,14.268 48.562,15.973 
		52.64,13.059 52.473,18.069 56.508,21.048 51.692,22.435 	"/>
	<polygon fill="none" stroke="#000000" stroke-width="2.0579" stroke-miterlimit="10" points="47.767,25.743 44.954,21.589 
		39.941,21.551 43.021,17.594 41.509,12.816 46.224,14.521 50.301,11.605 50.135,16.615 54.169,19.595 49.352,20.985 	"/>
	<polygon fill="none" stroke="#000000" stroke-width="2.0579" stroke-miterlimit="10" points="78.376,54.301 75.565,50.149 
		70.551,50.112 73.631,46.155 72.119,41.375 76.833,43.08 80.913,40.166 80.747,45.177 84.78,48.156 79.961,49.545 	"/>
</g>
</svg>
