<?xml version="1.0" encoding="utf-8"?>
<!-- Generator: Adobe Illustrator 16.0.0, SVG Export Plug-In . SVG Version: 6.00 Build 0)  -->
<!DOCTYPE svg PUBLIC "-//W3C//DTD SVG 1.1//EN" "http://www.w3.org/Graphics/SVG/1.1/DTD/svg11.dtd">
<svg version="1.1" id="Layer_1" xmlns="http://www.w3.org/2000/svg" xmlns:xlink="http://www.w3.org/1999/xlink" x="0px" y="0px"
	 width="150px" height="150px" viewBox="0 0 150 150" enable-background="new 0 0 150 150" xml:space="preserve">
<g>
	<ellipse fill="#D33049" cx="122.428" cy="85.977" rx="12.853" ry="13.383"/>
	<path fill="#34976D" d="M21.253,87.9c0,7.395,5.754,13.383,12.852,13.383c7.102,0,12.854-5.988,12.854-13.383
		c0-7.393-5.752-13.384-12.854-13.384C27.007,74.517,21.253,80.508,21.253,87.9z"/>
	<ellipse fill="#EC7D3E" cx="78.682" cy="81.669" rx="24.208" ry="25.642"/>
	<path fill="none" stroke="#000000" stroke-width="5.4336" stroke-miterlimit="10" d="M141.15,74.998
		c0,36.537-29.616,66.152-66.152,66.152c-36.531,0-66.149-29.615-66.149-66.152c0-36.534,29.618-66.148,66.149-66.148
		C111.534,8.85,141.15,38.464,141.15,74.998z"/>
	
		<ellipse fill="none" stroke="#000000" stroke-width="5.4336" stroke-miterlimit="10" cx="73.639" cy="77.053" rx="22.867" ry="23.809"/>
	
		<line fill="none" stroke="#000000" stroke-width="5.4336" stroke-miterlimit="10" x1="38.115" y1="129.921" x2="60.362" y2="96.432"/>
	
		<line fill="none" stroke="#000000" stroke-width="5.4336" stroke-miterlimit="10" x1="86.915" y1="96.432" x2="111.884" y2="129.921"/>
	<g>
		<path fill="#34976D" d="M92.808,37.395c1.342,1.344,1.752,3.111,0.912,3.948l0,0c-0.836,0.84-2.604,0.429-3.947-0.913
			l-7.634-7.635c-1.344-1.344-1.754-3.11-0.914-3.95l0,0c0.838-0.836,2.604-0.43,3.946,0.916L92.808,37.395z"/>
		<path fill="#34976D" d="M89.772,29.761c1.344-1.344,3.111-1.752,3.947-0.916l0,0c0.84,0.84,0.43,2.606-0.912,3.95l-7.637,7.635
			c-1.342,1.344-3.108,1.753-3.946,0.913l0,0c-0.84-0.837-0.43-2.604,0.914-3.948L89.772,29.761z"/>
	</g>
	<g>
		<path d="M91.694,35.17c1.341,1.342,1.753,3.108,0.912,3.947l0,0c-0.837,0.838-2.604,0.429-3.946-0.915l-7.635-7.636
			c-1.344-1.344-1.754-3.109-0.916-3.948l0,0c0.839-0.838,2.605-0.429,3.948,0.915L91.694,35.17z"/>
		<path d="M88.66,27.533c1.342-1.341,3.109-1.753,3.946-0.915l0,0c0.841,0.839,0.429,2.604-0.912,3.948l-7.637,7.636
			c-1.343,1.346-3.109,1.753-3.948,0.915l0,0c-0.838-0.839-0.428-2.605,0.916-3.947L88.66,27.533z"/>
	</g>
	<circle fill="none" stroke="#000000" stroke-width="3.8533" stroke-miterlimit="10" cx="112.818" cy="44.637" r="3.846"/>
	
		<ellipse fill="none" stroke="#000000" stroke-width="4.4139" stroke-miterlimit="10" cx="118.016" cy="82.324" rx="12.853" ry="13.382"/>
	
		<line fill="none" stroke="#000000" stroke-width="4.4139" stroke-miterlimit="10" x1="98.047" y1="112.043" x2="110.556" y2="93.216"/>
	
		<line fill="none" stroke="#000000" stroke-width="4.4139" stroke-miterlimit="10" x1="125.48" y1="93.216" x2="133.32" y2="103.732"/>
	<path fill="none" stroke="#000000" stroke-width="4.4139" stroke-miterlimit="10" d="M17.683,83.417
		c0,7.391,5.754,13.382,12.852,13.382c7.102,0,12.855-5.991,12.855-13.382c0-7.396-5.754-13.389-12.855-13.389
		C23.437,70.028,17.683,76.021,17.683,83.417z"/>
	
		<line fill="none" stroke="#000000" stroke-width="4.4139" stroke-miterlimit="10" x1="50.504" y1="113.134" x2="37.999" y2="94.309"/>
	
		<line fill="none" stroke="#000000" stroke-width="4.4139" stroke-miterlimit="10" x1="23.073" y1="94.309" x2="15.233" y2="104.824"/>
	<circle fill="#D33049" cx="42.347" cy="44.637" r="4.64"/>
	<path fill="none" stroke="#000000" stroke-width="4.6487" stroke-miterlimit="10" d="M43.69,42.326c0,2.563-2.077,4.642-4.64,4.642
		c-2.563,0-4.64-2.079-4.64-4.642c0-2.561,2.076-4.64,4.64-4.64C41.613,37.687,43.69,39.766,43.69,42.326z"/>
</g>
</svg>
