<?xml version="1.0" encoding="utf-8"?>
<!-- Generator: Adobe Illustrator 16.0.0, SVG Export Plug-In . SVG Version: 6.00 Build 0)  -->
<!DOCTYPE svg PUBLIC "-//W3C//DTD SVG 1.1//EN" "http://www.w3.org/Graphics/SVG/1.1/DTD/svg11.dtd">
<svg version="1.1" id="Layer_1" xmlns="http://www.w3.org/2000/svg" xmlns:xlink="http://www.w3.org/1999/xlink" x="0px" y="0px"
	 width="150px" height="150px" viewBox="0 0 150 150" enable-background="new 0 0 150 150" xml:space="preserve">
<g>
	<circle fill="none" stroke="#000000" stroke-width="3.8533" stroke-miterlimit="10" cx="20.331" cy="74.066" r="3.846"/>
	<g>
		<circle fill="none" stroke="#000000" stroke-width="5.4336" stroke-miterlimit="10" cx="75" cy="75" r="66.15"/>
		<g>
			<path fill="#34976D" d="M100.975,115.868c1.342,1.344,1.752,3.11,0.912,3.949l0,0c-0.838,0.837-2.604,0.428-3.947-0.915
				l-7.634-7.634c-1.344-1.344-1.754-3.109-0.916-3.949l0,0c0.84-0.839,2.606-0.43,3.946,0.915L100.975,115.868z"/>
			<path fill="#34976D" d="M97.939,108.234c1.344-1.342,3.109-1.754,3.947-0.915l0,0c0.84,0.84,0.43,2.605-0.912,3.949l-7.639,7.634
				c-1.34,1.345-3.106,1.752-3.946,0.915l0,0c-0.838-0.839-0.428-2.605,0.916-3.949L97.939,108.234z"/>
		</g>
		<g>
			<path d="M99.861,113.643c1.341,1.343,1.753,3.111,0.912,3.947l0,0c-0.839,0.839-2.604,0.429-3.946-0.914l-7.635-7.634
				c-1.344-1.344-1.754-3.111-0.916-3.947l0,0c0.839-0.841,2.604-0.432,3.946,0.913L99.861,113.643z"/>
			<path d="M96.827,106.008c1.342-1.342,3.107-1.754,3.946-0.913l0,0c0.841,0.836,0.429,2.604-0.912,3.947l-7.639,7.634
				c-1.342,1.345-3.107,1.753-3.946,0.914l0,0c-0.838-0.836-0.428-2.604,0.916-3.947L96.827,106.008z"/>
		</g>
		<g>
			<path fill="#D33049" d="M61.992,41.676c1.341,1.344,1.752,3.11,0.912,3.948l0,0c-0.837,0.839-2.604,0.428-3.947-0.916
				l-7.635-7.635c-1.344-1.342-1.753-3.107-0.914-3.947l0,0c0.839-0.839,2.604-0.43,3.947,0.915L61.992,41.676z"/>
			<path fill="#D33049" d="M58.957,34.042c1.342-1.343,3.11-1.754,3.947-0.915l0,0c0.84,0.839,0.43,2.604-0.912,3.947l-7.637,7.635
				c-1.344,1.347-3.108,1.755-3.947,0.916l0,0c-0.839-0.838-0.43-2.604,0.914-3.948L58.957,34.042z"/>
		</g>
		<g>
			<path d="M60.878,39.452c1.34,1.342,1.752,3.109,0.912,3.946l0,0c-0.837,0.839-2.603,0.429-3.947-0.915l-7.635-7.635
				c-1.344-1.342-1.753-3.108-0.915-3.947l0,0c0.84-0.839,2.606-0.431,3.948,0.914L60.878,39.452z"/>
			<path d="M57.843,31.815c1.344-1.343,3.11-1.753,3.947-0.914l0,0c0.84,0.838,0.429,2.604-0.912,3.947l-7.637,7.635
				c-1.342,1.346-3.108,1.754-3.948,0.915l0,0c-0.838-0.837-0.429-2.604,0.915-3.946L57.843,31.815z"/>
		</g>
		<circle fill="none" stroke="#000000" stroke-width="3.8533" stroke-miterlimit="10" cx="109.398" cy="39.376" r="3.845"/>
		<path fill="none" stroke="#000000" stroke-width="3.8533" stroke-miterlimit="10" d="M64.212,120.255
			c0,2.121-1.72,3.843-3.844,3.843c-2.125,0-3.847-1.722-3.847-3.843c0-2.126,1.722-3.849,3.847-3.849
			C62.492,116.406,64.212,118.129,64.212,120.255z"/>
		<polygon fill="#EC7D3E" points="103.89,64.572 103.89,76.276 82.813,76.276 61.736,76.276 61.736,64.572 41.837,64.572 
			41.837,99.828 61.736,99.828 61.736,87.987 82.813,87.987 103.89,87.987 103.89,99.828 123.787,99.828 123.787,64.572 		"/>
		<g>
			
				<rect x="34.299" y="59.026" fill="none" stroke="#000000" stroke-width="5.4336" stroke-miterlimit="10" width="19.901" height="35.258"/>
			
				<line fill="none" stroke="#000000" stroke-width="5.4336" stroke-miterlimit="10" x1="75.276" y1="70.732" x2="54.201" y2="70.732"/>
			
				<line fill="none" stroke="#000000" stroke-width="5.4336" stroke-miterlimit="10" x1="75.276" y1="82.441" x2="54.201" y2="82.441"/>
			
				<rect x="96.352" y="59.026" fill="none" stroke="#000000" stroke-width="5.4336" stroke-miterlimit="10" width="19.897" height="35.258"/>
			
				<line fill="none" stroke="#000000" stroke-width="5.4336" stroke-miterlimit="10" x1="75.276" y1="70.732" x2="96.352" y2="70.732"/>
			
				<line fill="none" stroke="#000000" stroke-width="5.4336" stroke-miterlimit="10" x1="75.276" y1="82.441" x2="96.352" y2="82.441"/>
		</g>
	</g>
</g>
</svg>
