<?xml version="1.0" encoding="utf-8"?>
<!-- Generator: Adobe Illustrator 16.0.0, SVG Export Plug-In . SVG Version: 6.00 Build 0)  -->
<!DOCTYPE svg PUBLIC "-//W3C//DTD SVG 1.1//EN" "http://www.w3.org/Graphics/SVG/1.1/DTD/svg11.dtd">
<svg version="1.1" id="Layer_1" xmlns="http://www.w3.org/2000/svg" xmlns:xlink="http://www.w3.org/1999/xlink" x="0px" y="0px"
	 width="150px" height="150px" viewBox="0 0 150 150" enable-background="new 0 0 150 150" xml:space="preserve">
<g>
	<path fill="#EC7D3E" d="M104.232,81.671c0,14.162-10.838,25.638-24.205,25.638c-13.372,0-24.209-11.476-24.209-25.638
		c0-14.163,10.838-25.642,24.209-25.642C93.395,56.029,104.232,67.508,104.232,81.671z"/>
	<circle fill="none" stroke="#000000" stroke-width="5.4336" stroke-miterlimit="10" cx="75" cy="75" r="66.151"/>
	<path fill="none" stroke="#000000" stroke-width="5.4336" stroke-miterlimit="10" d="M96.506,77.054
		c0,13.149-10.236,23.808-22.867,23.808c-12.631,0-22.866-10.658-22.866-23.808c0-13.155,10.235-23.812,22.866-23.812
		C86.27,53.242,96.506,63.898,96.506,77.054z"/>
	
		<line fill="none" stroke="#000000" stroke-width="5.4336" stroke-miterlimit="10" x1="38.115" y1="129.919" x2="60.364" y2="96.432"/>
	
		<line fill="none" stroke="#000000" stroke-width="5.4336" stroke-miterlimit="10" x1="86.914" y1="96.432" x2="111.883" y2="129.919"/>
	<g>
		<path fill="#D33049" d="M127.705,83.741c1.342,1.344,1.752,3.109,0.912,3.946l0,0c-0.84,0.842-2.605,0.427-3.947-0.917
			l-7.637-7.634c-1.344-1.341-1.754-3.106-0.914-3.946l0,0c0.84-0.841,2.604-0.432,3.947,0.915L127.705,83.741z"/>
		<path fill="#D33049" d="M124.67,76.105c1.342-1.344,3.107-1.756,3.947-0.915l0,0c0.84,0.84,0.43,2.605-0.912,3.946l-7.639,7.634
			c-1.344,1.349-3.107,1.759-3.947,0.917l0,0c-0.84-0.837-0.43-2.603,0.914-3.946L124.67,76.105z"/>
	</g>
	<g>
		<path d="M126.592,81.514c1.338,1.342,1.75,3.111,0.91,3.95l0,0c-0.838,0.835-2.604,0.426-3.947-0.918l-7.637-7.634
			c-1.344-1.344-1.752-3.111-0.912-3.947l0,0c0.84-0.841,2.604-0.431,3.945,0.913L126.592,81.514z"/>
		<path d="M123.555,73.878c1.344-1.342,3.109-1.754,3.947-0.913l0,0c0.84,0.836,0.428,2.604-0.91,3.947l-7.641,7.634
			c-1.342,1.346-3.105,1.753-3.945,0.918l0,0c-0.84-0.839-0.432-2.608,0.912-3.95L123.555,73.878z"/>
	</g>
	<circle fill="none" stroke="#000000" stroke-width="3.8533" stroke-miterlimit="10" cx="31.449" cy="96.432" r="3.846"/>
	<g>
		<path fill="#34976D" d="M44.007,49.509c1.342,1.344,1.753,3.109,0.914,3.948l0,0c-0.838,0.84-2.605,0.429-3.949-0.913
			l-7.633-7.637c-1.344-1.344-1.754-3.108-0.916-3.949l0,0c0.84-0.837,2.605-0.431,3.947,0.915L44.007,49.509z"/>
		<path fill="#34976D" d="M40.972,41.873c1.344-1.344,3.111-1.752,3.949-0.915l0,0c0.839,0.841,0.428,2.605-0.914,3.949
			l-7.637,7.637c-1.342,1.344-3.107,1.753-3.947,0.913l0,0c-0.838-0.839-0.428-2.604,0.916-3.948L40.972,41.873z"/>
	</g>
	<g>
		<path d="M42.894,47.285c1.342,1.341,1.754,3.108,0.913,3.946l0,0c-0.838,0.836-2.604,0.427-3.947-0.917l-7.635-7.635
			c-1.344-1.344-1.755-3.108-0.915-3.946l0,0c0.84-0.84,2.604-0.432,3.947,0.912L42.894,47.285z"/>
		<path d="M39.86,39.646c1.343-1.341,3.109-1.752,3.947-0.912l0,0c0.841,0.838,0.429,2.603-0.913,3.946l-7.637,7.635
			c-1.344,1.349-3.107,1.753-3.947,0.917l0,0c-0.84-0.838-0.429-2.605,0.915-3.946L39.86,39.646z"/>
	</g>
	<circle fill="none" stroke="#000000" stroke-width="3.8533" stroke-miterlimit="10" cx="62.874" cy="29.046" r="3.846"/>
	<circle fill="none" stroke="#000000" stroke-width="3.8533" stroke-miterlimit="10" cx="108.388" cy="47.21" r="3.845"/>
</g>
</svg>
