<?xml version="1.0" encoding="utf-8"?>
<!-- Generator: Adobe Illustrator 16.0.0, SVG Export Plug-In . SVG Version: 6.00 Build 0)  -->
<!DOCTYPE svg PUBLIC "-//W3C//DTD SVG 1.1//EN" "http://www.w3.org/Graphics/SVG/1.1/DTD/svg11.dtd">
<svg version="1.1" id="Layer_1" xmlns="http://www.w3.org/2000/svg" xmlns:xlink="http://www.w3.org/1999/xlink" x="0px" y="0px"
	 width="150px" height="150px" viewBox="0 0 150 150" enable-background="new 0 0 150 150" xml:space="preserve">
<g>
	<path d="M13.124,99.739c1.205,1.207,1.573,2.793,0.82,3.545l0,0c-0.752,0.753-2.338,0.385-3.545-0.821l-6.854-6.854
		c-1.206-1.207-1.574-2.793-0.821-3.545l0,0c0.754-0.753,2.338-0.387,3.545,0.821L13.124,99.739z"/>
	<path d="M10.399,92.885c1.207-1.206,2.793-1.574,3.545-0.821l0,0c0.753,0.752,0.385,2.338-0.82,3.545l-6.855,6.854
		c-1.207,1.208-2.791,1.574-3.545,0.821l0,0c-0.753-0.752-0.385-2.338,0.821-3.545L10.399,92.885z"/>
</g>
<circle fill="none" stroke="#000000" stroke-width="3" stroke-miterlimit="10" cx="139.33" cy="53.044" r="3.452"/>
<g>
	<path d="M109.14,27.7c1.205,1.207,1.572,2.793,0.82,3.545l0,0c-0.752,0.753-2.338,0.385-3.545-0.821l-6.855-6.854
		c-1.205-1.207-1.574-2.793-0.82-3.545l0,0c0.754-0.753,2.338-0.387,3.545,0.821L109.14,27.7z"/>
	<path d="M106.415,20.846c1.207-1.206,2.793-1.574,3.545-0.821l0,0c0.752,0.752,0.385,2.338-0.82,3.545l-6.855,6.854
		c-1.207,1.208-2.791,1.574-3.545,0.821l0,0c-0.754-0.752-0.385-2.338,0.82-3.545L106.415,20.846z"/>
</g>
<g>
	<path d="M50.642,15.697c1.205,1.207,1.573,2.793,0.82,3.545l0,0c-0.752,0.753-2.338,0.385-3.545-0.821l-6.854-6.854
		c-1.206-1.207-1.574-2.793-0.821-3.545l0,0c0.754-0.753,2.338-0.387,3.545,0.821L50.642,15.697z"/>
	<path d="M47.917,8.843c1.207-1.206,2.793-1.574,3.545-0.821l0,0c0.753,0.752,0.385,2.338-0.82,3.545l-6.855,6.854
		c-1.207,1.208-2.791,1.574-3.545,0.821l0,0c-0.753-0.752-0.385-2.338,0.821-3.545L47.917,8.843z"/>
</g>
<circle fill="none" stroke="#000000" stroke-width="3" stroke-miterlimit="10" cx="8.333" cy="42.998" r="3.453"/>
<circle fill="none" stroke="#000000" stroke-width="3" stroke-miterlimit="10" cx="71.833" cy="134.493" r="3.453"/>
<g>
	<path d="M135.962,108.449c1.205,1.207,1.572,2.793,0.82,3.545l0,0c-0.752,0.753-2.338,0.385-3.545-0.821l-6.855-6.854
		c-1.205-1.207-1.574-2.793-0.82-3.545l0,0c0.754-0.753,2.338-0.387,3.545,0.821L135.962,108.449z"/>
	<path d="M133.237,101.595c1.207-1.206,2.793-1.574,3.545-0.821l0,0c0.752,0.752,0.385,2.338-0.82,3.545l-6.855,6.854
		c-1.207,1.208-2.791,1.574-3.545,0.821l0,0c-0.754-0.752-0.385-2.338,0.82-3.545L133.237,101.595z"/>
</g>
<g>
	<polygon fill="#73B7AE" points="79.413,32.151 94.063,61.841 126.83,66.603 103.121,89.711 108.717,122.346 79.413,106.936 
		50.101,122.346 55.699,89.711 31.993,66.603 64.758,61.841 	"/>
	<polygon fill="none" stroke="#000000" stroke-width="5" stroke-miterlimit="10" points="70.589,27.654 85.238,57.344 
		118.006,62.106 94.299,85.213 99.893,117.85 70.589,102.438 41.277,117.85 46.876,85.213 23.17,62.106 55.935,57.344 	"/>
</g>
</svg>
