<?xml version="1.0" encoding="utf-8"?>
<!-- Generator: Adobe Illustrator 16.0.0, SVG Export Plug-In . SVG Version: 6.00 Build 0)  -->
<!DOCTYPE svg PUBLIC "-//W3C//DTD SVG 1.1//EN" "http://www.w3.org/Graphics/SVG/1.1/DTD/svg11.dtd">
<svg version="1.1" id="Layer_1" xmlns="http://www.w3.org/2000/svg" xmlns:xlink="http://www.w3.org/1999/xlink" x="0px" y="0px"
	 width="110px" height="110px" viewBox="0 0 110 110" enable-background="new 0 0 110 110" xml:space="preserve">
<circle fill="none" stroke="#000000" stroke-width="5" stroke-miterlimit="10" cx="55" cy="54.999" r="52.298"/>
<path fill="#497060" d="M75.843,79.435c0,1.971-1.694,3.57-3.785,3.57H46.342c-2.089,0-3.785-1.6-3.785-3.57V55.171
	c0-1.973,1.696-3.576,3.785-3.576h25.716c2.091,0,3.785,1.604,3.785,3.576V79.435z"/>
<g>
	<path fill="none" stroke="#000000" stroke-width="3.993" stroke-miterlimit="10" d="M66.864,47.433V37.292
		c0,0-0.471-2.619-1.377-3.779c-0.907-1.158-2.752-1.758-2.752-1.758h-8.092h-8.09c0,0-1.848,0.6-2.752,1.758
		c-0.906,1.16-1.379,3.779-1.379,3.779v10.141"/>
	<path fill="none" stroke="#000000" stroke-width="3.993" stroke-miterlimit="10" d="M71.287,74.919c0,1.973-1.694,3.57-3.786,3.57
		H41.786c-2.09,0-3.785-1.598-3.785-3.57V50.655c0-1.973,1.695-3.574,3.785-3.574h25.715c2.092,0,3.786,1.602,3.786,3.574V74.919z"
		/>
	<path fill="none" stroke="#000000" stroke-width="1.9965" stroke-miterlimit="10" d="M59.075,69.3L55.8,62.974
		c1.023-0.49,1.742-1.625,1.742-2.943c0-1.771-1.287-3.205-2.873-3.205c-1.59,0-2.875,1.434-2.875,3.205
		c0,1.305,0.701,2.424,1.705,2.924L50.212,69.3H59.075z"/>
</g>
</svg>
